<?xml version="1.0" encoding="utf-8" standalone="no"?>
<!DOCTYPE svg PUBLIC "-//W3C//DTD SVG 1.1//EN"
  "http://www.w3.org/Graphics/SVG/1.1/DTD/svg11.dtd">
<svg xmlns:xlink="http://www.w3.org/1999/xlink" width="460.8pt" height="345.6pt" viewBox="0 0 460.8 345.6" xmlns="http://www.w3.org/2000/svg" version="1.1">
 <metadata>
  <rdf:RDF xmlns:dc="http://purl.org/dc/elements/1.1/" xmlns:cc="http://creativecommons.org/ns#" xmlns:rdf="http://www.w3.org/1999/02/22-rdf-syntax-ns#">
   <cc:Work>
    <dc:type rdf:resource="http://purl.org/dc/dcmitype/StillImage"/>
    <dc:date>2024-01-30T18:00:00.946313</dc:date>
    <dc:format>image/svg+xml</dc:format>
    <dc:creator>
     <cc:Agent>
      <dc:title>Matplotlib v3.6.3, https://matplotlib.org/</dc:title>
     </cc:Agent>
    </dc:creator>
   </cc:Work>
  </rdf:RDF>
 </metadata>
 <defs>
  <style type="text/css">*{stroke-linejoin: round; stroke-linecap: butt}</style>
 </defs>
 <g id="figure_1">
  <g id="patch_1">
   <path d="M 0 345.6 
L 460.8 345.6 
L 460.8 0 
L 0 0 
z
" style="fill: #ffffff"/>
  </g>
  <g id="axes_1">
   <g id="patch_2">
    <path d="M 57.6 307.584 
L 414.72 307.584 
L 414.72 41.472 
L 57.6 41.472 
z
" style="fill: #ffffff"/>
   </g>
   <g id="PolyCollection_1">
    <defs>
     <path id="m86533e93cd" d="M 103.989863 -50.112 
L 100.490137 -50.112 
L 96.464065 -52.555636 
L 89.900202 -54.999273 
L 84.820331 -57.442909 
L 85.220196 -59.886545 
L 89.479933 -62.330182 
L 93.437142 -64.773818 
L 95.649748 -67.217455 
L 96.820739 -69.661091 
L 97.602119 -72.104727 
L 98.168827 -74.548364 
L 98.518115 -76.992 
L 98.702368 -79.435636 
L 98.878219 -81.879273 
L 99.154713 -84.322909 
L 99.480488 -86.766545 
L 99.733987 -89.210182 
L 99.875458 -91.653818 
L 99.974263 -94.097455 
L 100.107263 -96.541091 
L 100.28886 -98.984727 
L 100.487536 -101.428364 
L 100.649871 -103.872 
L 100.737233 -106.315636 
L 100.771735 -108.759273 
L 100.808086 -111.202909 
L 100.869558 -113.646545 
L 100.935651 -116.090182 
L 100.973134 -118.533818 
L 100.983057 -120.977455 
L 101.00691 -123.421091 
L 101.064247 -125.864727 
L 101.130706 -128.308364 
L 101.194336 -130.752 
L 101.278178 -133.195636 
L 101.403291 -135.639273 
L 101.558247 -138.082909 
L 101.705558 -140.526545 
L 101.816131 -142.970182 
L 101.887667 -145.413818 
L 101.933396 -147.857455 
L 101.973242 -150.301091 
L 102.023691 -152.744727 
L 102.081709 -155.188364 
L 102.130454 -157.632 
L 102.16189 -160.075636 
L 102.183736 -162.519273 
L 102.204422 -164.962909 
L 102.222511 -167.406545 
L 102.233726 -169.850182 
L 102.238413 -172.293818 
L 102.239724 -174.737455 
L 102.239967 -177.181091 
L 102.239994 -179.624727 
L 102.239961 -182.068364 
L 102.239741 -184.512 
L 102.238877 -186.955636 
L 102.236841 -189.399273 
L 102.234216 -191.842909 
L 102.233086 -194.286545 
L 102.234599 -196.730182 
L 102.237246 -199.173818 
L 102.239087 -201.617455 
L 102.239804 -204.061091 
L 102.239973 -206.504727 
L 102.239998 -208.948364 
L 102.24 -211.392 
L 102.24 -213.835636 
L 102.239993 -216.279273 
L 102.239938 -218.722909 
L 102.239642 -221.166545 
L 102.238652 -223.610182 
L 102.236645 -226.053818 
L 102.234366 -228.497455 
L 102.233504 -230.941091 
L 102.234827 -233.384727 
L 102.237181 -235.828364 
L 102.238968 -238.272 
L 102.239752 -240.715636 
L 102.239961 -243.159273 
L 102.239996 -245.602909 
L 102.24 -248.046545 
L 102.239997 -250.490182 
L 102.239967 -252.933818 
L 102.239792 -255.377455 
L 102.239164 -257.821091 
L 102.237883 -260.264727 
L 102.236617 -262.708364 
L 102.23659 -265.152 
L 102.237831 -267.595636 
L 102.239129 -270.039273 
L 102.23977 -272.482909 
L 102.239883 -274.926545 
L 102.239576 -277.370182 
L 102.238638 -279.813818 
L 102.237214 -282.257455 
L 102.236404 -284.701091 
L 102.237073 -287.144727 
L 102.238497 -289.588364 
L 102.239513 -292.032 
L 102.240487 -292.032 
L 102.240487 -292.032 
L 102.241503 -289.588364 
L 102.242927 -287.144727 
L 102.243596 -284.701091 
L 102.242786 -282.257455 
L 102.241362 -279.813818 
L 102.240424 -277.370182 
L 102.240117 -274.926545 
L 102.24023 -272.482909 
L 102.240871 -270.039273 
L 102.242169 -267.595636 
L 102.24341 -265.152 
L 102.243383 -262.708364 
L 102.242117 -260.264727 
L 102.240836 -257.821091 
L 102.240208 -255.377455 
L 102.240033 -252.933818 
L 102.240003 -250.490182 
L 102.24 -248.046545 
L 102.240004 -245.602909 
L 102.240039 -243.159273 
L 102.240248 -240.715636 
L 102.241032 -238.272 
L 102.242819 -235.828364 
L 102.245173 -233.384727 
L 102.246496 -230.941091 
L 102.245634 -228.497455 
L 102.243355 -226.053818 
L 102.241348 -223.610182 
L 102.240358 -221.166545 
L 102.240062 -218.722909 
L 102.240007 -216.279273 
L 102.24 -213.835636 
L 102.24 -211.392 
L 102.240002 -208.948364 
L 102.240027 -206.504727 
L 102.240196 -204.061091 
L 102.240913 -201.617455 
L 102.242754 -199.173818 
L 102.245401 -196.730182 
L 102.246914 -194.286545 
L 102.245784 -191.842909 
L 102.243159 -189.399273 
L 102.241123 -186.955636 
L 102.240259 -184.512 
L 102.240039 -182.068364 
L 102.240006 -179.624727 
L 102.240033 -177.181091 
L 102.240276 -174.737455 
L 102.241587 -172.293818 
L 102.246274 -169.850182 
L 102.257489 -167.406545 
L 102.275578 -164.962909 
L 102.296264 -162.519273 
L 102.31811 -160.075636 
L 102.349546 -157.632 
L 102.398291 -155.188364 
L 102.456309 -152.744727 
L 102.506758 -150.301091 
L 102.546604 -147.857455 
L 102.592333 -145.413818 
L 102.663869 -142.970182 
L 102.774442 -140.526545 
L 102.921753 -138.082909 
L 103.076709 -135.639273 
L 103.201822 -133.195636 
L 103.285664 -130.752 
L 103.349294 -128.308364 
L 103.415753 -125.864727 
L 103.47309 -123.421091 
L 103.496943 -120.977455 
L 103.506866 -118.533818 
L 103.544349 -116.090182 
L 103.610442 -113.646545 
L 103.671914 -111.202909 
L 103.708265 -108.759273 
L 103.742767 -106.315636 
L 103.830129 -103.872 
L 103.992464 -101.428364 
L 104.19114 -98.984727 
L 104.372737 -96.541091 
L 104.505737 -94.097455 
L 104.604542 -91.653818 
L 104.746013 -89.210182 
L 104.999512 -86.766545 
L 105.325287 -84.322909 
L 105.601781 -81.879273 
L 105.777632 -79.435636 
L 105.961885 -76.992 
L 106.311173 -74.548364 
L 106.877881 -72.104727 
L 107.659261 -69.661091 
L 108.830252 -67.217455 
L 111.042858 -64.773818 
L 115.000067 -62.330182 
L 119.259804 -59.886545 
L 119.659669 -57.442909 
L 114.579798 -54.999273 
L 108.015935 -52.555636 
L 103.989863 -50.112 
z
" style="stroke: #3d3d3d; stroke-width: 1.5"/>
    </defs>
    <g clip-path="url(#pc3eac3cd11)">
     <use xlink:href="#m86533e93cd" x="0" y="345.6" style="fill: #3274a1; stroke: #3d3d3d; stroke-width: 1.5"/>
    </g>
   </g>
   <g id="PolyCollection_2">
    <defs>
     <path id="m048c888487" d="M 195.169288 -52.949966 
L 187.870712 -52.949966 
L 177.094386 -54.730251 
L 161.118805 -56.510536 
L 155.808 -58.290821 
L 164.863662 -60.071106 
L 174.220114 -61.851391 
L 178.494594 -63.631676 
L 181.040575 -65.411961 
L 183.346012 -67.192246 
L 185.177582 -68.97253 
L 186.37356 -70.752815 
L 187.104787 -72.5331 
L 187.553745 -74.313385 
L 187.841516 -76.09367 
L 188.15609 -77.873955 
L 188.62832 -79.65424 
L 189.238023 -81.434525 
L 189.877141 -83.21481 
L 190.37997 -84.995095 
L 190.676634 -86.77538 
L 190.85515 -88.555665 
L 190.987582 -90.33595 
L 191.068408 -92.116235 
L 191.13695 -93.89652 
L 191.252824 -95.676805 
L 191.368289 -97.457089 
L 191.425495 -99.237374 
L 191.440772 -101.017659 
L 191.434312 -102.797944 
L 191.416935 -104.578229 
L 191.40461 -106.358514 
L 191.396338 -108.138799 
L 191.378219 -109.919084 
L 191.361975 -111.699369 
L 191.368443 -113.479654 
L 191.379182 -115.259939 
L 191.377282 -117.040224 
L 191.374546 -118.820509 
L 191.379845 -120.600794 
L 191.387399 -122.381079 
L 191.391392 -124.161364 
L 191.387073 -125.941649 
L 191.375854 -127.721933 
L 191.375693 -129.502218 
L 191.388464 -131.282503 
L 191.403965 -133.062788 
L 191.42726 -134.843073 
L 191.452741 -136.623358 
L 191.474242 -138.403643 
L 191.493472 -140.183928 
L 191.504499 -141.964213 
L 191.499824 -143.744498 
L 191.483361 -145.524783 
L 191.469229 -147.305068 
L 191.466812 -149.085353 
L 191.470617 -150.865638 
L 191.474402 -152.645923 
L 191.479302 -154.426208 
L 191.479842 -156.206492 
L 191.478335 -157.986777 
L 191.482836 -159.767062 
L 191.484639 -161.547347 
L 191.480402 -163.327632 
L 191.48245 -165.107917 
L 191.495718 -166.888202 
L 191.508847 -168.668487 
L 191.510872 -170.448772 
L 191.504065 -172.229057 
L 191.498923 -174.009342 
L 191.501874 -175.789627 
L 191.50822 -177.569912 
L 191.508787 -179.350197 
L 191.504036 -181.130482 
L 191.500402 -182.910767 
L 191.497696 -184.691051 
L 191.493381 -186.471336 
L 191.492156 -188.251621 
L 191.501041 -190.031906 
L 191.512828 -191.812191 
L 191.518562 -193.592476 
L 191.519744 -195.372761 
L 191.519043 -197.153046 
L 191.515682 -198.933331 
L 191.50991 -200.713616 
L 191.507889 -202.493901 
L 191.512533 -204.274186 
L 191.517635 -206.054471 
L 191.519615 -207.834756 
L 191.519968 -209.615041 
L 191.519999 -211.395326 
L 191.52 -213.175611 
L 191.52 -214.955895 
L 191.519988 -216.73618 
L 191.519815 -218.516465 
L 191.518587 -220.29675 
L 191.514464 -222.077035 
L 191.508861 -223.85732 
L 191.508486 -225.637605 
L 191.513887 -227.41789 
L 191.518333 -229.198175 
L 191.521667 -229.198175 
L 191.521667 -229.198175 
L 191.526113 -227.41789 
L 191.531514 -225.637605 
L 191.531139 -223.85732 
L 191.525536 -222.077035 
L 191.521413 -220.29675 
L 191.520185 -218.516465 
L 191.520012 -216.73618 
L 191.52 -214.955895 
L 191.52 -213.175611 
L 191.520001 -211.395326 
L 191.520032 -209.615041 
L 191.520385 -207.834756 
L 191.522365 -206.054471 
L 191.527467 -204.274186 
L 191.532111 -202.493901 
L 191.53009 -200.713616 
L 191.524318 -198.933331 
L 191.520957 -197.153046 
L 191.520256 -195.372761 
L 191.521438 -193.592476 
L 191.527172 -191.812191 
L 191.538959 -190.031906 
L 191.547844 -188.251621 
L 191.546619 -186.471336 
L 191.542304 -184.691051 
L 191.539598 -182.910767 
L 191.535964 -181.130482 
L 191.531213 -179.350197 
L 191.53178 -177.569912 
L 191.538126 -175.789627 
L 191.541077 -174.009342 
L 191.535935 -172.229057 
L 191.529128 -170.448772 
L 191.531153 -168.668487 
L 191.544282 -166.888202 
L 191.55755 -165.107917 
L 191.559598 -163.327632 
L 191.555361 -161.547347 
L 191.557164 -159.767062 
L 191.561665 -157.986777 
L 191.560158 -156.206492 
L 191.560698 -154.426208 
L 191.565598 -152.645923 
L 191.569383 -150.865638 
L 191.573188 -149.085353 
L 191.570771 -147.305068 
L 191.556639 -145.524783 
L 191.540176 -143.744498 
L 191.535501 -141.964213 
L 191.546528 -140.183928 
L 191.565758 -138.403643 
L 191.587259 -136.623358 
L 191.61274 -134.843073 
L 191.636035 -133.062788 
L 191.651536 -131.282503 
L 191.664307 -129.502218 
L 191.664146 -127.721933 
L 191.652927 -125.941649 
L 191.648608 -124.161364 
L 191.652601 -122.381079 
L 191.660155 -120.600794 
L 191.665454 -118.820509 
L 191.662718 -117.040224 
L 191.660818 -115.259939 
L 191.671557 -113.479654 
L 191.678025 -111.699369 
L 191.661781 -109.919084 
L 191.643662 -108.138799 
L 191.63539 -106.358514 
L 191.623065 -104.578229 
L 191.605688 -102.797944 
L 191.599228 -101.017659 
L 191.614505 -99.237374 
L 191.671711 -97.457089 
L 191.787176 -95.676805 
L 191.90305 -93.89652 
L 191.971592 -92.116235 
L 192.052418 -90.33595 
L 192.18485 -88.555665 
L 192.363366 -86.77538 
L 192.66003 -84.995095 
L 193.162859 -83.21481 
L 193.801977 -81.434525 
L 194.41168 -79.65424 
L 194.88391 -77.873955 
L 195.198484 -76.09367 
L 195.486255 -74.313385 
L 195.935213 -72.5331 
L 196.66644 -70.752815 
L 197.862418 -68.97253 
L 199.693988 -67.192246 
L 201.999425 -65.411961 
L 204.545406 -63.631676 
L 208.819886 -61.851391 
L 218.176338 -60.071106 
L 227.232 -58.290821 
L 221.921195 -56.510536 
L 205.945614 -54.730251 
L 195.169288 -52.949966 
z
" style="stroke: #3d3d3d; stroke-width: 1.5"/>
    </defs>
    <g clip-path="url(#pc3eac3cd11)">
     <use xlink:href="#m048c888487" x="0" y="345.6" style="fill: #e1812c; stroke: #3d3d3d; stroke-width: 1.5"/>
    </g>
   </g>
   <g id="PolyCollection_3">
    <defs>
     <path id="m625a85437c" d="M 280.821874 -52.945231 
L 280.778126 -52.945231 
L 280.703266 -55.23322 
L 280.478919 -57.521209 
L 279.981627 -59.809198 
L 279.151797 -62.097187 
L 278.079368 -64.385176 
L 276.957704 -66.673165 
L 275.954623 -68.961154 
L 275.155175 -71.249143 
L 274.599043 -73.537132 
L 274.280927 -75.825121 
L 274.059789 -78.11311 
L 273.704658 -80.401099 
L 273.131923 -82.689088 
L 272.466532 -84.977077 
L 271.893724 -87.265066 
L 271.629644 -89.553055 
L 271.889849 -91.841044 
L 272.636463 -94.129033 
L 273.511011 -96.417022 
L 274.213609 -98.705011 
L 274.783825 -100.993 
L 275.413135 -103.280989 
L 276.150526 -105.568978 
L 276.871408 -107.856967 
L 277.44616 -110.144956 
L 277.854267 -112.432945 
L 278.166161 -114.720934 
L 278.481992 -117.008923 
L 278.852228 -119.296912 
L 279.228911 -121.584901 
L 279.529457 -123.87289 
L 279.733226 -126.160879 
L 279.880328 -128.448868 
L 279.999239 -130.736857 
L 280.080604 -133.024846 
L 280.12234 -135.312835 
L 280.164382 -137.600824 
L 280.25399 -139.888813 
L 280.385838 -142.176802 
L 280.506454 -144.464791 
L 280.57758 -146.75278 
L 280.605887 -149.040769 
L 280.616528 -151.328758 
L 280.624193 -153.616747 
L 280.629108 -155.904736 
L 280.628076 -158.192725 
L 280.624824 -160.480714 
L 280.629079 -162.768703 
L 280.646388 -165.056692 
L 280.671918 -167.344681 
L 280.694027 -169.63267 
L 280.703277 -171.920659 
L 280.700209 -174.208648 
L 280.692764 -176.496637 
L 280.686876 -178.784626 
L 280.685031 -181.072615 
L 280.691617 -183.360604 
L 280.709452 -185.648593 
L 280.731952 -187.936582 
L 280.749888 -190.224571 
L 280.761391 -192.51256 
L 280.768071 -194.800549 
L 280.770459 -197.088538 
L 280.769704 -199.376527 
L 280.767133 -201.664516 
L 280.763689 -203.952505 
L 280.762247 -206.240494 
L 280.766896 -208.528483 
L 280.777355 -210.816472 
L 280.787307 -213.104461 
L 280.790559 -215.39245 
L 280.786436 -217.680439 
L 280.77947 -219.968428 
L 280.775235 -222.256417 
L 280.775382 -224.544406 
L 280.776974 -226.832395 
L 280.776508 -229.120384 
L 280.772944 -231.408373 
L 280.767517 -233.696362 
L 280.762548 -235.984351 
L 280.760029 -238.27234 
L 280.76006 -240.560329 
L 280.760335 -242.848318 
L 280.758726 -245.136307 
L 280.757243 -247.424296 
L 280.7607 -249.712285 
L 280.770047 -252.000274 
L 280.780384 -254.288263 
L 280.786908 -256.576252 
L 280.788663 -258.864241 
L 280.786412 -261.15223 
L 280.78185 -263.440219 
L 280.778667 -265.728208 
L 280.779875 -268.016197 
L 280.784599 -270.304186 
L 280.790037 -272.592175 
L 280.794556 -274.880164 
L 280.797634 -277.168153 
L 280.799238 -279.456142 
L 280.800762 -279.456142 
L 280.800762 -279.456142 
L 280.802366 -277.168153 
L 280.805444 -274.880164 
L 280.809963 -272.592175 
L 280.815401 -270.304186 
L 280.820125 -268.016197 
L 280.821333 -265.728208 
L 280.81815 -263.440219 
L 280.813588 -261.15223 
L 280.811337 -258.864241 
L 280.813092 -256.576252 
L 280.819616 -254.288263 
L 280.829953 -252.000274 
L 280.8393 -249.712285 
L 280.842757 -247.424296 
L 280.841274 -245.136307 
L 280.839665 -242.848318 
L 280.83994 -240.560329 
L 280.839971 -238.27234 
L 280.837452 -235.984351 
L 280.832483 -233.696362 
L 280.827056 -231.408373 
L 280.823492 -229.120384 
L 280.823026 -226.832395 
L 280.824618 -224.544406 
L 280.824765 -222.256417 
L 280.82053 -219.968428 
L 280.813564 -217.680439 
L 280.809441 -215.39245 
L 280.812693 -213.104461 
L 280.822645 -210.816472 
L 280.833104 -208.528483 
L 280.837753 -206.240494 
L 280.836311 -203.952505 
L 280.832867 -201.664516 
L 280.830296 -199.376527 
L 280.829541 -197.088538 
L 280.831929 -194.800549 
L 280.838609 -192.51256 
L 280.850112 -190.224571 
L 280.868048 -187.936582 
L 280.890548 -185.648593 
L 280.908383 -183.360604 
L 280.914969 -181.072615 
L 280.913124 -178.784626 
L 280.907236 -176.496637 
L 280.899791 -174.208648 
L 280.896723 -171.920659 
L 280.905973 -169.63267 
L 280.928082 -167.344681 
L 280.953612 -165.056692 
L 280.970921 -162.768703 
L 280.975176 -160.480714 
L 280.971924 -158.192725 
L 280.970892 -155.904736 
L 280.975807 -153.616747 
L 280.983472 -151.328758 
L 280.994113 -149.040769 
L 281.02242 -146.75278 
L 281.093546 -144.464791 
L 281.214162 -142.176802 
L 281.34601 -139.888813 
L 281.435618 -137.600824 
L 281.47766 -135.312835 
L 281.519396 -133.024846 
L 281.600761 -130.736857 
L 281.719672 -128.448868 
L 281.866774 -126.160879 
L 282.070543 -123.87289 
L 282.371089 -121.584901 
L 282.747772 -119.296912 
L 283.118008 -117.008923 
L 283.433839 -114.720934 
L 283.745733 -112.432945 
L 284.15384 -110.144956 
L 284.728592 -107.856967 
L 285.449474 -105.568978 
L 286.186865 -103.280989 
L 286.816175 -100.993 
L 287.386391 -98.705011 
L 288.088989 -96.417022 
L 288.963537 -94.129033 
L 289.710151 -91.841044 
L 289.970356 -89.553055 
L 289.706276 -87.265066 
L 289.133468 -84.977077 
L 288.468077 -82.689088 
L 287.895342 -80.401099 
L 287.540211 -78.11311 
L 287.319073 -75.825121 
L 287.000957 -73.537132 
L 286.444825 -71.249143 
L 285.645377 -68.961154 
L 284.642296 -66.673165 
L 283.520632 -64.385176 
L 282.448203 -62.097187 
L 281.618373 -59.809198 
L 281.121081 -57.521209 
L 280.896734 -55.23322 
L 280.821874 -52.945231 
z
" style="stroke: #3d3d3d; stroke-width: 1.5"/>
    </defs>
    <g clip-path="url(#pc3eac3cd11)">
     <use xlink:href="#m625a85437c" x="0" y="345.6" style="fill: #3a923a; stroke: #3d3d3d; stroke-width: 1.5"/>
    </g>
   </g>
   <g id="PolyCollection_4">
    <defs>
     <path id="mb295e673bc" d="M 370.099812 -52.8712 
L 370.060188 -52.8712 
L 370.023286 -54.668652 
L 369.941753 -56.466105 
L 369.790033 -58.263557 
L 369.548523 -60.061009 
L 369.20981 -61.858461 
L 368.77097 -63.655913 
L 368.217029 -65.453366 
L 367.518281 -67.250818 
L 366.656336 -69.04827 
L 365.661233 -70.845722 
L 364.622593 -72.643174 
L 363.659122 -74.440627 
L 362.871711 -76.238079 
L 362.318075 -78.035531 
L 362.016232 -79.832983 
L 361.95181 -81.630435 
L 362.076025 -83.427887 
L 362.314838 -85.22534 
L 362.603086 -87.022792 
L 362.914041 -88.820244 
L 363.249055 -90.617696 
L 363.600925 -92.415148 
L 363.935753 -94.212601 
L 364.210929 -96.010053 
L 364.40713 -97.807505 
L 364.545702 -99.604957 
L 364.681587 -101.402409 
L 364.878798 -103.199862 
L 365.180716 -104.997314 
L 365.587964 -106.794766 
L 366.056764 -108.592218 
L 366.522315 -110.38967 
L 366.932718 -112.187123 
L 367.268086 -113.984575 
L 367.532923 -115.782027 
L 367.7345 -117.579479 
L 367.869934 -119.376931 
L 367.932287 -121.174383 
L 367.926463 -122.971836 
L 367.878159 -124.769288 
L 367.828021 -126.56674 
L 367.816485 -128.364192 
L 367.869612 -130.161644 
L 367.99229 -131.959097 
L 368.169958 -133.756549 
L 368.377058 -135.554001 
L 368.588243 -137.351453 
L 368.786573 -139.148905 
L 368.964486 -140.946358 
L 369.119364 -142.74381 
L 369.249814 -144.541262 
L 369.355679 -146.338714 
L 369.439095 -148.136166 
L 369.503501 -149.933619 
L 369.55146 -151.731071 
L 369.584005 -153.528523 
L 369.602556 -155.325975 
L 369.61161 -157.123427 
L 369.619125 -158.920879 
L 369.633456 -160.718332 
L 369.65955 -162.515784 
L 369.697628 -164.313236 
L 369.744306 -166.110688 
L 369.794156 -167.90814 
L 369.841272 -169.705593 
L 369.881061 -171.503045 
L 369.911242 -173.300497 
L 369.931389 -175.097949 
L 369.941947 -176.895401 
L 369.943804 -178.692854 
L 369.938389 -180.490306 
L 369.927897 -182.287758 
L 369.915385 -184.08521 
L 369.904401 -185.882662 
L 369.898204 -187.680115 
L 369.899307 -189.477567 
L 369.909284 -191.275019 
L 369.927857 -193.072471 
L 369.951731 -194.869923 
L 369.975391 -196.667375 
L 369.994233 -198.464828 
L 370.007039 -200.26228 
L 370.015382 -202.059732 
L 370.021169 -203.857184 
L 370.025176 -205.654636 
L 370.027576 -207.452089 
L 370.029166 -209.249541 
L 370.031636 -211.046993 
L 370.036452 -212.844445 
L 370.043501 -214.641897 
L 370.051032 -216.43935 
L 370.057132 -218.236802 
L 370.061248 -220.034254 
L 370.064281 -221.831706 
L 370.0674 -223.629158 
L 370.070947 -225.426611 
L 370.074399 -227.224063 
L 370.077078 -229.021515 
L 370.078728 -230.818967 
L 370.081272 -230.818967 
L 370.081272 -230.818967 
L 370.082922 -229.021515 
L 370.085601 -227.224063 
L 370.089053 -225.426611 
L 370.0926 -223.629158 
L 370.095719 -221.831706 
L 370.098752 -220.034254 
L 370.102868 -218.236802 
L 370.108968 -216.43935 
L 370.116499 -214.641897 
L 370.123548 -212.844445 
L 370.128364 -211.046993 
L 370.130834 -209.249541 
L 370.132424 -207.452089 
L 370.134824 -205.654636 
L 370.138831 -203.857184 
L 370.144618 -202.059732 
L 370.152961 -200.26228 
L 370.165767 -198.464828 
L 370.184609 -196.667375 
L 370.208269 -194.869923 
L 370.232143 -193.072471 
L 370.250716 -191.275019 
L 370.260693 -189.477567 
L 370.261796 -187.680115 
L 370.255599 -185.882662 
L 370.244615 -184.08521 
L 370.232103 -182.287758 
L 370.221611 -180.490306 
L 370.216196 -178.692854 
L 370.218053 -176.895401 
L 370.228611 -175.097949 
L 370.248758 -173.300497 
L 370.278939 -171.503045 
L 370.318728 -169.705593 
L 370.365844 -167.90814 
L 370.415694 -166.110688 
L 370.462372 -164.313236 
L 370.50045 -162.515784 
L 370.526544 -160.718332 
L 370.540875 -158.920879 
L 370.54839 -157.123427 
L 370.557444 -155.325975 
L 370.575995 -153.528523 
L 370.60854 -151.731071 
L 370.656499 -149.933619 
L 370.720905 -148.136166 
L 370.804321 -146.338714 
L 370.910186 -144.541262 
L 371.040636 -142.74381 
L 371.195514 -140.946358 
L 371.373427 -139.148905 
L 371.571757 -137.351453 
L 371.782942 -135.554001 
L 371.990042 -133.756549 
L 372.16771 -131.959097 
L 372.290388 -130.161644 
L 372.343515 -128.364192 
L 372.331979 -126.56674 
L 372.281841 -124.769288 
L 372.233537 -122.971836 
L 372.227713 -121.174383 
L 372.290066 -119.376931 
L 372.4255 -117.579479 
L 372.627077 -115.782027 
L 372.891914 -113.984575 
L 373.227282 -112.187123 
L 373.637685 -110.38967 
L 374.103236 -108.592218 
L 374.572036 -106.794766 
L 374.979284 -104.997314 
L 375.281202 -103.199862 
L 375.478413 -101.402409 
L 375.614298 -99.604957 
L 375.75287 -97.807505 
L 375.949071 -96.010053 
L 376.224247 -94.212601 
L 376.559075 -92.415148 
L 376.910945 -90.617696 
L 377.245959 -88.820244 
L 377.556914 -87.022792 
L 377.845162 -85.22534 
L 378.083975 -83.427887 
L 378.20819 -81.630435 
L 378.143768 -79.832983 
L 377.841925 -78.035531 
L 377.288289 -76.238079 
L 376.500878 -74.440627 
L 375.537407 -72.643174 
L 374.498767 -70.845722 
L 373.503664 -69.04827 
L 372.641719 -67.250818 
L 371.942971 -65.453366 
L 371.38903 -63.655913 
L 370.95019 -61.858461 
L 370.611477 -60.061009 
L 370.369967 -58.263557 
L 370.218247 -56.466105 
L 370.136714 -54.668652 
L 370.099812 -52.8712 
z
" style="stroke: #3d3d3d; stroke-width: 1.5"/>
    </defs>
    <g clip-path="url(#pc3eac3cd11)">
     <use xlink:href="#mb295e673bc" x="0" y="345.6" style="fill: #c03d3e; stroke: #3d3d3d; stroke-width: 1.5"/>
    </g>
   </g>
   <g id="matplotlib.axis_1">
    <g id="xtick_1">
     <g id="line2d_1">
      <defs>
       <path id="me9e9e48c94" d="M 0 0 
L 0 3.5 
" style="stroke: #000000; stroke-width: 0.8"/>
      </defs>
      <g>
       <use xlink:href="#me9e9e48c94" x="102.24" y="307.584" style="stroke: #000000; stroke-width: 0.8"/>
      </g>
     </g>
     <g id="text_1">
      <!-- OceanFloor -->
      <g transform="translate(78.634531 321.413687) scale(0.1 -0.1)">
       <defs>
        <path id="STIXGeneral-Regular-4f" d="M 4403 2118 
Q 4403 1133 3820 521 
Q 3238 -90 2310 -90 
Q 1376 -90 797 524 
Q 218 1139 218 2138 
Q 218 3110 797 3718 
Q 1376 4326 2310 4326 
Q 3245 4326 3824 3702 
Q 4403 3078 4403 2118 
z
M 3674 2157 
Q 3674 2701 3520 3133 
Q 3366 3565 3091 3795 
Q 2733 4096 2304 4096 
Q 1760 4096 1389 3667 
Q 1184 3437 1065 3011 
Q 947 2586 947 2125 
Q 947 960 1523 429 
Q 1837 141 2317 141 
Q 2816 141 3142 448 
Q 3674 960 3674 2157 
z
" transform="scale(0.015625)"/>
        <path id="STIXGeneral-Regular-63" d="M 2547 998 
L 2637 941 
Q 2362 403 2112 205 
Q 1786 -64 1376 -64 
Q 845 -64 502 336 
Q 160 736 160 1357 
Q 160 2170 698 2618 
Q 1094 2944 1562 2944 
Q 1965 2944 2256 2749 
Q 2547 2554 2547 2285 
Q 2547 2176 2457 2096 
Q 2368 2016 2246 2016 
Q 2022 2016 1939 2310 
L 1901 2451 
Q 1850 2630 1773 2694 
Q 1696 2758 1523 2758 
Q 1133 2758 893 2451 
Q 653 2144 653 1645 
Q 653 1094 928 745 
Q 1203 397 1645 397 
Q 1920 397 2118 528 
Q 2317 659 2547 998 
z
" transform="scale(0.015625)"/>
        <path id="STIXGeneral-Regular-65" d="M 2611 1050 
L 2714 1005 
Q 2330 -64 1376 -64 
Q 813 -64 486 329 
Q 160 723 160 1389 
Q 160 2074 525 2509 
Q 890 2944 1485 2944 
Q 2061 2944 2374 2502 
Q 2560 2246 2592 1773 
L 621 1773 
Q 646 1370 700 1158 
Q 755 947 915 730 
Q 1184 378 1626 378 
Q 1939 378 2153 531 
Q 2368 685 2611 1050 
z
M 634 1978 
L 1939 1978 
Q 1882 2381 1750 2547 
Q 1619 2714 1312 2714 
Q 1043 2714 864 2525 
Q 685 2336 634 1978 
z
" transform="scale(0.015625)"/>
        <path id="STIXGeneral-Regular-61" d="M 2829 422 
L 2829 243 
Q 2586 -64 2253 -64 
Q 1888 -64 1843 403 
L 1837 403 
Q 1427 -64 909 -64 
Q 608 -64 422 112 
Q 237 288 237 602 
Q 237 1050 685 1350 
Q 992 1555 1837 1869 
L 1837 2214 
Q 1837 2502 1699 2646 
Q 1562 2790 1338 2790 
Q 1146 2790 1018 2697 
Q 890 2605 890 2477 
Q 890 2419 909 2348 
Q 928 2278 928 2208 
Q 928 2112 841 2029 
Q 755 1946 634 1946 
Q 525 1946 441 2029 
Q 358 2112 358 2240 
Q 358 2547 685 2752 
Q 986 2944 1421 2944 
Q 1939 2944 2176 2656 
Q 2291 2522 2323 2384 
Q 2355 2246 2355 1946 
L 2355 723 
Q 2355 301 2554 301 
Q 2682 301 2829 422 
z
M 1837 813 
L 1837 1715 
Q 1248 1510 1018 1293 
Q 800 1094 800 800 
Q 800 557 921 432 
Q 1043 307 1242 307 
Q 1453 307 1613 410 
Q 1747 506 1792 589 
Q 1837 672 1837 813 
z
" transform="scale(0.015625)"/>
        <path id="STIXGeneral-Regular-6e" d="M 3104 0 
L 1773 0 
L 1779 96 
Q 2016 115 2096 233 
Q 2176 352 2176 672 
L 2176 1946 
Q 2176 2592 1709 2592 
Q 1549 2592 1408 2515 
Q 1267 2438 1050 2227 
L 1050 461 
Q 1050 269 1136 192 
Q 1222 115 1466 96 
L 1466 0 
L 115 0 
L 115 96 
Q 358 115 435 214 
Q 512 314 512 602 
L 512 2157 
Q 512 2394 467 2483 
Q 422 2573 288 2573 
Q 160 2573 102 2547 
L 102 2656 
Q 550 2784 979 2944 
L 1030 2925 
L 1030 2426 
L 1037 2426 
Q 1491 2944 1958 2944 
Q 2323 2944 2518 2688 
Q 2714 2432 2714 1958 
L 2714 544 
Q 2714 288 2790 205 
Q 2867 122 3104 96 
L 3104 0 
z
" transform="scale(0.015625)"/>
        <path id="STIXGeneral-Regular-46" d="M 3494 3322 
L 3334 3322 
Q 3264 3757 3094 3875 
Q 2925 3994 2349 3994 
L 1504 3994 
Q 1370 3994 1328 3946 
Q 1286 3898 1286 3744 
L 1286 2355 
L 2195 2355 
Q 2598 2355 2736 2470 
Q 2874 2586 2918 2963 
L 3066 2963 
L 3066 1472 
L 2918 1472 
Q 2880 1862 2745 1977 
Q 2611 2093 2195 2093 
L 1286 2093 
L 1286 717 
Q 1286 352 1392 246 
Q 1498 141 1869 122 
L 1869 0 
L 70 0 
L 70 122 
Q 435 147 534 259 
Q 634 371 634 787 
L 634 3526 
Q 634 3878 538 3984 
Q 442 4090 77 4115 
L 77 4237 
L 3462 4237 
L 3494 3322 
z
" transform="scale(0.015625)"/>
        <path id="STIXGeneral-Regular-6c" d="M 1645 0 
L 134 0 
L 134 96 
Q 435 122 531 221 
Q 627 320 627 589 
L 627 3590 
Q 627 3821 569 3910 
Q 512 4000 358 4000 
Q 224 4000 122 3987 
L 122 4090 
Q 730 4237 1133 4371 
L 1165 4346 
L 1165 557 
Q 1165 288 1254 201 
Q 1344 115 1645 96 
L 1645 0 
z
" transform="scale(0.015625)"/>
        <path id="STIXGeneral-Regular-6f" d="M 3008 1478 
Q 3008 806 2608 371 
Q 2208 -64 1568 -64 
Q 979 -64 582 368 
Q 186 800 186 1459 
Q 186 2125 582 2534 
Q 979 2944 1626 2944 
Q 2221 2944 2614 2537 
Q 3008 2131 3008 1478 
z
M 2432 1306 
Q 2432 2035 2112 2445 
Q 1856 2765 1504 2765 
Q 1171 2765 966 2493 
Q 762 2221 762 1747 
Q 762 928 1101 435 
Q 1318 115 1677 115 
Q 2029 115 2230 432 
Q 2432 749 2432 1306 
z
" transform="scale(0.015625)"/>
        <path id="STIXGeneral-Regular-72" d="M 1024 2931 
L 1024 2342 
Q 1267 2688 1430 2816 
Q 1594 2944 1792 2944 
Q 1958 2944 2051 2854 
Q 2144 2765 2144 2605 
Q 2144 2470 2077 2393 
Q 2010 2317 1894 2317 
Q 1773 2317 1638 2445 
Q 1536 2541 1472 2541 
Q 1338 2541 1181 2355 
Q 1024 2170 1024 2016 
L 1024 576 
Q 1024 301 1133 205 
Q 1242 109 1568 96 
L 1568 0 
L 32 0 
L 32 96 
Q 339 154 412 224 
Q 486 294 486 538 
L 486 2138 
Q 486 2349 438 2435 
Q 390 2522 269 2522 
Q 166 2522 45 2496 
L 45 2598 
Q 448 2726 992 2944 
L 1024 2931 
z
" transform="scale(0.015625)"/>
       </defs>
       <use xlink:href="#STIXGeneral-Regular-4f"/>
       <use xlink:href="#STIXGeneral-Regular-63" x="72.199982"/>
       <use xlink:href="#STIXGeneral-Regular-65" x="116.599976"/>
       <use xlink:href="#STIXGeneral-Regular-61" x="160.999969"/>
       <use xlink:href="#STIXGeneral-Regular-6e" x="205.399963"/>
       <use xlink:href="#STIXGeneral-Regular-46" x="255.399948"/>
       <use xlink:href="#STIXGeneral-Regular-6c" x="310.999939"/>
       <use xlink:href="#STIXGeneral-Regular-6f" x="338.799927"/>
       <use xlink:href="#STIXGeneral-Regular-6f" x="388.799911"/>
       <use xlink:href="#STIXGeneral-Regular-72" x="438.799896"/>
      </g>
     </g>
    </g>
    <g id="xtick_2">
     <g id="line2d_2">
      <g>
       <use xlink:href="#me9e9e48c94" x="191.52" y="307.584" style="stroke: #000000; stroke-width: 0.8"/>
      </g>
     </g>
     <g id="text_2">
      <!-- SandPipe -->
      <g transform="translate(172.624688 321.413687) scale(0.1 -0.1)">
       <defs>
        <path id="STIXGeneral-Regular-53" d="M 3002 2963 
L 2842 2963 
Q 2733 3360 2579 3565 
Q 2189 4064 1651 4064 
Q 1357 4064 1181 3894 
Q 1005 3725 1005 3456 
Q 1005 3328 1069 3206 
Q 1133 3085 1206 2998 
Q 1280 2912 1465 2784 
Q 1651 2656 1766 2589 
Q 1882 2522 2150 2362 
Q 2669 2061 2905 1763 
Q 3142 1466 3142 1107 
Q 3142 576 2771 243 
Q 2400 -90 1837 -90 
Q 1421 -90 1082 58 
Q 915 128 781 128 
Q 704 128 653 70 
Q 602 13 602 -83 
L 461 -83 
L 275 1274 
L 416 1274 
Q 845 141 1734 141 
Q 2074 141 2285 342 
Q 2496 544 2496 858 
Q 2496 1158 2310 1363 
Q 2003 1696 1235 2106 
Q 454 2522 454 3206 
Q 454 3718 768 4022 
Q 1082 4326 1568 4326 
Q 1907 4326 2240 4186 
Q 2413 4109 2522 4109 
Q 2688 4109 2726 4326 
L 2861 4326 
L 3002 2963 
z
" transform="scale(0.015625)"/>
        <path id="STIXGeneral-Regular-64" d="M 3142 269 
L 2202 -64 
L 2176 -45 
L 2176 365 
Q 1869 -64 1357 -64 
Q 826 -64 499 317 
Q 173 698 173 1312 
Q 173 1990 563 2467 
Q 954 2944 1504 2944 
Q 1850 2944 2176 2669 
L 2176 3667 
Q 2176 3866 2118 3930 
Q 2061 3994 1882 3994 
Q 1792 3994 1741 3987 
L 1741 4090 
Q 2323 4243 2682 4371 
L 2714 4358 
L 2714 730 
Q 2714 506 2768 435 
Q 2822 365 2995 365 
Q 3034 365 3142 371 
L 3142 269 
z
M 2176 653 
L 2176 2125 
Q 2176 2381 1981 2573 
Q 1786 2765 1523 2765 
Q 1158 2765 940 2438 
Q 723 2112 723 1568 
Q 723 979 963 624 
Q 1203 269 1606 269 
Q 1907 269 2080 474 
Q 2176 582 2176 653 
z
" transform="scale(0.015625)"/>
        <path id="STIXGeneral-Regular-50" d="M 102 4237 
L 1760 4237 
Q 2669 4237 3149 3834 
Q 3469 3565 3469 3072 
Q 3469 2560 3104 2234 
Q 2835 1990 2553 1916 
Q 2272 1843 1734 1843 
Q 1549 1843 1293 1862 
L 1293 717 
Q 1293 352 1398 246 
Q 1504 141 1894 122 
L 1894 0 
L 102 0 
L 102 122 
Q 474 147 557 256 
Q 640 365 640 781 
L 640 3526 
Q 640 3885 547 3987 
Q 454 4090 102 4115 
L 102 4237 
z
M 1293 3770 
L 1293 2118 
Q 1510 2099 1683 2099 
Q 2202 2099 2486 2352 
Q 2771 2605 2771 3040 
Q 2771 3558 2476 3779 
Q 2182 4000 1517 4000 
Q 1382 4000 1337 3952 
Q 1293 3904 1293 3770 
z
" transform="scale(0.015625)"/>
        <path id="STIXGeneral-Regular-69" d="M 1152 4045 
Q 1152 3904 1056 3811 
Q 960 3718 819 3718 
Q 685 3718 592 3811 
Q 499 3904 499 4045 
Q 499 4179 595 4275 
Q 691 4371 826 4371 
Q 966 4371 1059 4275 
Q 1152 4179 1152 4045 
z
M 1619 0 
L 102 0 
L 102 96 
Q 435 115 521 211 
Q 608 307 608 666 
L 608 2118 
Q 608 2342 563 2432 
Q 518 2522 397 2522 
Q 243 2522 128 2490 
L 128 2592 
L 1120 2944 
L 1146 2918 
L 1146 672 
Q 1146 314 1226 218 
Q 1306 122 1619 96 
L 1619 0 
z
" transform="scale(0.015625)"/>
        <path id="STIXGeneral-Regular-70" d="M 1018 2931 
L 1018 2438 
Q 1421 2944 1939 2944 
Q 2406 2944 2707 2560 
Q 3008 2176 3008 1581 
Q 3008 883 2621 409 
Q 2234 -64 1664 -64 
Q 1466 -64 1328 -6 
Q 1190 51 1018 211 
L 1018 -794 
Q 1018 -1094 1120 -1180 
Q 1222 -1267 1581 -1274 
L 1581 -1389 
L 32 -1389 
L 32 -1280 
Q 314 -1254 397 -1171 
Q 480 -1088 480 -838 
L 480 2157 
Q 480 2381 429 2451 
Q 378 2522 218 2522 
Q 115 2522 58 2515 
L 58 2618 
Q 506 2752 979 2944 
L 1018 2931 
z
M 1018 2138 
L 1018 563 
Q 1018 422 1238 281 
Q 1459 141 1683 141 
Q 2029 141 2243 467 
Q 2458 794 2458 1325 
Q 2458 1888 2243 2224 
Q 2029 2560 1670 2560 
Q 1446 2560 1232 2419 
Q 1018 2278 1018 2138 
z
" transform="scale(0.015625)"/>
       </defs>
       <use xlink:href="#STIXGeneral-Regular-53"/>
       <use xlink:href="#STIXGeneral-Regular-61" x="55.599991"/>
       <use xlink:href="#STIXGeneral-Regular-6e" x="99.999985"/>
       <use xlink:href="#STIXGeneral-Regular-64" x="149.999969"/>
       <use xlink:href="#STIXGeneral-Regular-50" x="199.999954"/>
       <use xlink:href="#STIXGeneral-Regular-69" x="255.699951"/>
       <use xlink:href="#STIXGeneral-Regular-70" x="283.499939"/>
       <use xlink:href="#STIXGeneral-Regular-65" x="333.499924"/>
      </g>
     </g>
    </g>
    <g id="xtick_3">
     <g id="line2d_3">
      <g>
       <use xlink:href="#me9e9e48c94" x="280.8" y="307.584" style="stroke: #000000; stroke-width: 0.8"/>
      </g>
     </g>
     <g id="text_3">
      <!-- SeaFloor -->
      <g transform="translate(262.745313 321.413687) scale(0.1 -0.1)">
       <use xlink:href="#STIXGeneral-Regular-53"/>
       <use xlink:href="#STIXGeneral-Regular-65" x="55.599991"/>
       <use xlink:href="#STIXGeneral-Regular-61" x="99.999985"/>
       <use xlink:href="#STIXGeneral-Regular-46" x="144.399979"/>
       <use xlink:href="#STIXGeneral-Regular-6c" x="199.999969"/>
       <use xlink:href="#STIXGeneral-Regular-6f" x="227.799957"/>
       <use xlink:href="#STIXGeneral-Regular-6f" x="277.799942"/>
       <use xlink:href="#STIXGeneral-Regular-72" x="327.799927"/>
      </g>
     </g>
    </g>
    <g id="xtick_4">
     <g id="line2d_4">
      <g>
       <use xlink:href="#me9e9e48c94" x="370.08" y="307.584" style="stroke: #000000; stroke-width: 0.8"/>
      </g>
     </g>
     <g id="text_4">
      <!-- SeaFloor_Algae -->
      <g transform="translate(337.584688 321.413687) scale(0.1 -0.1)">
       <defs>
        <path id="STIXGeneral-Regular-5f" d="M 3200 -800 
L 0 -800 
L 0 -480 
L 3200 -480 
L 3200 -800 
z
" transform="scale(0.015625)"/>
        <path id="STIXGeneral-Regular-41" d="M 4525 0 
L 2893 0 
L 2893 122 
Q 3149 122 3245 179 
Q 3334 224 3334 333 
Q 3334 499 3213 781 
L 2950 1382 
L 1274 1382 
L 979 653 
Q 922 506 922 384 
Q 922 237 1027 179 
Q 1133 122 1370 122 
L 1370 0 
L 96 0 
L 96 122 
Q 365 147 486 316 
Q 608 486 902 1190 
L 2221 4314 
L 2349 4314 
L 3923 710 
Q 4064 378 4176 262 
Q 4288 147 4525 122 
L 4525 0 
z
M 2861 1645 
L 2118 3405 
L 1382 1645 
L 2861 1645 
z
" transform="scale(0.015625)"/>
        <path id="STIXGeneral-Regular-67" d="M 3008 2483 
L 2477 2483 
Q 2598 2208 2598 1946 
Q 2598 1453 2265 1203 
Q 1933 954 1600 954 
Q 1530 954 1357 973 
L 1235 986 
Q 1107 947 979 812 
Q 851 678 851 582 
Q 851 435 1350 410 
L 2176 371 
Q 2528 358 2739 172 
Q 2950 -13 2950 -314 
Q 2950 -685 2566 -986 
Q 2035 -1395 1286 -1395 
Q 826 -1395 502 -1212 
Q 179 -1030 179 -774 
Q 179 -595 320 -419 
Q 461 -243 806 6 
Q 602 102 534 172 
Q 467 243 467 346 
Q 467 531 762 787 
Q 909 915 1037 1043 
Q 717 1203 579 1401 
Q 442 1600 442 1901 
Q 442 2336 752 2640 
Q 1062 2944 1510 2944 
Q 1766 2944 2022 2848 
L 2163 2797 
Q 2349 2733 2515 2733 
L 3008 2733 
L 3008 2483 
z
M 973 2163 
L 973 2144 
Q 973 1683 1155 1398 
Q 1338 1114 1632 1114 
Q 1850 1114 1978 1270 
Q 2106 1427 2106 1690 
Q 2106 2112 1914 2464 
Q 1754 2765 1446 2765 
Q 1222 2765 1097 2605 
Q 973 2445 973 2163 
z
M 2771 -410 
Q 2771 -230 2595 -163 
Q 2419 -96 1978 -96 
Q 1344 -96 941 -13 
Q 749 -243 688 -348 
Q 627 -454 627 -563 
Q 627 -774 880 -902 
Q 1133 -1030 1555 -1030 
Q 2099 -1030 2435 -860 
Q 2771 -691 2771 -410 
z
" transform="scale(0.015625)"/>
       </defs>
       <use xlink:href="#STIXGeneral-Regular-53"/>
       <use xlink:href="#STIXGeneral-Regular-65" x="55.599991"/>
       <use xlink:href="#STIXGeneral-Regular-61" x="99.999985"/>
       <use xlink:href="#STIXGeneral-Regular-46" x="144.399979"/>
       <use xlink:href="#STIXGeneral-Regular-6c" x="199.999969"/>
       <use xlink:href="#STIXGeneral-Regular-6f" x="227.799957"/>
       <use xlink:href="#STIXGeneral-Regular-6f" x="277.799942"/>
       <use xlink:href="#STIXGeneral-Regular-72" x="327.799927"/>
       <use xlink:href="#STIXGeneral-Regular-5f" x="361.099915"/>
       <use xlink:href="#STIXGeneral-Regular-41" x="411.099899"/>
       <use xlink:href="#STIXGeneral-Regular-6c" x="483.299881"/>
       <use xlink:href="#STIXGeneral-Regular-67" x="511.099869"/>
       <use xlink:href="#STIXGeneral-Regular-61" x="561.099854"/>
       <use xlink:href="#STIXGeneral-Regular-65" x="605.499847"/>
      </g>
     </g>
    </g>
    <g id="text_5">
     <!-- sequence -->
     <g transform="translate(217.833438 334.423062) scale(0.1 -0.1)">
      <defs>
       <path id="STIXGeneral-Regular-73" d="M 998 1926 
L 1664 1523 
Q 1984 1331 2105 1164 
Q 2227 998 2227 736 
Q 2227 416 1961 176 
Q 1696 -64 1331 -64 
Q 1030 -64 864 -6 
Q 691 51 570 51 
Q 461 51 416 -26 
L 333 -26 
L 333 979 
L 435 979 
Q 538 512 730 294 
Q 922 77 1248 77 
Q 1485 77 1632 211 
Q 1779 346 1779 550 
Q 1779 845 1440 1030 
L 1094 1222 
Q 326 1651 326 2150 
Q 326 2522 566 2730 
Q 806 2938 1210 2938 
Q 1491 2938 1638 2867 
Q 1754 2816 1818 2816 
Q 1862 2816 1920 2880 
L 1990 2880 
L 2022 2010 
L 1926 2010 
Q 1818 2445 1654 2621 
Q 1491 2797 1203 2797 
Q 986 2797 854 2688 
Q 723 2579 723 2362 
Q 723 2253 796 2128 
Q 870 2003 998 1926 
z
" transform="scale(0.015625)"/>
       <path id="STIXGeneral-Regular-71" d="M 3123 -1389 
L 1613 -1389 
L 1613 -1280 
Q 1952 -1254 2067 -1158 
Q 2182 -1062 2182 -794 
L 2182 410 
Q 1747 -64 1178 -64 
Q 730 -64 442 320 
Q 154 704 154 1312 
Q 154 2003 560 2473 
Q 966 2944 1562 2944 
Q 1920 2944 2304 2720 
L 2650 2925 
L 2720 2925 
L 2720 -902 
Q 2720 -1107 2797 -1180 
Q 2874 -1254 3123 -1280 
L 3123 -1389 
z
M 2182 813 
L 2182 2131 
Q 2182 2758 1587 2758 
Q 1178 2758 941 2432 
Q 704 2106 704 1542 
Q 704 1210 803 925 
Q 902 640 1062 499 
Q 1254 326 1542 326 
Q 1882 326 2106 531 
Q 2182 602 2182 813 
z
" transform="scale(0.015625)"/>
       <path id="STIXGeneral-Regular-75" d="M 3072 320 
L 3072 230 
Q 2573 96 2195 -58 
L 2163 -38 
L 2163 486 
L 2150 486 
Q 1747 -64 1235 -64 
Q 870 -64 662 160 
Q 454 384 454 755 
L 454 2362 
Q 454 2598 371 2688 
Q 288 2778 58 2790 
L 58 2880 
L 992 2880 
L 992 813 
Q 992 595 1123 451 
Q 1254 307 1446 307 
Q 1760 307 1984 506 
Q 2067 582 2099 649 
Q 2131 717 2131 877 
L 2131 2355 
Q 2131 2605 2041 2678 
Q 1952 2752 1658 2771 
L 1658 2880 
L 2669 2880 
L 2669 685 
Q 2669 461 2742 390 
Q 2816 320 3034 320 
L 3072 320 
z
" transform="scale(0.015625)"/>
      </defs>
      <use xlink:href="#STIXGeneral-Regular-73"/>
      <use xlink:href="#STIXGeneral-Regular-65" x="38.899994"/>
      <use xlink:href="#STIXGeneral-Regular-71" x="83.299988"/>
      <use xlink:href="#STIXGeneral-Regular-75" x="133.299973"/>
      <use xlink:href="#STIXGeneral-Regular-65" x="183.299957"/>
      <use xlink:href="#STIXGeneral-Regular-6e" x="227.699951"/>
      <use xlink:href="#STIXGeneral-Regular-63" x="277.699936"/>
      <use xlink:href="#STIXGeneral-Regular-65" x="322.09993"/>
     </g>
    </g>
   </g>
   <g id="matplotlib.axis_2">
    <g id="ytick_1">
     <g id="line2d_5">
      <defs>
       <path id="md2518e76e5" d="M 0 0 
L -3.5 0 
" style="stroke: #000000; stroke-width: 0.8"/>
      </defs>
      <g>
       <use xlink:href="#md2518e76e5" x="57.6" y="288.287639" style="stroke: #000000; stroke-width: 0.8"/>
      </g>
     </g>
     <g id="text_6">
      <!-- 0.00 -->
      <g transform="translate(33.1 291.702483) scale(0.1 -0.1)">
       <defs>
        <path id="STIXGeneral-Regular-30" d="M 3046 2112 
Q 3046 1683 2963 1302 
Q 2880 922 2717 602 
Q 2554 282 2266 96 
Q 1978 -90 1600 -90 
Q 1210 -90 915 108 
Q 621 307 461 640 
Q 301 973 227 1350 
Q 154 1728 154 2150 
Q 154 2746 301 3222 
Q 448 3699 790 4012 
Q 1133 4326 1626 4326 
Q 2253 4326 2649 3712 
Q 3046 3098 3046 2112 
z
M 2432 2080 
Q 2432 3091 2217 3625 
Q 2003 4160 1587 4160 
Q 1190 4160 979 3622 
Q 768 3085 768 2106 
Q 768 1120 979 598 
Q 1190 77 1600 77 
Q 2003 77 2217 598 
Q 2432 1120 2432 2080 
z
" transform="scale(0.015625)"/>
        <path id="STIXGeneral-Regular-2e" d="M 1158 275 
Q 1158 134 1052 32 
Q 947 -70 800 -70 
Q 653 -70 550 32 
Q 448 134 448 281 
Q 448 429 553 534 
Q 659 640 806 640 
Q 947 640 1052 531 
Q 1158 422 1158 275 
z
" transform="scale(0.015625)"/>
       </defs>
       <use xlink:href="#STIXGeneral-Regular-30"/>
       <use xlink:href="#STIXGeneral-Regular-2e" x="49.999985"/>
       <use xlink:href="#STIXGeneral-Regular-30" x="74.999969"/>
       <use xlink:href="#STIXGeneral-Regular-30" x="124.999954"/>
      </g>
     </g>
    </g>
    <g id="ytick_2">
     <g id="line2d_6">
      <g>
       <use xlink:href="#md2518e76e5" x="57.6" y="258.524611" style="stroke: #000000; stroke-width: 0.8"/>
      </g>
     </g>
     <g id="text_7">
      <!-- 0.02 -->
      <g transform="translate(33.1 261.939455) scale(0.1 -0.1)">
       <defs>
        <path id="STIXGeneral-Regular-32" d="M 3034 877 
L 2688 0 
L 186 0 
L 186 77 
L 1325 1286 
Q 1773 1754 1965 2144 
Q 2157 2534 2157 2950 
Q 2157 3379 1920 3616 
Q 1683 3853 1267 3853 
Q 922 3853 720 3673 
Q 518 3494 326 3021 
L 192 3053 
Q 301 3648 630 3987 
Q 960 4326 1523 4326 
Q 2054 4326 2380 4006 
Q 2707 3686 2707 3200 
Q 2707 2477 1888 1613 
L 832 486 
L 2330 486 
Q 2541 486 2665 569 
Q 2790 653 2944 915 
L 3034 877 
z
" transform="scale(0.015625)"/>
       </defs>
       <use xlink:href="#STIXGeneral-Regular-30"/>
       <use xlink:href="#STIXGeneral-Regular-2e" x="49.999985"/>
       <use xlink:href="#STIXGeneral-Regular-30" x="74.999969"/>
       <use xlink:href="#STIXGeneral-Regular-32" x="124.999954"/>
      </g>
     </g>
    </g>
    <g id="ytick_3">
     <g id="line2d_7">
      <g>
       <use xlink:href="#md2518e76e5" x="57.6" y="228.761583" style="stroke: #000000; stroke-width: 0.8"/>
      </g>
     </g>
     <g id="text_8">
      <!-- 0.04 -->
      <g transform="translate(33.1 232.176427) scale(0.1 -0.1)">
       <defs>
        <path id="STIXGeneral-Regular-34" d="M 3027 1069 
L 2368 1069 
L 2368 0 
L 1869 0 
L 1869 1069 
L 77 1069 
L 77 1478 
L 2086 4326 
L 2368 4326 
L 2368 1478 
L 3027 1478 
L 3027 1069 
z
M 1869 1478 
L 1869 3674 
L 333 1478 
L 1869 1478 
z
" transform="scale(0.015625)"/>
       </defs>
       <use xlink:href="#STIXGeneral-Regular-30"/>
       <use xlink:href="#STIXGeneral-Regular-2e" x="49.999985"/>
       <use xlink:href="#STIXGeneral-Regular-30" x="74.999969"/>
       <use xlink:href="#STIXGeneral-Regular-34" x="124.999954"/>
      </g>
     </g>
    </g>
    <g id="ytick_4">
     <g id="line2d_8">
      <g>
       <use xlink:href="#md2518e76e5" x="57.6" y="198.998556" style="stroke: #000000; stroke-width: 0.8"/>
      </g>
     </g>
     <g id="text_9">
      <!-- 0.06 -->
      <g transform="translate(33.1 202.413399) scale(0.1 -0.1)">
       <defs>
        <path id="STIXGeneral-Regular-36" d="M 2854 4378 
L 2867 4275 
Q 2112 4154 1606 3664 
Q 1101 3174 973 2451 
Q 1344 2739 1786 2739 
Q 2349 2739 2672 2380 
Q 2995 2022 2995 1402 
Q 2995 774 2669 378 
Q 2291 -90 1651 -90 
Q 870 -90 518 557 
Q 218 1107 218 1786 
Q 218 2835 915 3552 
Q 1312 3962 1731 4131 
Q 2150 4301 2854 4378 
z
M 2419 1203 
Q 2419 2445 1555 2445 
Q 1235 2445 1024 2275 
Q 813 2106 813 1702 
Q 813 954 1046 522 
Q 1280 90 1722 90 
Q 2061 90 2240 394 
Q 2419 698 2419 1203 
z
" transform="scale(0.015625)"/>
       </defs>
       <use xlink:href="#STIXGeneral-Regular-30"/>
       <use xlink:href="#STIXGeneral-Regular-2e" x="49.999985"/>
       <use xlink:href="#STIXGeneral-Regular-30" x="74.999969"/>
       <use xlink:href="#STIXGeneral-Regular-36" x="124.999954"/>
      </g>
     </g>
    </g>
    <g id="ytick_5">
     <g id="line2d_9">
      <g>
       <use xlink:href="#md2518e76e5" x="57.6" y="169.235528" style="stroke: #000000; stroke-width: 0.8"/>
      </g>
     </g>
     <g id="text_10">
      <!-- 0.08 -->
      <g transform="translate(33.1 172.650371) scale(0.1 -0.1)">
       <defs>
        <path id="STIXGeneral-Regular-38" d="M 2848 992 
Q 2848 499 2505 204 
Q 2163 -90 1587 -90 
Q 1050 -90 704 204 
Q 358 499 358 954 
Q 358 1293 524 1533 
Q 691 1773 1190 2125 
Q 710 2522 553 2765 
Q 397 3008 397 3328 
Q 397 3782 745 4054 
Q 1094 4326 1638 4326 
Q 2106 4326 2410 4060 
Q 2714 3795 2714 3411 
Q 2714 3059 2531 2848 
Q 2349 2637 1856 2374 
Q 2432 1990 2640 1689 
Q 2848 1389 2848 992 
z
M 2272 3411 
Q 2272 3744 2086 3945 
Q 1901 4147 1574 4147 
Q 1248 4147 1059 3977 
Q 870 3808 870 3513 
Q 870 3219 1059 2979 
Q 1248 2739 1670 2490 
Q 1997 2682 2134 2896 
Q 2272 3110 2272 3411 
z
M 1734 1741 
L 1357 1997 
Q 1075 1766 960 1545 
Q 845 1325 845 1011 
Q 845 576 1065 333 
Q 1286 90 1658 90 
Q 1971 90 2166 285 
Q 2362 480 2362 794 
Q 2362 1082 2214 1299 
Q 2067 1517 1734 1741 
z
" transform="scale(0.015625)"/>
       </defs>
       <use xlink:href="#STIXGeneral-Regular-30"/>
       <use xlink:href="#STIXGeneral-Regular-2e" x="49.999985"/>
       <use xlink:href="#STIXGeneral-Regular-30" x="74.999969"/>
       <use xlink:href="#STIXGeneral-Regular-38" x="124.999954"/>
      </g>
     </g>
    </g>
    <g id="ytick_6">
     <g id="line2d_10">
      <g>
       <use xlink:href="#md2518e76e5" x="57.6" y="139.4725" style="stroke: #000000; stroke-width: 0.8"/>
      </g>
     </g>
     <g id="text_11">
      <!-- 0.10 -->
      <g transform="translate(33.1 142.887344) scale(0.1 -0.1)">
       <defs>
        <path id="STIXGeneral-Regular-31" d="M 2522 0 
L 755 0 
L 755 96 
Q 1107 115 1235 227 
Q 1363 339 1363 608 
L 1363 3482 
Q 1363 3795 1171 3795 
Q 1082 3795 883 3718 
L 710 3654 
L 710 3744 
L 1856 4326 
L 1914 4307 
L 1914 486 
Q 1914 275 2042 185 
Q 2170 96 2522 96 
L 2522 0 
z
" transform="scale(0.015625)"/>
       </defs>
       <use xlink:href="#STIXGeneral-Regular-30"/>
       <use xlink:href="#STIXGeneral-Regular-2e" x="49.999985"/>
       <use xlink:href="#STIXGeneral-Regular-31" x="74.999969"/>
       <use xlink:href="#STIXGeneral-Regular-30" x="124.999954"/>
      </g>
     </g>
    </g>
    <g id="ytick_7">
     <g id="line2d_11">
      <g>
       <use xlink:href="#md2518e76e5" x="57.6" y="109.709472" style="stroke: #000000; stroke-width: 0.8"/>
      </g>
     </g>
     <g id="text_12">
      <!-- 0.12 -->
      <g transform="translate(33.1 113.124316) scale(0.1 -0.1)">
       <use xlink:href="#STIXGeneral-Regular-30"/>
       <use xlink:href="#STIXGeneral-Regular-2e" x="49.999985"/>
       <use xlink:href="#STIXGeneral-Regular-31" x="74.999969"/>
       <use xlink:href="#STIXGeneral-Regular-32" x="124.999954"/>
      </g>
     </g>
    </g>
    <g id="ytick_8">
     <g id="line2d_12">
      <g>
       <use xlink:href="#md2518e76e5" x="57.6" y="79.946444" style="stroke: #000000; stroke-width: 0.8"/>
      </g>
     </g>
     <g id="text_13">
      <!-- 0.14 -->
      <g transform="translate(33.1 83.361288) scale(0.1 -0.1)">
       <use xlink:href="#STIXGeneral-Regular-30"/>
       <use xlink:href="#STIXGeneral-Regular-2e" x="49.999985"/>
       <use xlink:href="#STIXGeneral-Regular-31" x="74.999969"/>
       <use xlink:href="#STIXGeneral-Regular-34" x="124.999954"/>
      </g>
     </g>
    </g>
    <g id="ytick_9">
     <g id="line2d_13">
      <g>
       <use xlink:href="#md2518e76e5" x="57.6" y="50.183416" style="stroke: #000000; stroke-width: 0.8"/>
      </g>
     </g>
     <g id="text_14">
      <!-- 0.16 -->
      <g transform="translate(33.1 53.59826) scale(0.1 -0.1)">
       <use xlink:href="#STIXGeneral-Regular-30"/>
       <use xlink:href="#STIXGeneral-Regular-2e" x="49.999985"/>
       <use xlink:href="#STIXGeneral-Regular-31" x="74.999969"/>
       <use xlink:href="#STIXGeneral-Regular-36" x="124.999954"/>
      </g>
     </g>
    </g>
    <g id="text_15">
     <!-- value -->
     <g transform="translate(26.929688 185.358469) rotate(-90) scale(0.1 -0.1)">
      <defs>
       <path id="STIXGeneral-Regular-76" d="M 3053 2880 
L 3053 2784 
Q 2906 2771 2835 2688 
Q 2765 2605 2637 2285 
L 1818 230 
Q 1690 -90 1638 -90 
Q 1587 -90 1523 77 
Q 1510 96 1497 141 
Q 1485 186 1472 211 
L 704 2048 
Q 499 2534 403 2652 
Q 307 2771 122 2784 
L 122 2880 
L 1376 2880 
L 1376 2784 
Q 1210 2771 1146 2732 
Q 1082 2694 1082 2611 
Q 1082 2509 1139 2368 
L 1792 730 
L 2426 2387 
Q 2464 2483 2464 2579 
Q 2464 2758 2163 2784 
L 2163 2880 
L 3053 2880 
z
" transform="scale(0.015625)"/>
      </defs>
      <use xlink:href="#STIXGeneral-Regular-76"/>
      <use xlink:href="#STIXGeneral-Regular-61" x="49.999985"/>
      <use xlink:href="#STIXGeneral-Regular-6c" x="94.399979"/>
      <use xlink:href="#STIXGeneral-Regular-75" x="122.199966"/>
      <use xlink:href="#STIXGeneral-Regular-65" x="172.199951"/>
     </g>
    </g>
   </g>
   <g id="line2d_14">
    <path d="M 102.24 288.287639 
L 102.24 219.727216 
" clip-path="url(#pc3eac3cd11)" style="fill: none; stroke: #3d3d3d; stroke-width: 1.5; stroke-linecap: square"/>
   </g>
   <g id="line2d_15">
    <path d="M 102.24 287.970334 
L 102.24 260.653819 
" clip-path="url(#pc3eac3cd11)" style="fill: none; stroke: #3d3d3d; stroke-width: 4.5; stroke-linecap: square"/>
   </g>
   <g id="line2d_16">
    <path d="M 191.52 288.287639 
L 191.52 266.606418 
" clip-path="url(#pc3eac3cd11)" style="fill: none; stroke: #3d3d3d; stroke-width: 1.5; stroke-linecap: square"/>
   </g>
   <g id="line2d_17">
    <path d="M 191.52 288.287639 
L 191.52 279.596393 
" clip-path="url(#pc3eac3cd11)" style="fill: none; stroke: #3d3d3d; stroke-width: 4.5; stroke-linecap: square"/>
   </g>
   <g id="line2d_18">
    <path d="M 280.8 285.34195 
L 280.8 209.551478 
" clip-path="url(#pc3eac3cd11)" style="fill: none; stroke: #3d3d3d; stroke-width: 1.5; stroke-linecap: square"/>
   </g>
   <g id="line2d_19">
    <path d="M 280.8 266.20317 
L 280.8 243.514297 
" clip-path="url(#pc3eac3cd11)" style="fill: none; stroke: #3d3d3d; stroke-width: 4.5; stroke-linecap: square"/>
   </g>
   <g id="line2d_20">
    <path d="M 370.08 284.622978 
L 370.08 194.138156 
" clip-path="url(#pc3eac3cd11)" style="fill: none; stroke: #3d3d3d; stroke-width: 1.5; stroke-linecap: square"/>
   </g>
   <g id="line2d_21">
    <path d="M 370.08 264.805255 
L 370.08 236.457052 
" clip-path="url(#pc3eac3cd11)" style="fill: none; stroke: #3d3d3d; stroke-width: 4.5; stroke-linecap: square"/>
   </g>
   <g id="patch_3">
    <path d="M 57.6 307.584 
L 57.6 41.472 
" style="fill: none; stroke: #000000; stroke-width: 0.8; stroke-linejoin: miter; stroke-linecap: square"/>
   </g>
   <g id="patch_4">
    <path d="M 414.72 307.584 
L 414.72 41.472 
" style="fill: none; stroke: #000000; stroke-width: 0.8; stroke-linejoin: miter; stroke-linecap: square"/>
   </g>
   <g id="patch_5">
    <path d="M 57.6 307.584 
L 414.72 307.584 
" style="fill: none; stroke: #000000; stroke-width: 0.8; stroke-linejoin: miter; stroke-linecap: square"/>
   </g>
   <g id="patch_6">
    <path d="M 57.6 41.472 
L 414.72 41.472 
" style="fill: none; stroke: #000000; stroke-width: 0.8; stroke-linejoin: miter; stroke-linecap: square"/>
   </g>
   <g id="PathCollection_1">
    <defs>
     <path id="mda116e9889" d="M 0 1.5 
C 0.397805 1.5 0.77937 1.341951 1.06066 1.06066 
C 1.341951 0.77937 1.5 0.397805 1.5 0 
C 1.5 -0.397805 1.341951 -0.77937 1.06066 -1.06066 
C 0.77937 -1.341951 0.397805 -1.5 0 -1.5 
C -0.397805 -1.5 -0.77937 -1.341951 -1.06066 -1.06066 
C -1.341951 -0.77937 -1.5 -0.397805 -1.5 0 
C -1.5 0.397805 -1.341951 0.77937 -1.06066 1.06066 
C -0.77937 1.341951 -0.397805 1.5 0 1.5 
z
" style="stroke: #3d3d3d"/>
    </defs>
    <g clip-path="url(#pc3eac3cd11)">
     <use xlink:href="#mda116e9889" x="102.24" y="281.099909" style="fill: #ffffff; stroke: #3d3d3d"/>
    </g>
   </g>
   <g id="PathCollection_2">
    <g clip-path="url(#pc3eac3cd11)">
     <use xlink:href="#mda116e9889" x="191.52" y="286.525765" style="fill: #ffffff; stroke: #3d3d3d"/>
    </g>
   </g>
   <g id="PathCollection_3">
    <g clip-path="url(#pc3eac3cd11)">
     <use xlink:href="#mda116e9889" x="280.8" y="255.236837" style="fill: #ffffff; stroke: #3d3d3d"/>
    </g>
   </g>
   <g id="PathCollection_4">
    <g clip-path="url(#pc3eac3cd11)">
     <use xlink:href="#mda116e9889" x="370.08" y="253.190142" style="fill: #ffffff; stroke: #3d3d3d"/>
    </g>
   </g>
  </g>
 </g>
 <defs>
  <clipPath id="pc3eac3cd11">
   <rect x="57.6" y="41.472" width="357.12" height="266.112"/>
  </clipPath>
 </defs>
</svg>
