<?xml version="1.0" encoding="utf-8" standalone="no"?>
<!DOCTYPE svg PUBLIC "-//W3C//DTD SVG 1.1//EN"
  "http://www.w3.org/Graphics/SVG/1.1/DTD/svg11.dtd">
<svg xmlns:xlink="http://www.w3.org/1999/xlink" width="460.8pt" height="345.6pt" viewBox="0 0 460.8 345.6" xmlns="http://www.w3.org/2000/svg" version="1.1">
 <metadata>
  <rdf:RDF xmlns:dc="http://purl.org/dc/elements/1.1/" xmlns:cc="http://creativecommons.org/ns#" xmlns:rdf="http://www.w3.org/1999/02/22-rdf-syntax-ns#">
   <cc:Work>
    <dc:type rdf:resource="http://purl.org/dc/dcmitype/StillImage"/>
    <dc:date>2024-01-30T19:58:23.057764</dc:date>
    <dc:format>image/svg+xml</dc:format>
    <dc:creator>
     <cc:Agent>
      <dc:title>Matplotlib v3.6.3, https://matplotlib.org/</dc:title>
     </cc:Agent>
    </dc:creator>
   </cc:Work>
  </rdf:RDF>
 </metadata>
 <defs>
  <style type="text/css">*{stroke-linejoin: round; stroke-linecap: butt}</style>
 </defs>
 <g id="figure_1">
  <g id="patch_1">
   <path d="M 0 345.6 
L 460.8 345.6 
L 460.8 0 
L 0 0 
z
" style="fill: #ffffff"/>
  </g>
  <g id="axes_1">
   <g id="patch_2">
    <path d="M 57.6 307.584 
L 414.72 307.584 
L 414.72 41.472 
L 57.6 41.472 
z
" style="fill: #ffffff"/>
   </g>
   <g id="PolyCollection_1">
    <defs>
     <path id="md05d3d4602" d="M 73.834143 -50.112 
L 73.831311 -50.112 
L 73.828919 -52.013876 
L 73.824233 -53.915752 
L 73.816645 -55.817628 
L 73.80606 -57.719504 
L 73.792594 -59.621379 
L 73.776258 -61.523255 
L 73.757628 -63.425131 
L 73.739107 -65.327007 
L 73.724716 -67.228883 
L 73.717333 -69.130759 
L 73.715142 -71.032635 
L 73.709229 -72.934511 
L 73.682611 -74.836387 
L 73.611317 -76.738262 
L 73.469977 -78.640138 
L 73.242876 -80.542014 
L 72.935403 -82.44389 
L 72.576385 -84.345766 
L 72.206611 -86.247642 
L 71.858947 -88.149518 
L 71.540755 -90.051394 
L 71.23031 -91.95327 
L 70.894109 -93.855145 
L 70.512906 -95.757021 
L 70.092775 -97.658897 
L 69.659635 -99.560773 
L 69.254495 -101.462649 
L 68.926002 -103.364525 
L 68.704005 -105.266401 
L 68.569753 -107.168277 
L 68.459847 -109.070153 
L 68.309181 -110.972028 
L 68.094493 -112.873904 
L 67.839861 -114.77578 
L 67.590152 -116.677656 
L 67.391501 -118.579532 
L 67.288856 -120.481408 
L 67.312657 -122.383284 
L 67.454844 -124.28516 
L 67.670683 -126.187036 
L 67.90996 -128.088911 
L 68.14177 -129.990787 
L 68.358082 -131.892663 
L 68.566117 -133.794539 
L 68.771924 -135.696415 
L 68.967678 -137.598291 
L 69.149325 -139.500167 
L 69.347493 -141.402043 
L 69.617484 -143.303919 
L 69.988751 -145.205794 
L 70.435872 -147.10767 
L 70.90173 -149.009546 
L 71.338933 -150.911422 
L 71.727937 -152.813298 
L 72.068178 -154.715174 
L 72.364202 -156.61705 
L 72.620582 -158.518926 
L 72.841615 -160.420802 
L 73.030577 -162.322677 
L 73.190285 -164.224553 
L 73.324884 -166.126429 
L 73.438685 -168.028305 
L 73.531963 -169.930181 
L 73.599812 -171.832057 
L 73.63753 -173.733933 
L 73.647573 -175.635809 
L 73.641018 -177.537685 
L 73.63246 -179.439561 
L 73.632696 -181.341436 
L 73.644391 -183.243312 
L 73.66341 -185.145188 
L 73.683881 -187.047064 
L 73.702511 -188.94894 
L 73.719416 -190.850816 
L 73.735761 -192.752692 
L 73.750899 -194.654568 
L 73.762353 -196.556444 
L 73.768622 -198.458319 
L 73.770877 -200.360195 
L 73.77165 -202.262071 
L 73.772916 -204.163947 
L 73.77536 -206.065823 
L 73.778513 -207.967699 
L 73.781712 -209.869575 
L 73.78527 -211.771451 
L 73.790103 -213.673327 
L 73.79612 -215.575202 
L 73.801847 -217.477078 
L 73.805829 -219.378954 
L 73.807809 -221.28083 
L 73.808501 -223.182706 
L 73.808804 -225.084582 
L 73.809548 -226.986458 
L 73.811574 -228.888334 
L 73.815376 -230.79021 
L 73.820468 -232.692085 
L 73.825498 -234.593961 
L 73.829242 -236.495837 
L 73.831371 -238.397713 
L 73.834083 -238.397713 
L 73.834083 -238.397713 
L 73.836212 -236.495837 
L 73.839956 -234.593961 
L 73.844986 -232.692085 
L 73.850078 -230.79021 
L 73.85388 -228.888334 
L 73.855907 -226.986458 
L 73.856651 -225.084582 
L 73.856953 -223.182706 
L 73.857645 -221.28083 
L 73.859626 -219.378954 
L 73.863607 -217.477078 
L 73.869334 -215.575202 
L 73.875352 -213.673327 
L 73.880185 -211.771451 
L 73.883743 -209.869575 
L 73.886942 -207.967699 
L 73.890095 -206.065823 
L 73.892539 -204.163947 
L 73.893805 -202.262071 
L 73.894578 -200.360195 
L 73.896832 -198.458319 
L 73.903102 -196.556444 
L 73.914555 -194.654568 
L 73.929694 -192.752692 
L 73.946039 -190.850816 
L 73.962943 -188.94894 
L 73.981574 -187.047064 
L 74.002045 -185.145188 
L 74.021064 -183.243312 
L 74.032759 -181.341436 
L 74.032994 -179.439561 
L 74.024437 -177.537685 
L 74.017882 -175.635809 
L 74.027924 -173.733933 
L 74.065642 -171.832057 
L 74.133492 -169.930181 
L 74.226769 -168.028305 
L 74.34057 -166.126429 
L 74.47517 -164.224553 
L 74.634877 -162.322677 
L 74.82384 -160.420802 
L 75.044873 -158.518926 
L 75.301253 -156.61705 
L 75.597277 -154.715174 
L 75.937518 -152.813298 
L 76.326521 -150.911422 
L 76.763724 -149.009546 
L 77.229583 -147.10767 
L 77.676704 -145.205794 
L 78.047971 -143.303919 
L 78.317961 -141.402043 
L 78.516129 -139.500167 
L 78.697777 -137.598291 
L 78.893531 -135.696415 
L 79.099338 -133.794539 
L 79.307372 -131.892663 
L 79.523684 -129.990787 
L 79.755495 -128.088911 
L 79.994771 -126.187036 
L 80.210611 -124.28516 
L 80.352797 -122.383284 
L 80.376598 -120.481408 
L 80.273953 -118.579532 
L 80.075302 -116.677656 
L 79.825593 -114.77578 
L 79.570961 -112.873904 
L 79.356274 -110.972028 
L 79.205607 -109.070153 
L 79.095702 -107.168277 
L 78.96145 -105.266401 
L 78.739453 -103.364525 
L 78.41096 -101.462649 
L 78.00582 -99.560773 
L 77.572679 -97.658897 
L 77.152548 -95.757021 
L 76.771345 -93.855145 
L 76.435144 -91.95327 
L 76.124699 -90.051394 
L 75.806508 -88.149518 
L 75.458844 -86.247642 
L 75.089069 -84.345766 
L 74.730052 -82.44389 
L 74.422579 -80.542014 
L 74.195478 -78.640138 
L 74.054137 -76.738262 
L 73.982843 -74.836387 
L 73.956226 -72.934511 
L 73.950313 -71.032635 
L 73.948121 -69.130759 
L 73.940739 -67.228883 
L 73.926347 -65.327007 
L 73.907827 -63.425131 
L 73.889197 -61.523255 
L 73.872861 -59.621379 
L 73.859395 -57.719504 
L 73.84881 -55.817628 
L 73.841222 -53.915752 
L 73.836536 -52.013876 
L 73.834143 -50.112 
z
" style="stroke: #474747; stroke-width: 1.5"/>
    </defs>
    <g clip-path="url(#pbdfd94b65a)">
     <use xlink:href="#md05d3d4602" x="0" y="345.6" style="fill: #ea96a3; stroke: #474747; stroke-width: 1.5"/>
    </g>
   </g>
   <g id="PolyCollection_2">
    <defs>
     <path id="m9402f1f9da" d="M 106.311412 -76.35842 
L 106.284952 -76.35842 
L 106.265167 -78.215203 
L 106.226258 -80.071987 
L 106.15988 -81.92877 
L 106.060086 -83.785554 
L 105.924848 -85.642338 
L 105.75525 -87.499121 
L 105.55426 -89.355905 
L 105.327989 -91.212688 
L 105.088507 -93.069472 
L 104.852505 -94.926256 
L 104.631843 -96.783039 
L 104.420946 -98.639823 
L 104.192549 -100.496606 
L 103.908077 -102.35339 
L 103.536043 -104.210174 
L 103.065522 -106.066957 
L 102.508583 -107.923741 
L 101.895873 -109.780525 
L 101.271229 -111.637308 
L 100.685667 -113.494092 
L 100.188536 -115.350875 
L 99.816946 -117.207659 
L 99.587658 -119.064443 
L 99.494419 -120.921226 
L 99.510981 -122.77801 
L 99.598368 -124.634793 
L 99.71397 -126.491577 
L 99.819819 -128.348361 
L 99.889452 -130.205144 
L 99.915855 -132.061928 
L 99.921615 -133.918711 
L 99.963159 -135.775495 
L 100.113675 -137.632279 
L 100.421825 -139.489062 
L 100.872818 -141.345846 
L 101.38934 -143.202629 
L 101.877973 -145.059413 
L 102.282926 -146.916197 
L 102.605061 -148.77298 
L 102.881475 -150.629764 
L 103.152695 -152.486547 
L 103.441887 -154.343331 
L 103.750109 -156.200115 
L 104.060988 -158.056898 
L 104.350239 -159.913682 
L 104.597482 -161.770465 
L 104.795073 -163.627249 
L 104.94887 -165.484033 
L 105.072388 -167.340816 
L 105.180635 -169.1976 
L 105.286738 -171.054384 
L 105.39951 -172.911167 
L 105.520749 -174.767951 
L 105.644374 -176.624734 
L 105.759139 -178.481518 
L 105.853743 -180.338302 
L 105.92181 -182.195085 
L 105.964663 -184.051869 
L 105.990497 -185.908652 
L 106.009875 -187.765436 
L 106.029993 -189.62222 
L 106.051749 -191.479003 
L 106.071826 -193.335787 
L 106.087544 -195.19257 
L 106.099786 -197.049354 
L 106.11171 -198.906138 
L 106.125569 -200.762921 
L 106.141279 -202.619705 
L 106.157554 -204.476488 
L 106.173505 -206.333272 
L 106.188862 -208.190056 
L 106.203097 -210.046839 
L 106.214879 -211.903623 
L 106.222452 -213.760406 
L 106.224509 -215.61719 
L 106.221103 -217.473974 
L 106.214407 -219.330757 
L 106.208639 -221.187541 
L 106.208301 -223.044324 
L 106.215321 -224.901108 
L 106.227417 -226.757892 
L 106.239457 -228.614675 
L 106.246855 -230.471459 
L 106.248225 -232.328242 
L 106.245421 -234.185026 
L 106.241555 -236.04181 
L 106.239026 -237.898593 
L 106.238896 -239.755377 
L 106.241327 -241.612161 
L 106.246059 -243.468944 
L 106.252518 -245.325728 
L 106.259887 -247.182511 
L 106.26739 -249.039295 
L 106.27455 -250.896079 
L 106.281123 -252.752862 
L 106.286858 -254.609646 
L 106.291432 -256.466429 
L 106.294641 -258.323213 
L 106.296571 -260.179997 
L 106.299792 -260.179997 
L 106.299792 -260.179997 
L 106.301723 -258.323213 
L 106.304932 -256.466429 
L 106.309506 -254.609646 
L 106.31524 -252.752862 
L 106.321813 -250.896079 
L 106.328973 -249.039295 
L 106.336477 -247.182511 
L 106.343846 -245.325728 
L 106.350305 -243.468944 
L 106.355036 -241.612161 
L 106.357467 -239.755377 
L 106.357338 -237.898593 
L 106.354809 -236.04181 
L 106.350943 -234.185026 
L 106.348139 -232.328242 
L 106.349508 -230.471459 
L 106.356906 -228.614675 
L 106.368946 -226.757892 
L 106.381043 -224.901108 
L 106.388062 -223.044324 
L 106.387725 -221.187541 
L 106.381957 -219.330757 
L 106.37526 -217.473974 
L 106.371855 -215.61719 
L 106.373911 -213.760406 
L 106.381484 -211.903623 
L 106.393267 -210.046839 
L 106.407502 -208.190056 
L 106.422858 -206.333272 
L 106.43881 -204.476488 
L 106.455085 -202.619705 
L 106.470795 -200.762921 
L 106.484654 -198.906138 
L 106.496577 -197.049354 
L 106.508819 -195.19257 
L 106.524538 -193.335787 
L 106.544615 -191.479003 
L 106.566371 -189.62222 
L 106.586489 -187.765436 
L 106.605867 -185.908652 
L 106.6317 -184.051869 
L 106.674553 -182.195085 
L 106.742621 -180.338302 
L 106.837225 -178.481518 
L 106.951989 -176.624734 
L 107.075614 -174.767951 
L 107.196854 -172.911167 
L 107.309626 -171.054384 
L 107.415729 -169.1976 
L 107.523975 -167.340816 
L 107.647493 -165.484033 
L 107.80129 -163.627249 
L 107.998882 -161.770465 
L 108.246124 -159.913682 
L 108.535375 -158.056898 
L 108.846255 -156.200115 
L 109.154477 -154.343331 
L 109.443668 -152.486547 
L 109.714889 -150.629764 
L 109.991303 -148.77298 
L 110.313438 -146.916197 
L 110.71839 -145.059413 
L 111.207023 -143.202629 
L 111.723546 -141.345846 
L 112.174538 -139.489062 
L 112.482689 -137.632279 
L 112.633204 -135.775495 
L 112.674748 -133.918711 
L 112.680509 -132.061928 
L 112.706912 -130.205144 
L 112.776544 -128.348361 
L 112.882394 -126.491577 
L 112.997996 -124.634793 
L 113.085383 -122.77801 
L 113.101944 -120.921226 
L 113.008706 -119.064443 
L 112.779418 -117.207659 
L 112.407828 -115.350875 
L 111.910697 -113.494092 
L 111.325135 -111.637308 
L 110.70049 -109.780525 
L 110.08778 -107.923741 
L 109.530841 -106.066957 
L 109.060321 -104.210174 
L 108.688287 -102.35339 
L 108.403815 -100.496606 
L 108.175418 -98.639823 
L 107.964521 -96.783039 
L 107.743858 -94.926256 
L 107.507856 -93.069472 
L 107.268375 -91.212688 
L 107.042104 -89.355905 
L 106.841113 -87.499121 
L 106.671516 -85.642338 
L 106.536278 -83.785554 
L 106.436484 -81.92877 
L 106.370106 -80.071987 
L 106.331196 -78.215203 
L 106.311412 -76.35842 
z
" style="stroke: #474747; stroke-width: 1.5"/>
    </defs>
    <g clip-path="url(#pbdfd94b65a)">
     <use xlink:href="#m9402f1f9da" x="0" y="345.6" style="fill: #dc924e; stroke: #474747; stroke-width: 1.5"/>
    </g>
   </g>
   <g id="PolyCollection_3">
    <defs>
     <path id="mde3b543642" d="M 138.779378 -69.841731 
L 138.747894 -69.841731 
L 138.728598 -72.086077 
L 138.691997 -74.330423 
L 138.628612 -76.57477 
L 138.52808 -78.819116 
L 138.381462 -81.063462 
L 138.183801 -83.307808 
L 137.935796 -85.552154 
L 137.643631 -87.7965 
L 137.316914 -90.040846 
L 136.965742 -92.285193 
L 136.59847 -94.529539 
L 136.221462 -96.773885 
L 135.84109 -99.018231 
L 135.466945 -101.262577 
L 135.114269 -103.506923 
L 134.803488 -105.751269 
L 134.555853 -107.995616 
L 134.386346 -110.239962 
L 134.297147 -112.484308 
L 134.275545 -114.728654 
L 134.298394 -116.973 
L 134.341612 -119.217346 
L 134.390108 -121.461693 
L 134.442899 -123.706039 
L 134.510685 -125.950385 
L 134.607394 -128.194731 
L 134.740487 -130.439077 
L 134.905359 -132.683423 
L 135.086565 -134.927769 
L 135.264602 -137.172116 
L 135.423918 -139.416462 
L 135.557726 -141.660808 
L 135.667933 -143.905154 
L 135.761767 -146.1495 
L 135.848102 -148.393846 
L 135.935295 -150.638193 
L 136.030294 -152.882539 
L 136.13789 -155.126885 
L 136.259727 -157.371231 
L 136.393701 -159.615577 
L 136.534508 -161.859923 
L 136.675267 -164.104269 
L 136.809346 -166.348616 
L 136.931645 -168.592962 
L 137.039161 -170.837308 
L 137.131153 -173.081654 
L 137.209076 -175.326 
L 137.2762 -177.570346 
L 137.33672 -179.814692 
L 137.394402 -182.059039 
L 137.451189 -184.303385 
L 137.5064 -186.547731 
L 137.557124 -188.792077 
L 137.59991 -191.036423 
L 137.63309 -193.280769 
L 137.658481 -195.525116 
L 137.681342 -197.769462 
L 137.708439 -200.013808 
L 137.745188 -202.258154 
L 137.793438 -204.5025 
L 137.850924 -206.746846 
L 137.912418 -208.991192 
L 137.971764 -211.235539 
L 138.023855 -213.479885 
L 138.065977 -215.724231 
L 138.098291 -217.968577 
L 138.123448 -220.212923 
L 138.145474 -222.457269 
L 138.168328 -224.701615 
L 138.194787 -226.945962 
L 138.226167 -229.190308 
L 138.262881 -231.434654 
L 138.305221 -233.679 
L 138.353572 -235.923346 
L 138.407798 -238.167692 
L 138.466318 -240.412039 
L 138.525751 -242.656385 
L 138.581627 -244.900731 
L 138.629805 -247.145077 
L 138.667774 -249.389423 
L 138.695106 -251.633769 
L 138.713033 -253.878115 
L 138.723557 -256.122462 
L 138.728697 -258.366808 
L 138.730126 -260.611154 
L 138.72921 -262.8555 
L 138.727166 -265.099846 
L 138.72516 -267.344192 
L 138.724218 -269.588538 
L 138.72504 -271.832885 
L 138.727855 -274.077231 
L 138.732404 -276.321577 
L 138.738071 -278.565923 
L 138.744084 -280.810269 
L 138.749721 -283.054615 
L 138.754462 -285.298962 
L 138.75806 -287.543308 
L 138.760526 -289.787654 
L 138.762051 -292.032 
L 138.765222 -292.032 
L 138.765222 -292.032 
L 138.766747 -289.787654 
L 138.769213 -287.543308 
L 138.77281 -285.298962 
L 138.777552 -283.054615 
L 138.783189 -280.810269 
L 138.789202 -278.565923 
L 138.794869 -276.321577 
L 138.799418 -274.077231 
L 138.802233 -271.832885 
L 138.803055 -269.588538 
L 138.802112 -267.344192 
L 138.800107 -265.099846 
L 138.798063 -262.8555 
L 138.797146 -260.611154 
L 138.798576 -258.366808 
L 138.803715 -256.122462 
L 138.81424 -253.878115 
L 138.832166 -251.633769 
L 138.859499 -249.389423 
L 138.897467 -247.145077 
L 138.945646 -244.900731 
L 139.001521 -242.656385 
L 139.060955 -240.412039 
L 139.119475 -238.167692 
L 139.173701 -235.923346 
L 139.222052 -233.679 
L 139.264392 -231.434654 
L 139.301106 -229.190308 
L 139.332486 -226.945962 
L 139.358945 -224.701615 
L 139.381799 -222.457269 
L 139.403825 -220.212923 
L 139.428982 -217.968577 
L 139.461296 -215.724231 
L 139.503417 -213.479885 
L 139.555509 -211.235539 
L 139.614855 -208.991192 
L 139.676349 -206.746846 
L 139.733835 -204.5025 
L 139.782085 -202.258154 
L 139.818834 -200.013808 
L 139.84593 -197.769462 
L 139.868792 -195.525116 
L 139.894183 -193.280769 
L 139.927363 -191.036423 
L 139.970149 -188.792077 
L 140.020873 -186.547731 
L 140.076084 -184.303385 
L 140.132871 -182.059039 
L 140.190553 -179.814692 
L 140.251072 -177.570346 
L 140.318197 -175.326 
L 140.39612 -173.081654 
L 140.488111 -170.837308 
L 140.595628 -168.592962 
L 140.717927 -166.348616 
L 140.852006 -164.104269 
L 140.992765 -161.859923 
L 141.133572 -159.615577 
L 141.267545 -157.371231 
L 141.389383 -155.126885 
L 141.496979 -152.882539 
L 141.591977 -150.638193 
L 141.679171 -148.393846 
L 141.765506 -146.1495 
L 141.859339 -143.905154 
L 141.969546 -141.660808 
L 142.103355 -139.416462 
L 142.26267 -137.172116 
L 142.440708 -134.927769 
L 142.621914 -132.683423 
L 142.786785 -130.439077 
L 142.919879 -128.194731 
L 143.016588 -125.950385 
L 143.084374 -123.706039 
L 143.137165 -121.461693 
L 143.185661 -119.217346 
L 143.228878 -116.973 
L 143.251727 -114.728654 
L 143.230126 -112.484308 
L 143.140926 -110.239962 
L 142.97142 -107.995616 
L 142.723785 -105.751269 
L 142.413004 -103.506923 
L 142.060328 -101.262577 
L 141.686183 -99.018231 
L 141.305811 -96.773885 
L 140.928803 -94.529539 
L 140.561531 -92.285193 
L 140.210359 -90.040846 
L 139.883642 -87.7965 
L 139.591476 -85.552154 
L 139.343472 -83.307808 
L 139.145811 -81.063462 
L 138.999193 -78.819116 
L 138.898661 -76.57477 
L 138.835276 -74.330423 
L 138.798674 -72.086077 
L 138.779378 -69.841731 
z
" style="stroke: #474747; stroke-width: 1.5"/>
    </defs>
    <g clip-path="url(#pbdfd94b65a)">
     <use xlink:href="#mde3b543642" x="0" y="345.6" style="fill: #b39d48; stroke: #474747; stroke-width: 1.5"/>
    </g>
   </g>
   <g id="PolyCollection_4">
    <defs>
     <path id="m1184180b8a" d="M 171.233832 -57.926103 
L 171.22435 -57.926103 
L 171.218466 -59.642301 
L 171.207839 -61.358499 
L 171.190589 -63.074696 
L 171.164595 -64.790894 
L 171.126582 -66.507092 
L 171.070476 -68.22329 
L 170.986119 -69.939488 
L 170.859996 -71.655686 
L 170.678876 -73.371883 
L 170.435539 -75.088081 
L 170.13417 -76.804279 
L 169.792567 -78.520477 
L 169.439023 -80.236675 
L 169.103546 -81.952873 
L 168.805812 -83.66907 
L 168.545323 -85.385268 
L 168.300335 -87.101466 
L 168.038491 -88.817664 
L 167.734645 -90.533862 
L 167.385351 -92.250059 
L 167.010766 -93.966257 
L 166.643394 -95.682455 
L 166.312471 -97.398653 
L 166.034444 -99.114851 
L 165.813261 -100.831049 
L 165.646319 -102.547246 
L 165.5302 -104.263444 
L 165.463834 -105.979642 
L 165.449264 -107.69584 
L 165.489678 -109.412038 
L 165.584203 -111.128236 
L 165.72174 -112.844433 
L 165.879046 -114.560631 
L 166.026861 -116.276829 
L 166.14219 -117.993027 
L 166.219641 -119.709225 
L 166.274396 -121.425422 
L 166.334479 -123.14162 
L 166.427017 -124.857818 
L 166.566902 -126.574016 
L 166.753558 -128.290214 
L 166.974756 -130.006412 
L 167.212329 -131.722609 
L 167.446579 -133.438807 
L 167.660306 -135.155005 
L 167.843635 -136.871203 
L 167.997397 -138.587401 
L 168.13149 -140.303599 
L 168.258334 -142.019796 
L 168.386215 -143.735994 
L 168.5175 -145.452192 
L 168.652089 -147.16839 
L 168.791886 -148.884588 
L 168.941799 -150.600785 
L 169.106431 -152.316983 
L 169.285715 -154.033181 
L 169.473489 -155.749379 
L 169.660053 -157.465577 
L 169.836227 -159.181775 
L 169.995768 -160.897972 
L 170.135387 -162.61417 
L 170.253798 -164.330368 
L 170.351184 -166.046566 
L 170.429174 -167.762764 
L 170.490814 -169.478962 
L 170.540247 -171.195159 
L 170.58206 -172.911357 
L 170.620278 -174.627555 
L 170.657416 -176.343753 
L 170.694395 -178.059951 
L 170.731639 -179.776148 
L 170.770393 -181.492346 
L 170.812717 -183.208544 
L 170.859724 -184.924742 
L 170.909597 -186.64094 
L 170.957494 -188.357138 
L 170.997967 -190.073335 
L 171.028206 -191.789533 
L 171.049664 -193.505731 
L 171.066933 -195.221929 
L 171.084846 -196.938127 
L 171.105832 -198.654325 
L 171.12907 -200.370522 
L 171.151607 -202.08672 
L 171.17033 -203.802918 
L 171.183403 -205.519116 
L 171.19053 -207.235314 
L 171.192536 -208.951511 
L 171.190985 -210.667709 
L 171.188036 -212.383907 
L 171.186101 -214.100105 
L 171.187118 -215.816303 
L 171.191761 -217.532501 
L 171.19922 -219.248698 
L 171.207729 -220.964896 
L 171.215492 -222.681094 
L 171.221407 -224.397292 
L 171.225246 -226.11349 
L 171.227391 -227.829688 
L 171.230791 -227.829688 
L 171.230791 -227.829688 
L 171.232936 -226.11349 
L 171.236775 -224.397292 
L 171.24269 -222.681094 
L 171.250453 -220.964896 
L 171.258962 -219.248698 
L 171.266421 -217.532501 
L 171.271064 -215.816303 
L 171.272081 -214.100105 
L 171.270146 -212.383907 
L 171.267196 -210.667709 
L 171.265646 -208.951511 
L 171.267651 -207.235314 
L 171.274779 -205.519116 
L 171.287852 -203.802918 
L 171.306575 -202.08672 
L 171.329112 -200.370522 
L 171.35235 -198.654325 
L 171.373336 -196.938127 
L 171.391249 -195.221929 
L 171.408518 -193.505731 
L 171.429976 -191.789533 
L 171.460215 -190.073335 
L 171.500688 -188.357138 
L 171.548585 -186.64094 
L 171.598458 -184.924742 
L 171.645465 -183.208544 
L 171.687789 -181.492346 
L 171.726543 -179.776148 
L 171.763787 -178.059951 
L 171.800766 -176.343753 
L 171.837904 -174.627555 
L 171.876121 -172.911357 
L 171.917935 -171.195159 
L 171.967368 -169.478962 
L 172.029007 -167.762764 
L 172.106998 -166.046566 
L 172.204384 -164.330368 
L 172.322795 -162.61417 
L 172.462414 -160.897972 
L 172.621955 -159.181775 
L 172.798129 -157.465577 
L 172.984693 -155.749379 
L 173.172467 -154.033181 
L 173.351751 -152.316983 
L 173.516383 -150.600785 
L 173.666296 -148.884588 
L 173.806093 -147.16839 
L 173.940681 -145.452192 
L 174.071967 -143.735994 
L 174.199847 -142.019796 
L 174.326692 -140.303599 
L 174.460785 -138.587401 
L 174.614547 -136.871203 
L 174.797876 -135.155005 
L 175.011603 -133.438807 
L 175.245853 -131.722609 
L 175.483426 -130.006412 
L 175.704624 -128.290214 
L 175.891279 -126.574016 
L 176.031165 -124.857818 
L 176.123703 -123.14162 
L 176.183786 -121.425422 
L 176.238541 -119.709225 
L 176.315992 -117.993027 
L 176.431321 -116.276829 
L 176.579136 -114.560631 
L 176.736442 -112.844433 
L 176.873978 -111.128236 
L 176.968504 -109.412038 
L 177.008918 -107.69584 
L 176.994348 -105.979642 
L 176.927982 -104.263444 
L 176.811863 -102.547246 
L 176.644921 -100.831049 
L 176.423738 -99.114851 
L 176.145711 -97.398653 
L 175.814788 -95.682455 
L 175.447416 -93.966257 
L 175.072831 -92.250059 
L 174.723537 -90.533862 
L 174.41969 -88.817664 
L 174.157847 -87.101466 
L 173.912859 -85.385268 
L 173.65237 -83.66907 
L 173.354636 -81.952873 
L 173.019159 -80.236675 
L 172.665614 -78.520477 
L 172.324011 -76.804279 
L 172.022643 -75.088081 
L 171.779306 -73.371883 
L 171.598186 -71.655686 
L 171.472063 -69.939488 
L 171.387706 -68.22329 
L 171.331599 -66.507092 
L 171.293586 -64.790894 
L 171.267592 -63.074696 
L 171.250343 -61.358499 
L 171.239716 -59.642301 
L 171.233832 -57.926103 
z
" style="stroke: #474747; stroke-width: 1.5"/>
    </defs>
    <g clip-path="url(#pbdfd94b65a)">
     <use xlink:href="#m1184180b8a" x="0" y="345.6" style="fill: #8ea546; stroke: #474747; stroke-width: 1.5"/>
    </g>
   </g>
   <g id="PolyCollection_5">
    <defs>
     <path id="m1f9db41599" d="M 203.734611 -57.901631 
L 203.65448 -57.901631 
L 203.622832 -59.746433 
L 203.573854 -61.591236 
L 203.503442 -63.436039 
L 203.409617 -65.280842 
L 203.294078 -67.125644 
L 203.163117 -68.970447 
L 203.027188 -70.81525 
L 202.898801 -72.660052 
L 202.789047 -74.504855 
L 202.703776 -76.349658 
L 202.640765 -78.194461 
L 202.589019 -80.039263 
L 202.530579 -81.884066 
L 202.444365 -83.728869 
L 202.310881 -85.573671 
L 202.116515 -87.418474 
L 201.856396 -89.263277 
L 201.535284 -91.10808 
L 201.166454 -92.952882 
L 200.768964 -94.797685 
L 200.364047 -96.642488 
L 199.971669 -98.48729 
L 199.608264 -100.332093 
L 199.286242 -102.176896 
L 199.015091 -104.021699 
L 198.803063 -105.866501 
L 198.65814 -107.711304 
L 198.587352 -109.556107 
L 198.594511 -111.400909 
L 198.677391 -113.245712 
L 198.825812 -115.090515 
L 199.021763 -116.935318 
L 199.241793 -118.78012 
L 199.461009 -120.624923 
L 199.657476 -122.469726 
L 199.815875 -124.314529 
L 199.929598 -126.159331 
L 200.000985 -128.004134 
L 200.039796 -129.848937 
L 200.060337 -131.693739 
L 200.077904 -133.538542 
L 200.105386 -135.383345 
L 200.150873 -137.228148 
L 200.216834 -139.07295 
L 200.300997 -140.917753 
L 200.398438 -142.762556 
L 200.50405 -144.607358 
L 200.614459 -146.452161 
L 200.728759 -148.296964 
L 200.847968 -150.141767 
L 200.973619 -151.986569 
L 201.106194 -153.831372 
L 201.244099 -155.676175 
L 201.383629 -157.520977 
L 201.519927 -159.36578 
L 201.648559 -161.210583 
L 201.767026 -163.055386 
L 201.875576 -164.900188 
L 201.976926 -166.744991 
L 202.074979 -168.589794 
L 202.173083 -170.434597 
L 202.272586 -172.279399 
L 202.372311 -174.124202 
L 202.469094 -175.969005 
L 202.55909 -177.813807 
L 202.639185 -179.65861 
L 202.707944 -181.503413 
L 202.765805 -183.348216 
L 202.814587 -185.193018 
L 202.856665 -187.037821 
L 202.894151 -188.882624 
L 202.928367 -190.727426 
L 202.95971 -192.572229 
L 202.987876 -194.417032 
L 203.012354 -196.261835 
L 203.033013 -198.106637 
L 203.050592 -199.95144 
L 203.066903 -201.796243 
L 203.084636 -203.641045 
L 203.10679 -205.485848 
L 203.135881 -207.330651 
L 203.173202 -209.175454 
L 203.218398 -211.020256 
L 203.269508 -212.865059 
L 203.323482 -214.709862 
L 203.376978 -216.554665 
L 203.427156 -218.399467 
L 203.472219 -220.24427 
L 203.511548 -222.089073 
L 203.545447 -223.933875 
L 203.574685 -225.778678 
L 203.600036 -227.623481 
L 203.621995 -229.468284 
L 203.640739 -231.313086 
L 203.65626 -233.157889 
L 203.66856 -235.002692 
L 203.677797 -236.847494 
L 203.68433 -238.692297 
L 203.688664 -240.5371 
L 203.700427 -240.5371 
L 203.700427 -240.5371 
L 203.704761 -238.692297 
L 203.711294 -236.847494 
L 203.720531 -235.002692 
L 203.732831 -233.157889 
L 203.748352 -231.313086 
L 203.767096 -229.468284 
L 203.789055 -227.623481 
L 203.814406 -225.778678 
L 203.843644 -223.933875 
L 203.877543 -222.089073 
L 203.916871 -220.24427 
L 203.961935 -218.399467 
L 204.012113 -216.554665 
L 204.065608 -214.709862 
L 204.119583 -212.865059 
L 204.170693 -211.020256 
L 204.215889 -209.175454 
L 204.25321 -207.330651 
L 204.282301 -205.485848 
L 204.304455 -203.641045 
L 204.322188 -201.796243 
L 204.338499 -199.95144 
L 204.356078 -198.106637 
L 204.376737 -196.261835 
L 204.401215 -194.417032 
L 204.429381 -192.572229 
L 204.460724 -190.727426 
L 204.49494 -188.882624 
L 204.532426 -187.037821 
L 204.574503 -185.193018 
L 204.623286 -183.348216 
L 204.681147 -181.503413 
L 204.749906 -179.65861 
L 204.830001 -177.813807 
L 204.919997 -175.969005 
L 205.01678 -174.124202 
L 205.116504 -172.279399 
L 205.216008 -170.434597 
L 205.314111 -168.589794 
L 205.412165 -166.744991 
L 205.513515 -164.900188 
L 205.622065 -163.055386 
L 205.740531 -161.210583 
L 205.869164 -159.36578 
L 206.005462 -157.520977 
L 206.144992 -155.676175 
L 206.282897 -153.831372 
L 206.415472 -151.986569 
L 206.541123 -150.141767 
L 206.660332 -148.296964 
L 206.774632 -146.452161 
L 206.885041 -144.607358 
L 206.990653 -142.762556 
L 207.088094 -140.917753 
L 207.172257 -139.07295 
L 207.238218 -137.228148 
L 207.283705 -135.383345 
L 207.311187 -133.538542 
L 207.328754 -131.693739 
L 207.349295 -129.848937 
L 207.388106 -128.004134 
L 207.459493 -126.159331 
L 207.573215 -124.314529 
L 207.731615 -122.469726 
L 207.928082 -120.624923 
L 208.147297 -118.78012 
L 208.367328 -116.935318 
L 208.563279 -115.090515 
L 208.711699 -113.245712 
L 208.794579 -111.400909 
L 208.801739 -109.556107 
L 208.730951 -107.711304 
L 208.586028 -105.866501 
L 208.374 -104.021699 
L 208.102849 -102.176896 
L 207.780827 -100.332093 
L 207.417422 -98.48729 
L 207.025044 -96.642488 
L 206.620127 -94.797685 
L 206.222637 -92.952882 
L 205.853807 -91.10808 
L 205.532695 -89.263277 
L 205.272576 -87.418474 
L 205.07821 -85.573671 
L 204.944726 -83.728869 
L 204.858512 -81.884066 
L 204.800072 -80.039263 
L 204.748326 -78.194461 
L 204.685315 -76.349658 
L 204.600044 -74.504855 
L 204.49029 -72.660052 
L 204.361903 -70.81525 
L 204.225974 -68.970447 
L 204.095013 -67.125644 
L 203.979474 -65.280842 
L 203.885649 -63.436039 
L 203.815237 -61.591236 
L 203.766259 -59.746433 
L 203.734611 -57.901631 
z
" style="stroke: #474747; stroke-width: 1.5"/>
    </defs>
    <g clip-path="url(#pbdfd94b65a)">
     <use xlink:href="#m1f9db41599" x="0" y="345.6" style="fill: #48b067; stroke: #474747; stroke-width: 1.5"/>
    </g>
   </g>
   <g id="PolyCollection_6">
    <defs>
     <path id="mafa509c179" d="M 236.182904 -55.223531 
L 236.137096 -55.223531 
L 236.115241 -57.512738 
L 236.080947 -59.801945 
L 236.033616 -62.091153 
L 235.97668 -64.38036 
L 235.917827 -66.669567 
L 235.866711 -68.958774 
L 235.830477 -71.247982 
L 235.809073 -73.537189 
L 235.792811 -75.826396 
L 235.763492 -78.115604 
L 235.698439 -80.404811 
L 235.575402 -82.694018 
L 235.376383 -84.983225 
L 235.089681 -87.272433 
L 234.711035 -89.56164 
L 234.245698 -91.850847 
L 233.712565 -94.140055 
L 233.148652 -96.429262 
L 232.609061 -98.718469 
L 232.157449 -101.007677 
L 231.847371 -103.296884 
L 231.702565 -105.586091 
L 231.707518 -107.875298 
L 231.814315 -110.164506 
L 231.961603 -112.453713 
L 232.094788 -114.74292 
L 232.17819 -117.032128 
L 232.196848 -119.321335 
L 232.151798 -121.610542 
L 232.054036 -123.899749 
L 231.920222 -126.188957 
L 231.770411 -128.478164 
L 231.626815 -130.767371 
L 231.512538 -133.056579 
L 231.449421 -135.345786 
L 231.454208 -137.634993 
L 231.533099 -139.9242 
L 231.676882 -142.213408 
L 231.860564 -144.502615 
L 232.050546 -146.791822 
L 232.218225 -149.08103 
L 232.353978 -151.370237 
L 232.473506 -153.659444 
L 232.611596 -155.948651 
L 232.805374 -158.237859 
L 233.075726 -160.527066 
L 233.417038 -162.816273 
L 233.800202 -165.105481 
L 234.18571 -167.394688 
L 234.538585 -169.683895 
L 234.837877 -171.973103 
L 235.078368 -174.26231 
L 235.266603 -176.551517 
L 235.414814 -178.840724 
L 235.535464 -181.129932 
L 235.637751 -183.419139 
L 235.726358 -185.708346 
L 235.802158 -187.997554 
L 235.86404 -190.286761 
L 235.91088 -192.575968 
L 235.94289 -194.865175 
L 235.962024 -197.154383 
L 235.971598 -199.44359 
L 235.975483 -201.732797 
L 235.97729 -204.022005 
L 235.979853 -206.311212 
L 235.985132 -208.600419 
L 235.994382 -210.889626 
L 236.008271 -213.178834 
L 236.026725 -215.468041 
L 236.048624 -217.757248 
L 236.071724 -220.046456 
L 236.093094 -222.335663 
L 236.109973 -224.62487 
L 236.120645 -226.914078 
L 236.124874 -229.203285 
L 236.123742 -231.492492 
L 236.11905 -233.781699 
L 236.112618 -236.070907 
L 236.10582 -238.360114 
L 236.099466 -240.649321 
L 236.093866 -242.938529 
L 236.088863 -245.227736 
L 236.083729 -247.516943 
L 236.077195 -249.80615 
L 236.067943 -252.095358 
L 236.055555 -254.384565 
L 236.041407 -256.673772 
L 236.028775 -258.96298 
L 236.021818 -261.252187 
L 236.023837 -263.541394 
L 236.035757 -265.830601 
L 236.055679 -268.119809 
L 236.079698 -270.409016 
L 236.103467 -272.698223 
L 236.123663 -274.987431 
L 236.138704 -277.276638 
L 236.148634 -279.565845 
L 236.154481 -281.855052 
L 236.165519 -281.855052 
L 236.165519 -281.855052 
L 236.171366 -279.565845 
L 236.181296 -277.276638 
L 236.196337 -274.987431 
L 236.216533 -272.698223 
L 236.240302 -270.409016 
L 236.264321 -268.119809 
L 236.284243 -265.830601 
L 236.296163 -263.541394 
L 236.298182 -261.252187 
L 236.291225 -258.96298 
L 236.278593 -256.673772 
L 236.264445 -254.384565 
L 236.252057 -252.095358 
L 236.242805 -249.80615 
L 236.236271 -247.516943 
L 236.231137 -245.227736 
L 236.226134 -242.938529 
L 236.220534 -240.649321 
L 236.21418 -238.360114 
L 236.207382 -236.070907 
L 236.20095 -233.781699 
L 236.196258 -231.492492 
L 236.195126 -229.203285 
L 236.199355 -226.914078 
L 236.210027 -224.62487 
L 236.226906 -222.335663 
L 236.248276 -220.046456 
L 236.271376 -217.757248 
L 236.293275 -215.468041 
L 236.311729 -213.178834 
L 236.325618 -210.889626 
L 236.334868 -208.600419 
L 236.340147 -206.311212 
L 236.34271 -204.022005 
L 236.344517 -201.732797 
L 236.348402 -199.44359 
L 236.357976 -197.154383 
L 236.37711 -194.865175 
L 236.40912 -192.575968 
L 236.45596 -190.286761 
L 236.517842 -187.997554 
L 236.593642 -185.708346 
L 236.682249 -183.419139 
L 236.784536 -181.129932 
L 236.905186 -178.840724 
L 237.053397 -176.551517 
L 237.241632 -174.26231 
L 237.482123 -171.973103 
L 237.781415 -169.683895 
L 238.13429 -167.394688 
L 238.519798 -165.105481 
L 238.902962 -162.816273 
L 239.244274 -160.527066 
L 239.514626 -158.237859 
L 239.708404 -155.948651 
L 239.846494 -153.659444 
L 239.966022 -151.370237 
L 240.101775 -149.08103 
L 240.269454 -146.791822 
L 240.459436 -144.502615 
L 240.643118 -142.213408 
L 240.786901 -139.9242 
L 240.865792 -137.634993 
L 240.870579 -135.345786 
L 240.807462 -133.056579 
L 240.693185 -130.767371 
L 240.549589 -128.478164 
L 240.399778 -126.188957 
L 240.265964 -123.899749 
L 240.168202 -121.610542 
L 240.123152 -119.321335 
L 240.14181 -117.032128 
L 240.225212 -114.74292 
L 240.358397 -112.453713 
L 240.505685 -110.164506 
L 240.612482 -107.875298 
L 240.617435 -105.586091 
L 240.472629 -103.296884 
L 240.162551 -101.007677 
L 239.710939 -98.718469 
L 239.171348 -96.429262 
L 238.607435 -94.140055 
L 238.074302 -91.850847 
L 237.608965 -89.56164 
L 237.230319 -87.272433 
L 236.943617 -84.983225 
L 236.744598 -82.694018 
L 236.621561 -80.404811 
L 236.556508 -78.115604 
L 236.527189 -75.826396 
L 236.510927 -73.537189 
L 236.489523 -71.247982 
L 236.453289 -68.958774 
L 236.402173 -66.669567 
L 236.34332 -64.38036 
L 236.286384 -62.091153 
L 236.239053 -59.801945 
L 236.204759 -57.512738 
L 236.182904 -55.223531 
z
" style="stroke: #474747; stroke-width: 1.5"/>
    </defs>
    <g clip-path="url(#pbdfd94b65a)">
     <use xlink:href="#mafa509c179" x="0" y="345.6" style="fill: #4aac98; stroke: #474747; stroke-width: 1.5"/>
    </g>
   </g>
   <g id="PolyCollection_7">
    <defs>
     <path id="me300498f40" d="M 268.674689 -61.929447 
L 268.57622 -61.929447 
L 268.542975 -63.058513 
L 268.492083 -64.187579 
L 268.417118 -65.316646 
L 268.310801 -66.445712 
L 268.16555 -67.574778 
L 267.974282 -68.703844 
L 267.731387 -69.83291 
L 267.433763 -70.961976 
L 267.081721 -72.091042 
L 266.679593 -73.220108 
L 266.235867 -74.349174 
L 265.762786 -75.47824 
L 265.275395 -76.607307 
L 264.790141 -77.736373 
L 264.323237 -78.865439 
L 263.889013 -79.994505 
L 263.498539 -81.123571 
L 263.158755 -82.252637 
L 262.872232 -83.381703 
L 262.637632 -84.510769 
L 262.450715 -85.639835 
L 262.305688 -86.768901 
L 262.196565 -87.897967 
L 262.118239 -89.027034 
L 262.067026 -90.1561 
L 262.040626 -91.285166 
L 262.037581 -92.414232 
L 262.056476 -93.543298 
L 262.095175 -94.672364 
L 262.150344 -95.80143 
L 262.21741 -96.930496 
L 262.290977 -98.059562 
L 262.365578 -99.188628 
L 262.436575 -100.317694 
L 262.501022 -101.446761 
L 262.558296 -102.575827 
L 262.610392 -103.704893 
L 262.661797 -104.833959 
L 262.718967 -105.963025 
L 262.789458 -107.092091 
L 262.880823 -108.221157 
L 262.999446 -109.350223 
L 263.149491 -110.479289 
L 263.332156 -111.608355 
L 263.545368 -112.737421 
L 263.78398 -113.866488 
L 264.040438 -114.995554 
L 264.305779 -116.12462 
L 264.570757 -117.253686 
L 264.826865 -118.382752 
L 265.06709 -119.511818 
L 265.286275 -120.640884 
L 265.481136 -121.76995 
L 265.649998 -122.899016 
L 265.792439 -124.028082 
L 265.908959 -125.157149 
L 266.000782 -126.286215 
L 266.069788 -127.415281 
L 266.118529 -128.544347 
L 266.150228 -129.673413 
L 266.168681 -130.802479 
L 266.178039 -131.931545 
L 266.182494 -133.060611 
L 266.185969 -134.189677 
L 266.19189 -135.318743 
L 266.203133 -136.447809 
L 266.222119 -137.576876 
L 266.251005 -138.705942 
L 266.291852 -139.835008 
L 266.346653 -140.964074 
L 266.417186 -142.09314 
L 266.504694 -143.222206 
L 266.609506 -144.351272 
L 266.730715 -145.480338 
L 266.866018 -146.609404 
L 267.011788 -147.73847 
L 267.163362 -148.867536 
L 267.315505 -149.996603 
L 267.46297 -151.125669 
L 267.601076 -152.254735 
L 267.726224 -153.383801 
L 267.836265 -154.512867 
L 267.930677 -155.641933 
L 268.010497 -156.770999 
L 268.078009 -157.900065 
L 268.136249 -159.029131 
L 268.188399 -160.158197 
L 268.237222 -161.287263 
L 268.284623 -162.41633 
L 268.331454 -163.545396 
L 268.377549 -164.674462 
L 268.421988 -165.803528 
L 268.463466 -166.932594 
L 268.500687 -168.06166 
L 268.532676 -169.190726 
L 268.558951 -170.319792 
L 268.57956 -171.448858 
L 268.59499 -172.577924 
L 268.606017 -173.706991 
L 268.644892 -173.706991 
L 268.644892 -173.706991 
L 268.65592 -172.577924 
L 268.671349 -171.448858 
L 268.691958 -170.319792 
L 268.718233 -169.190726 
L 268.750222 -168.06166 
L 268.787443 -166.932594 
L 268.828921 -165.803528 
L 268.87336 -164.674462 
L 268.919455 -163.545396 
L 268.966286 -162.41633 
L 269.013687 -161.287263 
L 269.06251 -160.158197 
L 269.11466 -159.029131 
L 269.1729 -157.900065 
L 269.240413 -156.770999 
L 269.320232 -155.641933 
L 269.414644 -154.512867 
L 269.524685 -153.383801 
L 269.649833 -152.254735 
L 269.787939 -151.125669 
L 269.935404 -149.996603 
L 270.087547 -148.867536 
L 270.239121 -147.73847 
L 270.384891 -146.609404 
L 270.520194 -145.480338 
L 270.641403 -144.351272 
L 270.746215 -143.222206 
L 270.833723 -142.09314 
L 270.904256 -140.964074 
L 270.959057 -139.835008 
L 270.999904 -138.705942 
L 271.02879 -137.576876 
L 271.047776 -136.447809 
L 271.059019 -135.318743 
L 271.06494 -134.189677 
L 271.068415 -133.060611 
L 271.07287 -131.931545 
L 271.082228 -130.802479 
L 271.100681 -129.673413 
L 271.13238 -128.544347 
L 271.181121 -127.415281 
L 271.250127 -126.286215 
L 271.34195 -125.157149 
L 271.45847 -124.028082 
L 271.600911 -122.899016 
L 271.769773 -121.76995 
L 271.964634 -120.640884 
L 272.18382 -119.511818 
L 272.424044 -118.382752 
L 272.680152 -117.253686 
L 272.94513 -116.12462 
L 273.210471 -114.995554 
L 273.46693 -113.866488 
L 273.705541 -112.737421 
L 273.918753 -111.608355 
L 274.101418 -110.479289 
L 274.251463 -109.350223 
L 274.370086 -108.221157 
L 274.461451 -107.092091 
L 274.531942 -105.963025 
L 274.589112 -104.833959 
L 274.640517 -103.704893 
L 274.692613 -102.575827 
L 274.749888 -101.446761 
L 274.814334 -100.317694 
L 274.885331 -99.188628 
L 274.959932 -98.059562 
L 275.0335 -96.930496 
L 275.100565 -95.80143 
L 275.155734 -94.672364 
L 275.194433 -93.543298 
L 275.213328 -92.414232 
L 275.210283 -91.285166 
L 275.183883 -90.1561 
L 275.13267 -89.027034 
L 275.054344 -87.897967 
L 274.945221 -86.768901 
L 274.800194 -85.639835 
L 274.613277 -84.510769 
L 274.378677 -83.381703 
L 274.092155 -82.252637 
L 273.75237 -81.123571 
L 273.361896 -79.994505 
L 272.927672 -78.865439 
L 272.460768 -77.736373 
L 271.975514 -76.607307 
L 271.488123 -75.47824 
L 271.015042 -74.349174 
L 270.571317 -73.220108 
L 270.169188 -72.091042 
L 269.817146 -70.961976 
L 269.519522 -69.83291 
L 269.276627 -68.703844 
L 269.085359 -67.574778 
L 268.940109 -66.445712 
L 268.833791 -65.316646 
L 268.758826 -64.187579 
L 268.707934 -63.058513 
L 268.674689 -61.929447 
z
" style="stroke: #474747; stroke-width: 1.5"/>
    </defs>
    <g clip-path="url(#pbdfd94b65a)">
     <use xlink:href="#me300498f40" x="0" y="345.6" style="fill: #4dabb0; stroke: #474747; stroke-width: 1.5"/>
    </g>
   </g>
   <g id="PolyCollection_8">
    <defs>
     <path id="mec9c94a4ab" d="M 301.101727 -51.829166 
L 301.080091 -51.829166 
L 301.068237 -52.846424 
L 301.045775 -53.863682 
L 301.005116 -54.88094 
L 300.934544 -55.898198 
L 300.816909 -56.915456 
L 300.628801 -57.932714 
L 300.341174 -58.949972 
L 299.922543 -59.96723 
L 299.345348 -60.984488 
L 298.594595 -62.001746 
L 297.675889 -63.019004 
L 296.618684 -64.036262 
L 295.471595 -65.053521 
L 294.290367 -66.070779 
L 293.123898 -67.088037 
L 292.006152 -68.105295 
L 290.959249 -69.122553 
L 290.006153 -70.139811 
L 289.184548 -71.157069 
L 288.551564 -72.174327 
L 288.173715 -73.191585 
L 288.104727 -74.208843 
L 288.360949 -75.226101 
L 288.905922 -76.243359 
L 289.651931 -77.260617 
L 290.478957 -78.277876 
L 291.26392 -79.295134 
L 291.908969 -80.312392 
L 292.358989 -81.32965 
L 292.604603 -82.346908 
L 292.67392 -83.364166 
L 292.619793 -84.381424 
L 292.508078 -85.398682 
L 292.4084 -86.41594 
L 292.386081 -87.433198 
L 292.493986 -88.450456 
L 292.764977 -89.467714 
L 293.207159 -90.484972 
L 293.803601 -91.502231 
L 294.51655 -92.519489 
L 295.294593 -93.536747 
L 296.080989 -94.554005 
L 296.821962 -95.571263 
L 297.474354 -96.588521 
L 298.011861 -97.605779 
L 298.428564 -98.623037 
L 298.738282 -99.640295 
L 298.969229 -100.657553 
L 299.155244 -101.674811 
L 299.326371 -102.692069 
L 299.501895 -103.709327 
L 299.687818 -104.726586 
L 299.87887 -105.743844 
L 300.063542 -106.761102 
L 300.229847 -107.77836 
L 300.369732 -108.795618 
L 300.480899 -109.812876 
L 300.565964 -110.830134 
L 300.629952 -111.847392 
L 300.677676 -112.86465 
L 300.712308 -113.881908 
L 300.735513 -114.899166 
L 300.748478 -115.916424 
L 300.752761 -116.933682 
L 300.750262 -117.95094 
L 300.742462 -118.968199 
L 300.729625 -119.985457 
L 300.710664 -121.002715 
L 300.683847 -122.019973 
L 300.647998 -123.037231 
L 300.603606 -124.054489 
L 300.553409 -125.071747 
L 300.502326 -126.089005 
L 300.456817 -127.106263 
L 300.423842 -128.123521 
L 300.409575 -129.140779 
L 300.418063 -130.158037 
L 300.450144 -131.175295 
L 300.502988 -132.192554 
L 300.570548 -133.209812 
L 300.644879 -134.22707 
L 300.717948 -135.244328 
L 300.783282 -136.261586 
L 300.836934 -137.278844 
L 300.877561 -138.296102 
L 300.905873 -139.31336 
L 300.923902 -140.330618 
L 300.934472 -141.347876 
L 300.940894 -142.365134 
L 300.946652 -143.382392 
L 300.954843 -144.39965 
L 300.967441 -145.416909 
L 300.984731 -146.434167 
L 301.0053 -147.451425 
L 301.026671 -148.468683 
L 301.046271 -149.485941 
L 301.062281 -150.503199 
L 301.074001 -151.520457 
L 301.081727 -152.537715 
L 301.100091 -152.537715 
L 301.100091 -152.537715 
L 301.107817 -151.520457 
L 301.119538 -150.503199 
L 301.135547 -149.485941 
L 301.155147 -148.468683 
L 301.176518 -147.451425 
L 301.197087 -146.434167 
L 301.214377 -145.416909 
L 301.226975 -144.39965 
L 301.235166 -143.382392 
L 301.240924 -142.365134 
L 301.247346 -141.347876 
L 301.257916 -140.330618 
L 301.275945 -139.31336 
L 301.304257 -138.296102 
L 301.344884 -137.278844 
L 301.398536 -136.261586 
L 301.46387 -135.244328 
L 301.536939 -134.22707 
L 301.61127 -133.209812 
L 301.67883 -132.192554 
L 301.731674 -131.175295 
L 301.763755 -130.158037 
L 301.772243 -129.140779 
L 301.757976 -128.123521 
L 301.725002 -127.106263 
L 301.679493 -126.089005 
L 301.628409 -125.071747 
L 301.578212 -124.054489 
L 301.53382 -123.037231 
L 301.497971 -122.019973 
L 301.471154 -121.002715 
L 301.452193 -119.985457 
L 301.439356 -118.968199 
L 301.431556 -117.95094 
L 301.429058 -116.933682 
L 301.43334 -115.916424 
L 301.446305 -114.899166 
L 301.46951 -113.881908 
L 301.504142 -112.86465 
L 301.551866 -111.847392 
L 301.615854 -110.830134 
L 301.70092 -109.812876 
L 301.812086 -108.795618 
L 301.951971 -107.77836 
L 302.118276 -106.761102 
L 302.302948 -105.743844 
L 302.494 -104.726586 
L 302.679923 -103.709327 
L 302.855447 -102.692069 
L 303.026574 -101.674811 
L 303.21259 -100.657553 
L 303.443536 -99.640295 
L 303.753254 -98.623037 
L 304.169958 -97.605779 
L 304.707464 -96.588521 
L 305.359856 -95.571263 
L 306.10083 -94.554005 
L 306.887225 -93.536747 
L 307.665268 -92.519489 
L 308.378217 -91.502231 
L 308.974659 -90.484972 
L 309.416841 -89.467714 
L 309.687832 -88.450456 
L 309.795737 -87.433198 
L 309.773419 -86.41594 
L 309.67374 -85.398682 
L 309.562026 -84.381424 
L 309.507898 -83.364166 
L 309.577215 -82.346908 
L 309.822829 -81.32965 
L 310.272849 -80.312392 
L 310.917898 -79.295134 
L 311.702861 -78.277876 
L 312.529887 -77.260617 
L 313.275896 -76.243359 
L 313.820869 -75.226101 
L 314.077091 -74.208843 
L 314.008104 -73.191585 
L 313.630255 -72.174327 
L 312.99727 -71.157069 
L 312.175665 -70.139811 
L 311.222569 -69.122553 
L 310.175666 -68.105295 
L 309.05792 -67.088037 
L 307.891451 -66.070779 
L 306.710224 -65.053521 
L 305.563134 -64.036262 
L 304.505929 -63.019004 
L 303.587224 -62.001746 
L 302.83647 -60.984488 
L 302.259275 -59.96723 
L 301.840644 -58.949972 
L 301.553017 -57.932714 
L 301.364909 -56.915456 
L 301.247274 -55.898198 
L 301.176703 -54.88094 
L 301.136044 -53.863682 
L 301.113581 -52.846424 
L 301.101727 -51.829166 
z
" style="stroke: #474747; stroke-width: 1.5"/>
    </defs>
    <g clip-path="url(#pbdfd94b65a)">
     <use xlink:href="#mec9c94a4ab" x="0" y="345.6" style="fill: #54acd3; stroke: #474747; stroke-width: 1.5"/>
    </g>
   </g>
   <g id="PolyCollection_9">
    <defs>
     <path id="mf203c90d9e" d="M 333.583042 -65.299287 
L 333.529685 -65.299287 
L 333.505187 -66.471061 
L 333.464685 -67.642835 
L 333.402801 -68.814609 
L 333.315503 -69.986382 
L 333.202005 -71.158156 
L 333.066393 -72.32993 
L 332.918178 -73.501704 
L 332.771182 -74.673477 
L 332.640733 -75.845251 
L 332.539879 -77.017025 
L 332.475803 -78.188799 
L 332.447687 -79.360572 
L 332.44679 -80.532346 
L 332.458723 -81.70412 
L 332.467091 -82.875894 
L 332.457143 -84.047667 
L 332.418133 -85.219441 
L 332.343732 -86.391215 
L 332.230838 -87.562989 
L 332.077876 -88.734762 
L 331.883823 -89.906536 
L 331.648466 -91.07831 
L 331.373485 -92.250084 
L 331.063361 -93.421857 
L 330.725327 -94.593631 
L 330.368208 -95.765405 
L 330.00057 -96.937179 
L 329.628837 -98.108952 
L 329.256015 -99.280726 
L 328.881629 -100.4525 
L 328.503232 -101.624274 
L 328.119116 -102.796047 
L 327.730855 -103.967821 
L 327.343911 -105.139595 
L 326.965486 -106.311369 
L 326.600765 -107.483142 
L 326.250251 -108.654916 
L 325.91058 -109.82669 
L 325.579004 -110.998464 
L 325.259184 -112.170237 
L 324.964772 -113.342011 
L 324.718365 -114.513785 
L 324.545902 -115.685559 
L 324.468943 -116.857332 
L 324.498226 -118.029106 
L 324.631139 -119.20088 
L 324.853782 -120.372654 
L 325.146185 -121.544427 
L 325.487996 -122.716201 
L 325.862208 -123.887975 
L 326.255966 -125.059749 
L 326.659286 -126.231522 
L 327.063541 -127.403296 
L 327.461239 -128.57507 
L 327.847341 -129.746844 
L 328.221021 -130.918617 
L 328.586335 -132.090391 
L 328.950873 -133.262165 
L 329.322602 -134.433939 
L 329.706081 -135.605712 
L 330.099524 -136.777486 
L 330.493854 -137.94926 
L 330.874188 -139.121034 
L 331.223381 -140.292807 
L 331.526417 -141.464581 
L 331.774132 -142.636355 
L 331.964925 -143.808129 
L 332.104078 -144.979902 
L 332.201362 -146.151676 
L 332.268281 -147.32345 
L 332.31612 -148.495224 
L 332.35515 -149.666997 
L 332.39455 -150.838771 
L 332.442257 -152.010545 
L 332.504323 -153.182319 
L 332.583931 -154.354092 
L 332.680592 -155.525866 
L 332.79004 -156.69764 
L 332.904967 -157.869414 
L 333.016441 -159.041187 
L 333.11566 -160.212961 
L 333.195664 -161.384735 
L 333.25268 -162.556509 
L 333.286802 -163.728282 
L 333.301781 -164.900056 
L 333.303978 -166.07183 
L 333.300765 -167.243604 
L 333.298894 -168.415377 
L 333.303287 -169.587151 
L 333.316465 -170.758925 
L 333.338598 -171.930699 
L 333.367953 -173.102472 
L 333.401573 -174.274246 
L 333.436024 -175.44602 
L 333.468129 -176.617794 
L 333.495545 -177.789567 
L 333.51707 -178.961341 
L 333.532631 -180.133115 
L 333.542994 -181.304889 
L 333.569733 -181.304889 
L 333.569733 -181.304889 
L 333.580096 -180.133115 
L 333.595657 -178.961341 
L 333.617183 -177.789567 
L 333.644598 -176.617794 
L 333.676704 -175.44602 
L 333.711155 -174.274246 
L 333.744774 -173.102472 
L 333.774129 -171.930699 
L 333.796262 -170.758925 
L 333.809441 -169.587151 
L 333.813833 -168.415377 
L 333.811963 -167.243604 
L 333.808749 -166.07183 
L 333.810946 -164.900056 
L 333.825925 -163.728282 
L 333.860047 -162.556509 
L 333.917064 -161.384735 
L 333.997067 -160.212961 
L 334.096286 -159.041187 
L 334.20776 -157.869414 
L 334.322687 -156.69764 
L 334.432135 -155.525866 
L 334.528797 -154.354092 
L 334.608404 -153.182319 
L 334.67047 -152.010545 
L 334.718177 -150.838771 
L 334.757577 -149.666997 
L 334.796608 -148.495224 
L 334.844446 -147.32345 
L 334.911365 -146.151676 
L 335.008649 -144.979902 
L 335.147802 -143.808129 
L 335.338595 -142.636355 
L 335.58631 -141.464581 
L 335.889347 -140.292807 
L 336.238539 -139.121034 
L 336.618874 -137.94926 
L 337.013203 -136.777486 
L 337.406647 -135.605712 
L 337.790126 -134.433939 
L 338.161854 -133.262165 
L 338.526392 -132.090391 
L 338.891706 -130.918617 
L 339.265386 -129.746844 
L 339.651488 -128.57507 
L 340.049187 -127.403296 
L 340.453441 -126.231522 
L 340.856761 -125.059749 
L 341.250519 -123.887975 
L 341.624731 -122.716201 
L 341.966542 -121.544427 
L 342.258945 -120.372654 
L 342.481588 -119.20088 
L 342.614501 -118.029106 
L 342.643784 -116.857332 
L 342.566825 -115.685559 
L 342.394362 -114.513785 
L 342.147955 -113.342011 
L 341.853543 -112.170237 
L 341.533723 -110.998464 
L 341.202147 -109.82669 
L 340.862476 -108.654916 
L 340.511963 -107.483142 
L 340.147242 -106.311369 
L 339.768816 -105.139595 
L 339.381872 -103.967821 
L 338.993611 -102.796047 
L 338.609495 -101.624274 
L 338.231098 -100.4525 
L 337.856712 -99.280726 
L 337.48389 -98.108952 
L 337.112157 -96.937179 
L 336.744519 -95.765405 
L 336.3874 -94.593631 
L 336.049367 -93.421857 
L 335.739242 -92.250084 
L 335.464261 -91.07831 
L 335.228904 -89.906536 
L 335.034851 -88.734762 
L 334.881889 -87.562989 
L 334.768995 -86.391215 
L 334.694595 -85.219441 
L 334.655584 -84.047667 
L 334.645636 -82.875894 
L 334.654004 -81.70412 
L 334.665938 -80.532346 
L 334.66504 -79.360572 
L 334.636924 -78.188799 
L 334.572848 -77.017025 
L 334.471994 -75.845251 
L 334.341545 -74.673477 
L 334.194549 -73.501704 
L 334.046334 -72.32993 
L 333.910722 -71.158156 
L 333.797224 -69.986382 
L 333.709926 -68.814609 
L 333.648042 -67.642835 
L 333.607541 -66.471061 
L 333.583042 -65.299287 
z
" style="stroke: #474747; stroke-width: 1.5"/>
    </defs>
    <g clip-path="url(#pbdfd94b65a)">
     <use xlink:href="#mf203c90d9e" x="0" y="345.6" style="fill: #a9aceb; stroke: #474747; stroke-width: 1.5"/>
    </g>
   </g>
   <g id="PolyCollection_10">
    <defs>
     <path id="m91c5fa27f2" d="M 366.03444 -68.946055 
L 366.009196 -68.946055 
L 365.999455 -70.419496 
L 365.984799 -71.892937 
L 365.964419 -73.366378 
L 365.938144 -74.83982 
L 365.9065 -76.313261 
L 365.87038 -77.786702 
L 365.830295 -79.260144 
L 365.78551 -80.733585 
L 365.733503 -82.207026 
L 365.670209 -83.680468 
L 365.591153 -85.153909 
L 365.4931 -86.62735 
L 365.375505 -88.100791 
L 365.24105 -89.574233 
L 365.094969 -91.047674 
L 364.943503 -92.521115 
L 364.792167 -93.994557 
L 364.644586 -95.467998 
L 364.502192 -96.941439 
L 364.364661 -98.414881 
L 364.23068 -99.888322 
L 364.098703 -101.361763 
L 363.967534 -102.835204 
L 363.83668 -104.308646 
L 363.706347 -105.782087 
L 363.576931 -107.255528 
L 363.448021 -108.72897 
L 363.317354 -110.202411 
L 363.180451 -111.675852 
L 363.031504 -113.149294 
L 362.86538 -114.622735 
L 362.679811 -116.096176 
L 362.476511 -117.569618 
L 362.260499 -119.043059 
L 362.037974 -120.5165 
L 361.814029 -121.989941 
L 361.591653 -123.463383 
L 361.372699 -124.936824 
L 361.160265 -126.410265 
L 360.960979 -127.883707 
L 360.785555 -129.357148 
L 360.646829 -130.830589 
L 360.555805 -132.304031 
L 360.517355 -133.777472 
L 360.527526 -135.250913 
L 360.573733 -136.724354 
L 360.637816 -138.197796 
L 360.700692 -139.671237 
L 360.746724 -141.144678 
L 360.766251 -142.61812 
L 360.755756 -144.091561 
L 360.716398 -145.565002 
L 360.652341 -147.038444 
L 360.570134 -148.511885 
L 360.479418 -149.985326 
L 360.394096 -151.458767 
L 360.332551 -152.932209 
L 360.315863 -154.40565 
L 360.364109 -155.879091 
L 360.491887 -157.352533 
L 360.704771 -158.825974 
L 360.998083 -160.299415 
L 361.358352 -161.772857 
L 361.766731 -163.246298 
L 362.202848 -164.719739 
L 362.647686 -166.19318 
L 363.084848 -167.666622 
L 363.500589 -169.140063 
L 363.883565 -170.613504 
L 364.225021 -172.086946 
L 364.519501 -173.560387 
L 364.7655 -175.033828 
L 364.965472 -176.50727 
L 365.124964 -177.980711 
L 365.251239 -179.454152 
L 365.351946 -180.927593 
L 365.434221 -182.401035 
L 365.504234 -183.874476 
L 365.566936 -185.347917 
L 365.62578 -186.821359 
L 365.682453 -188.2948 
L 365.736842 -189.768241 
L 365.787429 -191.241683 
L 365.832119 -192.715124 
L 365.869201 -194.188565 
L 365.89806 -195.662006 
L 365.919381 -197.135448 
L 365.93484 -198.608889 
L 365.946504 -200.08233 
L 365.95624 -201.555772 
L 365.965333 -203.029213 
L 365.974383 -204.502654 
L 365.983412 -205.976096 
L 365.992081 -207.449537 
L 365.999935 -208.922978 
L 366.006585 -210.396419 
L 366.011827 -211.869861 
L 366.015663 -213.343302 
L 366.018266 -214.816743 
L 366.025371 -214.816743 
L 366.025371 -214.816743 
L 366.027974 -213.343302 
L 366.03181 -211.869861 
L 366.037051 -210.396419 
L 366.043701 -208.922978 
L 366.051555 -207.449537 
L 366.060225 -205.976096 
L 366.069253 -204.502654 
L 366.078303 -203.029213 
L 366.087397 -201.555772 
L 366.097133 -200.08233 
L 366.108796 -198.608889 
L 366.124255 -197.135448 
L 366.145576 -195.662006 
L 366.174436 -194.188565 
L 366.211517 -192.715124 
L 366.256207 -191.241683 
L 366.306794 -189.768241 
L 366.361183 -188.2948 
L 366.417857 -186.821359 
L 366.4767 -185.347917 
L 366.539402 -183.874476 
L 366.609416 -182.401035 
L 366.691691 -180.927593 
L 366.792398 -179.454152 
L 366.918673 -177.980711 
L 367.078164 -176.50727 
L 367.278136 -175.033828 
L 367.524136 -173.560387 
L 367.818615 -172.086946 
L 368.160072 -170.613504 
L 368.543047 -169.140063 
L 368.958789 -167.666622 
L 369.39595 -166.19318 
L 369.840788 -164.719739 
L 370.276905 -163.246298 
L 370.685284 -161.772857 
L 371.045554 -160.299415 
L 371.338865 -158.825974 
L 371.55175 -157.352533 
L 371.679527 -155.879091 
L 371.727773 -154.40565 
L 371.711085 -152.932209 
L 371.64954 -151.458767 
L 371.564219 -149.985326 
L 371.473502 -148.511885 
L 371.391295 -147.038444 
L 371.327238 -145.565002 
L 371.287881 -144.091561 
L 371.277385 -142.61812 
L 371.296912 -141.144678 
L 371.342945 -139.671237 
L 371.405821 -138.197796 
L 371.469904 -136.724354 
L 371.516111 -135.250913 
L 371.526282 -133.777472 
L 371.487832 -132.304031 
L 371.396808 -130.830589 
L 371.258082 -129.357148 
L 371.082657 -127.883707 
L 370.883371 -126.410265 
L 370.670938 -124.936824 
L 370.451983 -123.463383 
L 370.229607 -121.989941 
L 370.005662 -120.5165 
L 369.783137 -119.043059 
L 369.567126 -117.569618 
L 369.363825 -116.096176 
L 369.178256 -114.622735 
L 369.012133 -113.149294 
L 368.863186 -111.675852 
L 368.726283 -110.202411 
L 368.595615 -108.72897 
L 368.466705 -107.255528 
L 368.337289 -105.782087 
L 368.206956 -104.308646 
L 368.076102 -102.835204 
L 367.944934 -101.361763 
L 367.812956 -99.888322 
L 367.678975 -98.414881 
L 367.541444 -96.941439 
L 367.39905 -95.467998 
L 367.251469 -93.994557 
L 367.100134 -92.521115 
L 366.948667 -91.047674 
L 366.802587 -89.574233 
L 366.668131 -88.100791 
L 366.550537 -86.62735 
L 366.452484 -85.153909 
L 366.373427 -83.680468 
L 366.310133 -82.207026 
L 366.258126 -80.733585 
L 366.213341 -79.260144 
L 366.173257 -77.786702 
L 366.137136 -76.313261 
L 366.105492 -74.83982 
L 366.079217 -73.366378 
L 366.058838 -71.892937 
L 366.044182 -70.419496 
L 366.03444 -68.946055 
z
" style="stroke: #474747; stroke-width: 1.5"/>
    </defs>
    <g clip-path="url(#pbdfd94b65a)">
     <use xlink:href="#m91c5fa27f2" x="0" y="345.6" style="fill: #d795e8; stroke: #474747; stroke-width: 1.5"/>
    </g>
   </g>
   <g id="PolyCollection_11">
    <defs>
     <path id="md3b45db891" d="M 398.537596 -75.449372 
L 398.43695 -75.449372 
L 398.410887 -76.204691 
L 398.373847 -76.960009 
L 398.322338 -77.715328 
L 398.252164 -78.470646 
L 398.158419 -79.225964 
L 398.035526 -79.981283 
L 397.877369 -80.736601 
L 397.677537 -81.491919 
L 397.429727 -82.247238 
L 397.128309 -83.002556 
L 396.769057 -83.757875 
L 396.349964 -84.513193 
L 395.872058 -85.268511 
L 395.340035 -86.02383 
L 394.762556 -86.779148 
L 394.152025 -87.534467 
L 393.52377 -88.289785 
L 392.894634 -89.045103 
L 392.281115 -89.800422 
L 391.697342 -90.55574 
L 391.153243 -91.311058 
L 390.653306 -92.066377 
L 390.196255 -92.821695 
L 389.775826 -93.577014 
L 389.382595 -94.332332 
L 389.006619 -95.08765 
L 388.640385 -95.842969 
L 388.281516 -96.598287 
L 387.934615 -97.353606 
L 387.611821 -98.108924 
L 387.331851 -98.864242 
L 387.117642 -99.619561 
L 386.992957 -100.374879 
L 386.978596 -101.130197 
L 387.088874 -101.885516 
L 387.329023 -102.640834 
L 387.69394 -103.396153 
L 388.168468 -104.151471 
L 388.729064 -104.906789 
L 389.346527 -105.662108 
L 389.989249 -106.417426 
L 390.626467 -107.172744 
L 391.231041 -107.928063 
L 391.781439 -108.683381 
L 392.262751 -109.4387 
L 392.666782 -110.194018 
L 392.991339 -110.949336 
L 393.238985 -111.704655 
L 393.41552 -112.459973 
L 393.528481 -113.215292 
L 393.585881 -113.97061 
L 393.595368 -114.725928 
L 393.563858 -115.481247 
L 393.497634 -116.236565 
L 393.402794 -116.991883 
L 393.28589 -117.747202 
L 393.154523 -118.50252 
L 393.01774 -119.257839 
L 392.886051 -120.013157 
L 392.771039 -120.768475 
L 392.684568 -121.523794 
L 392.63773 -122.279112 
L 392.639707 -123.03443 
L 392.696752 -123.789749 
L 392.811483 -124.545067 
L 392.982606 -125.300386 
L 393.205139 -126.055704 
L 393.471067 -126.811022 
L 393.770329 -127.566341 
L 394.091971 -128.321659 
L 394.425264 -129.076978 
L 394.760645 -129.832296 
L 395.090341 -130.587614 
L 395.408646 -131.342933 
L 395.71185 -132.098251 
L 395.997916 -132.853569 
L 396.265999 -133.608888 
L 396.515948 -134.364206 
L 396.747889 -135.119525 
L 396.961963 -135.874843 
L 397.158226 -136.630161 
L 397.336706 -137.38548 
L 397.497527 -138.140798 
L 397.641057 -138.896116 
L 397.768005 -139.651435 
L 397.879427 -140.406753 
L 397.976662 -141.162072 
L 398.061194 -141.91739 
L 398.13451 -142.672708 
L 398.197968 -143.428027 
L 398.252722 -144.183345 
L 398.299704 -144.938664 
L 398.339654 -145.693982 
L 398.373191 -146.4493 
L 398.400873 -147.204619 
L 398.423264 -147.959937 
L 398.440958 -148.715255 
L 398.454584 -149.470574 
L 398.464793 -150.225892 
L 398.509753 -150.225892 
L 398.509753 -150.225892 
L 398.519962 -149.470574 
L 398.533588 -148.715255 
L 398.551281 -147.959937 
L 398.573672 -147.204619 
L 398.601355 -146.4493 
L 398.634891 -145.693982 
L 398.674842 -144.938664 
L 398.721824 -144.183345 
L 398.776578 -143.428027 
L 398.840036 -142.672708 
L 398.913352 -141.91739 
L 398.997884 -141.162072 
L 399.095118 -140.406753 
L 399.20654 -139.651435 
L 399.333488 -138.896116 
L 399.477019 -138.140798 
L 399.63784 -137.38548 
L 399.816319 -136.630161 
L 400.012583 -135.874843 
L 400.226656 -135.119525 
L 400.458598 -134.364206 
L 400.708547 -133.608888 
L 400.97663 -132.853569 
L 401.262696 -132.098251 
L 401.5659 -131.342933 
L 401.884204 -130.587614 
L 402.2139 -129.832296 
L 402.549281 -129.076978 
L 402.882575 -128.321659 
L 403.204216 -127.566341 
L 403.503479 -126.811022 
L 403.769406 -126.055704 
L 403.991939 -125.300386 
L 404.163063 -124.545067 
L 404.277793 -123.789749 
L 404.334839 -123.03443 
L 404.336816 -122.279112 
L 404.289978 -121.523794 
L 404.203506 -120.768475 
L 404.088494 -120.013157 
L 403.956806 -119.257839 
L 403.820022 -118.50252 
L 403.688656 -117.747202 
L 403.571751 -116.991883 
L 403.476912 -116.236565 
L 403.410687 -115.481247 
L 403.379177 -114.725928 
L 403.388664 -113.97061 
L 403.446065 -113.215292 
L 403.559025 -112.459973 
L 403.73556 -111.704655 
L 403.983206 -110.949336 
L 404.307763 -110.194018 
L 404.711794 -109.4387 
L 405.193107 -108.683381 
L 405.743504 -107.928063 
L 406.348079 -107.172744 
L 406.985296 -106.417426 
L 407.628018 -105.662108 
L 408.245482 -104.906789 
L 408.806078 -104.151471 
L 409.280605 -103.396153 
L 409.645523 -102.640834 
L 409.885672 -101.885516 
L 409.99595 -101.130197 
L 409.981589 -100.374879 
L 409.856904 -99.619561 
L 409.642694 -98.864242 
L 409.362725 -98.108924 
L 409.03993 -97.353606 
L 408.69303 -96.598287 
L 408.33416 -95.842969 
L 407.967927 -95.08765 
L 407.59195 -94.332332 
L 407.19872 -93.577014 
L 406.77829 -92.821695 
L 406.32124 -92.066377 
L 405.821303 -91.311058 
L 405.277204 -90.55574 
L 404.69343 -89.800422 
L 404.079912 -89.045103 
L 403.450776 -88.289785 
L 402.822521 -87.534467 
L 402.211989 -86.779148 
L 401.63451 -86.02383 
L 401.102488 -85.268511 
L 400.624581 -84.513193 
L 400.205489 -83.757875 
L 399.846236 -83.002556 
L 399.544819 -82.247238 
L 399.297008 -81.491919 
L 399.097176 -80.736601 
L 398.939019 -79.981283 
L 398.816126 -79.225964 
L 398.722381 -78.470646 
L 398.652208 -77.715328 
L 398.600698 -76.960009 
L 398.563659 -76.204691 
L 398.537596 -75.449372 
z
" style="stroke: #474747; stroke-width: 1.5"/>
    </defs>
    <g clip-path="url(#pbdfd94b65a)">
     <use xlink:href="#md3b45db891" x="0" y="345.6" style="fill: #e88fc9; stroke: #474747; stroke-width: 1.5"/>
    </g>
   </g>
   <g id="matplotlib.axis_1">
    <g id="xtick_1">
     <g id="line2d_1">
      <defs>
       <path id="m7877f7ecf3" d="M 0 0 
L 0 3.5 
" style="stroke: #000000; stroke-width: 0.8"/>
      </defs>
      <g>
       <use xlink:href="#m7877f7ecf3" x="73.832727" y="307.584" style="stroke: #000000; stroke-width: 0.8"/>
      </g>
     </g>
     <g id="text_1">
      <!-- 00 -->
      <g transform="translate(68.832727 321.413687) scale(0.1 -0.1)">
       <defs>
        <path id="STIXGeneral-Regular-30" d="M 3046 2112 
Q 3046 1683 2963 1302 
Q 2880 922 2717 602 
Q 2554 282 2266 96 
Q 1978 -90 1600 -90 
Q 1210 -90 915 108 
Q 621 307 461 640 
Q 301 973 227 1350 
Q 154 1728 154 2150 
Q 154 2746 301 3222 
Q 448 3699 790 4012 
Q 1133 4326 1626 4326 
Q 2253 4326 2649 3712 
Q 3046 3098 3046 2112 
z
M 2432 2080 
Q 2432 3091 2217 3625 
Q 2003 4160 1587 4160 
Q 1190 4160 979 3622 
Q 768 3085 768 2106 
Q 768 1120 979 598 
Q 1190 77 1600 77 
Q 2003 77 2217 598 
Q 2432 1120 2432 2080 
z
" transform="scale(0.015625)"/>
       </defs>
       <use xlink:href="#STIXGeneral-Regular-30"/>
       <use xlink:href="#STIXGeneral-Regular-30" x="49.999985"/>
      </g>
     </g>
    </g>
    <g id="xtick_2">
     <g id="line2d_2">
      <g>
       <use xlink:href="#m7877f7ecf3" x="106.298182" y="307.584" style="stroke: #000000; stroke-width: 0.8"/>
      </g>
     </g>
     <g id="text_2">
      <!-- 05 -->
      <g transform="translate(101.298182 321.413687) scale(0.1 -0.1)">
       <defs>
        <path id="STIXGeneral-Regular-35" d="M 2803 4358 
L 2573 3814 
Q 2534 3731 2400 3731 
L 1158 3731 
L 902 3187 
Q 1606 3053 1920 2896 
Q 2234 2739 2502 2368 
Q 2726 2061 2726 1555 
Q 2726 1094 2576 780 
Q 2426 467 2099 224 
Q 1664 -90 1011 -90 
Q 646 -90 422 19 
Q 198 128 198 307 
Q 198 550 486 550 
Q 717 550 960 352 
Q 1210 147 1414 147 
Q 1747 147 2012 480 
Q 2278 813 2278 1229 
Q 2278 1843 1850 2189 
Q 1293 2637 486 2637 
Q 410 2637 410 2688 
L 416 2720 
L 1114 4237 
L 2438 4237 
Q 2547 4237 2608 4269 
Q 2669 4301 2746 4403 
L 2803 4358 
z
" transform="scale(0.015625)"/>
       </defs>
       <use xlink:href="#STIXGeneral-Regular-30"/>
       <use xlink:href="#STIXGeneral-Regular-35" x="49.999985"/>
      </g>
     </g>
    </g>
    <g id="xtick_3">
     <g id="line2d_3">
      <g>
       <use xlink:href="#m7877f7ecf3" x="138.763636" y="307.584" style="stroke: #000000; stroke-width: 0.8"/>
      </g>
     </g>
     <g id="text_3">
      <!-- 08 -->
      <g transform="translate(133.763636 321.413687) scale(0.1 -0.1)">
       <defs>
        <path id="STIXGeneral-Regular-38" d="M 2848 992 
Q 2848 499 2505 204 
Q 2163 -90 1587 -90 
Q 1050 -90 704 204 
Q 358 499 358 954 
Q 358 1293 524 1533 
Q 691 1773 1190 2125 
Q 710 2522 553 2765 
Q 397 3008 397 3328 
Q 397 3782 745 4054 
Q 1094 4326 1638 4326 
Q 2106 4326 2410 4060 
Q 2714 3795 2714 3411 
Q 2714 3059 2531 2848 
Q 2349 2637 1856 2374 
Q 2432 1990 2640 1689 
Q 2848 1389 2848 992 
z
M 2272 3411 
Q 2272 3744 2086 3945 
Q 1901 4147 1574 4147 
Q 1248 4147 1059 3977 
Q 870 3808 870 3513 
Q 870 3219 1059 2979 
Q 1248 2739 1670 2490 
Q 1997 2682 2134 2896 
Q 2272 3110 2272 3411 
z
M 1734 1741 
L 1357 1997 
Q 1075 1766 960 1545 
Q 845 1325 845 1011 
Q 845 576 1065 333 
Q 1286 90 1658 90 
Q 1971 90 2166 285 
Q 2362 480 2362 794 
Q 2362 1082 2214 1299 
Q 2067 1517 1734 1741 
z
" transform="scale(0.015625)"/>
       </defs>
       <use xlink:href="#STIXGeneral-Regular-30"/>
       <use xlink:href="#STIXGeneral-Regular-38" x="49.999985"/>
      </g>
     </g>
    </g>
    <g id="xtick_4">
     <g id="line2d_4">
      <g>
       <use xlink:href="#m7877f7ecf3" x="171.229091" y="307.584" style="stroke: #000000; stroke-width: 0.8"/>
      </g>
     </g>
     <g id="text_4">
      <!-- 02 -->
      <g transform="translate(166.229091 321.413687) scale(0.1 -0.1)">
       <defs>
        <path id="STIXGeneral-Regular-32" d="M 3034 877 
L 2688 0 
L 186 0 
L 186 77 
L 1325 1286 
Q 1773 1754 1965 2144 
Q 2157 2534 2157 2950 
Q 2157 3379 1920 3616 
Q 1683 3853 1267 3853 
Q 922 3853 720 3673 
Q 518 3494 326 3021 
L 192 3053 
Q 301 3648 630 3987 
Q 960 4326 1523 4326 
Q 2054 4326 2380 4006 
Q 2707 3686 2707 3200 
Q 2707 2477 1888 1613 
L 832 486 
L 2330 486 
Q 2541 486 2665 569 
Q 2790 653 2944 915 
L 3034 877 
z
" transform="scale(0.015625)"/>
       </defs>
       <use xlink:href="#STIXGeneral-Regular-30"/>
       <use xlink:href="#STIXGeneral-Regular-32" x="49.999985"/>
      </g>
     </g>
    </g>
    <g id="xtick_5">
     <g id="line2d_5">
      <g>
       <use xlink:href="#m7877f7ecf3" x="203.694545" y="307.584" style="stroke: #000000; stroke-width: 0.8"/>
      </g>
     </g>
     <g id="text_5">
      <!-- 09 -->
      <g transform="translate(198.694545 321.413687) scale(0.1 -0.1)">
       <defs>
        <path id="STIXGeneral-Regular-39" d="M 378 -141 
L 358 -13 
Q 1094 115 1603 608 
Q 2112 1101 2304 1882 
Q 1933 1517 1344 1517 
Q 826 1517 509 1875 
Q 192 2234 192 2816 
Q 192 3462 573 3894 
Q 954 4326 1523 4326 
Q 2131 4326 2528 3840 
Q 2938 3328 2938 2522 
Q 2938 1958 2742 1462 
Q 2547 966 2170 621 
Q 1773 262 1395 105 
Q 1018 -51 378 -141 
z
M 2317 2272 
L 2317 2522 
Q 2317 4147 1472 4147 
Q 1171 4147 1005 3930 
Q 909 3802 845 3546 
Q 781 3290 781 3034 
Q 781 2464 995 2128 
Q 1210 1792 1568 1792 
Q 1824 1792 2070 1917 
Q 2317 2042 2317 2272 
z
" transform="scale(0.015625)"/>
       </defs>
       <use xlink:href="#STIXGeneral-Regular-30"/>
       <use xlink:href="#STIXGeneral-Regular-39" x="49.999985"/>
      </g>
     </g>
    </g>
    <g id="xtick_6">
     <g id="line2d_6">
      <g>
       <use xlink:href="#m7877f7ecf3" x="236.16" y="307.584" style="stroke: #000000; stroke-width: 0.8"/>
      </g>
     </g>
     <g id="text_6">
      <!-- 10 -->
      <g transform="translate(231.16 321.413687) scale(0.1 -0.1)">
       <defs>
        <path id="STIXGeneral-Regular-31" d="M 2522 0 
L 755 0 
L 755 96 
Q 1107 115 1235 227 
Q 1363 339 1363 608 
L 1363 3482 
Q 1363 3795 1171 3795 
Q 1082 3795 883 3718 
L 710 3654 
L 710 3744 
L 1856 4326 
L 1914 4307 
L 1914 486 
Q 1914 275 2042 185 
Q 2170 96 2522 96 
L 2522 0 
z
" transform="scale(0.015625)"/>
       </defs>
       <use xlink:href="#STIXGeneral-Regular-31"/>
       <use xlink:href="#STIXGeneral-Regular-30" x="49.999985"/>
      </g>
     </g>
    </g>
    <g id="xtick_7">
     <g id="line2d_7">
      <g>
       <use xlink:href="#m7877f7ecf3" x="268.625455" y="307.584" style="stroke: #000000; stroke-width: 0.8"/>
      </g>
     </g>
     <g id="text_7">
      <!-- 03 -->
      <g transform="translate(263.625455 321.413687) scale(0.1 -0.1)">
       <defs>
        <path id="STIXGeneral-Regular-33" d="M 390 3264 
L 288 3290 
Q 435 3770 748 4048 
Q 1062 4326 1542 4326 
Q 1990 4326 2265 4083 
Q 2541 3840 2541 3450 
Q 2541 2925 1946 2566 
Q 2298 2413 2477 2227 
Q 2758 1914 2758 1402 
Q 2758 890 2464 506 
Q 2246 211 1840 60 
Q 1434 -90 979 -90 
Q 262 -90 262 275 
Q 262 378 339 442 
Q 416 506 525 506 
Q 685 506 915 339 
Q 1197 141 1466 141 
Q 1818 141 2058 425 
Q 2298 710 2298 1120 
Q 2298 1856 1632 2048 
Q 1434 2112 979 2112 
L 979 2202 
Q 1338 2323 1517 2432 
Q 2035 2726 2035 3290 
Q 2035 3610 1852 3776 
Q 1670 3942 1344 3942 
Q 768 3942 390 3264 
z
" transform="scale(0.015625)"/>
       </defs>
       <use xlink:href="#STIXGeneral-Regular-30"/>
       <use xlink:href="#STIXGeneral-Regular-33" x="49.999985"/>
      </g>
     </g>
    </g>
    <g id="xtick_8">
     <g id="line2d_8">
      <g>
       <use xlink:href="#m7877f7ecf3" x="301.090909" y="307.584" style="stroke: #000000; stroke-width: 0.8"/>
      </g>
     </g>
     <g id="text_8">
      <!-- 01 -->
      <g transform="translate(296.090909 321.413687) scale(0.1 -0.1)">
       <use xlink:href="#STIXGeneral-Regular-30"/>
       <use xlink:href="#STIXGeneral-Regular-31" x="49.999985"/>
      </g>
     </g>
    </g>
    <g id="xtick_9">
     <g id="line2d_9">
      <g>
       <use xlink:href="#m7877f7ecf3" x="333.556364" y="307.584" style="stroke: #000000; stroke-width: 0.8"/>
      </g>
     </g>
     <g id="text_9">
      <!-- 06 -->
      <g transform="translate(328.556364 321.413687) scale(0.1 -0.1)">
       <defs>
        <path id="STIXGeneral-Regular-36" d="M 2854 4378 
L 2867 4275 
Q 2112 4154 1606 3664 
Q 1101 3174 973 2451 
Q 1344 2739 1786 2739 
Q 2349 2739 2672 2380 
Q 2995 2022 2995 1402 
Q 2995 774 2669 378 
Q 2291 -90 1651 -90 
Q 870 -90 518 557 
Q 218 1107 218 1786 
Q 218 2835 915 3552 
Q 1312 3962 1731 4131 
Q 2150 4301 2854 4378 
z
M 2419 1203 
Q 2419 2445 1555 2445 
Q 1235 2445 1024 2275 
Q 813 2106 813 1702 
Q 813 954 1046 522 
Q 1280 90 1722 90 
Q 2061 90 2240 394 
Q 2419 698 2419 1203 
z
" transform="scale(0.015625)"/>
       </defs>
       <use xlink:href="#STIXGeneral-Regular-30"/>
       <use xlink:href="#STIXGeneral-Regular-36" x="49.999985"/>
      </g>
     </g>
    </g>
    <g id="xtick_10">
     <g id="line2d_10">
      <g>
       <use xlink:href="#m7877f7ecf3" x="366.021818" y="307.584" style="stroke: #000000; stroke-width: 0.8"/>
      </g>
     </g>
     <g id="text_10">
      <!-- 07 -->
      <g transform="translate(361.021818 321.413687) scale(0.1 -0.1)">
       <defs>
        <path id="STIXGeneral-Regular-37" d="M 2874 4134 
L 1517 -51 
L 1101 -51 
L 2368 3763 
L 992 3763 
Q 717 3763 582 3667 
Q 448 3571 243 3238 
L 128 3296 
L 512 4237 
L 2874 4237 
L 2874 4134 
z
" transform="scale(0.015625)"/>
       </defs>
       <use xlink:href="#STIXGeneral-Regular-30"/>
       <use xlink:href="#STIXGeneral-Regular-37" x="49.999985"/>
      </g>
     </g>
    </g>
    <g id="xtick_11">
     <g id="line2d_11">
      <g>
       <use xlink:href="#m7877f7ecf3" x="398.487273" y="307.584" style="stroke: #000000; stroke-width: 0.8"/>
      </g>
     </g>
     <g id="text_11">
      <!-- 04 -->
      <g transform="translate(393.487273 321.413687) scale(0.1 -0.1)">
       <defs>
        <path id="STIXGeneral-Regular-34" d="M 3027 1069 
L 2368 1069 
L 2368 0 
L 1869 0 
L 1869 1069 
L 77 1069 
L 77 1478 
L 2086 4326 
L 2368 4326 
L 2368 1478 
L 3027 1478 
L 3027 1069 
z
M 1869 1478 
L 1869 3674 
L 333 1478 
L 1869 1478 
z
" transform="scale(0.015625)"/>
       </defs>
       <use xlink:href="#STIXGeneral-Regular-30"/>
       <use xlink:href="#STIXGeneral-Regular-34" x="49.999985"/>
      </g>
     </g>
    </g>
    <g id="text_12">
     <!-- sequence -->
     <g transform="translate(217.833438 334.413687) scale(0.1 -0.1)">
      <defs>
       <path id="STIXGeneral-Regular-73" d="M 998 1926 
L 1664 1523 
Q 1984 1331 2105 1164 
Q 2227 998 2227 736 
Q 2227 416 1961 176 
Q 1696 -64 1331 -64 
Q 1030 -64 864 -6 
Q 691 51 570 51 
Q 461 51 416 -26 
L 333 -26 
L 333 979 
L 435 979 
Q 538 512 730 294 
Q 922 77 1248 77 
Q 1485 77 1632 211 
Q 1779 346 1779 550 
Q 1779 845 1440 1030 
L 1094 1222 
Q 326 1651 326 2150 
Q 326 2522 566 2730 
Q 806 2938 1210 2938 
Q 1491 2938 1638 2867 
Q 1754 2816 1818 2816 
Q 1862 2816 1920 2880 
L 1990 2880 
L 2022 2010 
L 1926 2010 
Q 1818 2445 1654 2621 
Q 1491 2797 1203 2797 
Q 986 2797 854 2688 
Q 723 2579 723 2362 
Q 723 2253 796 2128 
Q 870 2003 998 1926 
z
" transform="scale(0.015625)"/>
       <path id="STIXGeneral-Regular-65" d="M 2611 1050 
L 2714 1005 
Q 2330 -64 1376 -64 
Q 813 -64 486 329 
Q 160 723 160 1389 
Q 160 2074 525 2509 
Q 890 2944 1485 2944 
Q 2061 2944 2374 2502 
Q 2560 2246 2592 1773 
L 621 1773 
Q 646 1370 700 1158 
Q 755 947 915 730 
Q 1184 378 1626 378 
Q 1939 378 2153 531 
Q 2368 685 2611 1050 
z
M 634 1978 
L 1939 1978 
Q 1882 2381 1750 2547 
Q 1619 2714 1312 2714 
Q 1043 2714 864 2525 
Q 685 2336 634 1978 
z
" transform="scale(0.015625)"/>
       <path id="STIXGeneral-Regular-71" d="M 3123 -1389 
L 1613 -1389 
L 1613 -1280 
Q 1952 -1254 2067 -1158 
Q 2182 -1062 2182 -794 
L 2182 410 
Q 1747 -64 1178 -64 
Q 730 -64 442 320 
Q 154 704 154 1312 
Q 154 2003 560 2473 
Q 966 2944 1562 2944 
Q 1920 2944 2304 2720 
L 2650 2925 
L 2720 2925 
L 2720 -902 
Q 2720 -1107 2797 -1180 
Q 2874 -1254 3123 -1280 
L 3123 -1389 
z
M 2182 813 
L 2182 2131 
Q 2182 2758 1587 2758 
Q 1178 2758 941 2432 
Q 704 2106 704 1542 
Q 704 1210 803 925 
Q 902 640 1062 499 
Q 1254 326 1542 326 
Q 1882 326 2106 531 
Q 2182 602 2182 813 
z
" transform="scale(0.015625)"/>
       <path id="STIXGeneral-Regular-75" d="M 3072 320 
L 3072 230 
Q 2573 96 2195 -58 
L 2163 -38 
L 2163 486 
L 2150 486 
Q 1747 -64 1235 -64 
Q 870 -64 662 160 
Q 454 384 454 755 
L 454 2362 
Q 454 2598 371 2688 
Q 288 2778 58 2790 
L 58 2880 
L 992 2880 
L 992 813 
Q 992 595 1123 451 
Q 1254 307 1446 307 
Q 1760 307 1984 506 
Q 2067 582 2099 649 
Q 2131 717 2131 877 
L 2131 2355 
Q 2131 2605 2041 2678 
Q 1952 2752 1658 2771 
L 1658 2880 
L 2669 2880 
L 2669 685 
Q 2669 461 2742 390 
Q 2816 320 3034 320 
L 3072 320 
z
" transform="scale(0.015625)"/>
       <path id="STIXGeneral-Regular-6e" d="M 3104 0 
L 1773 0 
L 1779 96 
Q 2016 115 2096 233 
Q 2176 352 2176 672 
L 2176 1946 
Q 2176 2592 1709 2592 
Q 1549 2592 1408 2515 
Q 1267 2438 1050 2227 
L 1050 461 
Q 1050 269 1136 192 
Q 1222 115 1466 96 
L 1466 0 
L 115 0 
L 115 96 
Q 358 115 435 214 
Q 512 314 512 602 
L 512 2157 
Q 512 2394 467 2483 
Q 422 2573 288 2573 
Q 160 2573 102 2547 
L 102 2656 
Q 550 2784 979 2944 
L 1030 2925 
L 1030 2426 
L 1037 2426 
Q 1491 2944 1958 2944 
Q 2323 2944 2518 2688 
Q 2714 2432 2714 1958 
L 2714 544 
Q 2714 288 2790 205 
Q 2867 122 3104 96 
L 3104 0 
z
" transform="scale(0.015625)"/>
       <path id="STIXGeneral-Regular-63" d="M 2547 998 
L 2637 941 
Q 2362 403 2112 205 
Q 1786 -64 1376 -64 
Q 845 -64 502 336 
Q 160 736 160 1357 
Q 160 2170 698 2618 
Q 1094 2944 1562 2944 
Q 1965 2944 2256 2749 
Q 2547 2554 2547 2285 
Q 2547 2176 2457 2096 
Q 2368 2016 2246 2016 
Q 2022 2016 1939 2310 
L 1901 2451 
Q 1850 2630 1773 2694 
Q 1696 2758 1523 2758 
Q 1133 2758 893 2451 
Q 653 2144 653 1645 
Q 653 1094 928 745 
Q 1203 397 1645 397 
Q 1920 397 2118 528 
Q 2317 659 2547 998 
z
" transform="scale(0.015625)"/>
      </defs>
      <use xlink:href="#STIXGeneral-Regular-73"/>
      <use xlink:href="#STIXGeneral-Regular-65" x="38.899994"/>
      <use xlink:href="#STIXGeneral-Regular-71" x="83.299988"/>
      <use xlink:href="#STIXGeneral-Regular-75" x="133.299973"/>
      <use xlink:href="#STIXGeneral-Regular-65" x="183.299957"/>
      <use xlink:href="#STIXGeneral-Regular-6e" x="227.699951"/>
      <use xlink:href="#STIXGeneral-Regular-63" x="277.699936"/>
      <use xlink:href="#STIXGeneral-Regular-65" x="322.09993"/>
     </g>
    </g>
   </g>
   <g id="matplotlib.axis_2">
    <g id="ytick_1">
     <g id="line2d_12">
      <defs>
       <path id="mc42ff04e0e" d="M 0 0 
L -3.5 0 
" style="stroke: #000000; stroke-width: 0.8"/>
      </defs>
      <g>
       <use xlink:href="#mc42ff04e0e" x="57.6" y="305.813335" style="stroke: #000000; stroke-width: 0.8"/>
      </g>
     </g>
     <g id="text_13">
      <!-- 0.0 -->
      <g transform="translate(38.1 309.228179) scale(0.1 -0.1)">
       <defs>
        <path id="STIXGeneral-Regular-2e" d="M 1158 275 
Q 1158 134 1052 32 
Q 947 -70 800 -70 
Q 653 -70 550 32 
Q 448 134 448 281 
Q 448 429 553 534 
Q 659 640 806 640 
Q 947 640 1052 531 
Q 1158 422 1158 275 
z
" transform="scale(0.015625)"/>
       </defs>
       <use xlink:href="#STIXGeneral-Regular-30"/>
       <use xlink:href="#STIXGeneral-Regular-2e" x="49.999985"/>
       <use xlink:href="#STIXGeneral-Regular-30" x="74.999969"/>
      </g>
     </g>
    </g>
    <g id="ytick_2">
     <g id="line2d_13">
      <g>
       <use xlink:href="#mc42ff04e0e" x="57.6" y="264.095547" style="stroke: #000000; stroke-width: 0.8"/>
      </g>
     </g>
     <g id="text_14">
      <!-- 0.1 -->
      <g transform="translate(38.1 267.51039) scale(0.1 -0.1)">
       <use xlink:href="#STIXGeneral-Regular-30"/>
       <use xlink:href="#STIXGeneral-Regular-2e" x="49.999985"/>
       <use xlink:href="#STIXGeneral-Regular-31" x="74.999969"/>
      </g>
     </g>
    </g>
    <g id="ytick_3">
     <g id="line2d_14">
      <g>
       <use xlink:href="#mc42ff04e0e" x="57.6" y="222.377758" style="stroke: #000000; stroke-width: 0.8"/>
      </g>
     </g>
     <g id="text_15">
      <!-- 0.2 -->
      <g transform="translate(38.1 225.792601) scale(0.1 -0.1)">
       <use xlink:href="#STIXGeneral-Regular-30"/>
       <use xlink:href="#STIXGeneral-Regular-2e" x="49.999985"/>
       <use xlink:href="#STIXGeneral-Regular-32" x="74.999969"/>
      </g>
     </g>
    </g>
    <g id="ytick_4">
     <g id="line2d_15">
      <g>
       <use xlink:href="#mc42ff04e0e" x="57.6" y="180.659969" style="stroke: #000000; stroke-width: 0.8"/>
      </g>
     </g>
     <g id="text_16">
      <!-- 0.3 -->
      <g transform="translate(38.1 184.074813) scale(0.1 -0.1)">
       <use xlink:href="#STIXGeneral-Regular-30"/>
       <use xlink:href="#STIXGeneral-Regular-2e" x="49.999985"/>
       <use xlink:href="#STIXGeneral-Regular-33" x="74.999969"/>
      </g>
     </g>
    </g>
    <g id="ytick_5">
     <g id="line2d_16">
      <g>
       <use xlink:href="#mc42ff04e0e" x="57.6" y="138.94218" style="stroke: #000000; stroke-width: 0.8"/>
      </g>
     </g>
     <g id="text_17">
      <!-- 0.4 -->
      <g transform="translate(38.1 142.357024) scale(0.1 -0.1)">
       <use xlink:href="#STIXGeneral-Regular-30"/>
       <use xlink:href="#STIXGeneral-Regular-2e" x="49.999985"/>
       <use xlink:href="#STIXGeneral-Regular-34" x="74.999969"/>
      </g>
     </g>
    </g>
    <g id="ytick_6">
     <g id="line2d_17">
      <g>
       <use xlink:href="#mc42ff04e0e" x="57.6" y="97.224391" style="stroke: #000000; stroke-width: 0.8"/>
      </g>
     </g>
     <g id="text_18">
      <!-- 0.5 -->
      <g transform="translate(38.1 100.639235) scale(0.1 -0.1)">
       <use xlink:href="#STIXGeneral-Regular-30"/>
       <use xlink:href="#STIXGeneral-Regular-2e" x="49.999985"/>
       <use xlink:href="#STIXGeneral-Regular-35" x="74.999969"/>
      </g>
     </g>
    </g>
    <g id="ytick_7">
     <g id="line2d_18">
      <g>
       <use xlink:href="#mc42ff04e0e" x="57.6" y="55.506602" style="stroke: #000000; stroke-width: 0.8"/>
      </g>
     </g>
     <g id="text_19">
      <!-- 0.6 -->
      <g transform="translate(38.1 58.921446) scale(0.1 -0.1)">
       <use xlink:href="#STIXGeneral-Regular-30"/>
       <use xlink:href="#STIXGeneral-Regular-2e" x="49.999985"/>
       <use xlink:href="#STIXGeneral-Regular-36" x="74.999969"/>
      </g>
     </g>
    </g>
    <g id="text_20">
     <!-- value -->
     <g transform="translate(31.929688 185.358469) rotate(-90) scale(0.1 -0.1)">
      <defs>
       <path id="STIXGeneral-Regular-76" d="M 3053 2880 
L 3053 2784 
Q 2906 2771 2835 2688 
Q 2765 2605 2637 2285 
L 1818 230 
Q 1690 -90 1638 -90 
Q 1587 -90 1523 77 
Q 1510 96 1497 141 
Q 1485 186 1472 211 
L 704 2048 
Q 499 2534 403 2652 
Q 307 2771 122 2784 
L 122 2880 
L 1376 2880 
L 1376 2784 
Q 1210 2771 1146 2732 
Q 1082 2694 1082 2611 
Q 1082 2509 1139 2368 
L 1792 730 
L 2426 2387 
Q 2464 2483 2464 2579 
Q 2464 2758 2163 2784 
L 2163 2880 
L 3053 2880 
z
" transform="scale(0.015625)"/>
       <path id="STIXGeneral-Regular-61" d="M 2829 422 
L 2829 243 
Q 2586 -64 2253 -64 
Q 1888 -64 1843 403 
L 1837 403 
Q 1427 -64 909 -64 
Q 608 -64 422 112 
Q 237 288 237 602 
Q 237 1050 685 1350 
Q 992 1555 1837 1869 
L 1837 2214 
Q 1837 2502 1699 2646 
Q 1562 2790 1338 2790 
Q 1146 2790 1018 2697 
Q 890 2605 890 2477 
Q 890 2419 909 2348 
Q 928 2278 928 2208 
Q 928 2112 841 2029 
Q 755 1946 634 1946 
Q 525 1946 441 2029 
Q 358 2112 358 2240 
Q 358 2547 685 2752 
Q 986 2944 1421 2944 
Q 1939 2944 2176 2656 
Q 2291 2522 2323 2384 
Q 2355 2246 2355 1946 
L 2355 723 
Q 2355 301 2554 301 
Q 2682 301 2829 422 
z
M 1837 813 
L 1837 1715 
Q 1248 1510 1018 1293 
Q 800 1094 800 800 
Q 800 557 921 432 
Q 1043 307 1242 307 
Q 1453 307 1613 410 
Q 1747 506 1792 589 
Q 1837 672 1837 813 
z
" transform="scale(0.015625)"/>
       <path id="STIXGeneral-Regular-6c" d="M 1645 0 
L 134 0 
L 134 96 
Q 435 122 531 221 
Q 627 320 627 589 
L 627 3590 
Q 627 3821 569 3910 
Q 512 4000 358 4000 
Q 224 4000 122 3987 
L 122 4090 
Q 730 4237 1133 4371 
L 1165 4346 
L 1165 557 
Q 1165 288 1254 201 
Q 1344 115 1645 96 
L 1645 0 
z
" transform="scale(0.015625)"/>
      </defs>
      <use xlink:href="#STIXGeneral-Regular-76"/>
      <use xlink:href="#STIXGeneral-Regular-61" x="49.999985"/>
      <use xlink:href="#STIXGeneral-Regular-6c" x="94.399979"/>
      <use xlink:href="#STIXGeneral-Regular-75" x="122.199966"/>
      <use xlink:href="#STIXGeneral-Regular-65" x="172.199951"/>
     </g>
    </g>
   </g>
   <g id="line2d_19">
    <path d="M 73.832727 280.48652 
L 73.832727 167.024775 
" clip-path="url(#pbdfd94b65a)" style="fill: none; stroke: #474747; stroke-width: 1.5; stroke-linecap: square"/>
   </g>
   <g id="line2d_20">
    <path d="M 73.832727 238.182725 
L 73.832727 209.612204 
" clip-path="url(#pbdfd94b65a)" style="fill: none; stroke: #474747; stroke-width: 4.5; stroke-linecap: square"/>
   </g>
   <g id="line2d_21">
    <path d="M 106.298182 260.239568 
L 106.298182 164.091659 
" clip-path="url(#pbdfd94b65a)" style="fill: none; stroke: #474747; stroke-width: 1.5; stroke-linecap: square"/>
   </g>
   <g id="line2d_22">
    <path d="M 106.298182 228.785908 
L 106.298182 202.907639 
" clip-path="url(#pbdfd94b65a)" style="fill: none; stroke: #474747; stroke-width: 4.5; stroke-linecap: square"/>
   </g>
   <g id="line2d_23">
    <path d="M 138.763636 262.092092 
L 138.763636 111.403912 
" clip-path="url(#pbdfd94b65a)" style="fill: none; stroke: #474747; stroke-width: 1.5; stroke-linecap: square"/>
   </g>
   <g id="line2d_24">
    <path d="M 138.763636 232.41621 
L 138.763636 183.989684 
" clip-path="url(#pbdfd94b65a)" style="fill: none; stroke: #474747; stroke-width: 4.5; stroke-linecap: square"/>
   </g>
   <g id="line2d_25">
    <path d="M 171.229091 278.646682 
L 171.229091 161.766014 
" clip-path="url(#pbdfd94b65a)" style="fill: none; stroke: #474747; stroke-width: 1.5; stroke-linecap: square"/>
   </g>
   <g id="line2d_26">
    <path d="M 171.229091 244.302559 
L 171.229091 211.28123 
" clip-path="url(#pbdfd94b65a)" style="fill: none; stroke: #474747; stroke-width: 4.5; stroke-linecap: square"/>
   </g>
   <g id="line2d_27">
    <path d="M 203.694545 273.426794 
L 203.694545 134.368676 
" clip-path="url(#pbdfd94b65a)" style="fill: none; stroke: #474747; stroke-width: 1.5; stroke-linecap: square"/>
   </g>
   <g id="line2d_28">
    <path d="M 203.694545 238.426678 
L 203.694545 196.607248 
" clip-path="url(#pbdfd94b65a)" style="fill: none; stroke: #474747; stroke-width: 4.5; stroke-linecap: square"/>
   </g>
   <g id="line2d_29">
    <path d="M 236.16 276.429086 
L 236.16 137.28517 
" clip-path="url(#pbdfd94b65a)" style="fill: none; stroke: #474747; stroke-width: 1.5; stroke-linecap: square"/>
   </g>
   <g id="line2d_30">
    <path d="M 236.16 236.061926 
L 236.16 196.270055 
" clip-path="url(#pbdfd94b65a)" style="fill: none; stroke: #474747; stroke-width: 4.5; stroke-linecap: square"/>
   </g>
   <g id="line2d_31">
    <path d="M 268.625455 272.87203 
L 268.625455 185.385705 
" clip-path="url(#pbdfd94b65a)" style="fill: none; stroke: #474747; stroke-width: 1.5; stroke-linecap: square"/>
   </g>
   <g id="line2d_32">
    <path d="M 268.625455 255.816574 
L 268.625455 227.576365 
" clip-path="url(#pbdfd94b65a)" style="fill: none; stroke: #474747; stroke-width: 4.5; stroke-linecap: square"/>
   </g>
   <g id="line2d_33">
    <path d="M 301.090909 287.005678 
L 301.090909 232.565837 
" clip-path="url(#pbdfd94b65a)" style="fill: none; stroke: #474747; stroke-width: 1.5; stroke-linecap: square"/>
   </g>
   <g id="line2d_34">
    <path d="M 301.090909 273.06701 
L 301.090909 256.699455 
" clip-path="url(#pbdfd94b65a)" style="fill: none; stroke: #474747; stroke-width: 4.5; stroke-linecap: square"/>
   </g>
   <g id="line2d_35">
    <path d="M 333.556364 268.936808 
L 333.556364 188.810397 
" clip-path="url(#pbdfd94b65a)" style="fill: none; stroke: #474747; stroke-width: 1.5; stroke-linecap: square"/>
   </g>
   <g id="line2d_36">
    <path d="M 333.556364 238.820724 
L 333.556364 218.707732 
" clip-path="url(#pbdfd94b65a)" style="fill: none; stroke: #474747; stroke-width: 4.5; stroke-linecap: square"/>
   </g>
   <g id="line2d_37">
    <path d="M 366.021818 265.945224 
L 366.021818 146.309314 
" clip-path="url(#pbdfd94b65a)" style="fill: none; stroke: #474747; stroke-width: 1.5; stroke-linecap: square"/>
   </g>
   <g id="line2d_38">
    <path d="M 366.021818 222.29326 
L 366.021818 190.831924 
" clip-path="url(#pbdfd94b65a)" style="fill: none; stroke: #474747; stroke-width: 4.5; stroke-linecap: square"/>
   </g>
   <g id="line2d_39">
    <path d="M 398.487273 261.615056 
L 398.487273 203.90968 
" clip-path="url(#pbdfd94b65a)" style="fill: none; stroke: #474747; stroke-width: 1.5; stroke-linecap: square"/>
   </g>
   <g id="line2d_40">
    <path d="M 398.487273 248.136056 
L 398.487273 227.367084 
" clip-path="url(#pbdfd94b65a)" style="fill: none; stroke: #474747; stroke-width: 4.5; stroke-linecap: square"/>
   </g>
   <g id="patch_3">
    <path d="M 57.6 307.584 
L 57.6 41.472 
" style="fill: none; stroke: #000000; stroke-width: 0.8; stroke-linejoin: miter; stroke-linecap: square"/>
   </g>
   <g id="patch_4">
    <path d="M 414.72 307.584 
L 414.72 41.472 
" style="fill: none; stroke: #000000; stroke-width: 0.8; stroke-linejoin: miter; stroke-linecap: square"/>
   </g>
   <g id="patch_5">
    <path d="M 57.6 307.584 
L 414.72 307.584 
" style="fill: none; stroke: #000000; stroke-width: 0.8; stroke-linejoin: miter; stroke-linecap: square"/>
   </g>
   <g id="patch_6">
    <path d="M 57.6 41.472 
L 414.72 41.472 
" style="fill: none; stroke: #000000; stroke-width: 0.8; stroke-linejoin: miter; stroke-linecap: square"/>
   </g>
   <g id="PathCollection_1">
    <defs>
     <path id="me88e4d4775" d="M 0 1.5 
C 0.397805 1.5 0.77937 1.341951 1.06066 1.06066 
C 1.341951 0.77937 1.5 0.397805 1.5 0 
C 1.5 -0.397805 1.341951 -0.77937 1.06066 -1.06066 
C 0.77937 -1.341951 0.397805 -1.5 0 -1.5 
C -0.397805 -1.5 -0.77937 -1.341951 -1.06066 -1.06066 
C -1.341951 -0.77937 -1.5 -0.397805 -1.5 0 
C -1.5 0.397805 -1.341951 0.77937 -1.06066 1.06066 
C -0.77937 1.341951 -0.397805 1.5 0 1.5 
z
" style="stroke: #474747"/>
    </defs>
    <g clip-path="url(#pbdfd94b65a)">
     <use xlink:href="#me88e4d4775" x="73.832727" y="223.99755" style="fill: #ffffff; stroke: #474747"/>
    </g>
   </g>
   <g id="PathCollection_2">
    <g clip-path="url(#pbdfd94b65a)">
     <use xlink:href="#me88e4d4775" x="106.298182" y="216.40414" style="fill: #ffffff; stroke: #474747"/>
    </g>
   </g>
   <g id="PathCollection_3">
    <g clip-path="url(#pbdfd94b65a)">
     <use xlink:href="#me88e4d4775" x="138.763636" y="213.097155" style="fill: #ffffff; stroke: #474747"/>
    </g>
   </g>
   <g id="PathCollection_4">
    <g clip-path="url(#pbdfd94b65a)">
     <use xlink:href="#me88e4d4775" x="171.229091" y="229.706971" style="fill: #ffffff; stroke: #474747"/>
    </g>
   </g>
   <g id="PathCollection_5">
    <g clip-path="url(#pbdfd94b65a)">
     <use xlink:href="#me88e4d4775" x="203.694545" y="221.796139" style="fill: #ffffff; stroke: #474747"/>
    </g>
   </g>
   <g id="PathCollection_6">
    <g clip-path="url(#pbdfd94b65a)">
     <use xlink:href="#me88e4d4775" x="236.16" y="214.811986" style="fill: #ffffff; stroke: #474747"/>
    </g>
   </g>
   <g id="PathCollection_7">
    <g clip-path="url(#pbdfd94b65a)">
     <use xlink:href="#me88e4d4775" x="268.625455" y="242.881008" style="fill: #ffffff; stroke: #474747"/>
    </g>
   </g>
   <g id="PathCollection_8">
    <g clip-path="url(#pbdfd94b65a)">
     <use xlink:href="#me88e4d4775" x="301.090909" y="266.978665" style="fill: #ffffff; stroke: #474747"/>
    </g>
   </g>
   <g id="PathCollection_9">
    <g clip-path="url(#pbdfd94b65a)">
     <use xlink:href="#me88e4d4775" x="333.556364" y="228.897856" style="fill: #ffffff; stroke: #474747"/>
    </g>
   </g>
   <g id="PathCollection_10">
    <g clip-path="url(#pbdfd94b65a)">
     <use xlink:href="#me88e4d4775" x="366.021818" y="206.579188" style="fill: #ffffff; stroke: #474747"/>
    </g>
   </g>
   <g id="PathCollection_11">
    <g clip-path="url(#pbdfd94b65a)">
     <use xlink:href="#me88e4d4775" x="398.487273" y="242.492473" style="fill: #ffffff; stroke: #474747"/>
    </g>
   </g>
  </g>
 </g>
 <defs>
  <clipPath id="pbdfd94b65a">
   <rect x="57.6" y="41.472" width="357.12" height="266.112"/>
  </clipPath>
 </defs>
</svg>
