<?xml version="1.0" encoding="utf-8" standalone="no"?>
<!DOCTYPE svg PUBLIC "-//W3C//DTD SVG 1.1//EN"
  "http://www.w3.org/Graphics/SVG/1.1/DTD/svg11.dtd">
<svg xmlns:xlink="http://www.w3.org/1999/xlink" width="460.8pt" height="345.6pt" viewBox="0 0 460.8 345.6" xmlns="http://www.w3.org/2000/svg" version="1.1">
 <metadata>
  <rdf:RDF xmlns:dc="http://purl.org/dc/elements/1.1/" xmlns:cc="http://creativecommons.org/ns#" xmlns:rdf="http://www.w3.org/1999/02/22-rdf-syntax-ns#">
   <cc:Work>
    <dc:type rdf:resource="http://purl.org/dc/dcmitype/StillImage"/>
    <dc:date>2024-01-30T17:03:04.743554</dc:date>
    <dc:format>image/svg+xml</dc:format>
    <dc:creator>
     <cc:Agent>
      <dc:title>Matplotlib v3.6.3, https://matplotlib.org/</dc:title>
     </cc:Agent>
    </dc:creator>
   </cc:Work>
  </rdf:RDF>
 </metadata>
 <defs>
  <style type="text/css">*{stroke-linejoin: round; stroke-linecap: butt}</style>
 </defs>
 <g id="figure_1">
  <g id="patch_1">
   <path d="M 0 345.6 
L 460.8 345.6 
L 460.8 0 
L 0 0 
z
" style="fill: #ffffff"/>
  </g>
  <g id="axes_1">
   <g id="patch_2">
    <path d="M 57.6 307.584 
L 414.72 307.584 
L 414.72 41.472 
L 57.6 41.472 
z
" style="fill: #ffffff"/>
   </g>
   <g id="PolyCollection_1">
    <defs>
     <path id="m814a10c2fb" d="M 117.179969 -53.497963 
L 117.060031 -53.497963 
L 117.004312 -54.997203 
L 116.904888 -56.496443 
L 116.734227 -57.995683 
L 116.452398 -59.494924 
L 116.004769 -60.994164 
L 115.32151 -62.493404 
L 114.320682 -63.992644 
L 112.916941 -65.491884 
L 111.037405 -66.991124 
L 108.644562 -68.490364 
L 105.763037 -69.989604 
L 102.503346 -71.488844 
L 99.072915 -72.988084 
L 95.764978 -74.487324 
L 92.92077 -75.986564 
L 90.869341 -77.485804 
L 89.859117 -78.985044 
L 90.001393 -80.484285 
L 91.244446 -81.983525 
L 93.387478 -83.482765 
L 96.129793 -84.982005 
L 99.138646 -86.481245 
L 102.114367 -87.980485 
L 104.835175 -89.479725 
L 107.173946 -90.978965 
L 109.08986 -92.478205 
L 110.604838 -93.977445 
L 111.776089 -95.476685 
L 112.673065 -96.975925 
L 113.362364 -98.475165 
L 113.900208 -99.974406 
L 114.330133 -101.473646 
L 114.683498 -102.972886 
L 114.981175 -104.472126 
L 115.23569 -105.971366 
L 115.453529 -107.470606 
L 115.637399 -108.969846 
L 115.788208 -110.469086 
L 115.906485 -111.968326 
L 115.993187 -113.467566 
L 116.049982 -114.966806 
L 116.079296 -116.466046 
L 116.084358 -117.965286 
L 116.069331 -119.464526 
L 116.039388 -120.963767 
L 116.000511 -122.463007 
L 115.958847 -123.962247 
L 115.919681 -125.461487 
L 115.886359 -126.960727 
L 115.859601 -128.459967 
L 115.837572 -129.959207 
L 115.816819 -131.458447 
L 115.7938 -132.957687 
L 115.766539 -134.456927 
L 115.735813 -135.956167 
L 115.705455 -137.455407 
L 115.681654 -138.954647 
L 115.671471 -140.453887 
L 115.681025 -141.953128 
L 115.713923 -143.452368 
L 115.770366 -144.951608 
L 115.847127 -146.450848 
L 115.938316 -147.950088 
L 116.036627 -149.449328 
L 116.134711 -150.948568 
L 116.226347 -152.447808 
L 116.307224 -153.947048 
L 116.375258 -155.446288 
L 116.43046 -156.945528 
L 116.474431 -158.444768 
L 116.509623 -159.944008 
L 116.538517 -161.443248 
L 116.56293 -162.942489 
L 116.583619 -164.441729 
L 116.600306 -165.940969 
L 116.612095 -167.440209 
L 116.618186 -168.939449 
L 116.618612 -170.438689 
L 116.614777 -171.937929 
L 116.609555 -173.437169 
L 116.606871 -174.936409 
L 116.610848 -176.435649 
L 116.624754 -177.934889 
L 116.650114 -179.434129 
L 116.686296 -180.933369 
L 116.730727 -182.43261 
L 116.779664 -183.93185 
L 116.829212 -185.43109 
L 116.876221 -186.93033 
L 116.918767 -188.42957 
L 116.956148 -189.92881 
L 116.988513 -191.42805 
L 117.016377 -192.92729 
L 117.040237 -194.42653 
L 117.060406 -195.92577 
L 117.077044 -197.42501 
L 117.090283 -198.92425 
L 117.100352 -200.42349 
L 117.107623 -201.92273 
L 117.132377 -201.92273 
L 117.132377 -201.92273 
L 117.139648 -200.42349 
L 117.149717 -198.92425 
L 117.162956 -197.42501 
L 117.179594 -195.92577 
L 117.199763 -194.42653 
L 117.223623 -192.92729 
L 117.251487 -191.42805 
L 117.283852 -189.92881 
L 117.321233 -188.42957 
L 117.363779 -186.93033 
L 117.410788 -185.43109 
L 117.460336 -183.93185 
L 117.509273 -182.43261 
L 117.553704 -180.933369 
L 117.589886 -179.434129 
L 117.615246 -177.934889 
L 117.629152 -176.435649 
L 117.633129 -174.936409 
L 117.630445 -173.437169 
L 117.625223 -171.937929 
L 117.621388 -170.438689 
L 117.621814 -168.939449 
L 117.627905 -167.440209 
L 117.639694 -165.940969 
L 117.656381 -164.441729 
L 117.67707 -162.942489 
L 117.701483 -161.443248 
L 117.730377 -159.944008 
L 117.765569 -158.444768 
L 117.80954 -156.945528 
L 117.864742 -155.446288 
L 117.932776 -153.947048 
L 118.013653 -152.447808 
L 118.105289 -150.948568 
L 118.203373 -149.449328 
L 118.301684 -147.950088 
L 118.392873 -146.450848 
L 118.469634 -144.951608 
L 118.526077 -143.452368 
L 118.558975 -141.953128 
L 118.568529 -140.453887 
L 118.558346 -138.954647 
L 118.534545 -137.455407 
L 118.504187 -135.956167 
L 118.473461 -134.456927 
L 118.4462 -132.957687 
L 118.423181 -131.458447 
L 118.402428 -129.959207 
L 118.380399 -128.459967 
L 118.353641 -126.960727 
L 118.320319 -125.461487 
L 118.281153 -123.962247 
L 118.239489 -122.463007 
L 118.200612 -120.963767 
L 118.170669 -119.464526 
L 118.155642 -117.965286 
L 118.160704 -116.466046 
L 118.190018 -114.966806 
L 118.246813 -113.467566 
L 118.333515 -111.968326 
L 118.451792 -110.469086 
L 118.602601 -108.969846 
L 118.786471 -107.470606 
L 119.00431 -105.971366 
L 119.258825 -104.472126 
L 119.556502 -102.972886 
L 119.909867 -101.473646 
L 120.339792 -99.974406 
L 120.877636 -98.475165 
L 121.566935 -96.975925 
L 122.463911 -95.476685 
L 123.635162 -93.977445 
L 125.15014 -92.478205 
L 127.066054 -90.978965 
L 129.404825 -89.479725 
L 132.125633 -87.980485 
L 135.101354 -86.481245 
L 138.110207 -84.982005 
L 140.852522 -83.482765 
L 142.995554 -81.983525 
L 144.238607 -80.484285 
L 144.380883 -78.985044 
L 143.370659 -77.485804 
L 141.31923 -75.986564 
L 138.475022 -74.487324 
L 135.167085 -72.988084 
L 131.736654 -71.488844 
L 128.476963 -69.989604 
L 125.595438 -68.490364 
L 123.202595 -66.991124 
L 121.323059 -65.491884 
L 119.919318 -63.992644 
L 118.91849 -62.493404 
L 118.235231 -60.994164 
L 117.787602 -59.494924 
L 117.505773 -57.995683 
L 117.335112 -56.496443 
L 117.235688 -54.997203 
L 117.179969 -53.497963 
z
" style="stroke: #3d3d3d; stroke-width: 1.5"/>
    </defs>
    <g clip-path="url(#pc6ab8f3215)">
     <use xlink:href="#m814a10c2fb" x="0" y="345.6" style="fill: #3274a1; stroke: #3d3d3d; stroke-width: 1.5"/>
    </g>
   </g>
   <g id="PolyCollection_2">
    <defs>
     <path id="m0e924f0897" d="M 236.212414 -67.981422 
L 236.107586 -67.981422 
L 236.063121 -68.360411 
L 235.987949 -68.739401 
L 235.866181 -69.11839 
L 235.677314 -69.497379 
L 235.397137 -69.876369 
L 235.000144 -70.255358 
L 234.463502 -70.634347 
L 233.771897 -71.013337 
L 232.92174 -71.392326 
L 231.922684 -71.771315 
L 230.794768 -72.150305 
L 229.560895 -72.529294 
L 228.236592 -72.908283 
L 226.820993 -73.287273 
L 225.293541 -73.666262 
L 223.619221 -74.045251 
L 221.761491 -74.424241 
L 219.698105 -74.80323 
L 217.432769 -75.182219 
L 214.996772 -75.561209 
L 212.439074 -75.940198 
L 209.809133 -76.319187 
L 207.140895 -76.698177 
L 204.446827 -77.077166 
L 201.727002 -77.456155 
L 198.991641 -77.835145 
L 196.288893 -78.214134 
L 193.725679 -78.593124 
L 191.470081 -78.972113 
L 189.729229 -79.351102 
L 188.70562 -79.730092 
L 188.544 -80.109081 
L 189.286385 -80.48807 
L 190.85146 -80.86706 
L 193.046379 -81.246049 
L 195.607325 -81.625038 
L 198.255278 -82.004028 
L 200.749621 -82.383017 
L 202.925193 -82.762006 
L 204.705774 -83.140996 
L 206.094808 -83.519985 
L 207.149821 -83.898974 
L 207.94968 -84.277964 
L 208.564171 -84.656953 
L 209.033933 -85.035942 
L 209.365607 -85.414932 
L 209.542496 -85.793921 
L 209.54602 -86.17291 
L 209.379576 -86.5519 
L 209.085695 -86.930889 
L 208.749858 -87.309878 
L 208.489205 -87.688868 
L 208.429492 -88.067857 
L 208.677323 -88.446847 
L 209.295692 -88.825836 
L 210.289427 -89.204825 
L 211.60391 -89.583815 
L 213.136887 -89.962804 
L 214.760148 -90.341793 
L 216.345889 -90.720783 
L 217.791855 -91.099772 
L 219.039791 -91.478761 
L 220.083223 -91.857751 
L 220.963157 -92.23674 
L 221.753158 -92.615729 
L 222.537964 -92.994719 
L 223.391238 -93.373708 
L 224.357946 -93.752697 
L 225.445254 -94.131687 
L 226.623351 -94.510676 
L 227.834995 -94.889665 
L 229.010525 -95.268655 
L 230.083969 -95.647644 
L 231.006106 -96.026633 
L 231.751638 -96.405623 
L 232.31977 -96.784612 
L 232.729573 -97.163601 
L 233.01272 -97.542591 
L 233.206255 -97.92158 
L 233.346983 -98.300569 
L 233.4678 -98.679559 
L 233.595335 -99.058548 
L 233.74826 -99.437538 
L 233.936082 -99.816527 
L 234.15884 -100.195516 
L 234.408223 -100.574506 
L 234.670248 -100.953495 
L 234.928938 -101.332484 
L 235.169986 -101.711474 
L 235.38334 -102.090463 
L 235.564152 -102.469452 
L 235.712174 -102.848442 
L 235.830219 -103.227431 
L 235.92249 -103.60642 
L 235.993331 -103.98541 
L 236.046612 -104.364399 
L 236.085624 -104.743388 
L 236.113211 -105.122378 
L 236.131902 -105.501367 
L 236.188098 -105.501367 
L 236.188098 -105.501367 
L 236.206789 -105.122378 
L 236.234376 -104.743388 
L 236.273388 -104.364399 
L 236.326669 -103.98541 
L 236.39751 -103.60642 
L 236.489781 -103.227431 
L 236.607826 -102.848442 
L 236.755848 -102.469452 
L 236.93666 -102.090463 
L 237.150014 -101.711474 
L 237.391062 -101.332484 
L 237.649752 -100.953495 
L 237.911777 -100.574506 
L 238.16116 -100.195516 
L 238.383918 -99.816527 
L 238.57174 -99.437538 
L 238.724665 -99.058548 
L 238.8522 -98.679559 
L 238.973017 -98.300569 
L 239.113745 -97.92158 
L 239.30728 -97.542591 
L 239.590427 -97.163601 
L 240.00023 -96.784612 
L 240.568362 -96.405623 
L 241.313894 -96.026633 
L 242.236031 -95.647644 
L 243.309475 -95.268655 
L 244.485005 -94.889665 
L 245.696649 -94.510676 
L 246.874746 -94.131687 
L 247.962054 -93.752697 
L 248.928762 -93.373708 
L 249.782036 -92.994719 
L 250.566842 -92.615729 
L 251.356843 -92.23674 
L 252.236777 -91.857751 
L 253.280209 -91.478761 
L 254.528145 -91.099772 
L 255.974111 -90.720783 
L 257.559852 -90.341793 
L 259.183113 -89.962804 
L 260.71609 -89.583815 
L 262.030573 -89.204825 
L 263.024308 -88.825836 
L 263.642677 -88.446847 
L 263.890508 -88.067857 
L 263.830795 -87.688868 
L 263.570142 -87.309878 
L 263.234305 -86.930889 
L 262.940424 -86.5519 
L 262.77398 -86.17291 
L 262.777504 -85.793921 
L 262.954393 -85.414932 
L 263.286067 -85.035942 
L 263.755829 -84.656953 
L 264.37032 -84.277964 
L 265.170179 -83.898974 
L 266.225192 -83.519985 
L 267.614226 -83.140996 
L 269.394807 -82.762006 
L 271.570379 -82.383017 
L 274.064722 -82.004028 
L 276.712675 -81.625038 
L 279.273621 -81.246049 
L 281.46854 -80.86706 
L 283.033615 -80.48807 
L 283.776 -80.109081 
L 283.61438 -79.730092 
L 282.590771 -79.351102 
L 280.849919 -78.972113 
L 278.594321 -78.593124 
L 276.031107 -78.214134 
L 273.328359 -77.835145 
L 270.592998 -77.456155 
L 267.873173 -77.077166 
L 265.179105 -76.698177 
L 262.510867 -76.319187 
L 259.880926 -75.940198 
L 257.323228 -75.561209 
L 254.887231 -75.182219 
L 252.621895 -74.80323 
L 250.558509 -74.424241 
L 248.700779 -74.045251 
L 247.026459 -73.666262 
L 245.499007 -73.287273 
L 244.083408 -72.908283 
L 242.759105 -72.529294 
L 241.525232 -72.150305 
L 240.397316 -71.771315 
L 239.39826 -71.392326 
L 238.548103 -71.013337 
L 237.856498 -70.634347 
L 237.319856 -70.255358 
L 236.922863 -69.876369 
L 236.642686 -69.497379 
L 236.453819 -69.11839 
L 236.332051 -68.739401 
L 236.256879 -68.360411 
L 236.212414 -67.981422 
z
" style="stroke: #3d3d3d; stroke-width: 1.5"/>
    </defs>
    <g clip-path="url(#pc6ab8f3215)">
     <use xlink:href="#m0e924f0897" x="0" y="345.6" style="fill: #e1812c; stroke: #3d3d3d; stroke-width: 1.5"/>
    </g>
   </g>
   <g id="PolyCollection_3">
    <defs>
     <path id="m660addb37f" d="M 355.824192 -50.112 
L 354.575808 -50.112 
L 354.14862 -52.555636 
L 353.506415 -54.999273 
L 352.590861 -57.442909 
L 351.355152 -59.886545 
L 349.779814 -62.330182 
L 347.888945 -64.773818 
L 345.76212 -67.217455 
L 343.536761 -69.661091 
L 341.397228 -72.104727 
L 339.55033 -74.548364 
L 338.191269 -76.992 
L 337.467866 -79.435636 
L 337.452358 -81.879273 
L 338.128486 -84.322909 
L 339.397196 -86.766545 
L 341.098821 -89.210182 
L 343.04504 -91.653818 
L 345.051902 -94.097455 
L 346.966164 -96.541091 
L 348.680391 -98.984727 
L 350.136141 -101.428364 
L 351.317756 -103.872 
L 352.240853 -106.315636 
L 352.93957 -108.759273 
L 353.455501 -111.202909 
L 353.829778 -113.646545 
L 354.098474 -116.090182 
L 354.290759 -118.533818 
L 354.428919 -120.977455 
L 354.529376 -123.421091 
L 354.604049 -125.864727 
L 354.661594 -128.308364 
L 354.7083 -130.752 
L 354.748593 -133.195636 
L 354.785251 -135.639273 
L 354.819507 -138.082909 
L 354.851214 -140.526545 
L 354.879171 -142.970182 
L 354.901617 -145.413818 
L 354.916792 -147.857455 
L 354.923451 -150.301091 
L 354.921203 -152.744727 
L 354.910629 -155.188364 
L 354.893166 -157.632 
L 354.870839 -160.075636 
L 354.845894 -162.519273 
L 354.820441 -164.962909 
L 354.796179 -167.406545 
L 354.774247 -169.850182 
L 354.755228 -172.293818 
L 354.739288 -174.737455 
L 354.726375 -177.181091 
L 354.716425 -179.624727 
L 354.709477 -182.068364 
L 354.705676 -184.512 
L 354.705172 -186.955636 
L 354.707973 -189.399273 
L 354.713832 -191.842909 
L 354.722237 -194.286545 
L 354.732522 -196.730182 
L 354.744045 -199.173818 
L 354.756385 -201.617455 
L 354.769445 -204.061091 
L 354.78343 -206.504727 
L 354.798703 -208.948364 
L 354.815556 -211.392 
L 354.833987 -213.835636 
L 354.853546 -216.279273 
L 354.873303 -218.722909 
L 354.89195 -221.166545 
L 354.908031 -223.610182 
L 354.920226 -226.053818 
L 354.927653 -228.497455 
L 354.930086 -230.941091 
L 354.928033 -233.384727 
L 354.922647 -235.828364 
L 354.915474 -238.272 
L 354.908119 -240.715636 
L 354.901903 -243.159273 
L 354.897634 -245.602909 
L 354.895539 -248.046545 
L 354.895391 -250.490182 
L 354.896777 -252.933818 
L 354.899418 -255.377455 
L 354.903424 -257.821091 
L 354.909389 -260.264727 
L 354.918277 -262.708364 
L 354.931129 -265.152 
L 354.948697 -267.595636 
L 354.971117 -270.039273 
L 354.997751 -272.482909 
L 355.02724 -274.926545 
L 355.057753 -277.370182 
L 355.087352 -279.813818 
L 355.114342 -282.257455 
L 355.137537 -284.701091 
L 355.156359 -287.144727 
L 355.170807 -289.588364 
L 355.181312 -292.032 
L 355.218688 -292.032 
L 355.218688 -292.032 
L 355.229193 -289.588364 
L 355.243641 -287.144727 
L 355.262463 -284.701091 
L 355.285658 -282.257455 
L 355.312648 -279.813818 
L 355.342247 -277.370182 
L 355.37276 -274.926545 
L 355.402249 -272.482909 
L 355.428883 -270.039273 
L 355.451303 -267.595636 
L 355.468871 -265.152 
L 355.481723 -262.708364 
L 355.490611 -260.264727 
L 355.496576 -257.821091 
L 355.500582 -255.377455 
L 355.503223 -252.933818 
L 355.504609 -250.490182 
L 355.504461 -248.046545 
L 355.502366 -245.602909 
L 355.498097 -243.159273 
L 355.491881 -240.715636 
L 355.484526 -238.272 
L 355.477353 -235.828364 
L 355.471967 -233.384727 
L 355.469914 -230.941091 
L 355.472347 -228.497455 
L 355.479774 -226.053818 
L 355.491969 -223.610182 
L 355.50805 -221.166545 
L 355.526697 -218.722909 
L 355.546454 -216.279273 
L 355.566013 -213.835636 
L 355.584444 -211.392 
L 355.601297 -208.948364 
L 355.61657 -206.504727 
L 355.630555 -204.061091 
L 355.643615 -201.617455 
L 355.655955 -199.173818 
L 355.667478 -196.730182 
L 355.677763 -194.286545 
L 355.686168 -191.842909 
L 355.692027 -189.399273 
L 355.694828 -186.955636 
L 355.694324 -184.512 
L 355.690523 -182.068364 
L 355.683575 -179.624727 
L 355.673625 -177.181091 
L 355.660712 -174.737455 
L 355.644772 -172.293818 
L 355.625753 -169.850182 
L 355.603821 -167.406545 
L 355.579559 -164.962909 
L 355.554106 -162.519273 
L 355.529161 -160.075636 
L 355.506834 -157.632 
L 355.489371 -155.188364 
L 355.478797 -152.744727 
L 355.476549 -150.301091 
L 355.483208 -147.857455 
L 355.498383 -145.413818 
L 355.520829 -142.970182 
L 355.548786 -140.526545 
L 355.580493 -138.082909 
L 355.614749 -135.639273 
L 355.651407 -133.195636 
L 355.6917 -130.752 
L 355.738406 -128.308364 
L 355.795951 -125.864727 
L 355.870624 -123.421091 
L 355.971081 -120.977455 
L 356.109241 -118.533818 
L 356.301526 -116.090182 
L 356.570222 -113.646545 
L 356.944499 -111.202909 
L 357.46043 -108.759273 
L 358.159147 -106.315636 
L 359.082244 -103.872 
L 360.263859 -101.428364 
L 361.719609 -98.984727 
L 363.433836 -96.541091 
L 365.348098 -94.097455 
L 367.35496 -91.653818 
L 369.301179 -89.210182 
L 371.002804 -86.766545 
L 372.271514 -84.322909 
L 372.947642 -81.879273 
L 372.932134 -79.435636 
L 372.208731 -76.992 
L 370.84967 -74.548364 
L 369.002772 -72.104727 
L 366.863239 -69.661091 
L 364.63788 -67.217455 
L 362.511055 -64.773818 
L 360.620186 -62.330182 
L 359.044848 -59.886545 
L 357.809139 -57.442909 
L 356.893585 -54.999273 
L 356.25138 -52.555636 
L 355.824192 -50.112 
z
" style="stroke: #3d3d3d; stroke-width: 1.5"/>
    </defs>
    <g clip-path="url(#pc6ab8f3215)">
     <use xlink:href="#m660addb37f" x="0" y="345.6" style="fill: #3a923a; stroke: #3d3d3d; stroke-width: 1.5"/>
    </g>
   </g>
   <g id="matplotlib.axis_1">
    <g id="xtick_1">
     <g id="line2d_1">
      <defs>
       <path id="m24f45b25de" d="M 0 0 
L 0 3.5 
" style="stroke: #000000; stroke-width: 0.8"/>
      </defs>
      <g>
       <use xlink:href="#m24f45b25de" x="117.12" y="307.584" style="stroke: #000000; stroke-width: 0.8"/>
      </g>
     </g>
     <g id="text_1">
      <!-- 2 -->
      <g transform="translate(114.62 321.413687) scale(0.1 -0.1)">
       <defs>
        <path id="STIXGeneral-Regular-32" d="M 3034 877 
L 2688 0 
L 186 0 
L 186 77 
L 1325 1286 
Q 1773 1754 1965 2144 
Q 2157 2534 2157 2950 
Q 2157 3379 1920 3616 
Q 1683 3853 1267 3853 
Q 922 3853 720 3673 
Q 518 3494 326 3021 
L 192 3053 
Q 301 3648 630 3987 
Q 960 4326 1523 4326 
Q 2054 4326 2380 4006 
Q 2707 3686 2707 3200 
Q 2707 2477 1888 1613 
L 832 486 
L 2330 486 
Q 2541 486 2665 569 
Q 2790 653 2944 915 
L 3034 877 
z
" transform="scale(0.015625)"/>
       </defs>
       <use xlink:href="#STIXGeneral-Regular-32"/>
      </g>
     </g>
    </g>
    <g id="xtick_2">
     <g id="line2d_2">
      <g>
       <use xlink:href="#m24f45b25de" x="236.16" y="307.584" style="stroke: #000000; stroke-width: 0.8"/>
      </g>
     </g>
     <g id="text_2">
      <!-- 1 -->
      <g transform="translate(233.66 321.413687) scale(0.1 -0.1)">
       <defs>
        <path id="STIXGeneral-Regular-31" d="M 2522 0 
L 755 0 
L 755 96 
Q 1107 115 1235 227 
Q 1363 339 1363 608 
L 1363 3482 
Q 1363 3795 1171 3795 
Q 1082 3795 883 3718 
L 710 3654 
L 710 3744 
L 1856 4326 
L 1914 4307 
L 1914 486 
Q 1914 275 2042 185 
Q 2170 96 2522 96 
L 2522 0 
z
" transform="scale(0.015625)"/>
       </defs>
       <use xlink:href="#STIXGeneral-Regular-31"/>
      </g>
     </g>
    </g>
    <g id="xtick_3">
     <g id="line2d_3">
      <g>
       <use xlink:href="#m24f45b25de" x="355.2" y="307.584" style="stroke: #000000; stroke-width: 0.8"/>
      </g>
     </g>
     <g id="text_3">
      <!-- 3 -->
      <g transform="translate(352.7 321.413687) scale(0.1 -0.1)">
       <defs>
        <path id="STIXGeneral-Regular-33" d="M 390 3264 
L 288 3290 
Q 435 3770 748 4048 
Q 1062 4326 1542 4326 
Q 1990 4326 2265 4083 
Q 2541 3840 2541 3450 
Q 2541 2925 1946 2566 
Q 2298 2413 2477 2227 
Q 2758 1914 2758 1402 
Q 2758 890 2464 506 
Q 2246 211 1840 60 
Q 1434 -90 979 -90 
Q 262 -90 262 275 
Q 262 378 339 442 
Q 416 506 525 506 
Q 685 506 915 339 
Q 1197 141 1466 141 
Q 1818 141 2058 425 
Q 2298 710 2298 1120 
Q 2298 1856 1632 2048 
Q 1434 2112 979 2112 
L 979 2202 
Q 1338 2323 1517 2432 
Q 2035 2726 2035 3290 
Q 2035 3610 1852 3776 
Q 1670 3942 1344 3942 
Q 768 3942 390 3264 
z
" transform="scale(0.015625)"/>
       </defs>
       <use xlink:href="#STIXGeneral-Regular-33"/>
      </g>
     </g>
    </g>
    <g id="text_4">
     <!-- sequence -->
     <g transform="translate(217.833438 334.413687) scale(0.1 -0.1)">
      <defs>
       <path id="STIXGeneral-Regular-73" d="M 998 1926 
L 1664 1523 
Q 1984 1331 2105 1164 
Q 2227 998 2227 736 
Q 2227 416 1961 176 
Q 1696 -64 1331 -64 
Q 1030 -64 864 -6 
Q 691 51 570 51 
Q 461 51 416 -26 
L 333 -26 
L 333 979 
L 435 979 
Q 538 512 730 294 
Q 922 77 1248 77 
Q 1485 77 1632 211 
Q 1779 346 1779 550 
Q 1779 845 1440 1030 
L 1094 1222 
Q 326 1651 326 2150 
Q 326 2522 566 2730 
Q 806 2938 1210 2938 
Q 1491 2938 1638 2867 
Q 1754 2816 1818 2816 
Q 1862 2816 1920 2880 
L 1990 2880 
L 2022 2010 
L 1926 2010 
Q 1818 2445 1654 2621 
Q 1491 2797 1203 2797 
Q 986 2797 854 2688 
Q 723 2579 723 2362 
Q 723 2253 796 2128 
Q 870 2003 998 1926 
z
" transform="scale(0.015625)"/>
       <path id="STIXGeneral-Regular-65" d="M 2611 1050 
L 2714 1005 
Q 2330 -64 1376 -64 
Q 813 -64 486 329 
Q 160 723 160 1389 
Q 160 2074 525 2509 
Q 890 2944 1485 2944 
Q 2061 2944 2374 2502 
Q 2560 2246 2592 1773 
L 621 1773 
Q 646 1370 700 1158 
Q 755 947 915 730 
Q 1184 378 1626 378 
Q 1939 378 2153 531 
Q 2368 685 2611 1050 
z
M 634 1978 
L 1939 1978 
Q 1882 2381 1750 2547 
Q 1619 2714 1312 2714 
Q 1043 2714 864 2525 
Q 685 2336 634 1978 
z
" transform="scale(0.015625)"/>
       <path id="STIXGeneral-Regular-71" d="M 3123 -1389 
L 1613 -1389 
L 1613 -1280 
Q 1952 -1254 2067 -1158 
Q 2182 -1062 2182 -794 
L 2182 410 
Q 1747 -64 1178 -64 
Q 730 -64 442 320 
Q 154 704 154 1312 
Q 154 2003 560 2473 
Q 966 2944 1562 2944 
Q 1920 2944 2304 2720 
L 2650 2925 
L 2720 2925 
L 2720 -902 
Q 2720 -1107 2797 -1180 
Q 2874 -1254 3123 -1280 
L 3123 -1389 
z
M 2182 813 
L 2182 2131 
Q 2182 2758 1587 2758 
Q 1178 2758 941 2432 
Q 704 2106 704 1542 
Q 704 1210 803 925 
Q 902 640 1062 499 
Q 1254 326 1542 326 
Q 1882 326 2106 531 
Q 2182 602 2182 813 
z
" transform="scale(0.015625)"/>
       <path id="STIXGeneral-Regular-75" d="M 3072 320 
L 3072 230 
Q 2573 96 2195 -58 
L 2163 -38 
L 2163 486 
L 2150 486 
Q 1747 -64 1235 -64 
Q 870 -64 662 160 
Q 454 384 454 755 
L 454 2362 
Q 454 2598 371 2688 
Q 288 2778 58 2790 
L 58 2880 
L 992 2880 
L 992 813 
Q 992 595 1123 451 
Q 1254 307 1446 307 
Q 1760 307 1984 506 
Q 2067 582 2099 649 
Q 2131 717 2131 877 
L 2131 2355 
Q 2131 2605 2041 2678 
Q 1952 2752 1658 2771 
L 1658 2880 
L 2669 2880 
L 2669 685 
Q 2669 461 2742 390 
Q 2816 320 3034 320 
L 3072 320 
z
" transform="scale(0.015625)"/>
       <path id="STIXGeneral-Regular-6e" d="M 3104 0 
L 1773 0 
L 1779 96 
Q 2016 115 2096 233 
Q 2176 352 2176 672 
L 2176 1946 
Q 2176 2592 1709 2592 
Q 1549 2592 1408 2515 
Q 1267 2438 1050 2227 
L 1050 461 
Q 1050 269 1136 192 
Q 1222 115 1466 96 
L 1466 0 
L 115 0 
L 115 96 
Q 358 115 435 214 
Q 512 314 512 602 
L 512 2157 
Q 512 2394 467 2483 
Q 422 2573 288 2573 
Q 160 2573 102 2547 
L 102 2656 
Q 550 2784 979 2944 
L 1030 2925 
L 1030 2426 
L 1037 2426 
Q 1491 2944 1958 2944 
Q 2323 2944 2518 2688 
Q 2714 2432 2714 1958 
L 2714 544 
Q 2714 288 2790 205 
Q 2867 122 3104 96 
L 3104 0 
z
" transform="scale(0.015625)"/>
       <path id="STIXGeneral-Regular-63" d="M 2547 998 
L 2637 941 
Q 2362 403 2112 205 
Q 1786 -64 1376 -64 
Q 845 -64 502 336 
Q 160 736 160 1357 
Q 160 2170 698 2618 
Q 1094 2944 1562 2944 
Q 1965 2944 2256 2749 
Q 2547 2554 2547 2285 
Q 2547 2176 2457 2096 
Q 2368 2016 2246 2016 
Q 2022 2016 1939 2310 
L 1901 2451 
Q 1850 2630 1773 2694 
Q 1696 2758 1523 2758 
Q 1133 2758 893 2451 
Q 653 2144 653 1645 
Q 653 1094 928 745 
Q 1203 397 1645 397 
Q 1920 397 2118 528 
Q 2317 659 2547 998 
z
" transform="scale(0.015625)"/>
      </defs>
      <use xlink:href="#STIXGeneral-Regular-73"/>
      <use xlink:href="#STIXGeneral-Regular-65" x="38.899994"/>
      <use xlink:href="#STIXGeneral-Regular-71" x="83.299988"/>
      <use xlink:href="#STIXGeneral-Regular-75" x="133.299973"/>
      <use xlink:href="#STIXGeneral-Regular-65" x="183.299957"/>
      <use xlink:href="#STIXGeneral-Regular-6e" x="227.699951"/>
      <use xlink:href="#STIXGeneral-Regular-63" x="277.699936"/>
      <use xlink:href="#STIXGeneral-Regular-65" x="322.09993"/>
     </g>
    </g>
   </g>
   <g id="matplotlib.axis_2">
    <g id="ytick_1">
     <g id="line2d_4">
      <defs>
       <path id="mbf2dbf1675" d="M 0 0 
L -3.5 0 
" style="stroke: #000000; stroke-width: 0.8"/>
      </defs>
      <g>
       <use xlink:href="#mbf2dbf1675" x="57.6" y="283.803526" style="stroke: #000000; stroke-width: 0.8"/>
      </g>
     </g>
     <g id="text_5">
      <!-- 0.00 -->
      <g transform="translate(33.1 287.21837) scale(0.1 -0.1)">
       <defs>
        <path id="STIXGeneral-Regular-30" d="M 3046 2112 
Q 3046 1683 2963 1302 
Q 2880 922 2717 602 
Q 2554 282 2266 96 
Q 1978 -90 1600 -90 
Q 1210 -90 915 108 
Q 621 307 461 640 
Q 301 973 227 1350 
Q 154 1728 154 2150 
Q 154 2746 301 3222 
Q 448 3699 790 4012 
Q 1133 4326 1626 4326 
Q 2253 4326 2649 3712 
Q 3046 3098 3046 2112 
z
M 2432 2080 
Q 2432 3091 2217 3625 
Q 2003 4160 1587 4160 
Q 1190 4160 979 3622 
Q 768 3085 768 2106 
Q 768 1120 979 598 
Q 1190 77 1600 77 
Q 2003 77 2217 598 
Q 2432 1120 2432 2080 
z
" transform="scale(0.015625)"/>
        <path id="STIXGeneral-Regular-2e" d="M 1158 275 
Q 1158 134 1052 32 
Q 947 -70 800 -70 
Q 653 -70 550 32 
Q 448 134 448 281 
Q 448 429 553 534 
Q 659 640 806 640 
Q 947 640 1052 531 
Q 1158 422 1158 275 
z
" transform="scale(0.015625)"/>
       </defs>
       <use xlink:href="#STIXGeneral-Regular-30"/>
       <use xlink:href="#STIXGeneral-Regular-2e" x="49.999985"/>
       <use xlink:href="#STIXGeneral-Regular-30" x="74.999969"/>
       <use xlink:href="#STIXGeneral-Regular-30" x="124.999954"/>
      </g>
     </g>
    </g>
    <g id="ytick_2">
     <g id="line2d_5">
      <g>
       <use xlink:href="#mbf2dbf1675" x="57.6" y="243.870221" style="stroke: #000000; stroke-width: 0.8"/>
      </g>
     </g>
     <g id="text_6">
      <!-- 0.01 -->
      <g transform="translate(33.1 247.285065) scale(0.1 -0.1)">
       <use xlink:href="#STIXGeneral-Regular-30"/>
       <use xlink:href="#STIXGeneral-Regular-2e" x="49.999985"/>
       <use xlink:href="#STIXGeneral-Regular-30" x="74.999969"/>
       <use xlink:href="#STIXGeneral-Regular-31" x="124.999954"/>
      </g>
     </g>
    </g>
    <g id="ytick_3">
     <g id="line2d_6">
      <g>
       <use xlink:href="#mbf2dbf1675" x="57.6" y="203.936916" style="stroke: #000000; stroke-width: 0.8"/>
      </g>
     </g>
     <g id="text_7">
      <!-- 0.02 -->
      <g transform="translate(33.1 207.35176) scale(0.1 -0.1)">
       <use xlink:href="#STIXGeneral-Regular-30"/>
       <use xlink:href="#STIXGeneral-Regular-2e" x="49.999985"/>
       <use xlink:href="#STIXGeneral-Regular-30" x="74.999969"/>
       <use xlink:href="#STIXGeneral-Regular-32" x="124.999954"/>
      </g>
     </g>
    </g>
    <g id="ytick_4">
     <g id="line2d_7">
      <g>
       <use xlink:href="#mbf2dbf1675" x="57.6" y="164.003611" style="stroke: #000000; stroke-width: 0.8"/>
      </g>
     </g>
     <g id="text_8">
      <!-- 0.03 -->
      <g transform="translate(33.1 167.418455) scale(0.1 -0.1)">
       <use xlink:href="#STIXGeneral-Regular-30"/>
       <use xlink:href="#STIXGeneral-Regular-2e" x="49.999985"/>
       <use xlink:href="#STIXGeneral-Regular-30" x="74.999969"/>
       <use xlink:href="#STIXGeneral-Regular-33" x="124.999954"/>
      </g>
     </g>
    </g>
    <g id="ytick_5">
     <g id="line2d_8">
      <g>
       <use xlink:href="#mbf2dbf1675" x="57.6" y="124.070306" style="stroke: #000000; stroke-width: 0.8"/>
      </g>
     </g>
     <g id="text_9">
      <!-- 0.04 -->
      <g transform="translate(33.1 127.48515) scale(0.1 -0.1)">
       <defs>
        <path id="STIXGeneral-Regular-34" d="M 3027 1069 
L 2368 1069 
L 2368 0 
L 1869 0 
L 1869 1069 
L 77 1069 
L 77 1478 
L 2086 4326 
L 2368 4326 
L 2368 1478 
L 3027 1478 
L 3027 1069 
z
M 1869 1478 
L 1869 3674 
L 333 1478 
L 1869 1478 
z
" transform="scale(0.015625)"/>
       </defs>
       <use xlink:href="#STIXGeneral-Regular-30"/>
       <use xlink:href="#STIXGeneral-Regular-2e" x="49.999985"/>
       <use xlink:href="#STIXGeneral-Regular-30" x="74.999969"/>
       <use xlink:href="#STIXGeneral-Regular-34" x="124.999954"/>
      </g>
     </g>
    </g>
    <g id="ytick_6">
     <g id="line2d_9">
      <g>
       <use xlink:href="#mbf2dbf1675" x="57.6" y="84.137001" style="stroke: #000000; stroke-width: 0.8"/>
      </g>
     </g>
     <g id="text_10">
      <!-- 0.05 -->
      <g transform="translate(33.1 87.551845) scale(0.1 -0.1)">
       <defs>
        <path id="STIXGeneral-Regular-35" d="M 2803 4358 
L 2573 3814 
Q 2534 3731 2400 3731 
L 1158 3731 
L 902 3187 
Q 1606 3053 1920 2896 
Q 2234 2739 2502 2368 
Q 2726 2061 2726 1555 
Q 2726 1094 2576 780 
Q 2426 467 2099 224 
Q 1664 -90 1011 -90 
Q 646 -90 422 19 
Q 198 128 198 307 
Q 198 550 486 550 
Q 717 550 960 352 
Q 1210 147 1414 147 
Q 1747 147 2012 480 
Q 2278 813 2278 1229 
Q 2278 1843 1850 2189 
Q 1293 2637 486 2637 
Q 410 2637 410 2688 
L 416 2720 
L 1114 4237 
L 2438 4237 
Q 2547 4237 2608 4269 
Q 2669 4301 2746 4403 
L 2803 4358 
z
" transform="scale(0.015625)"/>
       </defs>
       <use xlink:href="#STIXGeneral-Regular-30"/>
       <use xlink:href="#STIXGeneral-Regular-2e" x="49.999985"/>
       <use xlink:href="#STIXGeneral-Regular-30" x="74.999969"/>
       <use xlink:href="#STIXGeneral-Regular-35" x="124.999954"/>
      </g>
     </g>
    </g>
    <g id="ytick_7">
     <g id="line2d_10">
      <g>
       <use xlink:href="#mbf2dbf1675" x="57.6" y="44.203696" style="stroke: #000000; stroke-width: 0.8"/>
      </g>
     </g>
     <g id="text_11">
      <!-- 0.06 -->
      <g transform="translate(33.1 47.61854) scale(0.1 -0.1)">
       <defs>
        <path id="STIXGeneral-Regular-36" d="M 2854 4378 
L 2867 4275 
Q 2112 4154 1606 3664 
Q 1101 3174 973 2451 
Q 1344 2739 1786 2739 
Q 2349 2739 2672 2380 
Q 2995 2022 2995 1402 
Q 2995 774 2669 378 
Q 2291 -90 1651 -90 
Q 870 -90 518 557 
Q 218 1107 218 1786 
Q 218 2835 915 3552 
Q 1312 3962 1731 4131 
Q 2150 4301 2854 4378 
z
M 2419 1203 
Q 2419 2445 1555 2445 
Q 1235 2445 1024 2275 
Q 813 2106 813 1702 
Q 813 954 1046 522 
Q 1280 90 1722 90 
Q 2061 90 2240 394 
Q 2419 698 2419 1203 
z
" transform="scale(0.015625)"/>
       </defs>
       <use xlink:href="#STIXGeneral-Regular-30"/>
       <use xlink:href="#STIXGeneral-Regular-2e" x="49.999985"/>
       <use xlink:href="#STIXGeneral-Regular-30" x="74.999969"/>
       <use xlink:href="#STIXGeneral-Regular-36" x="124.999954"/>
      </g>
     </g>
    </g>
    <g id="text_12">
     <!-- value -->
     <g transform="translate(26.929688 185.358469) rotate(-90) scale(0.1 -0.1)">
      <defs>
       <path id="STIXGeneral-Regular-76" d="M 3053 2880 
L 3053 2784 
Q 2906 2771 2835 2688 
Q 2765 2605 2637 2285 
L 1818 230 
Q 1690 -90 1638 -90 
Q 1587 -90 1523 77 
Q 1510 96 1497 141 
Q 1485 186 1472 211 
L 704 2048 
Q 499 2534 403 2652 
Q 307 2771 122 2784 
L 122 2880 
L 1376 2880 
L 1376 2784 
Q 1210 2771 1146 2732 
Q 1082 2694 1082 2611 
Q 1082 2509 1139 2368 
L 1792 730 
L 2426 2387 
Q 2464 2483 2464 2579 
Q 2464 2758 2163 2784 
L 2163 2880 
L 3053 2880 
z
" transform="scale(0.015625)"/>
       <path id="STIXGeneral-Regular-61" d="M 2829 422 
L 2829 243 
Q 2586 -64 2253 -64 
Q 1888 -64 1843 403 
L 1837 403 
Q 1427 -64 909 -64 
Q 608 -64 422 112 
Q 237 288 237 602 
Q 237 1050 685 1350 
Q 992 1555 1837 1869 
L 1837 2214 
Q 1837 2502 1699 2646 
Q 1562 2790 1338 2790 
Q 1146 2790 1018 2697 
Q 890 2605 890 2477 
Q 890 2419 909 2348 
Q 928 2278 928 2208 
Q 928 2112 841 2029 
Q 755 1946 634 1946 
Q 525 1946 441 2029 
Q 358 2112 358 2240 
Q 358 2547 685 2752 
Q 986 2944 1421 2944 
Q 1939 2944 2176 2656 
Q 2291 2522 2323 2384 
Q 2355 2246 2355 1946 
L 2355 723 
Q 2355 301 2554 301 
Q 2682 301 2829 422 
z
M 1837 813 
L 1837 1715 
Q 1248 1510 1018 1293 
Q 800 1094 800 800 
Q 800 557 921 432 
Q 1043 307 1242 307 
Q 1453 307 1613 410 
Q 1747 506 1792 589 
Q 1837 672 1837 813 
z
" transform="scale(0.015625)"/>
       <path id="STIXGeneral-Regular-6c" d="M 1645 0 
L 134 0 
L 134 96 
Q 435 122 531 221 
Q 627 320 627 589 
L 627 3590 
Q 627 3821 569 3910 
Q 512 4000 358 4000 
Q 224 4000 122 3987 
L 122 4090 
Q 730 4237 1133 4371 
L 1165 4346 
L 1165 557 
Q 1165 288 1254 201 
Q 1344 115 1645 96 
L 1645 0 
z
" transform="scale(0.015625)"/>
      </defs>
      <use xlink:href="#STIXGeneral-Regular-76"/>
      <use xlink:href="#STIXGeneral-Regular-61" x="49.999985"/>
      <use xlink:href="#STIXGeneral-Regular-6c" x="94.399979"/>
      <use xlink:href="#STIXGeneral-Regular-75" x="122.199966"/>
      <use xlink:href="#STIXGeneral-Regular-65" x="172.199951"/>
     </g>
    </g>
   </g>
   <g id="line2d_11">
    <path d="M 117.12 279.436841 
L 117.12 244.931612 
" clip-path="url(#pc6ab8f3215)" style="fill: none; stroke: #3d3d3d; stroke-width: 1.5; stroke-linecap: square"/>
   </g>
   <g id="line2d_12">
    <path d="M 117.12 267.015157 
L 117.12 258.146206 
" clip-path="url(#pc6ab8f3215)" style="fill: none; stroke: #3d3d3d; stroke-width: 4.5; stroke-linecap: square"/>
   </g>
   <g id="line2d_13">
    <path d="M 236.16 274.5723 
L 236.16 244.892337 
" clip-path="url(#pc6ab8f3215)" style="fill: none; stroke: #3d3d3d; stroke-width: 1.5; stroke-linecap: square"/>
   </g>
   <g id="line2d_14">
    <path d="M 236.16 266.546609 
L 236.16 257.633617 
" clip-path="url(#pc6ab8f3215)" style="fill: none; stroke: #3d3d3d; stroke-width: 4.5; stroke-linecap: square"/>
   </g>
   <g id="line2d_15">
    <path d="M 355.2 272.914798 
L 355.2 246.207873 
" clip-path="url(#pc6ab8f3215)" style="fill: none; stroke: #3d3d3d; stroke-width: 1.5; stroke-linecap: square"/>
   </g>
   <g id="line2d_16">
    <path d="M 355.2 266.987417 
L 355.2 258.64233 
" clip-path="url(#pc6ab8f3215)" style="fill: none; stroke: #3d3d3d; stroke-width: 4.5; stroke-linecap: square"/>
   </g>
   <g id="patch_3">
    <path d="M 57.6 307.584 
L 57.6 41.472 
" style="fill: none; stroke: #000000; stroke-width: 0.8; stroke-linejoin: miter; stroke-linecap: square"/>
   </g>
   <g id="patch_4">
    <path d="M 414.72 307.584 
L 414.72 41.472 
" style="fill: none; stroke: #000000; stroke-width: 0.8; stroke-linejoin: miter; stroke-linecap: square"/>
   </g>
   <g id="patch_5">
    <path d="M 57.6 307.584 
L 414.72 307.584 
" style="fill: none; stroke: #000000; stroke-width: 0.8; stroke-linejoin: miter; stroke-linecap: square"/>
   </g>
   <g id="patch_6">
    <path d="M 57.6 41.472 
L 414.72 41.472 
" style="fill: none; stroke: #000000; stroke-width: 0.8; stroke-linejoin: miter; stroke-linecap: square"/>
   </g>
   <g id="PathCollection_1">
    <defs>
     <path id="me556f13eff" d="M 0 1.5 
C 0.397805 1.5 0.77937 1.341951 1.06066 1.06066 
C 1.341951 0.77937 1.5 0.397805 1.5 0 
C 1.5 -0.397805 1.341951 -0.77937 1.06066 -1.06066 
C 0.77937 -1.341951 0.397805 -1.5 0 -1.5 
C -0.397805 -1.5 -0.77937 -1.341951 -1.06066 -1.06066 
C -1.341951 -0.77937 -1.5 -0.397805 -1.5 0 
C -1.5 0.397805 -1.341951 0.77937 -1.06066 1.06066 
C -0.77937 1.341951 -0.397805 1.5 0 1.5 
z
" style="stroke: #3d3d3d"/>
    </defs>
    <g clip-path="url(#pc6ab8f3215)">
     <use xlink:href="#me556f13eff" x="117.12" y="265.658393" style="fill: #ffffff; stroke: #3d3d3d"/>
    </g>
   </g>
   <g id="PathCollection_2">
    <g clip-path="url(#pc6ab8f3215)">
     <use xlink:href="#me556f13eff" x="236.16" y="263.430635" style="fill: #ffffff; stroke: #3d3d3d"/>
    </g>
   </g>
   <g id="PathCollection_3">
    <g clip-path="url(#pc6ab8f3215)">
     <use xlink:href="#me556f13eff" x="355.2" y="265.400795" style="fill: #ffffff; stroke: #3d3d3d"/>
    </g>
   </g>
  </g>
 </g>
 <defs>
  <clipPath id="pc6ab8f3215">
   <rect x="57.6" y="41.472" width="357.12" height="266.112"/>
  </clipPath>
 </defs>
</svg>
