<?xml version="1.0" encoding="utf-8" standalone="no"?>
<!DOCTYPE svg PUBLIC "-//W3C//DTD SVG 1.1//EN"
  "http://www.w3.org/Graphics/SVG/1.1/DTD/svg11.dtd">
<svg xmlns:xlink="http://www.w3.org/1999/xlink" width="460.8pt" height="345.6pt" viewBox="0 0 460.8 345.6" xmlns="http://www.w3.org/2000/svg" version="1.1">
 <metadata>
  <rdf:RDF xmlns:dc="http://purl.org/dc/elements/1.1/" xmlns:cc="http://creativecommons.org/ns#" xmlns:rdf="http://www.w3.org/1999/02/22-rdf-syntax-ns#">
   <cc:Work>
    <dc:type rdf:resource="http://purl.org/dc/dcmitype/StillImage"/>
    <dc:date>2024-01-30T15:56:01.043999</dc:date>
    <dc:format>image/svg+xml</dc:format>
    <dc:creator>
     <cc:Agent>
      <dc:title>Matplotlib v3.6.3, https://matplotlib.org/</dc:title>
     </cc:Agent>
    </dc:creator>
   </cc:Work>
  </rdf:RDF>
 </metadata>
 <defs>
  <style type="text/css">*{stroke-linejoin: round; stroke-linecap: butt}</style>
 </defs>
 <g id="figure_1">
  <g id="patch_1">
   <path d="M 0 345.6 
L 460.8 345.6 
L 460.8 0 
L 0 0 
z
" style="fill: #ffffff"/>
  </g>
  <g id="axes_1">
   <g id="patch_2">
    <path d="M 57.6 307.584 
L 414.72 307.584 
L 414.72 41.472 
L 57.6 41.472 
z
" style="fill: #ffffff"/>
   </g>
   <g id="PolyCollection_1">
    <defs>
     <path id="m4c11b85b3b" d="M 94.716568 -51.511873 
L 91.907432 -51.511873 
L 82.969432 -51.6389 
L 91.333216 -51.765927 
L 93.290851 -51.892955 
L 93.303051 -52.019982 
L 93.303991 -52.147009 
L 93.299775 -52.274036 
L 93.301384 -52.401063 
L 93.305278 -52.52809 
L 93.303346 -52.655117 
L 93.302539 -52.782145 
L 93.30427 -52.909172 
L 93.301962 -53.036199 
L 93.304774 -53.163226 
L 93.302714 -53.290253 
L 93.305585 -53.41728 
L 93.306231 -53.544307 
L 93.305179 -53.671335 
L 93.308719 -53.798362 
L 93.308751 -53.925389 
L 93.308337 -54.052416 
L 93.308475 -54.179443 
L 93.30647 -54.30647 
L 93.306516 -54.433497 
L 93.306189 -54.560525 
L 93.306212 -54.687552 
L 93.303219 -54.814579 
L 93.306697 -54.941606 
L 93.308614 -55.068633 
L 93.307635 -55.19566 
L 93.305966 -55.322687 
L 93.306893 -55.449715 
L 93.308266 -55.576742 
L 93.308459 -55.703769 
L 93.309064 -55.830796 
L 93.310162 -55.957823 
L 93.308277 -56.08485 
L 93.310276 -56.211877 
L 93.311511 -56.338905 
L 93.310307 -56.465932 
L 93.308748 -56.592959 
L 93.308663 -56.719986 
L 93.308263 -56.847013 
L 93.310816 -56.97404 
L 93.311874 -57.101068 
L 93.311705 -57.228095 
L 93.309872 -57.355122 
L 93.307774 -57.482149 
L 93.310124 -57.609176 
L 93.310843 -57.736203 
L 93.310142 -57.86323 
L 93.311502 -57.990258 
L 93.311952 -58.117285 
L 93.311008 -58.244312 
L 93.311198 -58.371339 
L 93.311317 -58.498366 
L 93.311397 -58.625393 
L 93.311688 -58.75242 
L 93.311445 -58.879448 
L 93.310335 -59.006475 
L 93.311653 -59.133502 
L 93.311998 -59.260529 
L 93.312 -59.387556 
L 93.312 -59.514583 
L 93.312 -59.64161 
L 93.312 -59.768638 
L 93.312 -59.895665 
L 93.312 -60.022692 
L 93.311996 -60.149719 
L 93.311701 -60.276746 
L 93.31147 -60.403773 
L 93.311735 -60.5308 
L 93.31139 -60.657828 
L 93.311382 -60.784855 
L 93.311256 -60.911882 
L 93.311521 -61.038909 
L 93.311344 -61.165936 
L 93.311918 -61.292963 
L 93.31199 -61.41999 
L 93.31159 -61.547018 
L 93.311116 -61.674045 
L 93.31161 -61.801072 
L 93.311992 -61.928099 
L 93.312 -62.055126 
L 93.312 -62.182153 
L 93.311995 -62.309181 
L 93.311678 -62.436208 
L 93.311495 -62.563235 
L 93.31198 -62.690262 
L 93.312 -62.817289 
L 93.312 -62.944316 
L 93.312 -63.071343 
L 93.312 -63.198371 
L 93.312 -63.325398 
L 93.312 -63.452425 
L 93.312 -63.579452 
L 93.311999 -63.706479 
L 93.311876 -63.833506 
L 93.311348 -63.960533 
L 93.311911 -64.087561 
L 93.312089 -64.087561 
L 93.312089 -64.087561 
L 93.312652 -63.960533 
L 93.312124 -63.833506 
L 93.312001 -63.706479 
L 93.312 -63.579452 
L 93.312 -63.452425 
L 93.312 -63.325398 
L 93.312 -63.198371 
L 93.312 -63.071343 
L 93.312 -62.944316 
L 93.312 -62.817289 
L 93.31202 -62.690262 
L 93.312505 -62.563235 
L 93.312322 -62.436208 
L 93.312005 -62.309181 
L 93.312 -62.182153 
L 93.312 -62.055126 
L 93.312008 -61.928099 
L 93.31239 -61.801072 
L 93.312884 -61.674045 
L 93.31241 -61.547018 
L 93.31201 -61.41999 
L 93.312082 -61.292963 
L 93.312656 -61.165936 
L 93.312479 -61.038909 
L 93.312744 -60.911882 
L 93.312618 -60.784855 
L 93.31261 -60.657828 
L 93.312265 -60.5308 
L 93.31253 -60.403773 
L 93.312299 -60.276746 
L 93.312004 -60.149719 
L 93.312 -60.022692 
L 93.312 -59.895665 
L 93.312 -59.768638 
L 93.312 -59.64161 
L 93.312 -59.514583 
L 93.312 -59.387556 
L 93.312002 -59.260529 
L 93.312347 -59.133502 
L 93.313665 -59.006475 
L 93.312555 -58.879448 
L 93.312312 -58.75242 
L 93.312603 -58.625393 
L 93.312683 -58.498366 
L 93.312802 -58.371339 
L 93.312992 -58.244312 
L 93.312048 -58.117285 
L 93.312498 -57.990258 
L 93.313858 -57.86323 
L 93.313157 -57.736203 
L 93.313876 -57.609176 
L 93.316226 -57.482149 
L 93.314128 -57.355122 
L 93.312295 -57.228095 
L 93.312126 -57.101068 
L 93.313184 -56.97404 
L 93.315737 -56.847013 
L 93.315337 -56.719986 
L 93.315252 -56.592959 
L 93.313693 -56.465932 
L 93.312489 -56.338905 
L 93.313724 -56.211877 
L 93.315723 -56.08485 
L 93.313838 -55.957823 
L 93.314936 -55.830796 
L 93.315541 -55.703769 
L 93.315734 -55.576742 
L 93.317107 -55.449715 
L 93.318034 -55.322687 
L 93.316365 -55.19566 
L 93.315386 -55.068633 
L 93.317303 -54.941606 
L 93.320781 -54.814579 
L 93.317788 -54.687552 
L 93.317811 -54.560525 
L 93.317484 -54.433497 
L 93.31753 -54.30647 
L 93.315525 -54.179443 
L 93.315663 -54.052416 
L 93.315249 -53.925389 
L 93.315281 -53.798362 
L 93.318821 -53.671335 
L 93.317769 -53.544307 
L 93.318415 -53.41728 
L 93.321286 -53.290253 
L 93.319226 -53.163226 
L 93.322038 -53.036199 
L 93.31973 -52.909172 
L 93.321461 -52.782145 
L 93.320654 -52.655117 
L 93.318722 -52.52809 
L 93.322616 -52.401063 
L 93.324225 -52.274036 
L 93.320009 -52.147009 
L 93.320949 -52.019982 
L 93.333149 -51.892955 
L 95.290784 -51.765927 
L 103.654568 -51.6389 
L 94.716568 -51.511873 
z
" style="stroke: #3d3d3d; stroke-width: 1.5"/>
    </defs>
    <g clip-path="url(#p1cbb49b2b5)">
     <use xlink:href="#m4c11b85b3b" x="0" y="345.6" style="fill: #3274a1; stroke: #3d3d3d; stroke-width: 1.5"/>
    </g>
   </g>
   <g id="PolyCollection_2">
    <defs>
     <path id="m8bf435d457" d="M 165.905213 -51.489413 
L 163.566787 -51.489413 
L 156.094616 -51.648931 
L 163.759568 -51.808448 
L 164.699907 -51.967966 
L 164.70406 -52.127484 
L 164.705889 -52.287001 
L 164.706923 -52.446519 
L 164.706356 -52.606037 
L 164.707149 -52.765555 
L 164.712517 -52.925072 
L 164.713852 -53.08459 
L 164.713455 -53.244108 
L 164.718403 -53.403626 
L 164.720348 -53.563143 
L 164.720761 -53.722661 
L 164.727305 -53.882179 
L 164.725702 -54.041696 
L 164.722293 -54.201214 
L 164.722234 -54.360732 
L 164.726259 -54.52025 
L 164.727523 -54.679767 
L 164.7279 -54.839285 
L 164.727936 -54.998803 
L 164.729341 -55.158321 
L 164.73111 -55.317838 
L 164.732443 -55.477356 
L 164.73332 -55.636874 
L 164.732987 -55.796391 
L 164.731402 -55.955909 
L 164.732107 -56.115427 
L 164.732218 -56.274945 
L 164.73387 -56.434462 
L 164.732645 -56.59398 
L 164.732166 -56.753498 
L 164.732796 -56.913016 
L 164.734452 -57.072533 
L 164.734674 -57.232051 
L 164.732141 -57.391569 
L 164.734707 -57.551087 
L 164.734198 -57.710604 
L 164.733596 -57.870122 
L 164.734346 -58.02964 
L 164.734495 -58.189157 
L 164.735259 -58.348675 
L 164.735696 -58.508193 
L 164.734432 -58.667711 
L 164.735682 -58.827228 
L 164.734912 -58.986746 
L 164.735719 -59.146264 
L 164.735439 -59.305782 
L 164.735933 -59.465299 
L 164.735999 -59.624817 
L 164.735842 -59.784335 
L 164.734838 -59.943852 
L 164.735252 -60.10337 
L 164.735104 -60.262888 
L 164.735244 -60.422406 
L 164.735639 -60.581923 
L 164.735994 -60.741441 
L 164.735999 -60.900959 
L 164.735778 -61.060477 
L 164.734946 -61.219994 
L 164.735897 -61.379512 
L 164.736 -61.53903 
L 164.736 -61.698548 
L 164.736 -61.858065 
L 164.736 -62.017583 
L 164.736 -62.177101 
L 164.736 -62.336618 
L 164.736 -62.496136 
L 164.736 -62.655654 
L 164.736 -62.815172 
L 164.736 -62.974689 
L 164.736 -63.134207 
L 164.736 -63.293725 
L 164.736 -63.453243 
L 164.736 -63.61276 
L 164.736 -63.772278 
L 164.736 -63.931796 
L 164.736 -64.091313 
L 164.736 -64.250831 
L 164.736 -64.410349 
L 164.736 -64.569867 
L 164.736 -64.729384 
L 164.736 -64.888902 
L 164.736 -65.04842 
L 164.736 -65.207938 
L 164.736 -65.367455 
L 164.736 -65.526973 
L 164.736 -65.686491 
L 164.736 -65.846009 
L 164.736 -66.005526 
L 164.736 -66.165044 
L 164.736 -66.324562 
L 164.736 -66.484079 
L 164.736 -66.643597 
L 164.736 -66.803115 
L 164.735939 -66.962633 
L 164.735441 -67.12215 
L 164.735924 -67.281668 
L 164.736076 -67.281668 
L 164.736076 -67.281668 
L 164.736559 -67.12215 
L 164.736061 -66.962633 
L 164.736 -66.803115 
L 164.736 -66.643597 
L 164.736 -66.484079 
L 164.736 -66.324562 
L 164.736 -66.165044 
L 164.736 -66.005526 
L 164.736 -65.846009 
L 164.736 -65.686491 
L 164.736 -65.526973 
L 164.736 -65.367455 
L 164.736 -65.207938 
L 164.736 -65.04842 
L 164.736 -64.888902 
L 164.736 -64.729384 
L 164.736 -64.569867 
L 164.736 -64.410349 
L 164.736 -64.250831 
L 164.736 -64.091313 
L 164.736 -63.931796 
L 164.736 -63.772278 
L 164.736 -63.61276 
L 164.736 -63.453243 
L 164.736 -63.293725 
L 164.736 -63.134207 
L 164.736 -62.974689 
L 164.736 -62.815172 
L 164.736 -62.655654 
L 164.736 -62.496136 
L 164.736 -62.336618 
L 164.736 -62.177101 
L 164.736 -62.017583 
L 164.736 -61.858065 
L 164.736 -61.698548 
L 164.736 -61.53903 
L 164.736103 -61.379512 
L 164.737054 -61.219994 
L 164.736222 -61.060477 
L 164.736001 -60.900959 
L 164.736006 -60.741441 
L 164.736361 -60.581923 
L 164.736756 -60.422406 
L 164.736896 -60.262888 
L 164.736748 -60.10337 
L 164.737162 -59.943852 
L 164.736158 -59.784335 
L 164.736001 -59.624817 
L 164.736067 -59.465299 
L 164.736561 -59.305782 
L 164.736281 -59.146264 
L 164.737088 -58.986746 
L 164.736318 -58.827228 
L 164.737568 -58.667711 
L 164.736304 -58.508193 
L 164.736741 -58.348675 
L 164.737505 -58.189157 
L 164.737654 -58.02964 
L 164.738404 -57.870122 
L 164.737802 -57.710604 
L 164.737293 -57.551087 
L 164.739859 -57.391569 
L 164.737326 -57.232051 
L 164.737548 -57.072533 
L 164.739204 -56.913016 
L 164.739834 -56.753498 
L 164.739355 -56.59398 
L 164.73813 -56.434462 
L 164.739782 -56.274945 
L 164.739893 -56.115427 
L 164.740598 -55.955909 
L 164.739013 -55.796391 
L 164.73868 -55.636874 
L 164.739557 -55.477356 
L 164.74089 -55.317838 
L 164.742659 -55.158321 
L 164.744064 -54.998803 
L 164.7441 -54.839285 
L 164.744477 -54.679767 
L 164.745741 -54.52025 
L 164.749766 -54.360732 
L 164.749707 -54.201214 
L 164.746298 -54.041696 
L 164.744695 -53.882179 
L 164.751239 -53.722661 
L 164.751652 -53.563143 
L 164.753597 -53.403626 
L 164.758545 -53.244108 
L 164.758148 -53.08459 
L 164.759483 -52.925072 
L 164.764851 -52.765555 
L 164.765644 -52.606037 
L 164.765077 -52.446519 
L 164.766111 -52.287001 
L 164.76794 -52.127484 
L 164.772093 -51.967966 
L 165.712432 -51.808448 
L 173.377384 -51.648931 
L 165.905213 -51.489413 
z
" style="stroke: #3d3d3d; stroke-width: 1.5"/>
    </defs>
    <g clip-path="url(#p1cbb49b2b5)">
     <use xlink:href="#m8bf435d457" x="0" y="345.6" style="fill: #e1812c; stroke: #3d3d3d; stroke-width: 1.5"/>
    </g>
   </g>
   <g id="PolyCollection_3">
    <defs>
     <path id="mb77e998ef2" d="M 237.774499 -51.529436 
L 234.545501 -51.529436 
L 224.544041 -51.631314 
L 232.459367 -51.733192 
L 236.090134 -51.835069 
L 236.144444 -51.936947 
L 236.146683 -52.038825 
L 236.14671 -52.140703 
L 236.150099 -52.242581 
L 236.152323 -52.344459 
L 236.15116 -52.446336 
L 236.148925 -52.548214 
L 236.147844 -52.650092 
L 236.149711 -52.75197 
L 236.145989 -52.853848 
L 236.147274 -52.955726 
L 236.14825 -53.057603 
L 236.147992 -53.159481 
L 236.145392 -53.261359 
L 236.149436 -53.363237 
L 236.150868 -53.465115 
L 236.154569 -53.566992 
L 236.151773 -53.66887 
L 236.153954 -53.770748 
L 236.156106 -53.872626 
L 236.154439 -53.974504 
L 236.155779 -54.076382 
L 236.155634 -54.178259 
L 236.155708 -54.280137 
L 236.156552 -54.382015 
L 236.155983 -54.483893 
L 236.154826 -54.585771 
L 236.152839 -54.687649 
L 236.154177 -54.789526 
L 236.15653 -54.891404 
L 236.154389 -54.993282 
L 236.1572 -55.09516 
L 236.157302 -55.197038 
L 236.157531 -55.298916 
L 236.157273 -55.400793 
L 236.156967 -55.502671 
L 236.155865 -55.604549 
L 236.155296 -55.706427 
L 236.154456 -55.808305 
L 236.156094 -55.910183 
L 236.156776 -56.01206 
L 236.156903 -56.113938 
L 236.156927 -56.215816 
L 236.156887 -56.317694 
L 236.15764 -56.419572 
L 236.159499 -56.52145 
L 236.159059 -56.623327 
L 236.159419 -56.725205 
L 236.158472 -56.827083 
L 236.1583 -56.928961 
L 236.158631 -57.030839 
L 236.158918 -57.132717 
L 236.157206 -57.234594 
L 236.157275 -57.336472 
L 236.159691 -57.43835 
L 236.159998 -57.540228 
L 236.159888 -57.642106 
L 236.158737 -57.743984 
L 236.158814 -57.845861 
L 236.159909 -57.947739 
L 236.16 -58.049617 
L 236.16 -58.151495 
L 236.16 -58.253373 
L 236.15995 -58.35525 
L 236.159245 -58.457128 
L 236.159494 -58.559006 
L 236.159701 -58.660884 
L 236.158907 -58.762762 
L 236.158761 -58.86464 
L 236.158853 -58.966517 
L 236.15978 -59.068395 
L 236.159998 -59.170273 
L 236.16 -59.272151 
L 236.16 -59.374029 
L 236.16 -59.475907 
L 236.16 -59.577784 
L 236.16 -59.679662 
L 236.16 -59.78154 
L 236.159999 -59.883418 
L 236.159836 -59.985296 
L 236.15907 -60.087174 
L 236.159768 -60.189051 
L 236.159997 -60.290929 
L 236.16 -60.392807 
L 236.16 -60.494685 
L 236.16 -60.596563 
L 236.16 -60.698441 
L 236.16 -60.800318 
L 236.16 -60.902196 
L 236.16 -61.004074 
L 236.16 -61.105952 
L 236.16 -61.20783 
L 236.159996 -61.309708 
L 236.159712 -61.411585 
L 236.159091 -61.513463 
L 236.159874 -61.615341 
L 236.160126 -61.615341 
L 236.160126 -61.615341 
L 236.160909 -61.513463 
L 236.160288 -61.411585 
L 236.160004 -61.309708 
L 236.16 -61.20783 
L 236.16 -61.105952 
L 236.16 -61.004074 
L 236.16 -60.902196 
L 236.16 -60.800318 
L 236.16 -60.698441 
L 236.16 -60.596563 
L 236.16 -60.494685 
L 236.16 -60.392807 
L 236.160003 -60.290929 
L 236.160232 -60.189051 
L 236.16093 -60.087174 
L 236.160164 -59.985296 
L 236.160001 -59.883418 
L 236.16 -59.78154 
L 236.16 -59.679662 
L 236.16 -59.577784 
L 236.16 -59.475907 
L 236.16 -59.374029 
L 236.16 -59.272151 
L 236.160002 -59.170273 
L 236.16022 -59.068395 
L 236.161147 -58.966517 
L 236.161239 -58.86464 
L 236.161093 -58.762762 
L 236.160299 -58.660884 
L 236.160506 -58.559006 
L 236.160755 -58.457128 
L 236.16005 -58.35525 
L 236.16 -58.253373 
L 236.16 -58.151495 
L 236.16 -58.049617 
L 236.160091 -57.947739 
L 236.161186 -57.845861 
L 236.161263 -57.743984 
L 236.160112 -57.642106 
L 236.160002 -57.540228 
L 236.160309 -57.43835 
L 236.162725 -57.336472 
L 236.162794 -57.234594 
L 236.161082 -57.132717 
L 236.161369 -57.030839 
L 236.1617 -56.928961 
L 236.161528 -56.827083 
L 236.160581 -56.725205 
L 236.160941 -56.623327 
L 236.160501 -56.52145 
L 236.16236 -56.419572 
L 236.163113 -56.317694 
L 236.163073 -56.215816 
L 236.163097 -56.113938 
L 236.163224 -56.01206 
L 236.163906 -55.910183 
L 236.165544 -55.808305 
L 236.164704 -55.706427 
L 236.164135 -55.604549 
L 236.163033 -55.502671 
L 236.162727 -55.400793 
L 236.162469 -55.298916 
L 236.162698 -55.197038 
L 236.1628 -55.09516 
L 236.165611 -54.993282 
L 236.16347 -54.891404 
L 236.165823 -54.789526 
L 236.167161 -54.687649 
L 236.165174 -54.585771 
L 236.164017 -54.483893 
L 236.163448 -54.382015 
L 236.164292 -54.280137 
L 236.164366 -54.178259 
L 236.164221 -54.076382 
L 236.165561 -53.974504 
L 236.163894 -53.872626 
L 236.166046 -53.770748 
L 236.168227 -53.66887 
L 236.165431 -53.566992 
L 236.169132 -53.465115 
L 236.170564 -53.363237 
L 236.174608 -53.261359 
L 236.172008 -53.159481 
L 236.17175 -53.057603 
L 236.172726 -52.955726 
L 236.174011 -52.853848 
L 236.170289 -52.75197 
L 236.172156 -52.650092 
L 236.171075 -52.548214 
L 236.16884 -52.446336 
L 236.167677 -52.344459 
L 236.169901 -52.242581 
L 236.17329 -52.140703 
L 236.173317 -52.038825 
L 236.175556 -51.936947 
L 236.229866 -51.835069 
L 239.860633 -51.733192 
L 247.775959 -51.631314 
L 237.774499 -51.529436 
z
" style="stroke: #3d3d3d; stroke-width: 1.5"/>
    </defs>
    <g clip-path="url(#p1cbb49b2b5)">
     <use xlink:href="#mb77e998ef2" x="0" y="345.6" style="fill: #3a923a; stroke: #3d3d3d; stroke-width: 1.5"/>
    </g>
   </g>
   <g id="PolyCollection_4">
    <defs>
     <path id="m7b7e1636d4" d="M 311.585128 -51.598328 
L 303.582872 -51.598328 
L 279.0144 -51.638659 
L 297.608474 -51.67899 
L 307.349026 -51.719321 
L 307.514627 -51.759652 
L 307.533898 -51.799984 
L 307.536746 -51.840315 
L 307.542866 -51.880646 
L 307.544753 -51.920977 
L 307.546289 -51.961308 
L 307.54617 -52.001639 
L 307.546978 -52.041971 
L 307.558417 -52.082302 
L 307.555275 -52.122633 
L 307.55429 -52.162964 
L 307.555978 -52.203295 
L 307.565047 -52.243627 
L 307.556364 -52.283958 
L 307.557059 -52.324289 
L 307.565234 -52.36462 
L 307.564174 -52.404951 
L 307.566576 -52.445282 
L 307.564324 -52.485614 
L 307.56436 -52.525945 
L 307.56686 -52.566276 
L 307.56359 -52.606607 
L 307.55779 -52.646938 
L 307.56468 -52.687269 
L 307.569705 -52.727601 
L 307.577623 -52.767932 
L 307.575307 -52.808263 
L 307.569981 -52.848594 
L 307.572128 -52.888925 
L 307.57742 -52.929257 
L 307.568026 -52.969588 
L 307.57599 -53.009919 
L 307.575989 -53.05025 
L 307.577183 -53.090581 
L 307.575879 -53.130912 
L 307.579615 -53.171244 
L 307.577878 -53.211575 
L 307.576335 -53.251906 
L 307.578831 -53.292237 
L 307.570383 -53.332568 
L 307.575732 -53.372899 
L 307.576885 -53.413231 
L 307.579708 -53.453562 
L 307.579785 -53.493893 
L 307.58112 -53.534224 
L 307.582038 -53.574555 
L 307.578803 -53.614887 
L 307.578466 -53.655218 
L 307.579833 -53.695549 
L 307.583668 -53.73588 
L 307.583647 -53.776211 
L 307.581461 -53.816542 
L 307.579789 -53.856874 
L 307.580965 -53.897205 
L 307.578741 -53.937536 
L 307.582739 -53.977867 
L 307.581964 -54.018198 
L 307.581236 -54.058529 
L 307.58136 -54.098861 
L 307.58378 -54.139192 
L 307.583958 -54.179523 
L 307.582898 -54.219854 
L 307.582539 -54.260185 
L 307.583228 -54.300516 
L 307.579022 -54.340848 
L 307.581638 -54.381179 
L 307.583896 -54.42151 
L 307.583064 -54.461841 
L 307.582401 -54.502172 
L 307.583866 -54.542504 
L 307.583856 -54.582835 
L 307.581526 -54.623166 
L 307.581291 -54.663497 
L 307.582267 -54.703828 
L 307.581602 -54.744159 
L 307.581486 -54.784491 
L 307.582583 -54.824822 
L 307.583926 -54.865153 
L 307.583999 -54.905484 
L 307.583859 -54.945815 
L 307.582378 -54.986146 
L 307.583093 -55.026478 
L 307.583975 -55.066809 
L 307.584 -55.10714 
L 307.584 -55.147471 
L 307.583922 -55.187802 
L 307.582227 -55.228134 
L 307.580919 -55.268465 
L 307.58354 -55.308796 
L 307.583996 -55.349127 
L 307.584 -55.389458 
L 307.584 -55.429789 
L 307.583989 -55.470121 
L 307.583371 -55.510452 
L 307.582192 -55.550783 
L 307.583747 -55.591114 
L 307.584253 -55.591114 
L 307.584253 -55.591114 
L 307.585808 -55.550783 
L 307.584629 -55.510452 
L 307.584011 -55.470121 
L 307.584 -55.429789 
L 307.584 -55.389458 
L 307.584004 -55.349127 
L 307.58446 -55.308796 
L 307.587081 -55.268465 
L 307.585773 -55.228134 
L 307.584078 -55.187802 
L 307.584 -55.147471 
L 307.584 -55.10714 
L 307.584025 -55.066809 
L 307.584907 -55.026478 
L 307.585622 -54.986146 
L 307.584141 -54.945815 
L 307.584001 -54.905484 
L 307.584074 -54.865153 
L 307.585417 -54.824822 
L 307.586514 -54.784491 
L 307.586398 -54.744159 
L 307.585733 -54.703828 
L 307.586709 -54.663497 
L 307.586474 -54.623166 
L 307.584144 -54.582835 
L 307.584134 -54.542504 
L 307.585599 -54.502172 
L 307.584936 -54.461841 
L 307.584104 -54.42151 
L 307.586362 -54.381179 
L 307.588978 -54.340848 
L 307.584772 -54.300516 
L 307.585461 -54.260185 
L 307.585102 -54.219854 
L 307.584042 -54.179523 
L 307.58422 -54.139192 
L 307.58664 -54.098861 
L 307.586764 -54.058529 
L 307.586036 -54.018198 
L 307.585261 -53.977867 
L 307.589259 -53.937536 
L 307.587035 -53.897205 
L 307.588211 -53.856874 
L 307.586539 -53.816542 
L 307.584353 -53.776211 
L 307.584332 -53.73588 
L 307.588167 -53.695549 
L 307.589534 -53.655218 
L 307.589197 -53.614887 
L 307.585962 -53.574555 
L 307.58688 -53.534224 
L 307.588215 -53.493893 
L 307.588292 -53.453562 
L 307.591115 -53.413231 
L 307.592268 -53.372899 
L 307.597617 -53.332568 
L 307.589169 -53.292237 
L 307.591665 -53.251906 
L 307.590122 -53.211575 
L 307.588385 -53.171244 
L 307.592121 -53.130912 
L 307.590817 -53.090581 
L 307.592011 -53.05025 
L 307.59201 -53.009919 
L 307.599974 -52.969588 
L 307.59058 -52.929257 
L 307.595872 -52.888925 
L 307.598019 -52.848594 
L 307.592693 -52.808263 
L 307.590377 -52.767932 
L 307.598295 -52.727601 
L 307.60332 -52.687269 
L 307.61021 -52.646938 
L 307.60441 -52.606607 
L 307.60114 -52.566276 
L 307.60364 -52.525945 
L 307.603676 -52.485614 
L 307.601424 -52.445282 
L 307.603826 -52.404951 
L 307.602766 -52.36462 
L 307.610941 -52.324289 
L 307.611636 -52.283958 
L 307.602953 -52.243627 
L 307.612022 -52.203295 
L 307.61371 -52.162964 
L 307.612725 -52.122633 
L 307.609583 -52.082302 
L 307.621022 -52.041971 
L 307.62183 -52.001639 
L 307.621711 -51.961308 
L 307.623247 -51.920977 
L 307.625134 -51.880646 
L 307.631254 -51.840315 
L 307.634102 -51.799984 
L 307.653373 -51.759652 
L 307.818974 -51.719321 
L 317.559526 -51.67899 
L 336.1536 -51.638659 
L 311.585128 -51.598328 
z
" style="stroke: #3d3d3d; stroke-width: 1.5"/>
    </defs>
    <g clip-path="url(#p1cbb49b2b5)">
     <use xlink:href="#m7b7e1636d4" x="0" y="345.6" style="fill: #c03d3e; stroke: #3d3d3d; stroke-width: 1.5"/>
    </g>
   </g>
   <g id="PolyCollection_5">
    <defs>
     <path id="m50a1326a15" d="M 379.13159 -50.112 
L 378.88441 -50.112 
L 378.557271 -52.555636 
L 379.007863 -54.999273 
L 379.007828 -57.442909 
L 379.007854 -59.886545 
L 379.007851 -62.330182 
L 379.007982 -64.773818 
L 379.007933 -67.217455 
L 379.007996 -69.661091 
L 379.007902 -72.104727 
L 379.007999 -74.548364 
L 379.007821 -76.992 
L 379.007775 -79.435636 
L 379.007892 -81.879273 
L 379.007882 -84.322909 
L 379.007925 -86.766545 
L 379.007897 -89.210182 
L 379.00782 -91.653818 
L 379.007928 -94.097455 
L 379.00786 -96.541091 
L 379.007963 -98.984727 
L 379.00798 -101.428364 
L 379.007939 -103.872 
L 379.007977 -106.315636 
L 379.007988 -108.759273 
L 379.00791 -111.202909 
L 379.00792 -113.646545 
L 379.007922 -116.090182 
L 379.007948 -118.533818 
L 379.007821 -120.977455 
L 379.007867 -123.421091 
L 379.007982 -125.864727 
L 379.008 -128.308364 
L 379.007953 -130.752 
L 379.007998 -133.195636 
L 379.008 -135.639273 
L 379.008 -138.082909 
L 379.008 -140.526545 
L 379.008 -142.970182 
L 379.008 -145.413818 
L 379.008 -147.857455 
L 379.007996 -150.301091 
L 379.007949 -152.744727 
L 379.007977 -155.188364 
L 379.00787 -157.632 
L 379.007936 -160.075636 
L 379.007987 -162.519273 
L 379.008 -164.962909 
L 379.007991 -167.406545 
L 379.007974 -169.850182 
L 379.007997 -172.293818 
L 379.007957 -174.737455 
L 379.008 -177.181091 
L 379.008 -179.624727 
L 379.008 -182.068364 
L 379.008 -184.512 
L 379.007996 -186.955636 
L 379.007961 -189.399273 
L 379.007944 -191.842909 
L 379.007938 -194.286545 
L 379.007987 -196.730182 
L 379.008 -199.173818 
L 379.008 -201.617455 
L 379.008 -204.061091 
L 379.008 -206.504727 
L 379.008 -208.948364 
L 379.008 -211.392 
L 379.008 -213.835636 
L 379.008 -216.279273 
L 379.008 -218.722909 
L 379.008 -221.166545 
L 379.008 -223.610182 
L 379.008 -226.053818 
L 379.008 -228.497455 
L 379.008 -230.941091 
L 379.008 -233.384727 
L 379.008 -235.828364 
L 379.008 -238.272 
L 379.008 -240.715636 
L 379.008 -243.159273 
L 379.008 -245.602909 
L 379.008 -248.046545 
L 379.008 -250.490182 
L 379.008 -252.933818 
L 379.008 -255.377455 
L 379.008 -257.821091 
L 379.008 -260.264727 
L 379.008 -262.708364 
L 379.008 -265.152 
L 379.008 -267.595636 
L 379.008 -270.039273 
L 379.008 -272.482909 
L 379.008 -274.926545 
L 379.007986 -277.370182 
L 379.007978 -279.813818 
L 379.007962 -282.257455 
L 379.008 -284.701091 
L 379.008 -287.144727 
L 379.007972 -289.588364 
L 379.007992 -292.032 
L 379.008008 -292.032 
L 379.008008 -292.032 
L 379.008028 -289.588364 
L 379.008 -287.144727 
L 379.008 -284.701091 
L 379.008038 -282.257455 
L 379.008022 -279.813818 
L 379.008014 -277.370182 
L 379.008 -274.926545 
L 379.008 -272.482909 
L 379.008 -270.039273 
L 379.008 -267.595636 
L 379.008 -265.152 
L 379.008 -262.708364 
L 379.008 -260.264727 
L 379.008 -257.821091 
L 379.008 -255.377455 
L 379.008 -252.933818 
L 379.008 -250.490182 
L 379.008 -248.046545 
L 379.008 -245.602909 
L 379.008 -243.159273 
L 379.008 -240.715636 
L 379.008 -238.272 
L 379.008 -235.828364 
L 379.008 -233.384727 
L 379.008 -230.941091 
L 379.008 -228.497455 
L 379.008 -226.053818 
L 379.008 -223.610182 
L 379.008 -221.166545 
L 379.008 -218.722909 
L 379.008 -216.279273 
L 379.008 -213.835636 
L 379.008 -211.392 
L 379.008 -208.948364 
L 379.008 -206.504727 
L 379.008 -204.061091 
L 379.008 -201.617455 
L 379.008 -199.173818 
L 379.008013 -196.730182 
L 379.008062 -194.286545 
L 379.008056 -191.842909 
L 379.008039 -189.399273 
L 379.008004 -186.955636 
L 379.008 -184.512 
L 379.008 -182.068364 
L 379.008 -179.624727 
L 379.008 -177.181091 
L 379.008043 -174.737455 
L 379.008003 -172.293818 
L 379.008026 -169.850182 
L 379.008009 -167.406545 
L 379.008 -164.962909 
L 379.008013 -162.519273 
L 379.008064 -160.075636 
L 379.00813 -157.632 
L 379.008023 -155.188364 
L 379.008051 -152.744727 
L 379.008004 -150.301091 
L 379.008 -147.857455 
L 379.008 -145.413818 
L 379.008 -142.970182 
L 379.008 -140.526545 
L 379.008 -138.082909 
L 379.008 -135.639273 
L 379.008002 -133.195636 
L 379.008047 -130.752 
L 379.008 -128.308364 
L 379.008018 -125.864727 
L 379.008133 -123.421091 
L 379.008179 -120.977455 
L 379.008052 -118.533818 
L 379.008078 -116.090182 
L 379.00808 -113.646545 
L 379.00809 -111.202909 
L 379.008012 -108.759273 
L 379.008023 -106.315636 
L 379.008061 -103.872 
L 379.00802 -101.428364 
L 379.008037 -98.984727 
L 379.00814 -96.541091 
L 379.008072 -94.097455 
L 379.00818 -91.653818 
L 379.008103 -89.210182 
L 379.008075 -86.766545 
L 379.008118 -84.322909 
L 379.008108 -81.879273 
L 379.008225 -79.435636 
L 379.008179 -76.992 
L 379.008001 -74.548364 
L 379.008098 -72.104727 
L 379.008004 -69.661091 
L 379.008067 -67.217455 
L 379.008018 -64.773818 
L 379.008149 -62.330182 
L 379.008146 -59.886545 
L 379.008172 -57.442909 
L 379.008137 -54.999273 
L 379.458729 -52.555636 
L 379.13159 -50.112 
z
" style="stroke: #3d3d3d; stroke-width: 1.5"/>
    </defs>
    <g clip-path="url(#p1cbb49b2b5)">
     <use xlink:href="#m50a1326a15" x="0" y="345.6" style="fill: #9372b2; stroke: #3d3d3d; stroke-width: 1.5"/>
    </g>
   </g>
   <g id="matplotlib.axis_1">
    <g id="xtick_1">
     <g id="line2d_1">
      <defs>
       <path id="m9d2c5d6e6a" d="M 0 0 
L 0 3.5 
" style="stroke: #000000; stroke-width: 0.8"/>
      </defs>
      <g>
       <use xlink:href="#m9d2c5d6e6a" x="93.312" y="307.584" style="stroke: #000000; stroke-width: 0.8"/>
      </g>
     </g>
     <g id="text_1">
      <!-- Chunk3 -->
      <g transform="translate(77.476844 321.413687) scale(0.1 -0.1)">
       <defs>
        <path id="STIXGeneral-Regular-43" d="M 3930 838 
L 4051 723 
Q 3482 -90 2304 -90 
Q 1376 -90 794 480 
Q 179 1082 179 2080 
Q 179 3014 755 3661 
Q 1357 4326 2310 4326 
Q 2720 4326 3072 4230 
Q 3475 4115 3514 4115 
Q 3725 4115 3782 4326 
L 3910 4326 
L 3968 2874 
L 3821 2874 
Q 3718 3334 3488 3584 
Q 3034 4070 2458 4070 
Q 1747 4070 1334 3548 
Q 922 3027 922 2182 
Q 922 1152 1382 653 
Q 1811 192 2522 192 
Q 2944 192 3251 339 
Q 3558 486 3930 838 
z
" transform="scale(0.015625)"/>
        <path id="STIXGeneral-Regular-68" d="M 3117 0 
L 1760 0 
L 1760 96 
Q 2042 128 2118 224 
Q 2195 320 2195 653 
L 2195 1920 
Q 2195 2598 1722 2598 
Q 1530 2598 1370 2508 
Q 1210 2419 1005 2195 
L 1005 653 
Q 1005 320 1081 224 
Q 1158 128 1440 96 
L 1440 0 
L 58 0 
L 58 96 
Q 333 134 400 224 
Q 467 314 467 653 
L 467 3667 
Q 467 3872 406 3933 
Q 346 3994 141 3994 
Q 83 3994 64 3987 
L 64 4090 
L 237 4141 
Q 730 4288 973 4371 
L 1005 4352 
L 1005 2406 
Q 1229 2694 1446 2819 
Q 1664 2944 1946 2944 
Q 2733 2944 2733 1926 
L 2733 653 
Q 2733 320 2793 233 
Q 2854 147 3117 96 
L 3117 0 
z
" transform="scale(0.015625)"/>
        <path id="STIXGeneral-Regular-75" d="M 3072 320 
L 3072 230 
Q 2573 96 2195 -58 
L 2163 -38 
L 2163 486 
L 2150 486 
Q 1747 -64 1235 -64 
Q 870 -64 662 160 
Q 454 384 454 755 
L 454 2362 
Q 454 2598 371 2688 
Q 288 2778 58 2790 
L 58 2880 
L 992 2880 
L 992 813 
Q 992 595 1123 451 
Q 1254 307 1446 307 
Q 1760 307 1984 506 
Q 2067 582 2099 649 
Q 2131 717 2131 877 
L 2131 2355 
Q 2131 2605 2041 2678 
Q 1952 2752 1658 2771 
L 1658 2880 
L 2669 2880 
L 2669 685 
Q 2669 461 2742 390 
Q 2816 320 3034 320 
L 3072 320 
z
" transform="scale(0.015625)"/>
        <path id="STIXGeneral-Regular-6e" d="M 3104 0 
L 1773 0 
L 1779 96 
Q 2016 115 2096 233 
Q 2176 352 2176 672 
L 2176 1946 
Q 2176 2592 1709 2592 
Q 1549 2592 1408 2515 
Q 1267 2438 1050 2227 
L 1050 461 
Q 1050 269 1136 192 
Q 1222 115 1466 96 
L 1466 0 
L 115 0 
L 115 96 
Q 358 115 435 214 
Q 512 314 512 602 
L 512 2157 
Q 512 2394 467 2483 
Q 422 2573 288 2573 
Q 160 2573 102 2547 
L 102 2656 
Q 550 2784 979 2944 
L 1030 2925 
L 1030 2426 
L 1037 2426 
Q 1491 2944 1958 2944 
Q 2323 2944 2518 2688 
Q 2714 2432 2714 1958 
L 2714 544 
Q 2714 288 2790 205 
Q 2867 122 3104 96 
L 3104 0 
z
" transform="scale(0.015625)"/>
        <path id="STIXGeneral-Regular-6b" d="M 3232 0 
L 1837 0 
L 1837 96 
L 1958 96 
Q 2093 96 2093 192 
Q 2093 250 2022 339 
L 1062 1606 
L 1062 429 
Q 1062 262 1142 185 
Q 1222 109 1414 102 
L 1542 96 
L 1542 0 
L 45 0 
L 45 96 
Q 390 154 457 214 
Q 525 275 525 525 
L 525 3610 
Q 525 3840 467 3920 
Q 410 4000 250 4000 
Q 211 4000 45 3987 
L 45 4090 
L 237 4141 
Q 621 4243 1037 4371 
L 1062 4358 
L 1062 1670 
L 1939 2451 
Q 2086 2586 2086 2675 
Q 2086 2739 2019 2761 
Q 1952 2784 1766 2790 
L 1766 2880 
L 3072 2880 
L 3072 2784 
Q 2752 2784 2505 2646 
Q 2259 2509 1690 1978 
L 1504 1805 
L 2483 563 
Q 2829 122 3232 96 
L 3232 0 
z
" transform="scale(0.015625)"/>
        <path id="STIXGeneral-Regular-33" d="M 390 3264 
L 288 3290 
Q 435 3770 748 4048 
Q 1062 4326 1542 4326 
Q 1990 4326 2265 4083 
Q 2541 3840 2541 3450 
Q 2541 2925 1946 2566 
Q 2298 2413 2477 2227 
Q 2758 1914 2758 1402 
Q 2758 890 2464 506 
Q 2246 211 1840 60 
Q 1434 -90 979 -90 
Q 262 -90 262 275 
Q 262 378 339 442 
Q 416 506 525 506 
Q 685 506 915 339 
Q 1197 141 1466 141 
Q 1818 141 2058 425 
Q 2298 710 2298 1120 
Q 2298 1856 1632 2048 
Q 1434 2112 979 2112 
L 979 2202 
Q 1338 2323 1517 2432 
Q 2035 2726 2035 3290 
Q 2035 3610 1852 3776 
Q 1670 3942 1344 3942 
Q 768 3942 390 3264 
z
" transform="scale(0.015625)"/>
       </defs>
       <use xlink:href="#STIXGeneral-Regular-43"/>
       <use xlink:href="#STIXGeneral-Regular-68" x="66.699997"/>
       <use xlink:href="#STIXGeneral-Regular-75" x="116.699982"/>
       <use xlink:href="#STIXGeneral-Regular-6e" x="166.699966"/>
       <use xlink:href="#STIXGeneral-Regular-6b" x="216.699951"/>
       <use xlink:href="#STIXGeneral-Regular-33" x="266.699936"/>
      </g>
     </g>
    </g>
    <g id="xtick_2">
     <g id="line2d_2">
      <g>
       <use xlink:href="#m9d2c5d6e6a" x="164.736" y="307.584" style="stroke: #000000; stroke-width: 0.8"/>
      </g>
     </g>
     <g id="text_2">
      <!-- Chunk2 -->
      <g transform="translate(148.900844 321.413687) scale(0.1 -0.1)">
       <defs>
        <path id="STIXGeneral-Regular-32" d="M 3034 877 
L 2688 0 
L 186 0 
L 186 77 
L 1325 1286 
Q 1773 1754 1965 2144 
Q 2157 2534 2157 2950 
Q 2157 3379 1920 3616 
Q 1683 3853 1267 3853 
Q 922 3853 720 3673 
Q 518 3494 326 3021 
L 192 3053 
Q 301 3648 630 3987 
Q 960 4326 1523 4326 
Q 2054 4326 2380 4006 
Q 2707 3686 2707 3200 
Q 2707 2477 1888 1613 
L 832 486 
L 2330 486 
Q 2541 486 2665 569 
Q 2790 653 2944 915 
L 3034 877 
z
" transform="scale(0.015625)"/>
       </defs>
       <use xlink:href="#STIXGeneral-Regular-43"/>
       <use xlink:href="#STIXGeneral-Regular-68" x="66.699997"/>
       <use xlink:href="#STIXGeneral-Regular-75" x="116.699982"/>
       <use xlink:href="#STIXGeneral-Regular-6e" x="166.699966"/>
       <use xlink:href="#STIXGeneral-Regular-6b" x="216.699951"/>
       <use xlink:href="#STIXGeneral-Regular-32" x="266.699936"/>
      </g>
     </g>
    </g>
    <g id="xtick_3">
     <g id="line2d_3">
      <g>
       <use xlink:href="#m9d2c5d6e6a" x="236.16" y="307.584" style="stroke: #000000; stroke-width: 0.8"/>
      </g>
     </g>
     <g id="text_3">
      <!-- Chunk4 -->
      <g transform="translate(220.324844 321.413687) scale(0.1 -0.1)">
       <defs>
        <path id="STIXGeneral-Regular-34" d="M 3027 1069 
L 2368 1069 
L 2368 0 
L 1869 0 
L 1869 1069 
L 77 1069 
L 77 1478 
L 2086 4326 
L 2368 4326 
L 2368 1478 
L 3027 1478 
L 3027 1069 
z
M 1869 1478 
L 1869 3674 
L 333 1478 
L 1869 1478 
z
" transform="scale(0.015625)"/>
       </defs>
       <use xlink:href="#STIXGeneral-Regular-43"/>
       <use xlink:href="#STIXGeneral-Regular-68" x="66.699997"/>
       <use xlink:href="#STIXGeneral-Regular-75" x="116.699982"/>
       <use xlink:href="#STIXGeneral-Regular-6e" x="166.699966"/>
       <use xlink:href="#STIXGeneral-Regular-6b" x="216.699951"/>
       <use xlink:href="#STIXGeneral-Regular-34" x="266.699936"/>
      </g>
     </g>
    </g>
    <g id="xtick_4">
     <g id="line2d_4">
      <g>
       <use xlink:href="#m9d2c5d6e6a" x="307.584" y="307.584" style="stroke: #000000; stroke-width: 0.8"/>
      </g>
     </g>
     <g id="text_4">
      <!-- Chunk1 -->
      <g transform="translate(291.748844 321.413687) scale(0.1 -0.1)">
       <defs>
        <path id="STIXGeneral-Regular-31" d="M 2522 0 
L 755 0 
L 755 96 
Q 1107 115 1235 227 
Q 1363 339 1363 608 
L 1363 3482 
Q 1363 3795 1171 3795 
Q 1082 3795 883 3718 
L 710 3654 
L 710 3744 
L 1856 4326 
L 1914 4307 
L 1914 486 
Q 1914 275 2042 185 
Q 2170 96 2522 96 
L 2522 0 
z
" transform="scale(0.015625)"/>
       </defs>
       <use xlink:href="#STIXGeneral-Regular-43"/>
       <use xlink:href="#STIXGeneral-Regular-68" x="66.699997"/>
       <use xlink:href="#STIXGeneral-Regular-75" x="116.699982"/>
       <use xlink:href="#STIXGeneral-Regular-6e" x="166.699966"/>
       <use xlink:href="#STIXGeneral-Regular-6b" x="216.699951"/>
       <use xlink:href="#STIXGeneral-Regular-31" x="266.699936"/>
      </g>
     </g>
    </g>
    <g id="xtick_5">
     <g id="line2d_5">
      <g>
       <use xlink:href="#m9d2c5d6e6a" x="379.008" y="307.584" style="stroke: #000000; stroke-width: 0.8"/>
      </g>
     </g>
     <g id="text_5">
      <!-- Chunk0 -->
      <g transform="translate(363.172844 321.413687) scale(0.1 -0.1)">
       <defs>
        <path id="STIXGeneral-Regular-30" d="M 3046 2112 
Q 3046 1683 2963 1302 
Q 2880 922 2717 602 
Q 2554 282 2266 96 
Q 1978 -90 1600 -90 
Q 1210 -90 915 108 
Q 621 307 461 640 
Q 301 973 227 1350 
Q 154 1728 154 2150 
Q 154 2746 301 3222 
Q 448 3699 790 4012 
Q 1133 4326 1626 4326 
Q 2253 4326 2649 3712 
Q 3046 3098 3046 2112 
z
M 2432 2080 
Q 2432 3091 2217 3625 
Q 2003 4160 1587 4160 
Q 1190 4160 979 3622 
Q 768 3085 768 2106 
Q 768 1120 979 598 
Q 1190 77 1600 77 
Q 2003 77 2217 598 
Q 2432 1120 2432 2080 
z
" transform="scale(0.015625)"/>
       </defs>
       <use xlink:href="#STIXGeneral-Regular-43"/>
       <use xlink:href="#STIXGeneral-Regular-68" x="66.699997"/>
       <use xlink:href="#STIXGeneral-Regular-75" x="116.699982"/>
       <use xlink:href="#STIXGeneral-Regular-6e" x="166.699966"/>
       <use xlink:href="#STIXGeneral-Regular-6b" x="216.699951"/>
       <use xlink:href="#STIXGeneral-Regular-30" x="266.699936"/>
      </g>
     </g>
    </g>
    <g id="text_6">
     <!-- sequence -->
     <g transform="translate(217.833438 334.413687) scale(0.1 -0.1)">
      <defs>
       <path id="STIXGeneral-Regular-73" d="M 998 1926 
L 1664 1523 
Q 1984 1331 2105 1164 
Q 2227 998 2227 736 
Q 2227 416 1961 176 
Q 1696 -64 1331 -64 
Q 1030 -64 864 -6 
Q 691 51 570 51 
Q 461 51 416 -26 
L 333 -26 
L 333 979 
L 435 979 
Q 538 512 730 294 
Q 922 77 1248 77 
Q 1485 77 1632 211 
Q 1779 346 1779 550 
Q 1779 845 1440 1030 
L 1094 1222 
Q 326 1651 326 2150 
Q 326 2522 566 2730 
Q 806 2938 1210 2938 
Q 1491 2938 1638 2867 
Q 1754 2816 1818 2816 
Q 1862 2816 1920 2880 
L 1990 2880 
L 2022 2010 
L 1926 2010 
Q 1818 2445 1654 2621 
Q 1491 2797 1203 2797 
Q 986 2797 854 2688 
Q 723 2579 723 2362 
Q 723 2253 796 2128 
Q 870 2003 998 1926 
z
" transform="scale(0.015625)"/>
       <path id="STIXGeneral-Regular-65" d="M 2611 1050 
L 2714 1005 
Q 2330 -64 1376 -64 
Q 813 -64 486 329 
Q 160 723 160 1389 
Q 160 2074 525 2509 
Q 890 2944 1485 2944 
Q 2061 2944 2374 2502 
Q 2560 2246 2592 1773 
L 621 1773 
Q 646 1370 700 1158 
Q 755 947 915 730 
Q 1184 378 1626 378 
Q 1939 378 2153 531 
Q 2368 685 2611 1050 
z
M 634 1978 
L 1939 1978 
Q 1882 2381 1750 2547 
Q 1619 2714 1312 2714 
Q 1043 2714 864 2525 
Q 685 2336 634 1978 
z
" transform="scale(0.015625)"/>
       <path id="STIXGeneral-Regular-71" d="M 3123 -1389 
L 1613 -1389 
L 1613 -1280 
Q 1952 -1254 2067 -1158 
Q 2182 -1062 2182 -794 
L 2182 410 
Q 1747 -64 1178 -64 
Q 730 -64 442 320 
Q 154 704 154 1312 
Q 154 2003 560 2473 
Q 966 2944 1562 2944 
Q 1920 2944 2304 2720 
L 2650 2925 
L 2720 2925 
L 2720 -902 
Q 2720 -1107 2797 -1180 
Q 2874 -1254 3123 -1280 
L 3123 -1389 
z
M 2182 813 
L 2182 2131 
Q 2182 2758 1587 2758 
Q 1178 2758 941 2432 
Q 704 2106 704 1542 
Q 704 1210 803 925 
Q 902 640 1062 499 
Q 1254 326 1542 326 
Q 1882 326 2106 531 
Q 2182 602 2182 813 
z
" transform="scale(0.015625)"/>
       <path id="STIXGeneral-Regular-63" d="M 2547 998 
L 2637 941 
Q 2362 403 2112 205 
Q 1786 -64 1376 -64 
Q 845 -64 502 336 
Q 160 736 160 1357 
Q 160 2170 698 2618 
Q 1094 2944 1562 2944 
Q 1965 2944 2256 2749 
Q 2547 2554 2547 2285 
Q 2547 2176 2457 2096 
Q 2368 2016 2246 2016 
Q 2022 2016 1939 2310 
L 1901 2451 
Q 1850 2630 1773 2694 
Q 1696 2758 1523 2758 
Q 1133 2758 893 2451 
Q 653 2144 653 1645 
Q 653 1094 928 745 
Q 1203 397 1645 397 
Q 1920 397 2118 528 
Q 2317 659 2547 998 
z
" transform="scale(0.015625)"/>
      </defs>
      <use xlink:href="#STIXGeneral-Regular-73"/>
      <use xlink:href="#STIXGeneral-Regular-65" x="38.899994"/>
      <use xlink:href="#STIXGeneral-Regular-71" x="83.299988"/>
      <use xlink:href="#STIXGeneral-Regular-75" x="133.299973"/>
      <use xlink:href="#STIXGeneral-Regular-65" x="183.299957"/>
      <use xlink:href="#STIXGeneral-Regular-6e" x="227.699951"/>
      <use xlink:href="#STIXGeneral-Regular-63" x="277.699936"/>
      <use xlink:href="#STIXGeneral-Regular-65" x="322.09993"/>
     </g>
    </g>
   </g>
   <g id="matplotlib.axis_2">
    <g id="ytick_1">
     <g id="line2d_6">
      <defs>
       <path id="m6f279d50bf" d="M 0 0 
L -3.5 0 
" style="stroke: #000000; stroke-width: 0.8"/>
      </defs>
      <g>
       <use xlink:href="#m6f279d50bf" x="57.6" y="293.955263" style="stroke: #000000; stroke-width: 0.8"/>
      </g>
     </g>
     <g id="text_7">
      <!-- 0.00 -->
      <g transform="translate(33.1 297.370107) scale(0.1 -0.1)">
       <defs>
        <path id="STIXGeneral-Regular-2e" d="M 1158 275 
Q 1158 134 1052 32 
Q 947 -70 800 -70 
Q 653 -70 550 32 
Q 448 134 448 281 
Q 448 429 553 534 
Q 659 640 806 640 
Q 947 640 1052 531 
Q 1158 422 1158 275 
z
" transform="scale(0.015625)"/>
       </defs>
       <use xlink:href="#STIXGeneral-Regular-30"/>
       <use xlink:href="#STIXGeneral-Regular-2e" x="49.999985"/>
       <use xlink:href="#STIXGeneral-Regular-30" x="74.999969"/>
       <use xlink:href="#STIXGeneral-Regular-30" x="124.999954"/>
      </g>
     </g>
    </g>
    <g id="ytick_2">
     <g id="line2d_7">
      <g>
       <use xlink:href="#m6f279d50bf" x="57.6" y="253.577726" style="stroke: #000000; stroke-width: 0.8"/>
      </g>
     </g>
     <g id="text_8">
      <!-- 0.01 -->
      <g transform="translate(33.1 256.99257) scale(0.1 -0.1)">
       <use xlink:href="#STIXGeneral-Regular-30"/>
       <use xlink:href="#STIXGeneral-Regular-2e" x="49.999985"/>
       <use xlink:href="#STIXGeneral-Regular-30" x="74.999969"/>
       <use xlink:href="#STIXGeneral-Regular-31" x="124.999954"/>
      </g>
     </g>
    </g>
    <g id="ytick_3">
     <g id="line2d_8">
      <g>
       <use xlink:href="#m6f279d50bf" x="57.6" y="213.200189" style="stroke: #000000; stroke-width: 0.8"/>
      </g>
     </g>
     <g id="text_9">
      <!-- 0.02 -->
      <g transform="translate(33.1 216.615032) scale(0.1 -0.1)">
       <use xlink:href="#STIXGeneral-Regular-30"/>
       <use xlink:href="#STIXGeneral-Regular-2e" x="49.999985"/>
       <use xlink:href="#STIXGeneral-Regular-30" x="74.999969"/>
       <use xlink:href="#STIXGeneral-Regular-32" x="124.999954"/>
      </g>
     </g>
    </g>
    <g id="ytick_4">
     <g id="line2d_9">
      <g>
       <use xlink:href="#m6f279d50bf" x="57.6" y="172.822651" style="stroke: #000000; stroke-width: 0.8"/>
      </g>
     </g>
     <g id="text_10">
      <!-- 0.03 -->
      <g transform="translate(33.1 176.237495) scale(0.1 -0.1)">
       <use xlink:href="#STIXGeneral-Regular-30"/>
       <use xlink:href="#STIXGeneral-Regular-2e" x="49.999985"/>
       <use xlink:href="#STIXGeneral-Regular-30" x="74.999969"/>
       <use xlink:href="#STIXGeneral-Regular-33" x="124.999954"/>
      </g>
     </g>
    </g>
    <g id="ytick_5">
     <g id="line2d_10">
      <g>
       <use xlink:href="#m6f279d50bf" x="57.6" y="132.445114" style="stroke: #000000; stroke-width: 0.8"/>
      </g>
     </g>
     <g id="text_11">
      <!-- 0.04 -->
      <g transform="translate(33.1 135.859958) scale(0.1 -0.1)">
       <use xlink:href="#STIXGeneral-Regular-30"/>
       <use xlink:href="#STIXGeneral-Regular-2e" x="49.999985"/>
       <use xlink:href="#STIXGeneral-Regular-30" x="74.999969"/>
       <use xlink:href="#STIXGeneral-Regular-34" x="124.999954"/>
      </g>
     </g>
    </g>
    <g id="ytick_6">
     <g id="line2d_11">
      <g>
       <use xlink:href="#m6f279d50bf" x="57.6" y="92.067576" style="stroke: #000000; stroke-width: 0.8"/>
      </g>
     </g>
     <g id="text_12">
      <!-- 0.05 -->
      <g transform="translate(33.1 95.48242) scale(0.1 -0.1)">
       <defs>
        <path id="STIXGeneral-Regular-35" d="M 2803 4358 
L 2573 3814 
Q 2534 3731 2400 3731 
L 1158 3731 
L 902 3187 
Q 1606 3053 1920 2896 
Q 2234 2739 2502 2368 
Q 2726 2061 2726 1555 
Q 2726 1094 2576 780 
Q 2426 467 2099 224 
Q 1664 -90 1011 -90 
Q 646 -90 422 19 
Q 198 128 198 307 
Q 198 550 486 550 
Q 717 550 960 352 
Q 1210 147 1414 147 
Q 1747 147 2012 480 
Q 2278 813 2278 1229 
Q 2278 1843 1850 2189 
Q 1293 2637 486 2637 
Q 410 2637 410 2688 
L 416 2720 
L 1114 4237 
L 2438 4237 
Q 2547 4237 2608 4269 
Q 2669 4301 2746 4403 
L 2803 4358 
z
" transform="scale(0.015625)"/>
       </defs>
       <use xlink:href="#STIXGeneral-Regular-30"/>
       <use xlink:href="#STIXGeneral-Regular-2e" x="49.999985"/>
       <use xlink:href="#STIXGeneral-Regular-30" x="74.999969"/>
       <use xlink:href="#STIXGeneral-Regular-35" x="124.999954"/>
      </g>
     </g>
    </g>
    <g id="ytick_7">
     <g id="line2d_12">
      <g>
       <use xlink:href="#m6f279d50bf" x="57.6" y="51.690039" style="stroke: #000000; stroke-width: 0.8"/>
      </g>
     </g>
     <g id="text_13">
      <!-- 0.06 -->
      <g transform="translate(33.1 55.104883) scale(0.1 -0.1)">
       <defs>
        <path id="STIXGeneral-Regular-36" d="M 2854 4378 
L 2867 4275 
Q 2112 4154 1606 3664 
Q 1101 3174 973 2451 
Q 1344 2739 1786 2739 
Q 2349 2739 2672 2380 
Q 2995 2022 2995 1402 
Q 2995 774 2669 378 
Q 2291 -90 1651 -90 
Q 870 -90 518 557 
Q 218 1107 218 1786 
Q 218 2835 915 3552 
Q 1312 3962 1731 4131 
Q 2150 4301 2854 4378 
z
M 2419 1203 
Q 2419 2445 1555 2445 
Q 1235 2445 1024 2275 
Q 813 2106 813 1702 
Q 813 954 1046 522 
Q 1280 90 1722 90 
Q 2061 90 2240 394 
Q 2419 698 2419 1203 
z
" transform="scale(0.015625)"/>
       </defs>
       <use xlink:href="#STIXGeneral-Regular-30"/>
       <use xlink:href="#STIXGeneral-Regular-2e" x="49.999985"/>
       <use xlink:href="#STIXGeneral-Regular-30" x="74.999969"/>
       <use xlink:href="#STIXGeneral-Regular-36" x="124.999954"/>
      </g>
     </g>
    </g>
    <g id="text_14">
     <!-- value -->
     <g transform="translate(26.929688 185.358469) rotate(-90) scale(0.1 -0.1)">
      <defs>
       <path id="STIXGeneral-Regular-76" d="M 3053 2880 
L 3053 2784 
Q 2906 2771 2835 2688 
Q 2765 2605 2637 2285 
L 1818 230 
Q 1690 -90 1638 -90 
Q 1587 -90 1523 77 
Q 1510 96 1497 141 
Q 1485 186 1472 211 
L 704 2048 
Q 499 2534 403 2652 
Q 307 2771 122 2784 
L 122 2880 
L 1376 2880 
L 1376 2784 
Q 1210 2771 1146 2732 
Q 1082 2694 1082 2611 
Q 1082 2509 1139 2368 
L 1792 730 
L 2426 2387 
Q 2464 2483 2464 2579 
Q 2464 2758 2163 2784 
L 2163 2880 
L 3053 2880 
z
" transform="scale(0.015625)"/>
       <path id="STIXGeneral-Regular-61" d="M 2829 422 
L 2829 243 
Q 2586 -64 2253 -64 
Q 1888 -64 1843 403 
L 1837 403 
Q 1427 -64 909 -64 
Q 608 -64 422 112 
Q 237 288 237 602 
Q 237 1050 685 1350 
Q 992 1555 1837 1869 
L 1837 2214 
Q 1837 2502 1699 2646 
Q 1562 2790 1338 2790 
Q 1146 2790 1018 2697 
Q 890 2605 890 2477 
Q 890 2419 909 2348 
Q 928 2278 928 2208 
Q 928 2112 841 2029 
Q 755 1946 634 1946 
Q 525 1946 441 2029 
Q 358 2112 358 2240 
Q 358 2547 685 2752 
Q 986 2944 1421 2944 
Q 1939 2944 2176 2656 
Q 2291 2522 2323 2384 
Q 2355 2246 2355 1946 
L 2355 723 
Q 2355 301 2554 301 
Q 2682 301 2829 422 
z
M 1837 813 
L 1837 1715 
Q 1248 1510 1018 1293 
Q 800 1094 800 800 
Q 800 557 921 432 
Q 1043 307 1242 307 
Q 1453 307 1613 410 
Q 1747 506 1792 589 
Q 1837 672 1837 813 
z
" transform="scale(0.015625)"/>
       <path id="STIXGeneral-Regular-6c" d="M 1645 0 
L 134 0 
L 134 96 
Q 435 122 531 221 
Q 627 320 627 589 
L 627 3590 
Q 627 3821 569 3910 
Q 512 4000 358 4000 
Q 224 4000 122 3987 
L 122 4090 
Q 730 4237 1133 4371 
L 1165 4346 
L 1165 557 
Q 1165 288 1254 201 
Q 1344 115 1645 96 
L 1645 0 
z
" transform="scale(0.015625)"/>
      </defs>
      <use xlink:href="#STIXGeneral-Regular-76"/>
      <use xlink:href="#STIXGeneral-Regular-61" x="49.999985"/>
      <use xlink:href="#STIXGeneral-Regular-6c" x="94.399979"/>
      <use xlink:href="#STIXGeneral-Regular-75" x="122.199966"/>
      <use xlink:href="#STIXGeneral-Regular-65" x="172.199951"/>
     </g>
    </g>
   </g>
   <g id="line2d_13">
    <path d="M 93.312 293.955263 
L 93.312 293.955263 
" clip-path="url(#p1cbb49b2b5)" style="fill: none; stroke: #3d3d3d; stroke-width: 1.5; stroke-linecap: square"/>
   </g>
   <g id="line2d_14">
    <path d="M 93.312 293.955263 
L 93.312 293.955263 
" clip-path="url(#p1cbb49b2b5)" style="fill: none; stroke: #3d3d3d; stroke-width: 4.5; stroke-linecap: square"/>
   </g>
   <g id="line2d_15">
    <path d="M 164.736 293.955263 
L 164.736 293.955263 
" clip-path="url(#p1cbb49b2b5)" style="fill: none; stroke: #3d3d3d; stroke-width: 1.5; stroke-linecap: square"/>
   </g>
   <g id="line2d_16">
    <path d="M 164.736 293.955263 
L 164.736 293.955263 
" clip-path="url(#p1cbb49b2b5)" style="fill: none; stroke: #3d3d3d; stroke-width: 4.5; stroke-linecap: square"/>
   </g>
   <g id="line2d_17">
    <path d="M 236.16 293.955263 
L 236.16 293.955263 
" clip-path="url(#p1cbb49b2b5)" style="fill: none; stroke: #3d3d3d; stroke-width: 1.5; stroke-linecap: square"/>
   </g>
   <g id="line2d_18">
    <path d="M 236.16 293.955263 
L 236.16 293.955263 
" clip-path="url(#p1cbb49b2b5)" style="fill: none; stroke: #3d3d3d; stroke-width: 4.5; stroke-linecap: square"/>
   </g>
   <g id="line2d_19">
    <path d="M 307.584 293.955263 
L 307.584 293.955263 
" clip-path="url(#p1cbb49b2b5)" style="fill: none; stroke: #3d3d3d; stroke-width: 1.5; stroke-linecap: square"/>
   </g>
   <g id="line2d_20">
    <path d="M 307.584 293.955263 
L 307.584 293.955263 
" clip-path="url(#p1cbb49b2b5)" style="fill: none; stroke: #3d3d3d; stroke-width: 4.5; stroke-linecap: square"/>
   </g>
   <g id="line2d_21">
    <path d="M 379.008 293.955263 
L 379.008 293.955263 
" clip-path="url(#p1cbb49b2b5)" style="fill: none; stroke: #3d3d3d; stroke-width: 1.5; stroke-linecap: square"/>
   </g>
   <g id="line2d_22">
    <path d="M 379.008 293.955263 
L 379.008 293.955263 
" clip-path="url(#p1cbb49b2b5)" style="fill: none; stroke: #3d3d3d; stroke-width: 4.5; stroke-linecap: square"/>
   </g>
   <g id="patch_3">
    <path d="M 57.6 307.584 
L 57.6 41.472 
" style="fill: none; stroke: #000000; stroke-width: 0.8; stroke-linejoin: miter; stroke-linecap: square"/>
   </g>
   <g id="patch_4">
    <path d="M 414.72 307.584 
L 414.72 41.472 
" style="fill: none; stroke: #000000; stroke-width: 0.8; stroke-linejoin: miter; stroke-linecap: square"/>
   </g>
   <g id="patch_5">
    <path d="M 57.6 307.584 
L 414.72 307.584 
" style="fill: none; stroke: #000000; stroke-width: 0.8; stroke-linejoin: miter; stroke-linecap: square"/>
   </g>
   <g id="patch_6">
    <path d="M 57.6 41.472 
L 414.72 41.472 
" style="fill: none; stroke: #000000; stroke-width: 0.8; stroke-linejoin: miter; stroke-linecap: square"/>
   </g>
   <g id="PathCollection_1">
    <defs>
     <path id="m15d85237b1" d="M 0 1.5 
C 0.397805 1.5 0.77937 1.341951 1.06066 1.06066 
C 1.341951 0.77937 1.5 0.397805 1.5 0 
C 1.5 -0.397805 1.341951 -0.77937 1.06066 -1.06066 
C 0.77937 -1.341951 0.397805 -1.5 0 -1.5 
C -0.397805 -1.5 -0.77937 -1.341951 -1.06066 -1.06066 
C -1.341951 -0.77937 -1.5 -0.397805 -1.5 0 
C -1.5 0.397805 -1.341951 0.77937 -1.06066 1.06066 
C -0.77937 1.341951 -0.397805 1.5 0 1.5 
z
" style="stroke: #3d3d3d"/>
    </defs>
    <g clip-path="url(#p1cbb49b2b5)">
     <use xlink:href="#m15d85237b1" x="93.312" y="293.955263" style="fill: #ffffff; stroke: #3d3d3d"/>
    </g>
   </g>
   <g id="PathCollection_2">
    <g clip-path="url(#p1cbb49b2b5)">
     <use xlink:href="#m15d85237b1" x="164.736" y="293.955263" style="fill: #ffffff; stroke: #3d3d3d"/>
    </g>
   </g>
   <g id="PathCollection_3">
    <g clip-path="url(#p1cbb49b2b5)">
     <use xlink:href="#m15d85237b1" x="236.16" y="293.955263" style="fill: #ffffff; stroke: #3d3d3d"/>
    </g>
   </g>
   <g id="PathCollection_4">
    <g clip-path="url(#p1cbb49b2b5)">
     <use xlink:href="#m15d85237b1" x="307.584" y="293.955263" style="fill: #ffffff; stroke: #3d3d3d"/>
    </g>
   </g>
   <g id="PathCollection_5">
    <g clip-path="url(#p1cbb49b2b5)">
     <use xlink:href="#m15d85237b1" x="379.008" y="293.955263" style="fill: #ffffff; stroke: #3d3d3d"/>
    </g>
   </g>
  </g>
 </g>
 <defs>
  <clipPath id="p1cbb49b2b5">
   <rect x="57.6" y="41.472" width="357.12" height="266.112"/>
  </clipPath>
 </defs>
</svg>
