<?xml version="1.0" encoding="utf-8" standalone="no"?>
<!DOCTYPE svg PUBLIC "-//W3C//DTD SVG 1.1//EN"
  "http://www.w3.org/Graphics/SVG/1.1/DTD/svg11.dtd">
<svg xmlns:xlink="http://www.w3.org/1999/xlink" width="460.8pt" height="345.6pt" viewBox="0 0 460.8 345.6" xmlns="http://www.w3.org/2000/svg" version="1.1">
 <metadata>
  <rdf:RDF xmlns:dc="http://purl.org/dc/elements/1.1/" xmlns:cc="http://creativecommons.org/ns#" xmlns:rdf="http://www.w3.org/1999/02/22-rdf-syntax-ns#">
   <cc:Work>
    <dc:type rdf:resource="http://purl.org/dc/dcmitype/StillImage"/>
    <dc:date>2024-01-30T22:13:37.523080</dc:date>
    <dc:format>image/svg+xml</dc:format>
    <dc:creator>
     <cc:Agent>
      <dc:title>Matplotlib v3.6.3, https://matplotlib.org/</dc:title>
     </cc:Agent>
    </dc:creator>
   </cc:Work>
  </rdf:RDF>
 </metadata>
 <defs>
  <style type="text/css">*{stroke-linejoin: round; stroke-linecap: butt}</style>
 </defs>
 <g id="figure_1">
  <g id="patch_1">
   <path d="M 0 345.6 
L 460.8 345.6 
L 460.8 0 
L 0 0 
z
" style="fill: #ffffff"/>
  </g>
  <g id="axes_1">
   <g id="patch_2">
    <path d="M 57.6 307.584 
L 414.72 307.584 
L 414.72 41.472 
L 57.6 41.472 
z
" style="fill: #ffffff"/>
   </g>
   <g id="PolyCollection_1">
    <defs>
     <path id="m09f9910245" d="M 73.835035 -51.245191 
L 73.83042 -51.245191 
L 73.829195 -52.960307 
L 73.827533 -54.675423 
L 73.825361 -56.390539 
L 73.8226 -58.105655 
L 73.819122 -59.820771 
L 73.814677 -61.535887 
L 73.808771 -63.251003 
L 73.80051 -64.966119 
L 73.788416 -66.681235 
L 73.770248 -68.396351 
L 73.742857 -70.111467 
L 73.702129 -71.826583 
L 73.643047 -73.541699 
L 73.559916 -75.256815 
L 73.446798 -76.97193 
L 73.298174 -78.687046 
L 73.109834 -80.402162 
L 72.879946 -82.117278 
L 72.61017 -83.832394 
L 72.306586 -85.54751 
L 71.980161 -87.262626 
L 71.646429 -88.977742 
L 71.324194 -90.692858 
L 71.033246 -92.407974 
L 70.791377 -94.12309 
L 70.611257 -95.838206 
L 70.497897 -97.553322 
L 70.447434 -99.268438 
L 70.447694 -100.983554 
L 70.480587 -102.69867 
L 70.525905 -104.413786 
L 70.565652 -106.128902 
L 70.587891 -107.844018 
L 70.58914 -109.559134 
L 70.574732 -111.27425 
L 70.557108 -112.989365 
L 70.552506 -114.704481 
L 70.576945 -116.419597 
L 70.642491 -118.134713 
L 70.754664 -119.849829 
L 70.911449 -121.564945 
L 71.103959 -123.280061 
L 71.318363 -124.995177 
L 71.538504 -126.710293 
L 71.748565 -128.425409 
L 71.935236 -130.140525 
L 72.089087 -131.855641 
L 72.20504 -133.570757 
L 72.282036 -135.285873 
L 72.322164 -137.000989 
L 72.329526 -138.716105 
L 72.309145 -140.431221 
L 72.26612 -142.146337 
L 72.205159 -143.861453 
L 72.130474 -145.576569 
L 72.045946 -147.291684 
L 71.955416 -149.0068 
L 71.862941 -150.721916 
L 71.772906 -152.437032 
L 71.689946 -154.152148 
L 71.618696 -155.867264 
L 71.563408 -157.58238 
L 71.527521 -159.297496 
L 71.513242 -161.012612 
L 71.521184 -162.727728 
L 71.55014 -164.442844 
L 71.597022 -166.15796 
L 71.657042 -167.873076 
L 71.724136 -169.588192 
L 71.791624 -171.303308 
L 71.853025 -173.018424 
L 71.902895 -174.73354 
L 71.937568 -176.448656 
L 71.955653 -178.163772 
L 71.958233 -179.878888 
L 71.948751 -181.594004 
L 71.932619 -183.309119 
L 71.91663 -185.024235 
L 71.908237 -186.739351 
L 71.91478 -188.454467 
L 71.942705 -190.169583 
L 71.996836 -191.884699 
L 72.079774 -193.599815 
L 72.191493 -195.314931 
L 72.329234 -197.030047 
L 72.487734 -198.745163 
L 72.659797 -200.460279 
L 72.837141 -202.175395 
L 73.011383 -203.890511 
L 73.174988 -205.605627 
L 73.322044 -207.320743 
L 73.448711 -209.035859 
L 73.553336 -210.750975 
L 73.636239 -212.466091 
L 73.699269 -214.181207 
L 73.745252 -215.896323 
L 73.77744 -217.611438 
L 73.799057 -219.326554 
L 73.812981 -221.04167 
L 73.852473 -221.04167 
L 73.852473 -221.04167 
L 73.866398 -219.326554 
L 73.888014 -217.611438 
L 73.920202 -215.896323 
L 73.966185 -214.181207 
L 74.029216 -212.466091 
L 74.112119 -210.750975 
L 74.216744 -209.035859 
L 74.343411 -207.320743 
L 74.490466 -205.605627 
L 74.654072 -203.890511 
L 74.828313 -202.175395 
L 75.005658 -200.460279 
L 75.17772 -198.745163 
L 75.33622 -197.030047 
L 75.473961 -195.314931 
L 75.585681 -193.599815 
L 75.668618 -191.884699 
L 75.72275 -190.169583 
L 75.750674 -188.454467 
L 75.757217 -186.739351 
L 75.748824 -185.024235 
L 75.732835 -183.309119 
L 75.716704 -181.594004 
L 75.707222 -179.878888 
L 75.709802 -178.163772 
L 75.727886 -176.448656 
L 75.762559 -174.73354 
L 75.81243 -173.018424 
L 75.87383 -171.303308 
L 75.941318 -169.588192 
L 76.008412 -167.873076 
L 76.068433 -166.15796 
L 76.115315 -164.442844 
L 76.14427 -162.727728 
L 76.152213 -161.012612 
L 76.137933 -159.297496 
L 76.102047 -157.58238 
L 76.046759 -155.867264 
L 75.975508 -154.152148 
L 75.892549 -152.437032 
L 75.802514 -150.721916 
L 75.710038 -149.0068 
L 75.619509 -147.291684 
L 75.534981 -145.576569 
L 75.460295 -143.861453 
L 75.399334 -142.146337 
L 75.356309 -140.431221 
L 75.335928 -138.716105 
L 75.343291 -137.000989 
L 75.383419 -135.285873 
L 75.460415 -133.570757 
L 75.576367 -131.855641 
L 75.730219 -130.140525 
L 75.91689 -128.425409 
L 76.12695 -126.710293 
L 76.347092 -124.995177 
L 76.561496 -123.280061 
L 76.754005 -121.564945 
L 76.910791 -119.849829 
L 77.022963 -118.134713 
L 77.088509 -116.419597 
L 77.112948 -114.704481 
L 77.108347 -112.989365 
L 77.090723 -111.27425 
L 77.076315 -109.559134 
L 77.077563 -107.844018 
L 77.099803 -106.128902 
L 77.13955 -104.413786 
L 77.184867 -102.69867 
L 77.217761 -100.983554 
L 77.21802 -99.268438 
L 77.167558 -97.553322 
L 77.054198 -95.838206 
L 76.874077 -94.12309 
L 76.632209 -92.407974 
L 76.341261 -90.692858 
L 76.019025 -88.977742 
L 75.685293 -87.262626 
L 75.358868 -85.54751 
L 75.055285 -83.832394 
L 74.785508 -82.117278 
L 74.555621 -80.402162 
L 74.367281 -78.687046 
L 74.218656 -76.97193 
L 74.105539 -75.256815 
L 74.022408 -73.541699 
L 73.963325 -71.826583 
L 73.922598 -70.111467 
L 73.895207 -68.396351 
L 73.877038 -66.681235 
L 73.864944 -64.966119 
L 73.856684 -63.251003 
L 73.850778 -61.535887 
L 73.846332 -59.820771 
L 73.842855 -58.105655 
L 73.840094 -56.390539 
L 73.837922 -54.675423 
L 73.83626 -52.960307 
L 73.835035 -51.245191 
z
" style="stroke: #474747; stroke-width: 1.5"/>
    </defs>
    <g clip-path="url(#p819f3ce5ad)">
     <use xlink:href="#m09f9910245" x="0" y="345.6" style="fill: #ea96a3; stroke: #474747; stroke-width: 1.5"/>
    </g>
   </g>
   <g id="PolyCollection_2">
    <defs>
     <path id="mf59cc9ec2b" d="M 106.350953 -59.427124 
L 106.24541 -59.427124 
L 106.192987 -61.143081 
L 106.104306 -62.859039 
L 105.967147 -64.574997 
L 105.773214 -66.290954 
L 105.522536 -68.006912 
L 105.226241 -69.72287 
L 104.905731 -71.438827 
L 104.587771 -73.154785 
L 104.297127 -74.870743 
L 104.049842 -76.586701 
L 103.849897 -78.302658 
L 103.690088 -80.018616 
L 103.555913 -81.734574 
L 103.43033 -83.450531 
L 103.297767 -85.166489 
L 103.146808 -86.882447 
L 102.971718 -88.598404 
L 102.773166 -90.314362 
L 102.558385 -92.03032 
L 102.340739 -93.746277 
L 102.138232 -95.462235 
L 101.970267 -97.178193 
L 101.85246 -98.89415 
L 101.790791 -100.610108 
L 101.777734 -102.326066 
L 101.793064 -104.042023 
L 101.810066 -105.757981 
L 101.804823 -107.473939 
L 101.764221 -109.189897 
L 101.688825 -110.905854 
L 101.589998 -112.621812 
L 101.484374 -114.33777 
L 101.390184 -116.053727 
L 101.327555 -117.769685 
L 101.320594 -119.485643 
L 101.396599 -121.2016 
L 101.579583 -122.917558 
L 101.880186 -124.633516 
L 102.287785 -126.349473 
L 102.770093 -128.065431 
L 103.281165 -129.781389 
L 103.773878 -131.497346 
L 104.211103 -133.213304 
L 104.571508 -134.929262 
L 104.849488 -136.645219 
L 105.051411 -138.361177 
L 105.190926 -140.077135 
L 105.285001 -141.793092 
L 105.350899 -143.50905 
L 105.403698 -145.225008 
L 105.45424 -146.940966 
L 105.507986 -148.656923 
L 105.565335 -150.372881 
L 105.623468 -152.088839 
L 105.678906 -153.804796 
L 105.729577 -155.520754 
L 105.775498 -157.236712 
L 105.81801 -158.952669 
L 105.858395 -160.668627 
L 105.896886 -162.384585 
L 105.932668 -164.100542 
L 105.96468 -165.8165 
L 105.992539 -167.532458 
L 106.016904 -169.248415 
L 106.039059 -170.964373 
L 106.060053 -172.680331 
L 106.079947 -174.396288 
L 106.097619 -176.112246 
L 106.111164 -177.828204 
L 106.118618 -179.544161 
L 106.118606 -181.260119 
L 106.110668 -182.976077 
L 106.095256 -184.692035 
L 106.073586 -186.407992 
L 106.047555 -188.12395 
L 106.019775 -189.839908 
L 105.993608 -191.555865 
L 105.972947 -193.271823 
L 105.961538 -194.987781 
L 105.961925 -196.703738 
L 105.974406 -198.419696 
L 105.996496 -200.135654 
L 106.023312 -201.851611 
L 106.048877 -203.567569 
L 106.06795 -205.283527 
L 106.077756 -206.999484 
L 106.078955 -208.715442 
L 106.075466 -210.4314 
L 106.073117 -212.147357 
L 106.077563 -213.863315 
L 106.092277 -215.579273 
L 106.117413 -217.295231 
L 106.150003 -219.011188 
L 106.185283 -220.727146 
L 106.218452 -222.443104 
L 106.246088 -224.159061 
L 106.266732 -225.875019 
L 106.280655 -227.590977 
L 106.289173 -229.306934 
L 106.307191 -229.306934 
L 106.307191 -229.306934 
L 106.315709 -227.590977 
L 106.329632 -225.875019 
L 106.350275 -224.159061 
L 106.377912 -222.443104 
L 106.411081 -220.727146 
L 106.44636 -219.011188 
L 106.478951 -217.295231 
L 106.504087 -215.579273 
L 106.5188 -213.863315 
L 106.523247 -212.147357 
L 106.520898 -210.4314 
L 106.517409 -208.715442 
L 106.518608 -206.999484 
L 106.528413 -205.283527 
L 106.547487 -203.567569 
L 106.573051 -201.851611 
L 106.599867 -200.135654 
L 106.621957 -198.419696 
L 106.634438 -196.703738 
L 106.634826 -194.987781 
L 106.623416 -193.271823 
L 106.602755 -191.555865 
L 106.576589 -189.839908 
L 106.548808 -188.12395 
L 106.522777 -186.407992 
L 106.501108 -184.692035 
L 106.485696 -182.976077 
L 106.477758 -181.260119 
L 106.477746 -179.544161 
L 106.485199 -177.828204 
L 106.498744 -176.112246 
L 106.516416 -174.396288 
L 106.536311 -172.680331 
L 106.557304 -170.964373 
L 106.579459 -169.248415 
L 106.603824 -167.532458 
L 106.631684 -165.8165 
L 106.663696 -164.100542 
L 106.699477 -162.384585 
L 106.737969 -160.668627 
L 106.778354 -158.952669 
L 106.820866 -157.236712 
L 106.866786 -155.520754 
L 106.917458 -153.804796 
L 106.972895 -152.088839 
L 107.031029 -150.372881 
L 107.088378 -148.656923 
L 107.142123 -146.940966 
L 107.192666 -145.225008 
L 107.245465 -143.50905 
L 107.311363 -141.793092 
L 107.405437 -140.077135 
L 107.544952 -138.361177 
L 107.746875 -136.645219 
L 108.024856 -134.929262 
L 108.38526 -133.213304 
L 108.822485 -131.497346 
L 109.315199 -129.781389 
L 109.826271 -128.065431 
L 110.308579 -126.349473 
L 110.716178 -124.633516 
L 111.016781 -122.917558 
L 111.199765 -121.2016 
L 111.275769 -119.485643 
L 111.268809 -117.769685 
L 111.20618 -116.053727 
L 111.111989 -114.33777 
L 111.006365 -112.621812 
L 110.907538 -110.905854 
L 110.832143 -109.189897 
L 110.791541 -107.473939 
L 110.786297 -105.757981 
L 110.803299 -104.042023 
L 110.81863 -102.326066 
L 110.805572 -100.610108 
L 110.743903 -98.89415 
L 110.626097 -97.178193 
L 110.458131 -95.462235 
L 110.255625 -93.746277 
L 110.037979 -92.03032 
L 109.823198 -90.314362 
L 109.624646 -88.598404 
L 109.449555 -86.882447 
L 109.298596 -85.166489 
L 109.166034 -83.450531 
L 109.040451 -81.734574 
L 108.906276 -80.018616 
L 108.746467 -78.302658 
L 108.546521 -76.586701 
L 108.299237 -74.870743 
L 108.008592 -73.154785 
L 107.690632 -71.438827 
L 107.370123 -69.72287 
L 107.073827 -68.006912 
L 106.823149 -66.290954 
L 106.629216 -64.574997 
L 106.492058 -62.859039 
L 106.403376 -61.143081 
L 106.350953 -59.427124 
z
" style="stroke: #474747; stroke-width: 1.5"/>
    </defs>
    <g clip-path="url(#p819f3ce5ad)">
     <use xlink:href="#mf59cc9ec2b" x="0" y="345.6" style="fill: #dc924e; stroke: #474747; stroke-width: 1.5"/>
    </g>
   </g>
   <g id="PolyCollection_3">
    <defs>
     <path id="md915fae9d1" d="M 138.769857 -57.923973 
L 138.757415 -57.923973 
L 138.75365 -59.285365 
L 138.748421 -60.646757 
L 138.741605 -62.008149 
L 138.733255 -63.369541 
L 138.723601 -64.730933 
L 138.712961 -66.092325 
L 138.701531 -67.453717 
L 138.689089 -68.815109 
L 138.674647 -70.176501 
L 138.65618 -71.537893 
L 138.630485 -72.899285 
L 138.593275 -74.260677 
L 138.539476 -75.622069 
L 138.463658 -76.983461 
L 138.360449 -78.344853 
L 138.22479 -79.706245 
L 138.051972 -81.067637 
L 137.837527 -82.42903 
L 137.577229 -83.790422 
L 137.267506 -85.151814 
L 136.906471 -86.513206 
L 136.495467 -87.874598 
L 136.040705 -89.23599 
L 135.554309 -90.597382 
L 135.054154 -91.958774 
L 134.562253 -93.320166 
L 134.101977 -94.681558 
L 133.69486 -96.04295 
L 133.357846 -97.404342 
L 133.101645 -98.765734 
L 132.930378 -100.127126 
L 132.842298 -101.488518 
L 132.831113 -102.84991 
L 132.887447 -104.211302 
L 133.000161 -105.572694 
L 133.157381 -106.934086 
L 133.347269 -108.295479 
L 133.558544 -109.656871 
L 133.7808 -111.018263 
L 134.004669 -112.379655 
L 134.221889 -113.741047 
L 134.425386 -115.102439 
L 134.609505 -116.463831 
L 134.770464 -117.825223 
L 134.907011 -119.186615 
L 135.02111 -120.548007 
L 135.118359 -121.909399 
L 135.20777 -123.270791 
L 135.30072 -124.632183 
L 135.409061 -125.993575 
L 135.542792 -127.354967 
L 135.707854 -128.716359 
L 135.904724 -130.077751 
L 136.128202 -131.439143 
L 136.368452 -132.800536 
L 136.612934 -134.161928 
L 136.848645 -135.52332 
L 137.064093 -136.884712 
L 137.250639 -138.246104 
L 137.403089 -139.607496 
L 137.519632 -140.968888 
L 137.601325 -142.33028 
L 137.651289 -143.691672 
L 137.67381 -145.053064 
L 137.673491 -146.414456 
L 137.654622 -147.775848 
L 137.620855 -149.13724 
L 137.575211 -150.498632 
L 137.520306 -151.860024 
L 137.45862 -153.221416 
L 137.392644 -154.582808 
L 137.324831 -155.9442 
L 137.257432 -157.305593 
L 137.192346 -158.666985 
L 137.131132 -160.028377 
L 137.075232 -161.389769 
L 137.026333 -162.751161 
L 136.986717 -164.112553 
L 136.959446 -165.473945 
L 136.948286 -166.835337 
L 136.95736 -168.196729 
L 136.990595 -169.558121 
L 137.051051 -170.919513 
L 137.14023 -172.280905 
L 137.257497 -173.642297 
L 137.399711 -175.003689 
L 137.561222 -176.365081 
L 137.734301 -177.726473 
L 137.910004 -179.087865 
L 138.079322 -180.449257 
L 138.234376 -181.810649 
L 138.36939 -183.172042 
L 138.481213 -184.533434 
L 138.569322 -185.894826 
L 138.635378 -187.256218 
L 138.6825 -188.61761 
L 138.714488 -189.979002 
L 138.735151 -191.340394 
L 138.747853 -192.701786 
L 138.77942 -192.701786 
L 138.77942 -192.701786 
L 138.792121 -191.340394 
L 138.812785 -189.979002 
L 138.844773 -188.61761 
L 138.891895 -187.256218 
L 138.95795 -185.894826 
L 139.04606 -184.533434 
L 139.157882 -183.172042 
L 139.292896 -181.810649 
L 139.447951 -180.449257 
L 139.617268 -179.087865 
L 139.792972 -177.726473 
L 139.966051 -176.365081 
L 140.127562 -175.003689 
L 140.269775 -173.642297 
L 140.387042 -172.280905 
L 140.476222 -170.919513 
L 140.536677 -169.558121 
L 140.569913 -168.196729 
L 140.578987 -166.835337 
L 140.567826 -165.473945 
L 140.540556 -164.112553 
L 140.50094 -162.751161 
L 140.452041 -161.389769 
L 140.396141 -160.028377 
L 140.334927 -158.666985 
L 140.269841 -157.305593 
L 140.202442 -155.9442 
L 140.134629 -154.582808 
L 140.068652 -153.221416 
L 140.006967 -151.860024 
L 139.952062 -150.498632 
L 139.906418 -149.13724 
L 139.872651 -147.775848 
L 139.853782 -146.414456 
L 139.853463 -145.053064 
L 139.875983 -143.691672 
L 139.925947 -142.33028 
L 140.007641 -140.968888 
L 140.124184 -139.607496 
L 140.276633 -138.246104 
L 140.463179 -136.884712 
L 140.678628 -135.52332 
L 140.914338 -134.161928 
L 141.158821 -132.800536 
L 141.39907 -131.439143 
L 141.622548 -130.077751 
L 141.819418 -128.716359 
L 141.984481 -127.354967 
L 142.118211 -125.993575 
L 142.226553 -124.632183 
L 142.319502 -123.270791 
L 142.408914 -121.909399 
L 142.506162 -120.548007 
L 142.620262 -119.186615 
L 142.756808 -117.825223 
L 142.917767 -116.463831 
L 143.101887 -115.102439 
L 143.305384 -113.741047 
L 143.522604 -112.379655 
L 143.746473 -111.018263 
L 143.968729 -109.656871 
L 144.180004 -108.295479 
L 144.369892 -106.934086 
L 144.527112 -105.572694 
L 144.639825 -104.211302 
L 144.69616 -102.84991 
L 144.684975 -101.488518 
L 144.596895 -100.127126 
L 144.425628 -98.765734 
L 144.169427 -97.404342 
L 143.832413 -96.04295 
L 143.425296 -94.681558 
L 142.96502 -93.320166 
L 142.473119 -91.958774 
L 141.972964 -90.597382 
L 141.486568 -89.23599 
L 141.031806 -87.874598 
L 140.620802 -86.513206 
L 140.259766 -85.151814 
L 139.950044 -83.790422 
L 139.689745 -82.42903 
L 139.4753 -81.067637 
L 139.302483 -79.706245 
L 139.166824 -78.344853 
L 139.063614 -76.983461 
L 138.987796 -75.622069 
L 138.933998 -74.260677 
L 138.896788 -72.899285 
L 138.871093 -71.537893 
L 138.852625 -70.176501 
L 138.838184 -68.815109 
L 138.825741 -67.453717 
L 138.814312 -66.092325 
L 138.803672 -64.730933 
L 138.794018 -63.369541 
L 138.785668 -62.008149 
L 138.778852 -60.646757 
L 138.773623 -59.285365 
L 138.769857 -57.923973 
z
" style="stroke: #474747; stroke-width: 1.5"/>
    </defs>
    <g clip-path="url(#p819f3ce5ad)">
     <use xlink:href="#md915fae9d1" x="0" y="345.6" style="fill: #b39d48; stroke: #474747; stroke-width: 1.5"/>
    </g>
   </g>
   <g id="PolyCollection_4">
    <defs>
     <path id="mb545ac9323" d="M 171.234473 -59.834339 
L 171.223709 -59.834339 
L 171.219265 -60.954656 
L 171.211953 -62.074973 
L 171.200394 -63.19529 
L 171.182711 -64.315607 
L 171.156381 -65.435923 
L 171.118098 -66.55624 
L 171.063702 -67.676557 
L 170.98831 -68.796874 
L 170.886735 -69.917191 
L 170.754198 -71.037508 
L 170.587251 -72.157824 
L 170.384716 -73.278141 
L 170.148393 -74.398458 
L 169.883338 -75.518775 
L 169.597567 -76.639092 
L 169.30113 -77.759408 
L 169.004646 -78.879725 
L 168.717494 -80.000042 
L 168.446008 -81.120359 
L 168.192088 -82.240676 
L 167.952601 -83.360992 
L 167.71984 -84.481309 
L 167.483126 -85.601626 
L 167.231485 -86.721943 
L 166.95708 -87.84226 
L 166.658828 -88.962576 
L 166.345218 -90.082893 
L 166.035208 -91.20321 
L 165.756151 -92.323527 
L 165.538528 -93.443844 
L 165.408457 -94.56416 
L 165.380179 -95.684477 
L 165.45116 -96.804794 
L 165.601725 -97.925111 
L 165.799412 -99.045428 
L 166.006402 -100.165745 
L 166.187399 -101.286061 
L 166.315667 -102.406378 
L 166.376187 -103.526695 
L 166.36621 -104.647012 
L 166.294115 -105.767329 
L 166.177324 -106.887645 
L 166.039512 -108.007962 
L 165.90707 -109.128279 
L 165.804984 -110.248596 
L 165.752799 -111.368913 
L 165.761643 -112.489229 
L 165.833159 -113.609546 
L 165.960574 -114.729863 
L 166.131449 -115.85018 
L 166.331197 -116.970497 
L 166.54634 -118.090813 
L 166.766767 -119.21113 
L 166.986604 -120.331447 
L 167.20371 -121.451764 
L 167.418206 -122.572081 
L 167.630647 -123.692398 
L 167.840546 -124.812714 
L 168.045733 -125.933031 
L 168.242659 -127.053348 
L 168.427406 -128.173665 
L 168.596916 -129.293982 
L 168.74998 -130.414298 
L 168.887643 -131.534615 
L 169.0129 -132.654932 
L 169.129733 -133.775249 
L 169.24181 -134.895566 
L 169.35129 -136.015882 
L 169.458208 -137.136199 
L 169.560712 -138.256516 
L 169.656079 -139.376833 
L 169.742124 -140.49715 
L 169.818432 -141.617466 
L 169.886927 -142.737783 
L 169.951532 -143.8581 
L 170.016979 -144.978417 
L 170.087213 -146.098734 
L 170.163989 -147.21905 
L 170.246259 -148.339367 
L 170.330667 -149.459684 
L 170.41293 -150.580001 
L 170.489535 -151.700318 
L 170.558978 -152.820635 
L 170.622053 -153.940951 
L 170.68116 -155.061268 
L 170.739068 -156.181585 
L 170.797737 -157.301902 
L 170.857655 -158.422219 
L 170.917837 -159.542535 
L 170.976306 -160.662852 
L 171.030765 -161.783169 
L 171.079195 -162.903486 
L 171.120236 -164.023803 
L 171.153331 -165.144119 
L 171.178691 -166.264436 
L 171.197124 -167.384753 
L 171.209807 -168.50507 
L 171.218053 -169.625387 
L 171.223108 -170.745703 
L 171.235074 -170.745703 
L 171.235074 -170.745703 
L 171.240129 -169.625387 
L 171.248375 -168.50507 
L 171.261058 -167.384753 
L 171.279491 -166.264436 
L 171.304851 -165.144119 
L 171.337946 -164.023803 
L 171.378987 -162.903486 
L 171.427417 -161.783169 
L 171.481876 -160.662852 
L 171.540344 -159.542535 
L 171.600526 -158.422219 
L 171.660445 -157.301902 
L 171.719114 -156.181585 
L 171.777022 -155.061268 
L 171.836129 -153.940951 
L 171.899203 -152.820635 
L 171.968647 -151.700318 
L 172.045252 -150.580001 
L 172.127515 -149.459684 
L 172.211922 -148.339367 
L 172.294193 -147.21905 
L 172.370969 -146.098734 
L 172.441203 -144.978417 
L 172.50665 -143.8581 
L 172.571255 -142.737783 
L 172.63975 -141.617466 
L 172.716058 -140.49715 
L 172.802103 -139.376833 
L 172.89747 -138.256516 
L 172.999974 -137.136199 
L 173.106892 -136.015882 
L 173.216372 -134.895566 
L 173.328449 -133.775249 
L 173.445282 -132.654932 
L 173.570538 -131.534615 
L 173.708202 -130.414298 
L 173.861266 -129.293982 
L 174.030776 -128.173665 
L 174.215523 -127.053348 
L 174.412449 -125.933031 
L 174.617635 -124.812714 
L 174.827535 -123.692398 
L 175.039976 -122.572081 
L 175.254472 -121.451764 
L 175.471578 -120.331447 
L 175.691415 -119.21113 
L 175.911842 -118.090813 
L 176.126985 -116.970497 
L 176.326732 -115.85018 
L 176.497608 -114.729863 
L 176.625023 -113.609546 
L 176.696539 -112.489229 
L 176.705383 -111.368913 
L 176.653198 -110.248596 
L 176.551112 -109.128279 
L 176.41867 -108.007962 
L 176.280857 -106.887645 
L 176.164066 -105.767329 
L 176.091972 -104.647012 
L 176.081995 -103.526695 
L 176.142515 -102.406378 
L 176.270782 -101.286061 
L 176.451779 -100.165745 
L 176.65877 -99.045428 
L 176.856457 -97.925111 
L 177.007022 -96.804794 
L 177.078003 -95.684477 
L 177.049725 -94.56416 
L 176.919654 -93.443844 
L 176.702031 -92.323527 
L 176.422973 -91.20321 
L 176.112964 -90.082893 
L 175.799354 -88.962576 
L 175.501101 -87.84226 
L 175.226697 -86.721943 
L 174.975055 -85.601626 
L 174.738342 -84.481309 
L 174.505581 -83.360992 
L 174.266094 -82.240676 
L 174.012173 -81.120359 
L 173.740687 -80.000042 
L 173.453536 -78.879725 
L 173.157052 -77.759408 
L 172.860615 -76.639092 
L 172.574843 -75.518775 
L 172.309789 -74.398458 
L 172.073466 -73.278141 
L 171.870931 -72.157824 
L 171.703984 -71.037508 
L 171.571447 -69.917191 
L 171.469872 -68.796874 
L 171.39448 -67.676557 
L 171.340083 -66.55624 
L 171.3018 -65.435923 
L 171.275471 -64.315607 
L 171.257787 -63.19529 
L 171.246228 -62.074973 
L 171.238917 -60.954656 
L 171.234473 -59.834339 
z
" style="stroke: #474747; stroke-width: 1.5"/>
    </defs>
    <g clip-path="url(#p819f3ce5ad)">
     <use xlink:href="#mb545ac9323" x="0" y="345.6" style="fill: #8ea546; stroke: #474747; stroke-width: 1.5"/>
    </g>
   </g>
   <g id="PolyCollection_5">
    <defs>
     <path id="me21fafe020" d="M 203.701437 -62.719542 
L 203.687654 -62.719542 
L 203.682728 -64.302305 
L 203.674819 -65.885067 
L 203.662442 -67.467829 
L 203.643543 -69.050591 
L 203.615382 -70.633354 
L 203.574453 -72.216116 
L 203.516502 -73.798878 
L 203.436708 -75.381641 
L 203.330082 -76.964403 
L 203.192122 -78.547165 
L 203.019682 -80.129927 
L 202.811935 -81.71269 
L 202.571228 -83.295452 
L 202.30359 -84.878214 
L 202.018643 -86.460977 
L 201.72882 -88.043739 
L 201.447888 -89.626501 
L 201.189037 -91.209263 
L 200.962859 -92.792026 
L 200.775681 -94.374788 
L 200.628598 -95.95755 
L 200.517466 -97.540313 
L 200.433886 -99.123075 
L 200.367041 -100.705837 
L 200.30606 -102.288599 
L 200.242503 -103.871362 
L 200.172468 -105.454124 
L 200.097856 -107.036886 
L 200.026405 -108.619649 
L 199.970333 -110.202411 
L 199.94374 -111.785173 
L 199.959284 -113.367936 
L 200.02492 -114.950698 
L 200.141568 -116.53346 
L 200.302386 -118.116222 
L 200.493865 -119.698985 
L 200.698449 -121.281747 
L 200.897928 -122.864509 
L 201.076677 -124.447272 
L 201.223943 -126.030034 
L 201.334767 -127.612796 
L 201.409557 -129.195558 
L 201.45273 -130.778321 
L 201.47098 -132.361083 
L 201.471708 -133.943845 
L 201.461929 -135.526608 
L 201.44773 -137.10937 
L 201.434149 -138.692132 
L 201.425261 -140.274894 
L 201.424257 -141.857657 
L 201.433414 -143.440419 
L 201.453949 -145.023181 
L 201.485851 -146.605944 
L 201.527804 -148.188706 
L 201.577287 -149.771468 
L 201.63089 -151.35423 
L 201.684796 -152.936993 
L 201.735342 -154.519755 
L 201.779551 -156.102517 
L 201.815516 -157.68528 
L 201.842587 -159.268042 
L 201.861322 -160.850804 
L 201.873232 -162.433567 
L 201.880377 -164.016329 
L 201.884901 -165.599091 
L 201.888613 -167.181853 
L 201.89269 -168.764616 
L 201.897587 -170.347378 
L 201.903147 -171.93014 
L 201.908883 -173.512903 
L 201.914343 -175.095665 
L 201.919434 -176.678427 
L 201.924644 -178.261189 
L 201.931092 -179.843952 
L 201.940438 -181.426714 
L 201.954689 -183.009476 
L 201.975989 -184.592239 
L 202.00642 -186.175001 
L 202.047854 -187.757763 
L 202.101817 -189.340525 
L 202.169358 -190.923288 
L 202.250906 -192.50605 
L 202.346123 -194.088812 
L 202.453788 -195.671575 
L 202.571765 -197.254337 
L 202.697066 -198.837099 
L 202.826042 -200.419861 
L 202.954668 -202.002624 
L 203.078893 -203.585386 
L 203.195002 -205.168148 
L 203.299949 -206.750911 
L 203.391593 -208.333673 
L 203.468833 -209.916435 
L 203.531597 -211.499197 
L 203.580719 -213.08196 
L 203.617708 -214.664722 
L 203.644481 -216.247484 
L 203.663094 -217.830247 
L 203.675513 -219.413009 
L 203.713578 -219.413009 
L 203.713578 -219.413009 
L 203.725997 -217.830247 
L 203.74461 -216.247484 
L 203.771383 -214.664722 
L 203.808372 -213.08196 
L 203.857494 -211.499197 
L 203.920258 -209.916435 
L 203.997498 -208.333673 
L 204.089142 -206.750911 
L 204.194089 -205.168148 
L 204.310198 -203.585386 
L 204.434423 -202.002624 
L 204.563049 -200.419861 
L 204.692025 -198.837099 
L 204.817326 -197.254337 
L 204.935303 -195.671575 
L 205.042968 -194.088812 
L 205.138185 -192.50605 
L 205.219733 -190.923288 
L 205.287274 -189.340525 
L 205.341237 -187.757763 
L 205.382671 -186.175001 
L 205.413102 -184.592239 
L 205.434401 -183.009476 
L 205.448653 -181.426714 
L 205.457999 -179.843952 
L 205.464447 -178.261189 
L 205.469657 -176.678427 
L 205.474748 -175.095665 
L 205.480208 -173.512903 
L 205.485944 -171.93014 
L 205.491504 -170.347378 
L 205.496401 -168.764616 
L 205.500478 -167.181853 
L 205.50419 -165.599091 
L 205.508714 -164.016329 
L 205.515859 -162.433567 
L 205.527769 -160.850804 
L 205.546504 -159.268042 
L 205.573575 -157.68528 
L 205.60954 -156.102517 
L 205.653749 -154.519755 
L 205.704295 -152.936993 
L 205.758201 -151.35423 
L 205.811804 -149.771468 
L 205.861287 -148.188706 
L 205.90324 -146.605944 
L 205.935142 -145.023181 
L 205.955677 -143.440419 
L 205.964834 -141.857657 
L 205.96383 -140.274894 
L 205.954942 -138.692132 
L 205.941361 -137.10937 
L 205.927162 -135.526608 
L 205.917383 -133.943845 
L 205.918111 -132.361083 
L 205.936361 -130.778321 
L 205.979534 -129.195558 
L 206.054324 -127.612796 
L 206.165148 -126.030034 
L 206.312414 -124.447272 
L 206.491162 -122.864509 
L 206.690641 -121.281747 
L 206.895226 -119.698985 
L 207.086704 -118.116222 
L 207.247522 -116.53346 
L 207.364171 -114.950698 
L 207.429807 -113.367936 
L 207.445351 -111.785173 
L 207.418758 -110.202411 
L 207.362686 -108.619649 
L 207.291235 -107.036886 
L 207.216623 -105.454124 
L 207.146588 -103.871362 
L 207.083031 -102.288599 
L 207.02205 -100.705837 
L 206.955205 -99.123075 
L 206.871625 -97.540313 
L 206.760493 -95.95755 
L 206.613409 -94.374788 
L 206.426231 -92.792026 
L 206.200054 -91.209263 
L 205.941203 -89.626501 
L 205.660271 -88.043739 
L 205.370447 -86.460977 
L 205.085501 -84.878214 
L 204.817863 -83.295452 
L 204.577156 -81.71269 
L 204.369409 -80.129927 
L 204.196969 -78.547165 
L 204.059009 -76.964403 
L 203.952383 -75.381641 
L 203.872589 -73.798878 
L 203.814638 -72.216116 
L 203.773709 -70.633354 
L 203.745548 -69.050591 
L 203.726649 -67.467829 
L 203.714272 -65.885067 
L 203.706363 -64.302305 
L 203.701437 -62.719542 
z
" style="stroke: #474747; stroke-width: 1.5"/>
    </defs>
    <g clip-path="url(#p819f3ce5ad)">
     <use xlink:href="#me21fafe020" x="0" y="345.6" style="fill: #48b067; stroke: #474747; stroke-width: 1.5"/>
    </g>
   </g>
   <g id="PolyCollection_6">
    <defs>
     <path id="m41ba1a57d5" d="M 236.16533 -71.355489 
L 236.15467 -71.355489 
L 236.149691 -73.034551 
L 236.141447 -74.713614 
L 236.128775 -76.392676 
L 236.110563 -78.071739 
L 236.085891 -79.750801 
L 236.054133 -81.429864 
L 236.015061 -83.108926 
L 235.969032 -84.787989 
L 235.917228 -86.467051 
L 235.861773 -88.146114 
L 235.805495 -89.825176 
L 235.751244 -91.504239 
L 235.701021 -93.183301 
L 235.655369 -94.862364 
L 235.613299 -96.541426 
L 235.572643 -98.220489 
L 235.530402 -99.899551 
L 235.482786 -101.578614 
L 235.425085 -103.257676 
L 235.35176 -104.936739 
L 235.257041 -106.615801 
L 235.135882 -108.294864 
L 234.984829 -109.973926 
L 234.8025 -111.652989 
L 234.589712 -113.332051 
L 234.349359 -115.011114 
L 234.085881 -116.690176 
L 233.803737 -118.369239 
L 233.504612 -120.048301 
L 233.184201 -121.727364 
L 232.830852 -123.406426 
L 232.428952 -125.085489 
L 231.968408 -126.764551 
L 231.458034 -128.443614 
L 230.936436 -130.122676 
L 230.47227 -131.801739 
L 230.148994 -133.480801 
L 230.037414 -135.159864 
L 230.167677 -136.838926 
L 230.514976 -138.517989 
L 231.00687 -140.197051 
L 231.548629 -141.876114 
L 232.053935 -143.555176 
L 232.467341 -145.234239 
L 232.771372 -146.913301 
L 232.979625 -148.592364 
L 233.122417 -150.271426 
L 233.232208 -151.950489 
L 233.33357 -153.629551 
L 233.439446 -155.308614 
L 233.552778 -156.987676 
L 233.670978 -158.666739 
L 233.79028 -160.345801 
L 233.907918 -162.024864 
L 234.021818 -163.703926 
L 234.129059 -165.382989 
L 234.224843 -167.062051 
L 234.302959 -168.741114 
L 234.357527 -170.420176 
L 234.385016 -172.099238 
L 234.38566 -173.778301 
L 234.364059 -175.457363 
L 234.329186 -177.136426 
L 234.293884 -178.815488 
L 234.273471 -180.494551 
L 234.283039 -182.173613 
L 234.333713 -183.852676 
L 234.429142 -185.531738 
L 234.563786 -187.210801 
L 234.723819 -188.889863 
L 234.890169 -190.568926 
L 235.042414 -192.247988 
L 235.162346 -193.927051 
L 235.236834 -195.606113 
L 235.260125 -197.285176 
L 235.235616 -198.964238 
L 235.176451 -200.643301 
L 235.103996 -202.322363 
L 235.043679 -204.001426 
L 235.01886 -205.680488 
L 235.044619 -207.359551 
L 235.123785 -209.038613 
L 235.246806 -210.717676 
L 235.395508 -212.396738 
L 235.549125 -214.075801 
L 235.690178 -215.754863 
L 235.808122 -217.433926 
L 235.899932 -219.112988 
L 235.968219 -220.792051 
L 236.018283 -222.471113 
L 236.055535 -224.150176 
L 236.08405 -225.829238 
L 236.106281 -227.508301 
L 236.123498 -229.187363 
L 236.136406 -230.866426 
L 236.145597 -232.545488 
L 236.151739 -234.224551 
L 236.155565 -235.903613 
L 236.157779 -237.582676 
L 236.162221 -237.582676 
L 236.162221 -237.582676 
L 236.164435 -235.903613 
L 236.168261 -234.224551 
L 236.174403 -232.545488 
L 236.183594 -230.866426 
L 236.196502 -229.187363 
L 236.213719 -227.508301 
L 236.23595 -225.829238 
L 236.264465 -224.150176 
L 236.301717 -222.471113 
L 236.351781 -220.792051 
L 236.420068 -219.112988 
L 236.511878 -217.433926 
L 236.629822 -215.754863 
L 236.770875 -214.075801 
L 236.924492 -212.396738 
L 237.073194 -210.717676 
L 237.196215 -209.038613 
L 237.275381 -207.359551 
L 237.30114 -205.680488 
L 237.276321 -204.001426 
L 237.216004 -202.322363 
L 237.143549 -200.643301 
L 237.084384 -198.964238 
L 237.059875 -197.285176 
L 237.083166 -195.606113 
L 237.157654 -193.927051 
L 237.277586 -192.247988 
L 237.429831 -190.568926 
L 237.596181 -188.889863 
L 237.756214 -187.210801 
L 237.890858 -185.531738 
L 237.986287 -183.852676 
L 238.036961 -182.173613 
L 238.046529 -180.494551 
L 238.026116 -178.815488 
L 237.990814 -177.136426 
L 237.955941 -175.457363 
L 237.93434 -173.778301 
L 237.934984 -172.099238 
L 237.962473 -170.420176 
L 238.017041 -168.741114 
L 238.095157 -167.062051 
L 238.190941 -165.382989 
L 238.298182 -163.703926 
L 238.412082 -162.024864 
L 238.52972 -160.345801 
L 238.649022 -158.666739 
L 238.767222 -156.987676 
L 238.880554 -155.308614 
L 238.98643 -153.629551 
L 239.087792 -151.950489 
L 239.197583 -150.271426 
L 239.340375 -148.592364 
L 239.548628 -146.913301 
L 239.852659 -145.234239 
L 240.266065 -143.555176 
L 240.771371 -141.876114 
L 241.31313 -140.197051 
L 241.805024 -138.517989 
L 242.152323 -136.838926 
L 242.282586 -135.159864 
L 242.171006 -133.480801 
L 241.84773 -131.801739 
L 241.383564 -130.122676 
L 240.861966 -128.443614 
L 240.351592 -126.764551 
L 239.891048 -125.085489 
L 239.489148 -123.406426 
L 239.135799 -121.727364 
L 238.815388 -120.048301 
L 238.516263 -118.369239 
L 238.234119 -116.690176 
L 237.970641 -115.011114 
L 237.730288 -113.332051 
L 237.5175 -111.652989 
L 237.335171 -109.973926 
L 237.184118 -108.294864 
L 237.062959 -106.615801 
L 236.96824 -104.936739 
L 236.894915 -103.257676 
L 236.837214 -101.578614 
L 236.789598 -99.899551 
L 236.747357 -98.220489 
L 236.706701 -96.541426 
L 236.664631 -94.862364 
L 236.618979 -93.183301 
L 236.568756 -91.504239 
L 236.514505 -89.825176 
L 236.458227 -88.146114 
L 236.402772 -86.467051 
L 236.350968 -84.787989 
L 236.304939 -83.108926 
L 236.265867 -81.429864 
L 236.234109 -79.750801 
L 236.209437 -78.071739 
L 236.191225 -76.392676 
L 236.178553 -74.713614 
L 236.170309 -73.034551 
L 236.16533 -71.355489 
z
" style="stroke: #474747; stroke-width: 1.5"/>
    </defs>
    <g clip-path="url(#p819f3ce5ad)">
     <use xlink:href="#m41ba1a57d5" x="0" y="345.6" style="fill: #4aac98; stroke: #474747; stroke-width: 1.5"/>
    </g>
   </g>
   <g id="PolyCollection_7">
    <defs>
     <path id="mb7cab5d3f5" d="M 268.630672 -57.46065 
L 268.620237 -57.46065 
L 268.615235 -59.262995 
L 268.606818 -61.06534 
L 268.593718 -62.867685 
L 268.574805 -64.670031 
L 268.54938 -66.472376 
L 268.517388 -68.274721 
L 268.479403 -70.077066 
L 268.436312 -71.879411 
L 268.388754 -73.681756 
L 268.336506 -75.484101 
L 268.278162 -77.286446 
L 268.211432 -79.088792 
L 268.134208 -80.891137 
L 268.046153 -82.693482 
L 267.950144 -84.495827 
L 267.852675 -86.298172 
L 267.762572 -88.100517 
L 267.688068 -89.902862 
L 267.63319 -91.705207 
L 267.595031 -93.507553 
L 267.563363 -95.309898 
L 267.523207 -97.112243 
L 267.459691 -98.914588 
L 267.363454 -100.716933 
L 267.234432 -102.519278 
L 267.082342 -104.321623 
L 266.923456 -106.123968 
L 266.774865 -107.926314 
L 266.648636 -109.728659 
L 266.548251 -111.531004 
L 266.46852 -113.333349 
L 266.39824 -115.135694 
L 266.323517 -116.938039 
L 266.229705 -118.740384 
L 266.101442 -120.542729 
L 265.922279 -122.345075 
L 265.676576 -124.14742 
L 265.3554 -125.949765 
L 264.965223 -127.75211 
L 264.534814 -129.554455 
L 264.114479 -131.3568 
L 263.764608 -133.159145 
L 263.536521 -134.961491 
L 263.454192 -136.763836 
L 263.506331 -138.566181 
L 263.653253 -140.368526 
L 263.844982 -142.170871 
L 264.041368 -143.973216 
L 264.224878 -145.775561 
L 264.401583 -147.577906 
L 264.592015 -149.380252 
L 264.817674 -151.182597 
L 265.089489 -152.984942 
L 265.402403 -154.787287 
L 265.736975 -156.589632 
L 266.066131 -158.391977 
L 266.36365 -160.194322 
L 266.611047 -161.996667 
L 266.800715 -163.799013 
L 266.935138 -165.601358 
L 267.023554 -167.403703 
L 267.07815 -169.206048 
L 267.11135 -171.008393 
L 267.134625 -172.810738 
L 267.158279 -174.613083 
L 267.191327 -176.415428 
L 267.240922 -178.217774 
L 267.311325 -180.020119 
L 267.402787 -181.822464 
L 267.510877 -183.624809 
L 267.626704 -185.427154 
L 267.738277 -187.229499 
L 267.832958 -189.031844 
L 267.900473 -190.834189 
L 267.935644 -192.636535 
L 267.939845 -194.43888 
L 267.920575 -196.241225 
L 267.889285 -198.04357 
L 267.858318 -199.845915 
L 267.838152 -201.64826 
L 267.835738 -203.450605 
L 267.854094 -205.25295 
L 267.892774 -207.055296 
L 267.948758 -208.857641 
L 268.017449 -210.659986 
L 268.093648 -212.462331 
L 268.172363 -214.264676 
L 268.249363 -216.067021 
L 268.321417 -217.869366 
L 268.386315 -219.671711 
L 268.442771 -221.474057 
L 268.490267 -223.276402 
L 268.528897 -225.078747 
L 268.559195 -226.881092 
L 268.582009 -228.683437 
L 268.598395 -230.485782 
L 268.60954 -232.288127 
L 268.616664 -234.090472 
L 268.620916 -235.892818 
L 268.629993 -235.892818 
L 268.629993 -235.892818 
L 268.634245 -234.090472 
L 268.641369 -232.288127 
L 268.652514 -230.485782 
L 268.6689 -228.683437 
L 268.691714 -226.881092 
L 268.722012 -225.078747 
L 268.760642 -223.276402 
L 268.808138 -221.474057 
L 268.864594 -219.671711 
L 268.929493 -217.869366 
L 269.001546 -216.067021 
L 269.078546 -214.264676 
L 269.157261 -212.462331 
L 269.23346 -210.659986 
L 269.302151 -208.857641 
L 269.358135 -207.055296 
L 269.396815 -205.25295 
L 269.415171 -203.450605 
L 269.412757 -201.64826 
L 269.392591 -199.845915 
L 269.361624 -198.04357 
L 269.330334 -196.241225 
L 269.311065 -194.43888 
L 269.315265 -192.636535 
L 269.350436 -190.834189 
L 269.417951 -189.031844 
L 269.512632 -187.229499 
L 269.624205 -185.427154 
L 269.740032 -183.624809 
L 269.848122 -181.822464 
L 269.939584 -180.020119 
L 270.009987 -178.217774 
L 270.059582 -176.415428 
L 270.09263 -174.613083 
L 270.116284 -172.810738 
L 270.13956 -171.008393 
L 270.172759 -169.206048 
L 270.227355 -167.403703 
L 270.315771 -165.601358 
L 270.450194 -163.799013 
L 270.639863 -161.996667 
L 270.887259 -160.194322 
L 271.184778 -158.391977 
L 271.513934 -156.589632 
L 271.848506 -154.787287 
L 272.16142 -152.984942 
L 272.433235 -151.182597 
L 272.658894 -149.380252 
L 272.849326 -147.577906 
L 273.026031 -145.775561 
L 273.209541 -143.973216 
L 273.405927 -142.170871 
L 273.597656 -140.368526 
L 273.744578 -138.566181 
L 273.796717 -136.763836 
L 273.714389 -134.961491 
L 273.486301 -133.159145 
L 273.13643 -131.3568 
L 272.716095 -129.554455 
L 272.285686 -127.75211 
L 271.89551 -125.949765 
L 271.574333 -124.14742 
L 271.32863 -122.345075 
L 271.149467 -120.542729 
L 271.021204 -118.740384 
L 270.927392 -116.938039 
L 270.852669 -115.135694 
L 270.782389 -113.333349 
L 270.702658 -111.531004 
L 270.602273 -109.728659 
L 270.476044 -107.926314 
L 270.327453 -106.123968 
L 270.168567 -104.321623 
L 270.016478 -102.519278 
L 269.887455 -100.716933 
L 269.791218 -98.914588 
L 269.727702 -97.112243 
L 269.687546 -95.309898 
L 269.655878 -93.507553 
L 269.617719 -91.705207 
L 269.562841 -89.902862 
L 269.488337 -88.100517 
L 269.398234 -86.298172 
L 269.300765 -84.495827 
L 269.204756 -82.693482 
L 269.116701 -80.891137 
L 269.039477 -79.088792 
L 268.972747 -77.286446 
L 268.914403 -75.484101 
L 268.862155 -73.681756 
L 268.814597 -71.879411 
L 268.771507 -70.077066 
L 268.733521 -68.274721 
L 268.701529 -66.472376 
L 268.676104 -64.670031 
L 268.657191 -62.867685 
L 268.644091 -61.06534 
L 268.635674 -59.262995 
L 268.630672 -57.46065 
z
" style="stroke: #474747; stroke-width: 1.5"/>
    </defs>
    <g clip-path="url(#p819f3ce5ad)">
     <use xlink:href="#mb7cab5d3f5" x="0" y="345.6" style="fill: #4dabb0; stroke: #474747; stroke-width: 1.5"/>
    </g>
   </g>
   <g id="PolyCollection_8">
    <defs>
     <path id="m2e9a8ac417" d="M 301.131025 -60.269485 
L 301.050794 -60.269485 
L 301.014812 -60.965707 
L 300.954783 -61.66193 
L 300.860507 -62.358152 
L 300.720486 -63.054374 
L 300.522717 -63.750597 
L 300.255353 -64.446819 
L 299.907029 -65.143042 
L 299.466927 -65.839264 
L 298.925037 -66.535486 
L 298.273182 -67.231709 
L 297.507063 -67.927931 
L 296.628992 -68.624154 
L 295.650402 -69.320376 
L 294.593172 -70.016599 
L 293.48932 -70.712821 
L 292.37927 -71.409043 
L 291.309325 -72.105266 
L 290.32861 -72.801488 
L 289.485227 -73.497711 
L 288.821103 -74.193933 
L 288.365732 -74.890155 
L 288.130314 -75.586378 
L 288.104727 -76.2826 
L 288.259435 -76.978823 
L 288.552561 -77.675045 
L 288.940037 -78.371267 
L 289.385176 -79.06749 
L 289.864288 -79.763712 
L 290.366776 -80.459935 
L 290.890528 -81.156157 
L 291.43524 -81.85238 
L 291.99682 -82.548602 
L 292.565125 -83.244824 
L 293.125536 -83.941047 
L 293.663076 -84.637269 
L 294.166694 -85.333492 
L 294.63159 -86.029714 
L 295.058667 -86.725936 
L 295.45176 -87.422159 
L 295.814244 -88.118381 
L 296.146558 -88.814604 
L 296.445472 -89.510826 
L 296.704998 -90.207048 
L 296.918415 -90.903271 
L 297.080752 -91.599493 
L 297.191206 -92.295716 
L 297.254924 -92.991938 
L 297.283471 -93.68816 
L 297.293423 -94.384383 
L 297.302909 -95.080605 
L 297.326779 -95.776828 
L 297.37172 -96.47305 
L 297.43296 -97.169273 
L 297.49392 -97.865495 
L 297.529497 -98.561717 
L 297.512853 -99.25794 
L 297.424667 -99.954162 
L 297.26269 -100.650385 
L 297.048317 -101.346607 
L 296.826594 -102.042829 
L 296.657522 -102.739052 
L 296.599995 -103.435274 
L 296.693739 -104.131497 
L 296.946637 -104.827719 
L 297.333041 -105.523941 
L 297.803597 -106.220164 
L 298.30169 -106.916386 
L 298.779104 -107.612609 
L 299.205085 -108.308831 
L 299.567231 -109.005053 
L 299.866565 -109.701276 
L 300.110856 -110.397498 
L 300.309375 -111.093721 
L 300.470313 -111.789943 
L 300.600316 -112.486166 
L 300.704953 -113.182388 
L 300.789133 -113.87861 
L 300.857152 -114.574833 
L 300.912487 -115.271055 
L 300.957628 -115.967278 
L 300.994138 -116.6635 
L 301.02293 -117.359722 
L 301.044615 -118.055945 
L 301.0598 -118.752167 
L 301.06923 -119.44839 
L 301.073832 -120.144612 
L 301.074684 -120.840834 
L 301.072979 -121.537057 
L 301.069975 -122.233279 
L 301.0669 -122.929502 
L 301.064807 -123.625724 
L 301.064394 -124.321947 
L 301.065879 -125.018169 
L 301.068997 -125.714391 
L 301.073132 -126.410614 
L 301.077547 -127.106836 
L 301.081606 -127.803059 
L 301.084909 -128.499281 
L 301.087324 -129.195503 
L 301.094494 -129.195503 
L 301.094494 -129.195503 
L 301.096909 -128.499281 
L 301.100212 -127.803059 
L 301.104271 -127.106836 
L 301.108686 -126.410614 
L 301.112821 -125.714391 
L 301.115939 -125.018169 
L 301.117424 -124.321947 
L 301.117011 -123.625724 
L 301.114918 -122.929502 
L 301.111844 -122.233279 
L 301.108839 -121.537057 
L 301.107134 -120.840834 
L 301.107986 -120.144612 
L 301.112588 -119.44839 
L 301.122019 -118.752167 
L 301.137203 -118.055945 
L 301.158889 -117.359722 
L 301.18768 -116.6635 
L 301.224191 -115.967278 
L 301.269331 -115.271055 
L 301.324666 -114.574833 
L 301.392686 -113.87861 
L 301.476865 -113.182388 
L 301.581502 -112.486166 
L 301.711506 -111.789943 
L 301.872443 -111.093721 
L 302.070962 -110.397498 
L 302.315253 -109.701276 
L 302.614587 -109.005053 
L 302.976733 -108.308831 
L 303.402715 -107.612609 
L 303.880128 -106.916386 
L 304.378221 -106.220164 
L 304.848777 -105.523941 
L 305.235181 -104.827719 
L 305.488079 -104.131497 
L 305.581823 -103.435274 
L 305.524296 -102.739052 
L 305.355224 -102.042829 
L 305.133502 -101.346607 
L 304.919128 -100.650385 
L 304.757151 -99.954162 
L 304.668966 -99.25794 
L 304.652321 -98.561717 
L 304.687898 -97.865495 
L 304.748858 -97.169273 
L 304.810098 -96.47305 
L 304.855039 -95.776828 
L 304.878909 -95.080605 
L 304.888395 -94.384383 
L 304.898347 -93.68816 
L 304.926895 -92.991938 
L 304.990612 -92.295716 
L 305.101066 -91.599493 
L 305.263403 -90.903271 
L 305.47682 -90.207048 
L 305.736347 -89.510826 
L 306.03526 -88.814604 
L 306.367574 -88.118381 
L 306.730058 -87.422159 
L 307.123152 -86.725936 
L 307.550228 -86.029714 
L 308.015124 -85.333492 
L 308.518742 -84.637269 
L 309.056282 -83.941047 
L 309.616693 -83.244824 
L 310.184998 -82.548602 
L 310.746578 -81.85238 
L 311.29129 -81.156157 
L 311.815042 -80.459935 
L 312.317531 -79.763712 
L 312.796643 -79.06749 
L 313.241781 -78.371267 
L 313.629257 -77.675045 
L 313.922384 -76.978823 
L 314.077091 -76.2826 
L 314.051504 -75.586378 
L 313.816086 -74.890155 
L 313.360715 -74.193933 
L 312.696591 -73.497711 
L 311.853208 -72.801488 
L 310.872493 -72.105266 
L 309.802548 -71.409043 
L 308.692498 -70.712821 
L 307.588646 -70.016599 
L 306.531416 -69.320376 
L 305.552826 -68.624154 
L 304.674755 -67.927931 
L 303.908637 -67.231709 
L 303.256781 -66.535486 
L 302.714892 -65.839264 
L 302.274789 -65.143042 
L 301.926465 -64.446819 
L 301.659102 -63.750597 
L 301.461333 -63.054374 
L 301.321312 -62.358152 
L 301.227035 -61.66193 
L 301.167006 -60.965707 
L 301.131025 -60.269485 
z
" style="stroke: #474747; stroke-width: 1.5"/>
    </defs>
    <g clip-path="url(#p819f3ce5ad)">
     <use xlink:href="#m2e9a8ac417" x="0" y="345.6" style="fill: #54acd3; stroke: #474747; stroke-width: 1.5"/>
    </g>
   </g>
   <g id="PolyCollection_9">
    <defs>
     <path id="m5447e153c4" d="M 333.565812 -50.112 
L 333.546915 -50.112 
L 333.538552 -52.555636 
L 333.524284 -54.999273 
L 333.501093 -57.442909 
L 333.465172 -59.886545 
L 333.412146 -62.330182 
L 333.337583 -64.773818 
L 333.237798 -67.217455 
L 333.110896 -69.661091 
L 332.957832 -72.104727 
L 332.783178 -74.548364 
L 332.595229 -76.992 
L 332.405182 -79.435636 
L 332.225372 -81.879273 
L 332.06688 -84.322909 
L 331.93712 -86.766545 
L 331.838136 -89.210182 
L 331.7662 -91.653818 
L 331.712894 -94.097455 
L 331.667423 -96.541091 
L 331.619459 -98.984727 
L 331.561636 -101.428364 
L 331.490929 -103.872 
L 331.408507 -106.315636 
L 331.318175 -108.759273 
L 331.224019 -111.202909 
L 331.128204 -113.646545 
L 331.029835 -116.090182 
L 330.925483 -118.533818 
L 330.811287 -120.977455 
L 330.685944 -123.421091 
L 330.553402 -125.864727 
L 330.424069 -128.308364 
L 330.313802 -130.752 
L 330.24074 -133.195636 
L 330.220911 -135.639273 
L 330.264063 -138.082909 
L 330.371129 -140.526545 
L 330.534105 -142.970182 
L 330.738233 -145.413818 
L 330.96554 -147.857455 
L 331.198495 -150.301091 
L 331.42271 -152.744727 
L 331.628188 -155.188364 
L 331.809247 -157.632 
L 331.963605 -160.075636 
L 332.091263 -162.519273 
L 332.193616 -164.962909 
L 332.272978 -167.406545 
L 332.332473 -169.850182 
L 332.37605 -172.293818 
L 332.40839 -174.737455 
L 332.434551 -177.181091 
L 332.459336 -179.624727 
L 332.486539 -182.068364 
L 332.51831 -184.512 
L 332.554891 -186.955636 
L 332.594833 -189.399273 
L 332.635684 -191.842909 
L 332.674923 -194.286545 
L 332.710872 -196.730182 
L 332.743296 -199.173818 
L 332.773525 -201.617455 
L 332.804086 -204.061091 
L 332.837969 -206.504727 
L 332.877757 -208.948364 
L 332.924842 -211.392 
L 332.978917 -213.835636 
L 333.037831 -216.279273 
L 333.09784 -218.722909 
L 333.154195 -221.166545 
L 333.201975 -223.610182 
L 333.237 -226.053818 
L 333.256636 -228.497455 
L 333.260301 -230.941091 
L 333.249526 -233.384727 
L 333.227572 -235.828364 
L 333.19868 -238.272 
L 333.167218 -240.715636 
L 333.136958 -243.159273 
L 333.110699 -245.602909 
L 333.090297 -248.046545 
L 333.076979 -250.490182 
L 333.071734 -252.933818 
L 333.075548 -255.377455 
L 333.089348 -257.821091 
L 333.113681 -260.264727 
L 333.148297 -262.708364 
L 333.191847 -265.152 
L 333.241851 -267.595636 
L 333.294999 -270.039273 
L 333.347684 -272.482909 
L 333.396614 -274.926545 
L 333.439317 -277.370182 
L 333.474407 -279.813818 
L 333.501592 -282.257455 
L 333.521468 -284.701091 
L 333.53519 -287.144727 
L 333.54414 -289.588364 
L 333.549655 -292.032 
L 333.563072 -292.032 
L 333.563072 -292.032 
L 333.568587 -289.588364 
L 333.577537 -287.144727 
L 333.59126 -284.701091 
L 333.611136 -282.257455 
L 333.638321 -279.813818 
L 333.67341 -277.370182 
L 333.716113 -274.926545 
L 333.765044 -272.482909 
L 333.817728 -270.039273 
L 333.870876 -267.595636 
L 333.92088 -265.152 
L 333.96443 -262.708364 
L 333.999047 -260.264727 
L 334.023379 -257.821091 
L 334.037179 -255.377455 
L 334.040994 -252.933818 
L 334.035749 -250.490182 
L 334.02243 -248.046545 
L 334.002028 -245.602909 
L 333.97577 -243.159273 
L 333.945509 -240.715636 
L 333.914047 -238.272 
L 333.885156 -235.828364 
L 333.863201 -233.384727 
L 333.852427 -230.941091 
L 333.856091 -228.497455 
L 333.875728 -226.053818 
L 333.910753 -223.610182 
L 333.958532 -221.166545 
L 334.014887 -218.722909 
L 334.074896 -216.279273 
L 334.133811 -213.835636 
L 334.187886 -211.392 
L 334.23497 -208.948364 
L 334.274758 -206.504727 
L 334.308641 -204.061091 
L 334.339202 -201.617455 
L 334.369431 -199.173818 
L 334.401855 -196.730182 
L 334.437804 -194.286545 
L 334.477043 -191.842909 
L 334.517894 -189.399273 
L 334.557837 -186.955636 
L 334.594417 -184.512 
L 334.626188 -182.068364 
L 334.653391 -179.624727 
L 334.678176 -177.181091 
L 334.704338 -174.737455 
L 334.736677 -172.293818 
L 334.780254 -169.850182 
L 334.839749 -167.406545 
L 334.919112 -164.962909 
L 335.021464 -162.519273 
L 335.149122 -160.075636 
L 335.30348 -157.632 
L 335.484539 -155.188364 
L 335.690017 -152.744727 
L 335.914232 -150.301091 
L 336.147187 -147.857455 
L 336.374494 -145.413818 
L 336.578622 -142.970182 
L 336.741599 -140.526545 
L 336.848664 -138.082909 
L 336.891817 -135.639273 
L 336.871987 -133.195636 
L 336.798925 -130.752 
L 336.688658 -128.308364 
L 336.559326 -125.864727 
L 336.426783 -123.421091 
L 336.30144 -120.977455 
L 336.187244 -118.533818 
L 336.082892 -116.090182 
L 335.984524 -113.646545 
L 335.888708 -111.202909 
L 335.794553 -108.759273 
L 335.704221 -106.315636 
L 335.621799 -103.872 
L 335.551091 -101.428364 
L 335.493268 -98.984727 
L 335.445305 -96.541091 
L 335.399834 -94.097455 
L 335.346527 -91.653818 
L 335.274591 -89.210182 
L 335.175608 -86.766545 
L 335.045847 -84.322909 
L 334.887355 -81.879273 
L 334.707546 -79.435636 
L 334.517498 -76.992 
L 334.329549 -74.548364 
L 334.154895 -72.104727 
L 334.001832 -69.661091 
L 333.87493 -67.217455 
L 333.775145 -64.773818 
L 333.700581 -62.330182 
L 333.647556 -59.886545 
L 333.611634 -57.442909 
L 333.588444 -54.999273 
L 333.574175 -52.555636 
L 333.565812 -50.112 
z
" style="stroke: #474747; stroke-width: 1.5"/>
    </defs>
    <g clip-path="url(#p819f3ce5ad)">
     <use xlink:href="#m5447e153c4" x="0" y="345.6" style="fill: #a9aceb; stroke: #474747; stroke-width: 1.5"/>
    </g>
   </g>
   <g id="PolyCollection_10">
    <defs>
     <path id="ma53cf2f64c" d="M 366.124804 -58.930929 
L 365.918832 -58.930929 
L 365.842131 -59.695869 
L 365.726285 -60.460809 
L 365.56283 -61.225749 
L 365.347123 -61.990689 
L 365.080267 -62.755629 
L 364.769475 -63.520569 
L 364.426249 -64.285509 
L 364.062685 -65.050448 
L 363.687224 -65.815388 
L 363.301726 -66.580328 
L 362.901287 -67.345268 
L 362.477053 -68.110208 
L 362.020936 -68.875148 
L 361.530331 -69.640088 
L 361.011145 -70.405028 
L 360.478271 -71.169968 
L 359.953675 -71.934908 
L 359.462857 -72.699848 
L 359.030606 -73.464788 
L 358.6768 -74.229727 
L 358.412886 -74.994667 
L 358.239609 -75.759607 
L 358.146512 -76.524547 
L 358.113475 -77.289487 
L 358.114124 -78.054427 
L 358.120464 -78.819367 
L 358.107761 -79.584307 
L 358.058668 -80.349247 
L 357.965783 -81.114187 
L 357.832243 -81.879127 
L 357.670417 -82.644066 
L 357.499186 -83.409006 
L 357.34055 -84.173946 
L 357.216274 -84.938886 
L 357.145079 -85.703826 
L 357.140629 -86.468766 
L 357.210455 -87.233706 
L 357.355925 -87.998646 
L 357.573272 -88.763586 
L 357.855425 -89.528526 
L 358.193914 -90.293466 
L 358.579945 -91.058405 
L 359.003956 -91.823345 
L 359.45377 -92.588285 
L 359.912325 -93.353225 
L 360.356448 -94.118165 
L 360.757973 -94.883105 
L 361.087618 -95.648045 
L 361.321046 -96.412985 
L 361.445638 -97.177925 
L 361.466019 -97.942865 
L 361.406409 -98.707805 
L 361.308388 -99.472744 
L 361.223753 -100.237684 
L 361.203743 -101.002624 
L 361.287372 -101.767564 
L 361.492432 -102.532504 
L 361.812068 -103.297444 
L 362.217957 -104.062384 
L 362.668719 -104.827324 
L 363.120498 -105.592264 
L 363.536299 -106.357204 
L 363.891741 -107.122144 
L 364.176566 -107.887083 
L 364.392676 -108.652023 
L 364.550261 -109.416963 
L 364.663526 -110.181903 
L 364.747109 -110.946843 
L 364.81367 -111.711783 
L 364.872636 -112.476723 
L 364.929847 -113.241663 
L 364.987793 -114.006603 
L 365.046262 -114.771543 
L 365.103321 -115.536483 
L 365.156512 -116.301423 
L 365.204027 -117.066362 
L 365.245499 -117.831302 
L 365.282149 -118.596242 
L 365.316282 -119.361182 
L 365.350436 -120.126122 
L 365.386648 -120.891062 
L 365.426125 -121.656002 
L 365.469343 -122.420942 
L 365.516318 -123.185882 
L 365.566771 -123.950822 
L 365.620082 -124.715762 
L 365.675138 -125.480701 
L 365.730278 -126.245641 
L 365.783465 -127.010581 
L 365.83266 -127.775521 
L 365.876218 -128.540461 
L 365.913164 -129.305401 
L 365.943246 -130.070341 
L 365.966814 -130.835281 
L 365.984608 -131.600221 
L 365.997556 -132.365161 
L 366.00662 -133.130101 
L 366.012704 -133.89504 
L 366.016606 -134.65998 
L 366.027031 -134.65998 
L 366.027031 -134.65998 
L 366.030932 -133.89504 
L 366.037017 -133.130101 
L 366.046081 -132.365161 
L 366.059028 -131.600221 
L 366.076822 -130.835281 
L 366.10039 -130.070341 
L 366.130472 -129.305401 
L 366.167418 -128.540461 
L 366.210977 -127.775521 
L 366.260171 -127.010581 
L 366.313359 -126.245641 
L 366.368498 -125.480701 
L 366.423555 -124.715762 
L 366.476866 -123.950822 
L 366.527318 -123.185882 
L 366.574293 -122.420942 
L 366.617512 -121.656002 
L 366.656989 -120.891062 
L 366.6932 -120.126122 
L 366.727354 -119.361182 
L 366.761487 -118.596242 
L 366.798138 -117.831302 
L 366.839609 -117.066362 
L 366.887124 -116.301423 
L 366.940315 -115.536483 
L 366.997374 -114.771543 
L 367.055843 -114.006603 
L 367.113789 -113.241663 
L 367.171 -112.476723 
L 367.229966 -111.711783 
L 367.296527 -110.946843 
L 367.38011 -110.181903 
L 367.493375 -109.416963 
L 367.65096 -108.652023 
L 367.86707 -107.887083 
L 368.151895 -107.122144 
L 368.507338 -106.357204 
L 368.923139 -105.592264 
L 369.374918 -104.827324 
L 369.82568 -104.062384 
L 370.231568 -103.297444 
L 370.551205 -102.532504 
L 370.756265 -101.767564 
L 370.839894 -101.002624 
L 370.819883 -100.237684 
L 370.735249 -99.472744 
L 370.637227 -98.707805 
L 370.577618 -97.942865 
L 370.597999 -97.177925 
L 370.722591 -96.412985 
L 370.956019 -95.648045 
L 371.285663 -94.883105 
L 371.687188 -94.118165 
L 372.131312 -93.353225 
L 372.589866 -92.588285 
L 373.039681 -91.823345 
L 373.463692 -91.058405 
L 373.849722 -90.293466 
L 374.188211 -89.528526 
L 374.470364 -88.763586 
L 374.687711 -87.998646 
L 374.833181 -87.233706 
L 374.903008 -86.468766 
L 374.898558 -85.703826 
L 374.827362 -84.938886 
L 374.703086 -84.173946 
L 374.54445 -83.409006 
L 374.373219 -82.644066 
L 374.211393 -81.879127 
L 374.077854 -81.114187 
L 373.984969 -80.349247 
L 373.935875 -79.584307 
L 373.923172 -78.819367 
L 373.929512 -78.054427 
L 373.930162 -77.289487 
L 373.897125 -76.524547 
L 373.804028 -75.759607 
L 373.63075 -74.994667 
L 373.366836 -74.229727 
L 373.01303 -73.464788 
L 372.580779 -72.699848 
L 372.089961 -71.934908 
L 371.565366 -71.169968 
L 371.032492 -70.405028 
L 370.513305 -69.640088 
L 370.0227 -68.875148 
L 369.566583 -68.110208 
L 369.14235 -67.345268 
L 368.74191 -66.580328 
L 368.356413 -65.815388 
L 367.980952 -65.050448 
L 367.617387 -64.285509 
L 367.274162 -63.520569 
L 366.963369 -62.755629 
L 366.696513 -61.990689 
L 366.480806 -61.225749 
L 366.317351 -60.460809 
L 366.201506 -59.695869 
L 366.124804 -58.930929 
z
" style="stroke: #474747; stroke-width: 1.5"/>
    </defs>
    <g clip-path="url(#p819f3ce5ad)">
     <use xlink:href="#ma53cf2f64c" x="0" y="345.6" style="fill: #d795e8; stroke: #474747; stroke-width: 1.5"/>
    </g>
   </g>
   <g id="PolyCollection_11">
    <defs>
     <path id="m88dbbdfe92" d="M 398.50996 -59.608948 
L 398.464585 -59.608948 
L 398.435567 -60.932688 
L 398.383752 -62.256428 
L 398.302205 -63.580168 
L 398.1849 -64.903909 
L 398.022743 -66.227649 
L 397.7982 -67.551389 
L 397.485723 -68.875129 
L 397.06227 -70.198869 
L 396.521411 -71.522609 
L 395.875765 -72.846349 
L 395.137498 -74.170089 
L 394.287328 -75.493829 
L 393.265231 -76.817569 
L 392.014391 -78.141309 
L 390.566804 -79.465049 
L 389.101534 -80.788789 
L 387.901773 -82.11253 
L 387.216488 -83.43627 
L 387.128473 -84.76001 
L 387.534555 -86.08375 
L 388.242179 -87.40749 
L 389.086947 -88.73123 
L 389.978645 -90.05497 
L 390.869816 -91.37871 
L 391.710397 -92.70245 
L 392.441507 -94.02619 
L 393.023482 -95.34993 
L 393.459294 -96.67367 
L 393.789475 -97.99741 
L 394.065392 -99.321151 
L 394.320759 -100.644891 
L 394.557767 -101.968631 
L 394.755368 -103.292371 
L 394.894012 -104.616111 
L 394.977952 -105.939851 
L 395.03798 -107.263591 
L 395.115642 -108.587331 
L 395.244968 -109.911071 
L 395.444004 -111.234811 
L 395.714197 -112.558551 
L 396.039882 -113.882291 
L 396.387502 -115.206031 
L 396.711929 -116.529772 
L 396.973026 -117.853512 
L 397.153689 -119.177252 
L 397.266068 -120.500992 
L 397.341631 -121.824732 
L 397.413375 -123.148472 
L 397.502166 -124.472212 
L 397.613072 -125.795952 
L 397.739803 -127.119692 
L 397.871795 -128.443432 
L 397.99929 -129.767172 
L 398.114801 -131.090912 
L 398.212641 -132.414653 
L 398.289111 -133.738393 
L 398.34381 -135.062133 
L 398.380165 -136.385873 
L 398.403851 -137.709613 
L 398.420263 -139.033353 
L 398.433039 -140.357093 
L 398.444071 -141.680833 
L 398.453901 -143.004573 
L 398.461897 -144.328313 
L 398.466641 -145.652053 
L 398.466875 -146.975793 
L 398.462572 -148.299533 
L 398.455366 -149.623274 
L 398.448067 -150.947014 
L 398.443541 -152.270754 
L 398.44359 -153.594494 
L 398.448296 -154.918234 
L 398.456033 -156.241974 
L 398.46411 -157.565714 
L 398.469811 -158.889454 
L 398.471448 -160.213194 
L 398.468978 -161.536934 
L 398.463905 -162.860674 
L 398.458434 -164.184414 
L 398.454295 -165.508154 
L 398.452058 -166.831895 
L 398.451455 -168.155635 
L 398.452163 -169.479375 
L 398.454014 -170.803115 
L 398.456475 -172.126855 
L 398.458397 -173.450595 
L 398.458735 -174.774335 
L 398.457522 -176.098075 
L 398.455847 -177.421815 
L 398.454779 -178.745555 
L 398.454504 -180.069295 
L 398.454692 -181.393035 
L 398.455491 -182.716775 
L 398.457756 -184.040516 
L 398.462171 -185.364256 
L 398.468325 -186.687996 
L 398.47482 -188.011736 
L 398.480222 -189.335476 
L 398.483851 -190.659216 
L 398.490694 -190.659216 
L 398.490694 -190.659216 
L 398.494324 -189.335476 
L 398.499725 -188.011736 
L 398.506221 -186.687996 
L 398.512375 -185.364256 
L 398.51679 -184.040516 
L 398.519055 -182.716775 
L 398.519853 -181.393035 
L 398.520041 -180.069295 
L 398.519767 -178.745555 
L 398.518699 -177.421815 
L 398.517024 -176.098075 
L 398.51581 -174.774335 
L 398.516149 -173.450595 
L 398.518071 -172.126855 
L 398.520532 -170.803115 
L 398.522383 -169.479375 
L 398.523091 -168.155635 
L 398.522488 -166.831895 
L 398.520251 -165.508154 
L 398.516111 -164.184414 
L 398.51064 -162.860674 
L 398.505568 -161.536934 
L 398.503098 -160.213194 
L 398.504734 -158.889454 
L 398.510436 -157.565714 
L 398.518512 -156.241974 
L 398.52625 -154.918234 
L 398.530955 -153.594494 
L 398.531004 -152.270754 
L 398.526478 -150.947014 
L 398.519179 -149.623274 
L 398.511974 -148.299533 
L 398.50767 -146.975793 
L 398.507905 -145.652053 
L 398.512649 -144.328313 
L 398.520644 -143.004573 
L 398.530474 -141.680833 
L 398.541506 -140.357093 
L 398.554283 -139.033353 
L 398.570694 -137.709613 
L 398.594381 -136.385873 
L 398.630735 -135.062133 
L 398.685434 -133.738393 
L 398.761905 -132.414653 
L 398.859744 -131.090912 
L 398.975255 -129.767172 
L 399.102751 -128.443432 
L 399.234743 -127.119692 
L 399.361473 -125.795952 
L 399.47238 -124.472212 
L 399.56117 -123.148472 
L 399.632915 -121.824732 
L 399.708477 -120.500992 
L 399.820856 -119.177252 
L 400.00152 -117.853512 
L 400.262617 -116.529772 
L 400.587044 -115.206031 
L 400.934664 -113.882291 
L 401.260349 -112.558551 
L 401.530541 -111.234811 
L 401.729577 -109.911071 
L 401.858903 -108.587331 
L 401.936565 -107.263591 
L 401.996593 -105.939851 
L 402.080533 -104.616111 
L 402.219178 -103.292371 
L 402.416779 -101.968631 
L 402.653786 -100.644891 
L 402.909154 -99.321151 
L 403.18507 -97.99741 
L 403.515252 -96.67367 
L 403.951063 -95.34993 
L 404.533039 -94.02619 
L 405.264149 -92.70245 
L 406.10473 -91.37871 
L 406.9959 -90.05497 
L 407.887598 -88.73123 
L 408.732366 -87.40749 
L 409.43999 -86.08375 
L 409.846073 -84.76001 
L 409.758057 -83.43627 
L 409.072773 -82.11253 
L 407.873012 -80.788789 
L 406.407742 -79.465049 
L 404.960154 -78.141309 
L 403.709314 -76.817569 
L 402.687218 -75.493829 
L 401.837047 -74.170089 
L 401.09878 -72.846349 
L 400.453134 -71.522609 
L 399.912276 -70.198869 
L 399.488822 -68.875129 
L 399.176345 -67.551389 
L 398.951802 -66.227649 
L 398.789646 -64.903909 
L 398.67234 -63.580168 
L 398.590793 -62.256428 
L 398.538979 -60.932688 
L 398.50996 -59.608948 
z
" style="stroke: #474747; stroke-width: 1.5"/>
    </defs>
    <g clip-path="url(#p819f3ce5ad)">
     <use xlink:href="#m88dbbdfe92" x="0" y="345.6" style="fill: #e88fc9; stroke: #474747; stroke-width: 1.5"/>
    </g>
   </g>
   <g id="matplotlib.axis_1">
    <g id="xtick_1">
     <g id="line2d_1">
      <defs>
       <path id="m3b28faa531" d="M 0 0 
L 0 3.5 
" style="stroke: #000000; stroke-width: 0.8"/>
      </defs>
      <g>
       <use xlink:href="#m3b28faa531" x="73.832727" y="307.584" style="stroke: #000000; stroke-width: 0.8"/>
      </g>
     </g>
     <g id="text_1">
      <!-- MH_05_difficult -->
      <g transform="translate(39.667884 321.413687) scale(0.1 -0.1)">
       <defs>
        <path id="STIXGeneral-Regular-4d" d="M 5530 0 
L 3738 0 
L 3738 122 
Q 4115 147 4214 265 
Q 4314 384 4314 787 
L 4314 3661 
L 2682 0 
L 2592 0 
L 979 3514 
L 979 966 
Q 979 448 1088 294 
Q 1197 141 1574 122 
L 1574 0 
L 77 0 
L 77 122 
Q 358 141 480 205 
Q 602 269 650 432 
Q 698 595 698 966 
L 698 3514 
Q 698 3878 589 3984 
Q 480 4090 90 4115 
L 90 4237 
L 1357 4237 
L 2835 1024 
L 4250 4237 
L 5523 4237 
L 5523 4115 
Q 5178 4109 5072 3993 
Q 4966 3878 4966 3520 
L 4966 717 
Q 4966 378 5072 262 
Q 5178 147 5530 122 
L 5530 0 
z
" transform="scale(0.015625)"/>
        <path id="STIXGeneral-Regular-48" d="M 4499 0 
L 2714 0 
L 2714 122 
Q 3085 147 3181 265 
Q 3277 384 3277 794 
L 3277 2016 
L 1338 2016 
L 1338 723 
Q 1338 371 1440 256 
Q 1542 141 1894 122 
L 1901 0 
L 115 0 
L 115 122 
Q 493 147 589 259 
Q 685 371 685 781 
L 685 3507 
Q 685 3878 585 3980 
Q 486 4083 115 4115 
L 115 4237 
L 1907 4237 
L 1907 4115 
Q 1549 4083 1443 3977 
Q 1338 3872 1338 3507 
L 1338 2298 
L 3277 2298 
L 3277 3507 
Q 3277 3878 3177 3980 
Q 3078 4083 2707 4115 
L 2707 4237 
L 4499 4237 
L 4499 4115 
Q 4141 4083 4035 3977 
Q 3930 3872 3930 3507 
L 3930 710 
Q 3930 371 4035 259 
Q 4141 147 4499 122 
L 4499 0 
z
" transform="scale(0.015625)"/>
        <path id="STIXGeneral-Regular-5f" d="M 3200 -800 
L 0 -800 
L 0 -480 
L 3200 -480 
L 3200 -800 
z
" transform="scale(0.015625)"/>
        <path id="STIXGeneral-Regular-30" d="M 3046 2112 
Q 3046 1683 2963 1302 
Q 2880 922 2717 602 
Q 2554 282 2266 96 
Q 1978 -90 1600 -90 
Q 1210 -90 915 108 
Q 621 307 461 640 
Q 301 973 227 1350 
Q 154 1728 154 2150 
Q 154 2746 301 3222 
Q 448 3699 790 4012 
Q 1133 4326 1626 4326 
Q 2253 4326 2649 3712 
Q 3046 3098 3046 2112 
z
M 2432 2080 
Q 2432 3091 2217 3625 
Q 2003 4160 1587 4160 
Q 1190 4160 979 3622 
Q 768 3085 768 2106 
Q 768 1120 979 598 
Q 1190 77 1600 77 
Q 2003 77 2217 598 
Q 2432 1120 2432 2080 
z
" transform="scale(0.015625)"/>
        <path id="STIXGeneral-Regular-35" d="M 2803 4358 
L 2573 3814 
Q 2534 3731 2400 3731 
L 1158 3731 
L 902 3187 
Q 1606 3053 1920 2896 
Q 2234 2739 2502 2368 
Q 2726 2061 2726 1555 
Q 2726 1094 2576 780 
Q 2426 467 2099 224 
Q 1664 -90 1011 -90 
Q 646 -90 422 19 
Q 198 128 198 307 
Q 198 550 486 550 
Q 717 550 960 352 
Q 1210 147 1414 147 
Q 1747 147 2012 480 
Q 2278 813 2278 1229 
Q 2278 1843 1850 2189 
Q 1293 2637 486 2637 
Q 410 2637 410 2688 
L 416 2720 
L 1114 4237 
L 2438 4237 
Q 2547 4237 2608 4269 
Q 2669 4301 2746 4403 
L 2803 4358 
z
" transform="scale(0.015625)"/>
        <path id="STIXGeneral-Regular-64" d="M 3142 269 
L 2202 -64 
L 2176 -45 
L 2176 365 
Q 1869 -64 1357 -64 
Q 826 -64 499 317 
Q 173 698 173 1312 
Q 173 1990 563 2467 
Q 954 2944 1504 2944 
Q 1850 2944 2176 2669 
L 2176 3667 
Q 2176 3866 2118 3930 
Q 2061 3994 1882 3994 
Q 1792 3994 1741 3987 
L 1741 4090 
Q 2323 4243 2682 4371 
L 2714 4358 
L 2714 730 
Q 2714 506 2768 435 
Q 2822 365 2995 365 
Q 3034 365 3142 371 
L 3142 269 
z
M 2176 653 
L 2176 2125 
Q 2176 2381 1981 2573 
Q 1786 2765 1523 2765 
Q 1158 2765 940 2438 
Q 723 2112 723 1568 
Q 723 979 963 624 
Q 1203 269 1606 269 
Q 1907 269 2080 474 
Q 2176 582 2176 653 
z
" transform="scale(0.015625)"/>
        <path id="STIXGeneral-Regular-69" d="M 1152 4045 
Q 1152 3904 1056 3811 
Q 960 3718 819 3718 
Q 685 3718 592 3811 
Q 499 3904 499 4045 
Q 499 4179 595 4275 
Q 691 4371 826 4371 
Q 966 4371 1059 4275 
Q 1152 4179 1152 4045 
z
M 1619 0 
L 102 0 
L 102 96 
Q 435 115 521 211 
Q 608 307 608 666 
L 608 2118 
Q 608 2342 563 2432 
Q 518 2522 397 2522 
Q 243 2522 128 2490 
L 128 2592 
L 1120 2944 
L 1146 2918 
L 1146 672 
Q 1146 314 1226 218 
Q 1306 122 1619 96 
L 1619 0 
z
" transform="scale(0.015625)"/>
        <path id="STIXGeneral-Regular-66" d="M 134 2880 
L 659 2880 
Q 666 3264 710 3478 
Q 755 3693 883 3910 
Q 1152 4371 1786 4371 
Q 2074 4371 2262 4259 
Q 2451 4147 2451 3974 
Q 2451 3866 2374 3789 
Q 2298 3712 2182 3712 
Q 2029 3712 1894 3942 
Q 1741 4192 1555 4192 
Q 1197 4192 1197 3622 
L 1197 2880 
L 1978 2880 
L 1978 2675 
L 1197 2675 
L 1197 666 
Q 1197 307 1299 208 
Q 1402 109 1792 96 
L 1792 0 
L 128 0 
L 128 96 
Q 474 115 566 214 
Q 659 314 659 666 
L 659 2675 
L 134 2675 
L 134 2880 
z
" transform="scale(0.015625)"/>
        <path id="STIXGeneral-Regular-63" d="M 2547 998 
L 2637 941 
Q 2362 403 2112 205 
Q 1786 -64 1376 -64 
Q 845 -64 502 336 
Q 160 736 160 1357 
Q 160 2170 698 2618 
Q 1094 2944 1562 2944 
Q 1965 2944 2256 2749 
Q 2547 2554 2547 2285 
Q 2547 2176 2457 2096 
Q 2368 2016 2246 2016 
Q 2022 2016 1939 2310 
L 1901 2451 
Q 1850 2630 1773 2694 
Q 1696 2758 1523 2758 
Q 1133 2758 893 2451 
Q 653 2144 653 1645 
Q 653 1094 928 745 
Q 1203 397 1645 397 
Q 1920 397 2118 528 
Q 2317 659 2547 998 
z
" transform="scale(0.015625)"/>
        <path id="STIXGeneral-Regular-75" d="M 3072 320 
L 3072 230 
Q 2573 96 2195 -58 
L 2163 -38 
L 2163 486 
L 2150 486 
Q 1747 -64 1235 -64 
Q 870 -64 662 160 
Q 454 384 454 755 
L 454 2362 
Q 454 2598 371 2688 
Q 288 2778 58 2790 
L 58 2880 
L 992 2880 
L 992 813 
Q 992 595 1123 451 
Q 1254 307 1446 307 
Q 1760 307 1984 506 
Q 2067 582 2099 649 
Q 2131 717 2131 877 
L 2131 2355 
Q 2131 2605 2041 2678 
Q 1952 2752 1658 2771 
L 1658 2880 
L 2669 2880 
L 2669 685 
Q 2669 461 2742 390 
Q 2816 320 3034 320 
L 3072 320 
z
" transform="scale(0.015625)"/>
        <path id="STIXGeneral-Regular-6c" d="M 1645 0 
L 134 0 
L 134 96 
Q 435 122 531 221 
Q 627 320 627 589 
L 627 3590 
Q 627 3821 569 3910 
Q 512 4000 358 4000 
Q 224 4000 122 3987 
L 122 4090 
Q 730 4237 1133 4371 
L 1165 4346 
L 1165 557 
Q 1165 288 1254 201 
Q 1344 115 1645 96 
L 1645 0 
z
" transform="scale(0.015625)"/>
        <path id="STIXGeneral-Regular-74" d="M 1702 493 
L 1786 422 
Q 1478 -64 1011 -64 
Q 448 -64 448 749 
L 448 2675 
L 109 2675 
Q 83 2694 83 2720 
Q 83 2771 192 2842 
Q 435 2982 813 3526 
Q 826 3546 874 3606 
Q 922 3667 941 3706 
Q 986 3706 986 3622 
L 986 2880 
L 1632 2880 
L 1632 2675 
L 986 2675 
L 986 845 
Q 986 538 1062 403 
Q 1139 269 1318 269 
Q 1510 269 1702 493 
z
" transform="scale(0.015625)"/>
       </defs>
       <use xlink:href="#STIXGeneral-Regular-4d"/>
       <use xlink:href="#STIXGeneral-Regular-48" x="88.899994"/>
       <use xlink:href="#STIXGeneral-Regular-5f" x="161.099976"/>
       <use xlink:href="#STIXGeneral-Regular-30" x="211.09996"/>
       <use xlink:href="#STIXGeneral-Regular-35" x="261.099945"/>
       <use xlink:href="#STIXGeneral-Regular-5f" x="311.09993"/>
       <use xlink:href="#STIXGeneral-Regular-64" x="361.099915"/>
       <use xlink:href="#STIXGeneral-Regular-69" x="411.099899"/>
       <use xlink:href="#STIXGeneral-Regular-66" x="438.899887"/>
       <use xlink:href="#STIXGeneral-Regular-66" x="472.199875"/>
       <use xlink:href="#STIXGeneral-Regular-69" x="505.499863"/>
       <use xlink:href="#STIXGeneral-Regular-63" x="533.29985"/>
       <use xlink:href="#STIXGeneral-Regular-75" x="577.699844"/>
       <use xlink:href="#STIXGeneral-Regular-6c" x="627.699829"/>
       <use xlink:href="#STIXGeneral-Regular-74" x="655.499817"/>
      </g>
     </g>
    </g>
    <g id="xtick_2">
     <g id="line2d_2">
      <g>
       <use xlink:href="#m3b28faa531" x="106.298182" y="307.584" style="stroke: #000000; stroke-width: 0.8"/>
      </g>
     </g>
     <g id="text_2">
      <!-- V1_01_easy -->
      <g transform="translate(81.302088 321.404312) scale(0.1 -0.1)">
       <defs>
        <path id="STIXGeneral-Regular-56" d="M 4461 4237 
L 4461 4115 
Q 4262 4109 4134 3990 
Q 4006 3872 3872 3533 
L 2451 -70 
L 2355 -70 
L 794 3411 
Q 589 3866 467 3987 
Q 346 4109 102 4115 
L 102 4237 
L 1798 4237 
L 1798 4115 
L 1619 4102 
Q 1331 4083 1331 3904 
Q 1331 3776 1581 3219 
L 2554 1030 
L 3494 3392 
Q 3616 3699 3616 3853 
Q 3616 3898 3606 3933 
Q 3597 3968 3584 3993 
Q 3571 4019 3536 4038 
Q 3501 4058 3481 4067 
Q 3462 4077 3411 4086 
Q 3360 4096 3337 4099 
Q 3315 4102 3248 4108 
Q 3181 4115 3155 4115 
L 3155 4237 
L 4461 4237 
z
" transform="scale(0.015625)"/>
        <path id="STIXGeneral-Regular-31" d="M 2522 0 
L 755 0 
L 755 96 
Q 1107 115 1235 227 
Q 1363 339 1363 608 
L 1363 3482 
Q 1363 3795 1171 3795 
Q 1082 3795 883 3718 
L 710 3654 
L 710 3744 
L 1856 4326 
L 1914 4307 
L 1914 486 
Q 1914 275 2042 185 
Q 2170 96 2522 96 
L 2522 0 
z
" transform="scale(0.015625)"/>
        <path id="STIXGeneral-Regular-65" d="M 2611 1050 
L 2714 1005 
Q 2330 -64 1376 -64 
Q 813 -64 486 329 
Q 160 723 160 1389 
Q 160 2074 525 2509 
Q 890 2944 1485 2944 
Q 2061 2944 2374 2502 
Q 2560 2246 2592 1773 
L 621 1773 
Q 646 1370 700 1158 
Q 755 947 915 730 
Q 1184 378 1626 378 
Q 1939 378 2153 531 
Q 2368 685 2611 1050 
z
M 634 1978 
L 1939 1978 
Q 1882 2381 1750 2547 
Q 1619 2714 1312 2714 
Q 1043 2714 864 2525 
Q 685 2336 634 1978 
z
" transform="scale(0.015625)"/>
        <path id="STIXGeneral-Regular-61" d="M 2829 422 
L 2829 243 
Q 2586 -64 2253 -64 
Q 1888 -64 1843 403 
L 1837 403 
Q 1427 -64 909 -64 
Q 608 -64 422 112 
Q 237 288 237 602 
Q 237 1050 685 1350 
Q 992 1555 1837 1869 
L 1837 2214 
Q 1837 2502 1699 2646 
Q 1562 2790 1338 2790 
Q 1146 2790 1018 2697 
Q 890 2605 890 2477 
Q 890 2419 909 2348 
Q 928 2278 928 2208 
Q 928 2112 841 2029 
Q 755 1946 634 1946 
Q 525 1946 441 2029 
Q 358 2112 358 2240 
Q 358 2547 685 2752 
Q 986 2944 1421 2944 
Q 1939 2944 2176 2656 
Q 2291 2522 2323 2384 
Q 2355 2246 2355 1946 
L 2355 723 
Q 2355 301 2554 301 
Q 2682 301 2829 422 
z
M 1837 813 
L 1837 1715 
Q 1248 1510 1018 1293 
Q 800 1094 800 800 
Q 800 557 921 432 
Q 1043 307 1242 307 
Q 1453 307 1613 410 
Q 1747 506 1792 589 
Q 1837 672 1837 813 
z
" transform="scale(0.015625)"/>
        <path id="STIXGeneral-Regular-73" d="M 998 1926 
L 1664 1523 
Q 1984 1331 2105 1164 
Q 2227 998 2227 736 
Q 2227 416 1961 176 
Q 1696 -64 1331 -64 
Q 1030 -64 864 -6 
Q 691 51 570 51 
Q 461 51 416 -26 
L 333 -26 
L 333 979 
L 435 979 
Q 538 512 730 294 
Q 922 77 1248 77 
Q 1485 77 1632 211 
Q 1779 346 1779 550 
Q 1779 845 1440 1030 
L 1094 1222 
Q 326 1651 326 2150 
Q 326 2522 566 2730 
Q 806 2938 1210 2938 
Q 1491 2938 1638 2867 
Q 1754 2816 1818 2816 
Q 1862 2816 1920 2880 
L 1990 2880 
L 2022 2010 
L 1926 2010 
Q 1818 2445 1654 2621 
Q 1491 2797 1203 2797 
Q 986 2797 854 2688 
Q 723 2579 723 2362 
Q 723 2253 796 2128 
Q 870 2003 998 1926 
z
" transform="scale(0.015625)"/>
        <path id="STIXGeneral-Regular-79" d="M 3040 2880 
L 3040 2784 
Q 2925 2771 2854 2700 
Q 2784 2630 2720 2458 
L 1760 -160 
Q 1510 -838 1257 -1116 
Q 1005 -1395 640 -1395 
Q 435 -1395 313 -1289 
Q 192 -1184 192 -1024 
Q 192 -902 272 -816 
Q 352 -730 467 -730 
Q 653 -730 800 -813 
Q 883 -858 966 -858 
Q 1101 -858 1286 -576 
Q 1376 -448 1459 -211 
Q 1542 26 1542 115 
Q 1542 198 1274 762 
L 429 2566 
Q 346 2752 90 2790 
L 90 2880 
L 1402 2880 
L 1402 2784 
Q 1197 2778 1117 2739 
Q 1037 2701 1037 2611 
Q 1037 2541 1120 2349 
L 1837 749 
L 2458 2515 
Q 2483 2573 2483 2630 
Q 2483 2784 2189 2784 
L 2189 2880 
L 3040 2880 
z
" transform="scale(0.015625)"/>
       </defs>
       <use xlink:href="#STIXGeneral-Regular-56"/>
       <use xlink:href="#STIXGeneral-Regular-31" x="72.199982"/>
       <use xlink:href="#STIXGeneral-Regular-5f" x="122.199966"/>
       <use xlink:href="#STIXGeneral-Regular-30" x="172.199951"/>
       <use xlink:href="#STIXGeneral-Regular-31" x="222.199936"/>
       <use xlink:href="#STIXGeneral-Regular-5f" x="272.199921"/>
       <use xlink:href="#STIXGeneral-Regular-65" x="322.199905"/>
       <use xlink:href="#STIXGeneral-Regular-61" x="366.599899"/>
       <use xlink:href="#STIXGeneral-Regular-73" x="410.999893"/>
       <use xlink:href="#STIXGeneral-Regular-79" x="449.899887"/>
      </g>
     </g>
    </g>
    <g id="xtick_3">
     <g id="line2d_3">
      <g>
       <use xlink:href="#m3b28faa531" x="138.763636" y="307.584" style="stroke: #000000; stroke-width: 0.8"/>
      </g>
     </g>
     <g id="text_3">
      <!-- V2_01_easy -->
      <g transform="translate(113.767543 321.404312) scale(0.1 -0.1)">
       <defs>
        <path id="STIXGeneral-Regular-32" d="M 3034 877 
L 2688 0 
L 186 0 
L 186 77 
L 1325 1286 
Q 1773 1754 1965 2144 
Q 2157 2534 2157 2950 
Q 2157 3379 1920 3616 
Q 1683 3853 1267 3853 
Q 922 3853 720 3673 
Q 518 3494 326 3021 
L 192 3053 
Q 301 3648 630 3987 
Q 960 4326 1523 4326 
Q 2054 4326 2380 4006 
Q 2707 3686 2707 3200 
Q 2707 2477 1888 1613 
L 832 486 
L 2330 486 
Q 2541 486 2665 569 
Q 2790 653 2944 915 
L 3034 877 
z
" transform="scale(0.015625)"/>
       </defs>
       <use xlink:href="#STIXGeneral-Regular-56"/>
       <use xlink:href="#STIXGeneral-Regular-32" x="72.199982"/>
       <use xlink:href="#STIXGeneral-Regular-5f" x="122.199966"/>
       <use xlink:href="#STIXGeneral-Regular-30" x="172.199951"/>
       <use xlink:href="#STIXGeneral-Regular-31" x="222.199936"/>
       <use xlink:href="#STIXGeneral-Regular-5f" x="272.199921"/>
       <use xlink:href="#STIXGeneral-Regular-65" x="322.199905"/>
       <use xlink:href="#STIXGeneral-Regular-61" x="366.599899"/>
       <use xlink:href="#STIXGeneral-Regular-73" x="410.999893"/>
       <use xlink:href="#STIXGeneral-Regular-79" x="449.899887"/>
      </g>
     </g>
    </g>
    <g id="xtick_4">
     <g id="line2d_4">
      <g>
       <use xlink:href="#m3b28faa531" x="171.229091" y="307.584" style="stroke: #000000; stroke-width: 0.8"/>
      </g>
     </g>
     <g id="text_4">
      <!-- V2_02_medium -->
      <g transform="translate(138.729091 321.413687) scale(0.1 -0.1)">
       <defs>
        <path id="STIXGeneral-Regular-6d" d="M 4960 0 
L 3565 0 
L 3565 96 
Q 3834 122 3907 208 
Q 3981 294 3981 576 
L 3981 1894 
Q 3981 2278 3869 2444 
Q 3757 2611 3488 2611 
Q 3264 2611 3107 2521 
Q 2950 2432 2803 2221 
L 2803 608 
Q 2803 301 2896 201 
Q 2989 102 3264 96 
L 3264 0 
L 1830 0 
L 1830 96 
Q 2112 115 2189 188 
Q 2266 262 2266 550 
L 2266 1901 
Q 2266 2611 1850 2611 
Q 1670 2611 1468 2531 
Q 1267 2451 1171 2336 
Q 1088 2240 1088 2227 
L 1088 448 
Q 1088 243 1177 176 
Q 1267 109 1523 96 
L 1523 0 
L 102 0 
L 102 96 
Q 371 102 460 195 
Q 550 288 550 563 
L 550 2150 
Q 550 2387 499 2480 
Q 448 2573 326 2573 
Q 230 2573 122 2547 
L 122 2656 
Q 557 2778 1011 2944 
L 1062 2925 
L 1062 2451 
L 1075 2451 
Q 1363 2752 1584 2848 
Q 1805 2944 2054 2944 
Q 2560 2944 2733 2406 
Q 3232 2944 3776 2944 
Q 4518 2944 4518 1792 
L 4518 493 
Q 4518 282 4582 202 
Q 4646 122 4794 109 
L 4960 96 
L 4960 0 
z
" transform="scale(0.015625)"/>
       </defs>
       <use xlink:href="#STIXGeneral-Regular-56"/>
       <use xlink:href="#STIXGeneral-Regular-32" x="72.199982"/>
       <use xlink:href="#STIXGeneral-Regular-5f" x="122.199966"/>
       <use xlink:href="#STIXGeneral-Regular-30" x="172.199951"/>
       <use xlink:href="#STIXGeneral-Regular-32" x="222.199936"/>
       <use xlink:href="#STIXGeneral-Regular-5f" x="272.199921"/>
       <use xlink:href="#STIXGeneral-Regular-6d" x="322.199905"/>
       <use xlink:href="#STIXGeneral-Regular-65" x="399.999893"/>
       <use xlink:href="#STIXGeneral-Regular-64" x="444.399887"/>
       <use xlink:href="#STIXGeneral-Regular-69" x="494.399872"/>
       <use xlink:href="#STIXGeneral-Regular-75" x="522.19986"/>
       <use xlink:href="#STIXGeneral-Regular-6d" x="572.199844"/>
      </g>
     </g>
    </g>
    <g id="xtick_5">
     <g id="line2d_5">
      <g>
       <use xlink:href="#m3b28faa531" x="203.694545" y="307.584" style="stroke: #000000; stroke-width: 0.8"/>
      </g>
     </g>
     <g id="text_5">
      <!-- MH_04_difficult -->
      <g transform="translate(169.529702 321.413687) scale(0.1 -0.1)">
       <defs>
        <path id="STIXGeneral-Regular-34" d="M 3027 1069 
L 2368 1069 
L 2368 0 
L 1869 0 
L 1869 1069 
L 77 1069 
L 77 1478 
L 2086 4326 
L 2368 4326 
L 2368 1478 
L 3027 1478 
L 3027 1069 
z
M 1869 1478 
L 1869 3674 
L 333 1478 
L 1869 1478 
z
" transform="scale(0.015625)"/>
       </defs>
       <use xlink:href="#STIXGeneral-Regular-4d"/>
       <use xlink:href="#STIXGeneral-Regular-48" x="88.899994"/>
       <use xlink:href="#STIXGeneral-Regular-5f" x="161.099976"/>
       <use xlink:href="#STIXGeneral-Regular-30" x="211.09996"/>
       <use xlink:href="#STIXGeneral-Regular-34" x="261.099945"/>
       <use xlink:href="#STIXGeneral-Regular-5f" x="311.09993"/>
       <use xlink:href="#STIXGeneral-Regular-64" x="361.099915"/>
       <use xlink:href="#STIXGeneral-Regular-69" x="411.099899"/>
       <use xlink:href="#STIXGeneral-Regular-66" x="438.899887"/>
       <use xlink:href="#STIXGeneral-Regular-66" x="472.199875"/>
       <use xlink:href="#STIXGeneral-Regular-69" x="505.499863"/>
       <use xlink:href="#STIXGeneral-Regular-63" x="533.29985"/>
       <use xlink:href="#STIXGeneral-Regular-75" x="577.699844"/>
       <use xlink:href="#STIXGeneral-Regular-6c" x="627.699829"/>
       <use xlink:href="#STIXGeneral-Regular-74" x="655.499817"/>
      </g>
     </g>
    </g>
    <g id="xtick_6">
     <g id="line2d_6">
      <g>
       <use xlink:href="#m3b28faa531" x="236.16" y="307.584" style="stroke: #000000; stroke-width: 0.8"/>
      </g>
     </g>
     <g id="text_6">
      <!-- MH_01_easy -->
      <g transform="translate(209.218594 321.404312) scale(0.1 -0.1)">
       <use xlink:href="#STIXGeneral-Regular-4d"/>
       <use xlink:href="#STIXGeneral-Regular-48" x="88.899994"/>
       <use xlink:href="#STIXGeneral-Regular-5f" x="161.099976"/>
       <use xlink:href="#STIXGeneral-Regular-30" x="211.09996"/>
       <use xlink:href="#STIXGeneral-Regular-31" x="261.099945"/>
       <use xlink:href="#STIXGeneral-Regular-5f" x="311.09993"/>
       <use xlink:href="#STIXGeneral-Regular-65" x="361.099915"/>
       <use xlink:href="#STIXGeneral-Regular-61" x="405.499908"/>
       <use xlink:href="#STIXGeneral-Regular-73" x="449.899902"/>
       <use xlink:href="#STIXGeneral-Regular-79" x="488.799896"/>
      </g>
     </g>
    </g>
    <g id="xtick_7">
     <g id="line2d_7">
      <g>
       <use xlink:href="#m3b28faa531" x="268.625455" y="307.584" style="stroke: #000000; stroke-width: 0.8"/>
      </g>
     </g>
     <g id="text_7">
      <!-- MH_02_easy -->
      <g transform="translate(241.684048 321.404312) scale(0.1 -0.1)">
       <use xlink:href="#STIXGeneral-Regular-4d"/>
       <use xlink:href="#STIXGeneral-Regular-48" x="88.899994"/>
       <use xlink:href="#STIXGeneral-Regular-5f" x="161.099976"/>
       <use xlink:href="#STIXGeneral-Regular-30" x="211.09996"/>
       <use xlink:href="#STIXGeneral-Regular-32" x="261.099945"/>
       <use xlink:href="#STIXGeneral-Regular-5f" x="311.09993"/>
       <use xlink:href="#STIXGeneral-Regular-65" x="361.099915"/>
       <use xlink:href="#STIXGeneral-Regular-61" x="405.499908"/>
       <use xlink:href="#STIXGeneral-Regular-73" x="449.899902"/>
       <use xlink:href="#STIXGeneral-Regular-79" x="488.799896"/>
      </g>
     </g>
    </g>
    <g id="xtick_8">
     <g id="line2d_8">
      <g>
       <use xlink:href="#m3b28faa531" x="301.090909" y="307.584" style="stroke: #000000; stroke-width: 0.8"/>
      </g>
     </g>
     <g id="text_8">
      <!-- V1_03_difficult -->
      <g transform="translate(268.871378 321.413687) scale(0.1 -0.1)">
       <defs>
        <path id="STIXGeneral-Regular-33" d="M 390 3264 
L 288 3290 
Q 435 3770 748 4048 
Q 1062 4326 1542 4326 
Q 1990 4326 2265 4083 
Q 2541 3840 2541 3450 
Q 2541 2925 1946 2566 
Q 2298 2413 2477 2227 
Q 2758 1914 2758 1402 
Q 2758 890 2464 506 
Q 2246 211 1840 60 
Q 1434 -90 979 -90 
Q 262 -90 262 275 
Q 262 378 339 442 
Q 416 506 525 506 
Q 685 506 915 339 
Q 1197 141 1466 141 
Q 1818 141 2058 425 
Q 2298 710 2298 1120 
Q 2298 1856 1632 2048 
Q 1434 2112 979 2112 
L 979 2202 
Q 1338 2323 1517 2432 
Q 2035 2726 2035 3290 
Q 2035 3610 1852 3776 
Q 1670 3942 1344 3942 
Q 768 3942 390 3264 
z
" transform="scale(0.015625)"/>
       </defs>
       <use xlink:href="#STIXGeneral-Regular-56"/>
       <use xlink:href="#STIXGeneral-Regular-31" x="72.199982"/>
       <use xlink:href="#STIXGeneral-Regular-5f" x="122.199966"/>
       <use xlink:href="#STIXGeneral-Regular-30" x="172.199951"/>
       <use xlink:href="#STIXGeneral-Regular-33" x="222.199936"/>
       <use xlink:href="#STIXGeneral-Regular-5f" x="272.199921"/>
       <use xlink:href="#STIXGeneral-Regular-64" x="322.199905"/>
       <use xlink:href="#STIXGeneral-Regular-69" x="372.19989"/>
       <use xlink:href="#STIXGeneral-Regular-66" x="399.999878"/>
       <use xlink:href="#STIXGeneral-Regular-66" x="433.299866"/>
       <use xlink:href="#STIXGeneral-Regular-69" x="466.599854"/>
       <use xlink:href="#STIXGeneral-Regular-63" x="494.399841"/>
       <use xlink:href="#STIXGeneral-Regular-75" x="538.799835"/>
       <use xlink:href="#STIXGeneral-Regular-6c" x="588.79982"/>
       <use xlink:href="#STIXGeneral-Regular-74" x="616.599808"/>
      </g>
     </g>
    </g>
    <g id="xtick_9">
     <g id="line2d_9">
      <g>
       <use xlink:href="#m3b28faa531" x="333.556364" y="307.584" style="stroke: #000000; stroke-width: 0.8"/>
      </g>
     </g>
     <g id="text_9">
      <!-- MH_03_medium -->
      <g transform="translate(299.111051 321.413687) scale(0.1 -0.1)">
       <use xlink:href="#STIXGeneral-Regular-4d"/>
       <use xlink:href="#STIXGeneral-Regular-48" x="88.899994"/>
       <use xlink:href="#STIXGeneral-Regular-5f" x="161.099976"/>
       <use xlink:href="#STIXGeneral-Regular-30" x="211.09996"/>
       <use xlink:href="#STIXGeneral-Regular-33" x="261.099945"/>
       <use xlink:href="#STIXGeneral-Regular-5f" x="311.09993"/>
       <use xlink:href="#STIXGeneral-Regular-6d" x="361.099915"/>
       <use xlink:href="#STIXGeneral-Regular-65" x="438.899902"/>
       <use xlink:href="#STIXGeneral-Regular-64" x="483.299896"/>
       <use xlink:href="#STIXGeneral-Regular-69" x="533.299881"/>
       <use xlink:href="#STIXGeneral-Regular-75" x="561.099869"/>
       <use xlink:href="#STIXGeneral-Regular-6d" x="611.099854"/>
      </g>
     </g>
    </g>
    <g id="xtick_10">
     <g id="line2d_10">
      <g>
       <use xlink:href="#m3b28faa531" x="366.021818" y="307.584" style="stroke: #000000; stroke-width: 0.8"/>
      </g>
     </g>
     <g id="text_10">
      <!-- V2_03_difficult -->
      <g transform="translate(333.802287 321.413687) scale(0.1 -0.1)">
       <use xlink:href="#STIXGeneral-Regular-56"/>
       <use xlink:href="#STIXGeneral-Regular-32" x="72.199982"/>
       <use xlink:href="#STIXGeneral-Regular-5f" x="122.199966"/>
       <use xlink:href="#STIXGeneral-Regular-30" x="172.199951"/>
       <use xlink:href="#STIXGeneral-Regular-33" x="222.199936"/>
       <use xlink:href="#STIXGeneral-Regular-5f" x="272.199921"/>
       <use xlink:href="#STIXGeneral-Regular-64" x="322.199905"/>
       <use xlink:href="#STIXGeneral-Regular-69" x="372.19989"/>
       <use xlink:href="#STIXGeneral-Regular-66" x="399.999878"/>
       <use xlink:href="#STIXGeneral-Regular-66" x="433.299866"/>
       <use xlink:href="#STIXGeneral-Regular-69" x="466.599854"/>
       <use xlink:href="#STIXGeneral-Regular-63" x="494.399841"/>
       <use xlink:href="#STIXGeneral-Regular-75" x="538.799835"/>
       <use xlink:href="#STIXGeneral-Regular-6c" x="588.79982"/>
       <use xlink:href="#STIXGeneral-Regular-74" x="616.599808"/>
      </g>
     </g>
    </g>
    <g id="xtick_11">
     <g id="line2d_11">
      <g>
       <use xlink:href="#m3b28faa531" x="398.487273" y="307.584" style="stroke: #000000; stroke-width: 0.8"/>
      </g>
     </g>
     <g id="text_11">
      <!-- V1_02_medium -->
      <g transform="translate(365.987273 321.413687) scale(0.1 -0.1)">
       <use xlink:href="#STIXGeneral-Regular-56"/>
       <use xlink:href="#STIXGeneral-Regular-31" x="72.199982"/>
       <use xlink:href="#STIXGeneral-Regular-5f" x="122.199966"/>
       <use xlink:href="#STIXGeneral-Regular-30" x="172.199951"/>
       <use xlink:href="#STIXGeneral-Regular-32" x="222.199936"/>
       <use xlink:href="#STIXGeneral-Regular-5f" x="272.199921"/>
       <use xlink:href="#STIXGeneral-Regular-6d" x="322.199905"/>
       <use xlink:href="#STIXGeneral-Regular-65" x="399.999893"/>
       <use xlink:href="#STIXGeneral-Regular-64" x="444.399887"/>
       <use xlink:href="#STIXGeneral-Regular-69" x="494.399872"/>
       <use xlink:href="#STIXGeneral-Regular-75" x="522.19986"/>
       <use xlink:href="#STIXGeneral-Regular-6d" x="572.199844"/>
      </g>
     </g>
    </g>
    <g id="text_12">
     <!-- sequence -->
     <g transform="translate(217.833438 334.413687) scale(0.1 -0.1)">
      <defs>
       <path id="STIXGeneral-Regular-71" d="M 3123 -1389 
L 1613 -1389 
L 1613 -1280 
Q 1952 -1254 2067 -1158 
Q 2182 -1062 2182 -794 
L 2182 410 
Q 1747 -64 1178 -64 
Q 730 -64 442 320 
Q 154 704 154 1312 
Q 154 2003 560 2473 
Q 966 2944 1562 2944 
Q 1920 2944 2304 2720 
L 2650 2925 
L 2720 2925 
L 2720 -902 
Q 2720 -1107 2797 -1180 
Q 2874 -1254 3123 -1280 
L 3123 -1389 
z
M 2182 813 
L 2182 2131 
Q 2182 2758 1587 2758 
Q 1178 2758 941 2432 
Q 704 2106 704 1542 
Q 704 1210 803 925 
Q 902 640 1062 499 
Q 1254 326 1542 326 
Q 1882 326 2106 531 
Q 2182 602 2182 813 
z
" transform="scale(0.015625)"/>
       <path id="STIXGeneral-Regular-6e" d="M 3104 0 
L 1773 0 
L 1779 96 
Q 2016 115 2096 233 
Q 2176 352 2176 672 
L 2176 1946 
Q 2176 2592 1709 2592 
Q 1549 2592 1408 2515 
Q 1267 2438 1050 2227 
L 1050 461 
Q 1050 269 1136 192 
Q 1222 115 1466 96 
L 1466 0 
L 115 0 
L 115 96 
Q 358 115 435 214 
Q 512 314 512 602 
L 512 2157 
Q 512 2394 467 2483 
Q 422 2573 288 2573 
Q 160 2573 102 2547 
L 102 2656 
Q 550 2784 979 2944 
L 1030 2925 
L 1030 2426 
L 1037 2426 
Q 1491 2944 1958 2944 
Q 2323 2944 2518 2688 
Q 2714 2432 2714 1958 
L 2714 544 
Q 2714 288 2790 205 
Q 2867 122 3104 96 
L 3104 0 
z
" transform="scale(0.015625)"/>
      </defs>
      <use xlink:href="#STIXGeneral-Regular-73"/>
      <use xlink:href="#STIXGeneral-Regular-65" x="38.899994"/>
      <use xlink:href="#STIXGeneral-Regular-71" x="83.299988"/>
      <use xlink:href="#STIXGeneral-Regular-75" x="133.299973"/>
      <use xlink:href="#STIXGeneral-Regular-65" x="183.299957"/>
      <use xlink:href="#STIXGeneral-Regular-6e" x="227.699951"/>
      <use xlink:href="#STIXGeneral-Regular-63" x="277.699936"/>
      <use xlink:href="#STIXGeneral-Regular-65" x="322.09993"/>
     </g>
    </g>
   </g>
   <g id="matplotlib.axis_2">
    <g id="ytick_1">
     <g id="line2d_12">
      <defs>
       <path id="ma3f5751f4d" d="M 0 0 
L -3.5 0 
" style="stroke: #000000; stroke-width: 0.8"/>
      </defs>
      <g>
       <use xlink:href="#ma3f5751f4d" x="57.6" y="280.735328" style="stroke: #000000; stroke-width: 0.8"/>
      </g>
     </g>
     <g id="text_13">
      <!-- 0.0 -->
      <g transform="translate(38.1 284.150172) scale(0.1 -0.1)">
       <defs>
        <path id="STIXGeneral-Regular-2e" d="M 1158 275 
Q 1158 134 1052 32 
Q 947 -70 800 -70 
Q 653 -70 550 32 
Q 448 134 448 281 
Q 448 429 553 534 
Q 659 640 806 640 
Q 947 640 1052 531 
Q 1158 422 1158 275 
z
" transform="scale(0.015625)"/>
       </defs>
       <use xlink:href="#STIXGeneral-Regular-30"/>
       <use xlink:href="#STIXGeneral-Regular-2e" x="49.999985"/>
       <use xlink:href="#STIXGeneral-Regular-30" x="74.999969"/>
      </g>
     </g>
    </g>
    <g id="ytick_2">
     <g id="line2d_13">
      <g>
       <use xlink:href="#ma3f5751f4d" x="57.6" y="234.205651" style="stroke: #000000; stroke-width: 0.8"/>
      </g>
     </g>
     <g id="text_14">
      <!-- 0.1 -->
      <g transform="translate(38.1 237.620495) scale(0.1 -0.1)">
       <use xlink:href="#STIXGeneral-Regular-30"/>
       <use xlink:href="#STIXGeneral-Regular-2e" x="49.999985"/>
       <use xlink:href="#STIXGeneral-Regular-31" x="74.999969"/>
      </g>
     </g>
    </g>
    <g id="ytick_3">
     <g id="line2d_14">
      <g>
       <use xlink:href="#ma3f5751f4d" x="57.6" y="187.675975" style="stroke: #000000; stroke-width: 0.8"/>
      </g>
     </g>
     <g id="text_15">
      <!-- 0.2 -->
      <g transform="translate(38.1 191.090818) scale(0.1 -0.1)">
       <use xlink:href="#STIXGeneral-Regular-30"/>
       <use xlink:href="#STIXGeneral-Regular-2e" x="49.999985"/>
       <use xlink:href="#STIXGeneral-Regular-32" x="74.999969"/>
      </g>
     </g>
    </g>
    <g id="ytick_4">
     <g id="line2d_15">
      <g>
       <use xlink:href="#ma3f5751f4d" x="57.6" y="141.146298" style="stroke: #000000; stroke-width: 0.8"/>
      </g>
     </g>
     <g id="text_16">
      <!-- 0.3 -->
      <g transform="translate(38.1 144.561142) scale(0.1 -0.1)">
       <use xlink:href="#STIXGeneral-Regular-30"/>
       <use xlink:href="#STIXGeneral-Regular-2e" x="49.999985"/>
       <use xlink:href="#STIXGeneral-Regular-33" x="74.999969"/>
      </g>
     </g>
    </g>
    <g id="ytick_5">
     <g id="line2d_16">
      <g>
       <use xlink:href="#ma3f5751f4d" x="57.6" y="94.616622" style="stroke: #000000; stroke-width: 0.8"/>
      </g>
     </g>
     <g id="text_17">
      <!-- 0.4 -->
      <g transform="translate(38.1 98.031465) scale(0.1 -0.1)">
       <use xlink:href="#STIXGeneral-Regular-30"/>
       <use xlink:href="#STIXGeneral-Regular-2e" x="49.999985"/>
       <use xlink:href="#STIXGeneral-Regular-34" x="74.999969"/>
      </g>
     </g>
    </g>
    <g id="ytick_6">
     <g id="line2d_17">
      <g>
       <use xlink:href="#ma3f5751f4d" x="57.6" y="48.086945" style="stroke: #000000; stroke-width: 0.8"/>
      </g>
     </g>
     <g id="text_18">
      <!-- 0.5 -->
      <g transform="translate(38.1 51.501789) scale(0.1 -0.1)">
       <use xlink:href="#STIXGeneral-Regular-30"/>
       <use xlink:href="#STIXGeneral-Regular-2e" x="49.999985"/>
       <use xlink:href="#STIXGeneral-Regular-35" x="74.999969"/>
      </g>
     </g>
    </g>
    <g id="text_19">
     <!-- value -->
     <g transform="translate(31.929688 185.358469) rotate(-90) scale(0.1 -0.1)">
      <defs>
       <path id="STIXGeneral-Regular-76" d="M 3053 2880 
L 3053 2784 
Q 2906 2771 2835 2688 
Q 2765 2605 2637 2285 
L 1818 230 
Q 1690 -90 1638 -90 
Q 1587 -90 1523 77 
Q 1510 96 1497 141 
Q 1485 186 1472 211 
L 704 2048 
Q 499 2534 403 2652 
Q 307 2771 122 2784 
L 122 2880 
L 1376 2880 
L 1376 2784 
Q 1210 2771 1146 2732 
Q 1082 2694 1082 2611 
Q 1082 2509 1139 2368 
L 1792 730 
L 2426 2387 
Q 2464 2483 2464 2579 
Q 2464 2758 2163 2784 
L 2163 2880 
L 3053 2880 
z
" transform="scale(0.015625)"/>
      </defs>
      <use xlink:href="#STIXGeneral-Regular-76"/>
      <use xlink:href="#STIXGeneral-Regular-61" x="49.999985"/>
      <use xlink:href="#STIXGeneral-Regular-6c" x="94.399979"/>
      <use xlink:href="#STIXGeneral-Regular-75" x="122.199966"/>
      <use xlink:href="#STIXGeneral-Regular-65" x="172.199951"/>
     </g>
    </g>
   </g>
   <g id="line2d_18">
    <path d="M 73.832727 278.420243 
L 73.832727 140.492896 
" clip-path="url(#p819f3ce5ad)" style="fill: none; stroke: #474747; stroke-width: 1.5; stroke-linecap: square"/>
   </g>
   <g id="line2d_19">
    <path d="M 73.832727 240.225105 
L 73.832727 179.607115 
" clip-path="url(#p819f3ce5ad)" style="fill: none; stroke: #474747; stroke-width: 4.5; stroke-linecap: square"/>
   </g>
   <g id="line2d_20">
    <path d="M 106.298182 274.776417 
L 106.298182 179.689855 
" clip-path="url(#p819f3ce5ad)" style="fill: none; stroke: #474747; stroke-width: 1.5; stroke-linecap: square"/>
   </g>
   <g id="line2d_21">
    <path d="M 106.298182 250.907848 
L 106.298182 222.358507 
" clip-path="url(#p819f3ce5ad)" style="fill: none; stroke: #474747; stroke-width: 4.5; stroke-linecap: square"/>
   </g>
   <g id="line2d_22">
    <path d="M 138.763636 276.165 
L 138.763636 167.489054 
" clip-path="url(#p819f3ce5ad)" style="fill: none; stroke: #474747; stroke-width: 1.5; stroke-linecap: square"/>
   </g>
   <g id="line2d_23">
    <path d="M 138.763636 244.813988 
L 138.763636 213.698939 
" clip-path="url(#p819f3ce5ad)" style="fill: none; stroke: #474747; stroke-width: 4.5; stroke-linecap: square"/>
   </g>
   <g id="line2d_24">
    <path d="M 171.229091 277.276592 
L 171.229091 187.48563 
" clip-path="url(#p819f3ce5ad)" style="fill: none; stroke: #474747; stroke-width: 1.5; stroke-linecap: square"/>
   </g>
   <g id="line2d_25">
    <path d="M 171.229091 251.253591 
L 171.229091 225.477927 
" clip-path="url(#p819f3ce5ad)" style="fill: none; stroke: #474747; stroke-width: 4.5; stroke-linecap: square"/>
   </g>
   <g id="line2d_26">
    <path d="M 203.694545 267.885663 
L 203.694545 141.181786 
" clip-path="url(#p819f3ce5ad)" style="fill: none; stroke: #474747; stroke-width: 1.5; stroke-linecap: square"/>
   </g>
   <g id="line2d_27">
    <path d="M 203.694545 238.338039 
L 203.694545 184.789657 
" clip-path="url(#p819f3ce5ad)" style="fill: none; stroke: #474747; stroke-width: 4.5; stroke-linecap: square"/>
   </g>
   <g id="line2d_28">
    <path d="M 236.16 263.0869 
L 236.16 128.468722 
" clip-path="url(#p819f3ce5ad)" style="fill: none; stroke: #474747; stroke-width: 1.5; stroke-linecap: square"/>
   </g>
   <g id="line2d_29">
    <path d="M 236.16 214.506504 
L 236.16 179.853857 
" clip-path="url(#p819f3ce5ad)" style="fill: none; stroke: #474747; stroke-width: 4.5; stroke-linecap: square"/>
   </g>
   <g id="line2d_30">
    <path d="M 268.625455 268.085022 
L 268.625455 143.418282 
" clip-path="url(#p819f3ce5ad)" style="fill: none; stroke: #474747; stroke-width: 1.5; stroke-linecap: square"/>
   </g>
   <g id="line2d_31">
    <path d="M 268.625455 221.247729 
L 268.625455 190.008762 
" clip-path="url(#p819f3ce5ad)" style="fill: none; stroke: #474747; stroke-width: 4.5; stroke-linecap: square"/>
   </g>
   <g id="line2d_32">
    <path d="M 301.090909 280.298136 
L 301.090909 232.103458 
" clip-path="url(#p819f3ce5ad)" style="fill: none; stroke: #474747; stroke-width: 1.5; stroke-linecap: square"/>
   </g>
   <g id="line2d_33">
    <path d="M 301.090909 270.377097 
L 301.090909 254.681917 
" clip-path="url(#p819f3ce5ad)" style="fill: none; stroke: #474747; stroke-width: 4.5; stroke-linecap: square"/>
   </g>
   <g id="line2d_34">
    <path d="M 333.556364 275.804334 
L 333.556364 103.853973 
" clip-path="url(#p819f3ce5ad)" style="fill: none; stroke: #474747; stroke-width: 1.5; stroke-linecap: square"/>
   </g>
   <g id="line2d_35">
    <path d="M 333.556364 232.934474 
L 333.556364 181.226595 
" clip-path="url(#p819f3ce5ad)" style="fill: none; stroke: #474747; stroke-width: 4.5; stroke-linecap: square"/>
   </g>
   <g id="line2d_36">
    <path d="M 366.021818 280.735328 
L 366.021818 226.199493 
" clip-path="url(#p819f3ce5ad)" style="fill: none; stroke: #474747; stroke-width: 1.5; stroke-linecap: square"/>
   </g>
   <g id="line2d_37">
    <path d="M 366.021818 268.524474 
L 366.021818 251.381937 
" clip-path="url(#p819f3ce5ad)" style="fill: none; stroke: #474747; stroke-width: 4.5; stroke-linecap: square"/>
   </g>
   <g id="line2d_38">
    <path d="M 398.487273 279.357404 
L 398.487273 219.409131 
" clip-path="url(#p819f3ce5ad)" style="fill: none; stroke: #474747; stroke-width: 1.5; stroke-linecap: square"/>
   </g>
   <g id="line2d_39">
    <path d="M 398.487273 263.156003 
L 398.487273 245.628298 
" clip-path="url(#p819f3ce5ad)" style="fill: none; stroke: #474747; stroke-width: 4.5; stroke-linecap: square"/>
   </g>
   <g id="patch_3">
    <path d="M 57.6 307.584 
L 57.6 41.472 
" style="fill: none; stroke: #000000; stroke-width: 0.8; stroke-linejoin: miter; stroke-linecap: square"/>
   </g>
   <g id="patch_4">
    <path d="M 414.72 307.584 
L 414.72 41.472 
" style="fill: none; stroke: #000000; stroke-width: 0.8; stroke-linejoin: miter; stroke-linecap: square"/>
   </g>
   <g id="patch_5">
    <path d="M 57.6 307.584 
L 414.72 307.584 
" style="fill: none; stroke: #000000; stroke-width: 0.8; stroke-linejoin: miter; stroke-linecap: square"/>
   </g>
   <g id="patch_6">
    <path d="M 57.6 41.472 
L 414.72 41.472 
" style="fill: none; stroke: #000000; stroke-width: 0.8; stroke-linejoin: miter; stroke-linecap: square"/>
   </g>
   <g id="PathCollection_1">
    <defs>
     <path id="m71b94082bf" d="M 0 1.5 
C 0.397805 1.5 0.77937 1.341951 1.06066 1.06066 
C 1.341951 0.77937 1.5 0.397805 1.5 0 
C 1.5 -0.397805 1.341951 -0.77937 1.06066 -1.06066 
C 0.77937 -1.341951 0.397805 -1.5 0 -1.5 
C -0.397805 -1.5 -0.77937 -1.341951 -1.06066 -1.06066 
C -1.341951 -0.77937 -1.5 -0.397805 -1.5 0 
C -1.5 0.397805 -1.341951 0.77937 -1.06066 1.06066 
C -0.77937 1.341951 -0.397805 1.5 0 1.5 
z
" style="stroke: #474747"/>
    </defs>
    <g clip-path="url(#p819f3ce5ad)">
     <use xlink:href="#m71b94082bf" x="73.832727" y="217.724552" style="fill: #ffffff; stroke: #474747"/>
    </g>
   </g>
   <g id="PathCollection_2">
    <g clip-path="url(#p819f3ce5ad)">
     <use xlink:href="#m71b94082bf" x="106.298182" y="234.855884" style="fill: #ffffff; stroke: #474747"/>
    </g>
   </g>
   <g id="PathCollection_3">
    <g clip-path="url(#p819f3ce5ad)">
     <use xlink:href="#m71b94082bf" x="138.763636" y="232.635959" style="fill: #ffffff; stroke: #474747"/>
    </g>
   </g>
   <g id="PathCollection_4">
    <g clip-path="url(#p819f3ce5ad)">
     <use xlink:href="#m71b94082bf" x="171.229091" y="238.290971" style="fill: #ffffff; stroke: #474747"/>
    </g>
   </g>
   <g id="PathCollection_5">
    <g clip-path="url(#p819f3ce5ad)">
     <use xlink:href="#m71b94082bf" x="203.694545" y="217.174752" style="fill: #ffffff; stroke: #474747"/>
    </g>
   </g>
   <g id="PathCollection_6">
    <g clip-path="url(#p819f3ce5ad)">
     <use xlink:href="#m71b94082bf" x="236.16" y="205.235896" style="fill: #ffffff; stroke: #474747"/>
    </g>
   </g>
   <g id="PathCollection_7">
    <g clip-path="url(#p819f3ce5ad)">
     <use xlink:href="#m71b94082bf" x="268.625455" y="206.634822" style="fill: #ffffff; stroke: #474747"/>
    </g>
   </g>
   <g id="PathCollection_8">
    <g clip-path="url(#p819f3ce5ad)">
     <use xlink:href="#m71b94082bf" x="301.090909" y="264.967503" style="fill: #ffffff; stroke: #474747"/>
    </g>
   </g>
   <g id="PathCollection_9">
    <g clip-path="url(#p819f3ce5ad)">
     <use xlink:href="#m71b94082bf" x="333.556364" y="209.632604" style="fill: #ffffff; stroke: #474747"/>
    </g>
   </g>
   <g id="PathCollection_10">
    <g clip-path="url(#p819f3ce5ad)">
     <use xlink:href="#m71b94082bf" x="366.021818" y="259.94405" style="fill: #ffffff; stroke: #474747"/>
    </g>
   </g>
   <g id="PathCollection_11">
    <g clip-path="url(#p819f3ce5ad)">
     <use xlink:href="#m71b94082bf" x="398.487273" y="256.90348" style="fill: #ffffff; stroke: #474747"/>
    </g>
   </g>
  </g>
 </g>
 <defs>
  <clipPath id="p819f3ce5ad">
   <rect x="57.6" y="41.472" width="357.12" height="266.112"/>
  </clipPath>
 </defs>
</svg>
